<?xml version="1.0" encoding="utf-8" standalone="no"?>
<!DOCTYPE svg PUBLIC "-//W3C//DTD SVG 1.1//EN"
  "http://www.w3.org/Graphics/SVG/1.1/DTD/svg11.dtd">
<svg xmlns:xlink="http://www.w3.org/1999/xlink" width="708.477071pt" height="295.883076pt" viewBox="0 0 708.477071 295.883076" xmlns="http://www.w3.org/2000/svg" version="1.1">
 <metadata>
  <rdf:RDF xmlns:dc="http://purl.org/dc/elements/1.1/" xmlns:cc="http://creativecommons.org/ns#" xmlns:rdf="http://www.w3.org/1999/02/22-rdf-syntax-ns#">
   <cc:Work>
    <dc:type rdf:resource="http://purl.org/dc/dcmitype/StillImage"/>
    <dc:date>2026-05-01T19:18:59.268262</dc:date>
    <dc:format>image/svg+xml</dc:format>
    <dc:creator>
     <cc:Agent>
      <dc:title>Matplotlib v3.10.8, https://matplotlib.org/</dc:title>
     </cc:Agent>
    </dc:creator>
   </cc:Work>
  </rdf:RDF>
 </metadata>
 <defs>
  <style type="text/css">*{stroke-linejoin: round; stroke-linecap: butt}</style>
 </defs>
 <g id="figure_1">
  <g id="patch_1">
   <path d="M 0 295.883076 
L 708.477071 295.883076 
L 708.477071 0 
L 0 0 
z
" style="fill: #ffffff"/>
  </g>
  <g id="axes_1">
   <g id="patch_2">
    <path d="M 33.28375 237.597187 
L 330.758038 237.597187 
L 330.758038 26.877187 
L 33.28375 26.877187 
z
" style="fill: #ffffff"/>
   </g>
   <g id="patch_3">
    <path d="M 37.745864 237.597187 
L 42.802927 237.597187 
L 42.802927 235.881925 
L 37.745864 235.881925 
z
" clip-path="url(#p01c1a9017b)" style="fill: #df2020; stroke: #d3d3d3; stroke-width: 0.8; stroke-linejoin: miter"/>
   </g>
   <g id="patch_4">
    <path d="M 97.240722 237.597187 
L 102.297785 237.597187 
L 102.297785 208.437725 
L 97.240722 208.437725 
z
" clip-path="url(#p01c1a9017b)" style="fill: #df2020; stroke: #d3d3d3; stroke-width: 0.8; stroke-linejoin: miter"/>
   </g>
   <g id="patch_5">
    <path d="M 156.735579 237.597187 
L 161.792642 237.597187 
L 161.792642 232.4514 
L 156.735579 232.4514 
z
" clip-path="url(#p01c1a9017b)" style="fill: #df2020; stroke: #d3d3d3; stroke-width: 0.8; stroke-linejoin: miter"/>
   </g>
   <g id="patch_6">
    <path d="M 216.230437 237.597187 
L 221.2875 237.597187 
L 221.2875 222.159825 
L 216.230437 222.159825 
z
" clip-path="url(#p01c1a9017b)" style="fill: #df2020; stroke: #d3d3d3; stroke-width: 0.8; stroke-linejoin: miter"/>
   </g>
   <g id="patch_7">
    <path d="M 275.725294 237.597187 
L 280.782357 237.597187 
L 280.782357 201.576675 
L 275.725294 201.576675 
z
" clip-path="url(#p01c1a9017b)" style="fill: #df2020; stroke: #d3d3d3; stroke-width: 0.8; stroke-linejoin: miter"/>
   </g>
   <g id="patch_8">
    <path d="M 42.802927 237.597187 
L 47.85999 237.597187 
L 47.85999 136.396699 
L 42.802927 136.396699 
z
" clip-path="url(#p01c1a9017b)" style="fill: #7c5624; stroke: #d3d3d3; stroke-width: 0.8; stroke-linejoin: miter"/>
   </g>
   <g id="patch_9">
    <path d="M 102.297785 237.597187 
L 107.354848 237.597187 
L 107.354848 150.118799 
L 102.297785 150.118799 
z
" clip-path="url(#p01c1a9017b)" style="fill: #7c5624; stroke: #d3d3d3; stroke-width: 0.8; stroke-linejoin: miter"/>
   </g>
   <g id="patch_10">
    <path d="M 161.792642 237.597187 
L 166.849705 237.597187 
L 166.849705 201.576675 
L 161.792642 201.576675 
z
" clip-path="url(#p01c1a9017b)" style="fill: #7c5624; stroke: #d3d3d3; stroke-width: 0.8; stroke-linejoin: miter"/>
   </g>
   <g id="patch_11">
    <path d="M 221.2875 237.597187 
L 226.344563 237.597187 
L 226.344563 153.549324 
L 221.2875 153.549324 
z
" clip-path="url(#p01c1a9017b)" style="fill: #7c5624; stroke: #d3d3d3; stroke-width: 0.8; stroke-linejoin: miter"/>
   </g>
   <g id="patch_12">
    <path d="M 280.782357 237.597187 
L 285.83942 237.597187 
L 285.83942 148.403537 
L 280.782357 148.403537 
z
" clip-path="url(#p01c1a9017b)" style="fill: #7c5624; stroke: #d3d3d3; stroke-width: 0.8; stroke-linejoin: miter"/>
   </g>
   <g id="patch_13">
    <path d="M 47.85999 237.597187 
L 52.917053 237.597187 
L 52.917053 175.847737 
L 47.85999 175.847737 
z
" clip-path="url(#p01c1a9017b)" style="fill: #df9c20; stroke: #d3d3d3; stroke-width: 0.8; stroke-linejoin: miter"/>
   </g>
   <g id="patch_14">
    <path d="M 107.354848 237.597187 
L 112.411911 237.597187 
L 112.411911 198.14615 
L 107.354848 198.14615 
z
" clip-path="url(#p01c1a9017b)" style="fill: #df9c20; stroke: #d3d3d3; stroke-width: 0.8; stroke-linejoin: miter"/>
   </g>
   <g id="patch_15">
    <path d="M 166.849705 237.597187 
L 171.906768 237.597187 
L 171.906768 187.854575 
L 166.849705 187.854575 
z
" clip-path="url(#p01c1a9017b)" style="fill: #df9c20; stroke: #d3d3d3; stroke-width: 0.8; stroke-linejoin: miter"/>
   </g>
   <g id="patch_16">
    <path d="M 226.344563 237.597187 
L 231.401626 237.597187 
L 231.401626 229.020875 
L 226.344563 229.020875 
z
" clip-path="url(#p01c1a9017b)" style="fill: #df9c20; stroke: #d3d3d3; stroke-width: 0.8; stroke-linejoin: miter"/>
   </g>
   <g id="patch_17">
    <path d="M 285.83942 237.597187 
L 290.896483 237.597187 
L 290.896483 205.0072 
L 285.83942 205.0072 
z
" clip-path="url(#p01c1a9017b)" style="fill: #df9c20; stroke: #d3d3d3; stroke-width: 0.8; stroke-linejoin: miter"/>
   </g>
   <g id="patch_18">
    <path d="M 52.917053 237.597187 
L 57.974116 237.597187 
L 57.974116 143.257749 
L 52.917053 143.257749 
z
" clip-path="url(#p01c1a9017b)" style="fill: #107010; stroke: #d3d3d3; stroke-width: 0.8; stroke-linejoin: miter"/>
   </g>
   <g id="patch_19">
    <path d="M 112.411911 237.597187 
L 117.468973 237.597187 
L 117.468973 208.437725 
L 112.411911 208.437725 
z
" clip-path="url(#p01c1a9017b)" style="fill: #107010; stroke: #d3d3d3; stroke-width: 0.8; stroke-linejoin: miter"/>
   </g>
   <g id="patch_20">
    <path d="M 171.906768 237.597187 
L 176.963831 237.597187 
L 176.963831 208.437725 
L 171.906768 208.437725 
z
" clip-path="url(#p01c1a9017b)" style="fill: #107010; stroke: #d3d3d3; stroke-width: 0.8; stroke-linejoin: miter"/>
   </g>
   <g id="patch_21">
    <path d="M 231.401626 237.597187 
L 236.458688 237.597187 
L 236.458688 139.827224 
L 231.401626 139.827224 
z
" clip-path="url(#p01c1a9017b)" style="fill: #107010; stroke: #d3d3d3; stroke-width: 0.8; stroke-linejoin: miter"/>
   </g>
   <g id="patch_22">
    <path d="M 290.896483 237.597187 
L 295.953546 237.597187 
L 295.953546 223.875087 
L 290.896483 223.875087 
z
" clip-path="url(#p01c1a9017b)" style="fill: #107010; stroke: #d3d3d3; stroke-width: 0.8; stroke-linejoin: miter"/>
   </g>
   <g id="patch_23">
    <path d="M 57.974116 237.597187 
L 63.031179 237.597187 
L 63.031179 217.014037 
L 57.974116 217.014037 
z
" clip-path="url(#p01c1a9017b)" style="fill: #94c9de; stroke: #d3d3d3; stroke-width: 0.8; stroke-linejoin: miter"/>
   </g>
   <g id="patch_24">
    <path d="M 117.468973 237.597187 
L 122.526036 237.597187 
L 122.526036 217.014037 
L 117.468973 217.014037 
z
" clip-path="url(#p01c1a9017b)" style="fill: #94c9de; stroke: #d3d3d3; stroke-width: 0.8; stroke-linejoin: miter"/>
   </g>
   <g id="patch_25">
    <path d="M 176.963831 237.597187 
L 182.020894 237.597187 
L 182.020894 186.139312 
L 176.963831 186.139312 
z
" clip-path="url(#p01c1a9017b)" style="fill: #94c9de; stroke: #d3d3d3; stroke-width: 0.8; stroke-linejoin: miter"/>
   </g>
   <g id="patch_26">
    <path d="M 236.458688 237.597187 
L 241.515751 237.597187 
L 241.515751 232.4514 
L 236.458688 232.4514 
z
" clip-path="url(#p01c1a9017b)" style="fill: #94c9de; stroke: #d3d3d3; stroke-width: 0.8; stroke-linejoin: miter"/>
   </g>
   <g id="patch_27">
    <path d="M 295.953546 237.597187 
L 301.010609 237.597187 
L 301.010609 230.736137 
L 295.953546 230.736137 
z
" clip-path="url(#p01c1a9017b)" style="fill: #94c9de; stroke: #d3d3d3; stroke-width: 0.8; stroke-linejoin: miter"/>
   </g>
   <g id="patch_28">
    <path d="M 63.031179 237.597187 
L 68.088242 237.597187 
L 68.088242 134.681437 
L 63.031179 134.681437 
z
" clip-path="url(#p01c1a9017b)" style="fill: #bdbac7; stroke: #d3d3d3; stroke-width: 0.8; stroke-linejoin: miter"/>
   </g>
   <g id="patch_29">
    <path d="M 122.526036 237.597187 
L 127.583099 237.597187 
L 127.583099 144.973012 
L 122.526036 144.973012 
z
" clip-path="url(#p01c1a9017b)" style="fill: #bdbac7; stroke: #d3d3d3; stroke-width: 0.8; stroke-linejoin: miter"/>
   </g>
   <g id="patch_30">
    <path d="M 182.020894 237.597187 
L 187.077957 237.597187 
L 187.077957 206.722462 
L 182.020894 206.722462 
z
" clip-path="url(#p01c1a9017b)" style="fill: #bdbac7; stroke: #d3d3d3; stroke-width: 0.8; stroke-linejoin: miter"/>
   </g>
   <g id="patch_31">
    <path d="M 241.515751 237.597187 
L 246.572814 237.597187 
L 246.572814 148.403537 
L 241.515751 148.403537 
z
" clip-path="url(#p01c1a9017b)" style="fill: #bdbac7; stroke: #d3d3d3; stroke-width: 0.8; stroke-linejoin: miter"/>
   </g>
   <g id="patch_32">
    <path d="M 301.010609 237.597187 
L 306.067672 237.597187 
L 306.067672 193.000362 
L 301.010609 193.000362 
z
" clip-path="url(#p01c1a9017b)" style="fill: #bdbac7; stroke: #d3d3d3; stroke-width: 0.8; stroke-linejoin: miter"/>
   </g>
   <g id="patch_33">
    <path d="M 68.088242 237.597187 
L 73.145305 237.597187 
L 73.145305 95.230399 
L 68.088242 95.230399 
z
" clip-path="url(#p01c1a9017b)" style="fill: #857aaa; stroke: #d3d3d3; stroke-width: 0.8; stroke-linejoin: miter"/>
   </g>
   <g id="patch_34">
    <path d="M 127.583099 237.597187 
L 132.640162 237.597187 
L 132.640162 107.237236 
L 127.583099 107.237236 
z
" clip-path="url(#p01c1a9017b)" style="fill: #857aaa; stroke: #d3d3d3; stroke-width: 0.8; stroke-linejoin: miter"/>
   </g>
   <g id="patch_35">
    <path d="M 187.077957 237.597187 
L 192.13502 237.597187 
L 192.13502 206.722462 
L 187.077957 206.722462 
z
" clip-path="url(#p01c1a9017b)" style="fill: #857aaa; stroke: #d3d3d3; stroke-width: 0.8; stroke-linejoin: miter"/>
   </g>
   <g id="patch_36">
    <path d="M 246.572814 237.597187 
L 251.629877 237.597187 
L 251.629877 81.508299 
L 246.572814 81.508299 
z
" clip-path="url(#p01c1a9017b)" style="fill: #857aaa; stroke: #d3d3d3; stroke-width: 0.8; stroke-linejoin: miter"/>
   </g>
   <g id="patch_37">
    <path d="M 306.067672 237.597187 
L 311.124735 237.597187 
L 311.124735 114.098286 
L 306.067672 114.098286 
z
" clip-path="url(#p01c1a9017b)" style="fill: #857aaa; stroke: #d3d3d3; stroke-width: 0.8; stroke-linejoin: miter"/>
   </g>
   <g id="patch_38">
    <path d="M 73.145305 237.597187 
L 78.202367 237.597187 
L 78.202367 120.959336 
L 73.145305 120.959336 
z
" clip-path="url(#p01c1a9017b)" style="fill: #5f4aa2; stroke: #d3d3d3; stroke-width: 0.8; stroke-linejoin: miter"/>
   </g>
   <g id="patch_39">
    <path d="M 132.640162 237.597187 
L 137.697225 237.597187 
L 137.697225 107.237236 
L 132.640162 107.237236 
z
" clip-path="url(#p01c1a9017b)" style="fill: #5f4aa2; stroke: #d3d3d3; stroke-width: 0.8; stroke-linejoin: miter"/>
   </g>
   <g id="patch_40">
    <path d="M 192.13502 237.597187 
L 197.192082 237.597187 
L 197.192082 205.0072 
L 192.13502 205.0072 
z
" clip-path="url(#p01c1a9017b)" style="fill: #5f4aa2; stroke: #d3d3d3; stroke-width: 0.8; stroke-linejoin: miter"/>
   </g>
   <g id="patch_41">
    <path d="M 251.629877 237.597187 
L 256.68694 237.597187 
L 256.68694 115.813549 
L 251.629877 115.813549 
z
" clip-path="url(#p01c1a9017b)" style="fill: #5f4aa2; stroke: #d3d3d3; stroke-width: 0.8; stroke-linejoin: miter"/>
   </g>
   <g id="patch_42">
    <path d="M 311.124735 237.597187 
L 316.181798 237.597187 
L 316.181798 129.535649 
L 311.124735 129.535649 
z
" clip-path="url(#p01c1a9017b)" style="fill: #5f4aa2; stroke: #d3d3d3; stroke-width: 0.8; stroke-linejoin: miter"/>
   </g>
   <g id="patch_43">
    <path d="M 78.202367 237.597187 
L 83.25943 237.597187 
L 83.25943 217.014037 
L 78.202367 217.014037 
z
" clip-path="url(#p01c1a9017b)" style="fill: url(#ha70df3c752); stroke: #d3d3d3; stroke-width: 0.8; stroke-linejoin: miter"/>
   </g>
   <g id="patch_44">
    <path d="M 137.697225 237.597187 
L 142.754288 237.597187 
L 142.754288 217.014037 
L 137.697225 217.014037 
z
" clip-path="url(#p01c1a9017b)" style="fill: url(#ha70df3c752); stroke: #d3d3d3; stroke-width: 0.8; stroke-linejoin: miter"/>
   </g>
   <g id="patch_45">
    <path d="M 197.192082 237.597187 
L 202.249145 237.597187 
L 202.249145 186.139312 
L 197.192082 186.139312 
z
" clip-path="url(#p01c1a9017b)" style="fill: url(#ha70df3c752); stroke: #d3d3d3; stroke-width: 0.8; stroke-linejoin: miter"/>
   </g>
   <g id="patch_46">
    <path d="M 256.68694 237.597187 
L 261.744003 237.597187 
L 261.744003 232.4514 
L 256.68694 232.4514 
z
" clip-path="url(#p01c1a9017b)" style="fill: url(#ha70df3c752); stroke: #d3d3d3; stroke-width: 0.8; stroke-linejoin: miter"/>
   </g>
   <g id="patch_47">
    <path d="M 316.181798 237.597187 
L 321.23886 237.597187 
L 321.23886 230.736137 
L 316.181798 230.736137 
z
" clip-path="url(#p01c1a9017b)" style="fill: url(#ha70df3c752); stroke: #d3d3d3; stroke-width: 0.8; stroke-linejoin: miter"/>
   </g>
   <g id="patch_48">
    <path d="M 83.25943 237.597187 
L 88.316493 237.597187 
L 88.316493 138.111962 
L 83.25943 138.111962 
z
" clip-path="url(#p01c1a9017b)" style="fill: url(#h841ef68eee); stroke: #d3d3d3; stroke-width: 0.8; stroke-linejoin: miter"/>
   </g>
   <g id="patch_49">
    <path d="M 142.754288 237.597187 
L 147.811351 237.597187 
L 147.811351 167.271424 
L 142.754288 167.271424 
z
" clip-path="url(#p01c1a9017b)" style="fill: url(#h841ef68eee); stroke: #d3d3d3; stroke-width: 0.8; stroke-linejoin: miter"/>
   </g>
   <g id="patch_50">
    <path d="M 202.249145 237.597187 
L 207.306208 237.597187 
L 207.306208 205.0072 
L 202.249145 205.0072 
z
" clip-path="url(#p01c1a9017b)" style="fill: url(#h841ef68eee); stroke: #d3d3d3; stroke-width: 0.8; stroke-linejoin: miter"/>
   </g>
   <g id="patch_51">
    <path d="M 261.744003 237.597187 
L 266.801066 237.597187 
L 266.801066 107.237236 
L 261.744003 107.237236 
z
" clip-path="url(#p01c1a9017b)" style="fill: url(#h841ef68eee); stroke: #d3d3d3; stroke-width: 0.8; stroke-linejoin: miter"/>
   </g>
   <g id="patch_52">
    <path d="M 321.23886 237.597187 
L 326.295923 237.597187 
L 326.295923 205.0072 
L 321.23886 205.0072 
z
" clip-path="url(#p01c1a9017b)" style="fill: url(#h841ef68eee); stroke: #d3d3d3; stroke-width: 0.8; stroke-linejoin: miter"/>
   </g>
   <g id="patch_53">
    <path d="M 63.031179 237.597187 
L 63.031179 237.597187 
L 63.031179 237.597187 
L 63.031179 237.597187 
z
" clip-path="url(#p01c1a9017b)" style="fill: #df2020"/>
   </g>
   <g id="patch_54">
    <path d="M 63.031179 237.597187 
L 63.031179 237.597187 
L 63.031179 237.597187 
L 63.031179 237.597187 
z
" clip-path="url(#p01c1a9017b)" style="fill: #7c5624"/>
   </g>
   <g id="patch_55">
    <path d="M 63.031179 237.597187 
L 63.031179 237.597187 
L 63.031179 237.597187 
L 63.031179 237.597187 
z
" clip-path="url(#p01c1a9017b)" style="fill: #df9c20"/>
   </g>
   <g id="patch_56">
    <path d="M 63.031179 237.597187 
L 63.031179 237.597187 
L 63.031179 237.597187 
L 63.031179 237.597187 
z
" clip-path="url(#p01c1a9017b)" style="fill: #107010"/>
   </g>
   <g id="patch_57">
    <path d="M 63.031179 237.597187 
L 63.031179 237.597187 
L 63.031179 237.597187 
L 63.031179 237.597187 
z
" clip-path="url(#p01c1a9017b)" style="fill: #94c9de"/>
   </g>
   <g id="patch_58">
    <path d="M 63.031179 237.597187 
L 63.031179 237.597187 
L 63.031179 237.597187 
L 63.031179 237.597187 
z
" clip-path="url(#p01c1a9017b)" style="fill: #bdbac7"/>
   </g>
   <g id="patch_59">
    <path d="M 63.031179 237.597187 
L 63.031179 237.597187 
L 63.031179 237.597187 
L 63.031179 237.597187 
z
" clip-path="url(#p01c1a9017b)" style="fill: #857aaa"/>
   </g>
   <g id="patch_60">
    <path d="M 63.031179 237.597187 
L 63.031179 237.597187 
L 63.031179 237.597187 
L 63.031179 237.597187 
z
" clip-path="url(#p01c1a9017b)" style="fill: #5f4aa2"/>
   </g>
   <g id="patch_61">
    <path d="M 63.031179 237.597187 
L 63.031179 237.597187 
L 63.031179 237.597187 
L 63.031179 237.597187 
z
" clip-path="url(#p01c1a9017b)" style="fill: #94c9de"/>
   </g>
   <g id="patch_62">
    <path d="M 63.031179 237.597187 
L 63.031179 237.597187 
L 63.031179 237.597187 
L 63.031179 237.597187 
z
" clip-path="url(#p01c1a9017b)" style="fill: #857aaa"/>
   </g>
   <g id="patch_63">
    <path d="M 78.202367 237.597187 
L 83.25943 237.597187 
L 83.25943 217.014037 
L 78.202367 217.014037 
z
" clip-path="url(#p01c1a9017b)" style="fill: url(#h692d65649c)"/>
   </g>
   <g id="patch_64">
    <path d="M 137.697225 237.597187 
L 142.754288 237.597187 
L 142.754288 217.014037 
L 137.697225 217.014037 
z
" clip-path="url(#p01c1a9017b)" style="fill: url(#h692d65649c)"/>
   </g>
   <g id="patch_65">
    <path d="M 197.192082 237.597187 
L 202.249145 237.597187 
L 202.249145 186.139312 
L 197.192082 186.139312 
z
" clip-path="url(#p01c1a9017b)" style="fill: url(#h692d65649c)"/>
   </g>
   <g id="patch_66">
    <path d="M 256.68694 237.597187 
L 261.744003 237.597187 
L 261.744003 232.4514 
L 256.68694 232.4514 
z
" clip-path="url(#p01c1a9017b)" style="fill: url(#h692d65649c)"/>
   </g>
   <g id="patch_67">
    <path d="M 316.181798 237.597187 
L 321.23886 237.597187 
L 321.23886 230.736137 
L 316.181798 230.736137 
z
" clip-path="url(#p01c1a9017b)" style="fill: url(#h692d65649c)"/>
   </g>
   <g id="patch_68">
    <path d="M 83.25943 237.597187 
L 88.316493 237.597187 
L 88.316493 138.111962 
L 83.25943 138.111962 
z
" clip-path="url(#p01c1a9017b)" style="fill: url(#h692d65649c)"/>
   </g>
   <g id="patch_69">
    <path d="M 142.754288 237.597187 
L 147.811351 237.597187 
L 147.811351 167.271424 
L 142.754288 167.271424 
z
" clip-path="url(#p01c1a9017b)" style="fill: url(#h692d65649c)"/>
   </g>
   <g id="patch_70">
    <path d="M 202.249145 237.597187 
L 207.306208 237.597187 
L 207.306208 205.0072 
L 202.249145 205.0072 
z
" clip-path="url(#p01c1a9017b)" style="fill: url(#h692d65649c)"/>
   </g>
   <g id="patch_71">
    <path d="M 261.744003 237.597187 
L 266.801066 237.597187 
L 266.801066 107.237236 
L 261.744003 107.237236 
z
" clip-path="url(#p01c1a9017b)" style="fill: url(#h692d65649c)"/>
   </g>
   <g id="patch_72">
    <path d="M 321.23886 237.597187 
L 326.295923 237.597187 
L 326.295923 205.0072 
L 321.23886 205.0072 
z
" clip-path="url(#p01c1a9017b)" style="fill: url(#h692d65649c)"/>
   </g>
   <g id="matplotlib.axis_1">
    <g id="xtick_1">
     <g id="line2d_1">
      <defs>
       <path id="m24026dd6ca" d="M 0 0 
L 0 3.5 
" style="stroke: #000000; stroke-width: 0.8"/>
      </defs>
      <g>
       <use xlink:href="#m24026dd6ca" x="63.031179" y="237.597187" style="stroke: #000000; stroke-width: 0.8"/>
      </g>
     </g>
     <g id="text_1">
      <!-- GABAergic -->
      <g transform="translate(34.377492 274.848003) rotate(-20) scale(0.12 -0.12)">
       <defs>
        <path id="DejaVuSans-47" d="M 3809 666 
L 3809 1919 
L 2778 1919 
L 2778 2438 
L 4434 2438 
L 4434 434 
Q 4069 175 3628 42 
Q 3188 -91 2688 -91 
Q 1594 -91 976 548 
Q 359 1188 359 2328 
Q 359 3472 976 4111 
Q 1594 4750 2688 4750 
Q 3144 4750 3555 4637 
Q 3966 4525 4313 4306 
L 4313 3634 
Q 3963 3931 3569 4081 
Q 3175 4231 2741 4231 
Q 1884 4231 1454 3753 
Q 1025 3275 1025 2328 
Q 1025 1384 1454 906 
Q 1884 428 2741 428 
Q 3075 428 3337 486 
Q 3600 544 3809 666 
z
" transform="scale(0.015625)"/>
        <path id="DejaVuSans-41" d="M 2188 4044 
L 1331 1722 
L 3047 1722 
L 2188 4044 
z
M 1831 4666 
L 2547 4666 
L 4325 0 
L 3669 0 
L 3244 1197 
L 1141 1197 
L 716 0 
L 50 0 
L 1831 4666 
z
" transform="scale(0.015625)"/>
        <path id="DejaVuSans-42" d="M 1259 2228 
L 1259 519 
L 2272 519 
Q 2781 519 3026 730 
Q 3272 941 3272 1375 
Q 3272 1813 3026 2020 
Q 2781 2228 2272 2228 
L 1259 2228 
z
M 1259 4147 
L 1259 2741 
L 2194 2741 
Q 2656 2741 2882 2914 
Q 3109 3088 3109 3444 
Q 3109 3797 2882 3972 
Q 2656 4147 2194 4147 
L 1259 4147 
z
M 628 4666 
L 2241 4666 
Q 2963 4666 3353 4366 
Q 3744 4066 3744 3513 
Q 3744 3084 3544 2831 
Q 3344 2578 2956 2516 
Q 3422 2416 3680 2098 
Q 3938 1781 3938 1306 
Q 3938 681 3513 340 
Q 3088 0 2303 0 
L 628 0 
L 628 4666 
z
" transform="scale(0.015625)"/>
        <path id="DejaVuSans-65" d="M 3597 1894 
L 3597 1613 
L 953 1613 
Q 991 1019 1311 708 
Q 1631 397 2203 397 
Q 2534 397 2845 478 
Q 3156 559 3463 722 
L 3463 178 
Q 3153 47 2828 -22 
Q 2503 -91 2169 -91 
Q 1331 -91 842 396 
Q 353 884 353 1716 
Q 353 2575 817 3079 
Q 1281 3584 2069 3584 
Q 2775 3584 3186 3129 
Q 3597 2675 3597 1894 
z
M 3022 2063 
Q 3016 2534 2758 2815 
Q 2500 3097 2075 3097 
Q 1594 3097 1305 2825 
Q 1016 2553 972 2059 
L 3022 2063 
z
" transform="scale(0.015625)"/>
        <path id="DejaVuSans-72" d="M 2631 2963 
Q 2534 3019 2420 3045 
Q 2306 3072 2169 3072 
Q 1681 3072 1420 2755 
Q 1159 2438 1159 1844 
L 1159 0 
L 581 0 
L 581 3500 
L 1159 3500 
L 1159 2956 
Q 1341 3275 1631 3429 
Q 1922 3584 2338 3584 
Q 2397 3584 2469 3576 
Q 2541 3569 2628 3553 
L 2631 2963 
z
" transform="scale(0.015625)"/>
        <path id="DejaVuSans-67" d="M 2906 1791 
Q 2906 2416 2648 2759 
Q 2391 3103 1925 3103 
Q 1463 3103 1205 2759 
Q 947 2416 947 1791 
Q 947 1169 1205 825 
Q 1463 481 1925 481 
Q 2391 481 2648 825 
Q 2906 1169 2906 1791 
z
M 3481 434 
Q 3481 -459 3084 -895 
Q 2688 -1331 1869 -1331 
Q 1566 -1331 1297 -1286 
Q 1028 -1241 775 -1147 
L 775 -588 
Q 1028 -725 1275 -790 
Q 1522 -856 1778 -856 
Q 2344 -856 2625 -561 
Q 2906 -266 2906 331 
L 2906 616 
Q 2728 306 2450 153 
Q 2172 0 1784 0 
Q 1141 0 747 490 
Q 353 981 353 1791 
Q 353 2603 747 3093 
Q 1141 3584 1784 3584 
Q 2172 3584 2450 3431 
Q 2728 3278 2906 2969 
L 2906 3500 
L 3481 3500 
L 3481 434 
z
" transform="scale(0.015625)"/>
        <path id="DejaVuSans-69" d="M 603 3500 
L 1178 3500 
L 1178 0 
L 603 0 
L 603 3500 
z
M 603 4863 
L 1178 4863 
L 1178 4134 
L 603 4134 
L 603 4863 
z
" transform="scale(0.015625)"/>
        <path id="DejaVuSans-63" d="M 3122 3366 
L 3122 2828 
Q 2878 2963 2633 3030 
Q 2388 3097 2138 3097 
Q 1578 3097 1268 2742 
Q 959 2388 959 1747 
Q 959 1106 1268 751 
Q 1578 397 2138 397 
Q 2388 397 2633 464 
Q 2878 531 3122 666 
L 3122 134 
Q 2881 22 2623 -34 
Q 2366 -91 2075 -91 
Q 1284 -91 818 406 
Q 353 903 353 1747 
Q 353 2603 823 3093 
Q 1294 3584 2113 3584 
Q 2378 3584 2631 3529 
Q 2884 3475 3122 3366 
z
" transform="scale(0.015625)"/>
       </defs>
       <use xlink:href="#DejaVuSans-47"/>
       <use xlink:href="#DejaVuSans-41" transform="translate(77.490234 0)"/>
       <use xlink:href="#DejaVuSans-42" transform="translate(145.898438 0)"/>
       <use xlink:href="#DejaVuSans-41" transform="translate(214.501953 0)"/>
       <use xlink:href="#DejaVuSans-65" transform="translate(281.160156 0)"/>
       <use xlink:href="#DejaVuSans-72" transform="translate(342.683594 0)"/>
       <use xlink:href="#DejaVuSans-67" transform="translate(382.046875 0)"/>
       <use xlink:href="#DejaVuSans-69" transform="translate(445.523438 0)"/>
       <use xlink:href="#DejaVuSans-63" transform="translate(473.306641 0)"/>
      </g>
     </g>
    </g>
    <g id="xtick_2">
     <g id="line2d_2">
      <g>
       <use xlink:href="#m24026dd6ca" x="122.526036" y="237.597187" style="stroke: #000000; stroke-width: 0.8"/>
      </g>
     </g>
     <g id="text_2">
      <!-- astrocyte -->
      <g transform="translate(97.298411 272.354035) rotate(-20) scale(0.12 -0.12)">
       <defs>
        <path id="DejaVuSans-61" d="M 2194 1759 
Q 1497 1759 1228 1600 
Q 959 1441 959 1056 
Q 959 750 1161 570 
Q 1363 391 1709 391 
Q 2188 391 2477 730 
Q 2766 1069 2766 1631 
L 2766 1759 
L 2194 1759 
z
M 3341 1997 
L 3341 0 
L 2766 0 
L 2766 531 
Q 2569 213 2275 61 
Q 1981 -91 1556 -91 
Q 1019 -91 701 211 
Q 384 513 384 1019 
Q 384 1609 779 1909 
Q 1175 2209 1959 2209 
L 2766 2209 
L 2766 2266 
Q 2766 2663 2505 2880 
Q 2244 3097 1772 3097 
Q 1472 3097 1187 3025 
Q 903 2953 641 2809 
L 641 3341 
Q 956 3463 1253 3523 
Q 1550 3584 1831 3584 
Q 2591 3584 2966 3190 
Q 3341 2797 3341 1997 
z
" transform="scale(0.015625)"/>
        <path id="DejaVuSans-73" d="M 2834 3397 
L 2834 2853 
Q 2591 2978 2328 3040 
Q 2066 3103 1784 3103 
Q 1356 3103 1142 2972 
Q 928 2841 928 2578 
Q 928 2378 1081 2264 
Q 1234 2150 1697 2047 
L 1894 2003 
Q 2506 1872 2764 1633 
Q 3022 1394 3022 966 
Q 3022 478 2636 193 
Q 2250 -91 1575 -91 
Q 1294 -91 989 -36 
Q 684 19 347 128 
L 347 722 
Q 666 556 975 473 
Q 1284 391 1588 391 
Q 1994 391 2212 530 
Q 2431 669 2431 922 
Q 2431 1156 2273 1281 
Q 2116 1406 1581 1522 
L 1381 1569 
Q 847 1681 609 1914 
Q 372 2147 372 2553 
Q 372 3047 722 3315 
Q 1072 3584 1716 3584 
Q 2034 3584 2315 3537 
Q 2597 3491 2834 3397 
z
" transform="scale(0.015625)"/>
        <path id="DejaVuSans-74" d="M 1172 4494 
L 1172 3500 
L 2356 3500 
L 2356 3053 
L 1172 3053 
L 1172 1153 
Q 1172 725 1289 603 
Q 1406 481 1766 481 
L 2356 481 
L 2356 0 
L 1766 0 
Q 1100 0 847 248 
Q 594 497 594 1153 
L 594 3053 
L 172 3053 
L 172 3500 
L 594 3500 
L 594 4494 
L 1172 4494 
z
" transform="scale(0.015625)"/>
        <path id="DejaVuSans-6f" d="M 1959 3097 
Q 1497 3097 1228 2736 
Q 959 2375 959 1747 
Q 959 1119 1226 758 
Q 1494 397 1959 397 
Q 2419 397 2687 759 
Q 2956 1122 2956 1747 
Q 2956 2369 2687 2733 
Q 2419 3097 1959 3097 
z
M 1959 3584 
Q 2709 3584 3137 3096 
Q 3566 2609 3566 1747 
Q 3566 888 3137 398 
Q 2709 -91 1959 -91 
Q 1206 -91 779 398 
Q 353 888 353 1747 
Q 353 2609 779 3096 
Q 1206 3584 1959 3584 
z
" transform="scale(0.015625)"/>
        <path id="DejaVuSans-79" d="M 2059 -325 
Q 1816 -950 1584 -1140 
Q 1353 -1331 966 -1331 
L 506 -1331 
L 506 -850 
L 844 -850 
Q 1081 -850 1212 -737 
Q 1344 -625 1503 -206 
L 1606 56 
L 191 3500 
L 800 3500 
L 1894 763 
L 2988 3500 
L 3597 3500 
L 2059 -325 
z
" transform="scale(0.015625)"/>
       </defs>
       <use xlink:href="#DejaVuSans-61"/>
       <use xlink:href="#DejaVuSans-73" transform="translate(61.279297 0)"/>
       <use xlink:href="#DejaVuSans-74" transform="translate(113.378906 0)"/>
       <use xlink:href="#DejaVuSans-72" transform="translate(152.587891 0)"/>
       <use xlink:href="#DejaVuSans-6f" transform="translate(191.451172 0)"/>
       <use xlink:href="#DejaVuSans-63" transform="translate(252.632812 0)"/>
       <use xlink:href="#DejaVuSans-79" transform="translate(307.613281 0)"/>
       <use xlink:href="#DejaVuSans-74" transform="translate(366.792969 0)"/>
       <use xlink:href="#DejaVuSans-65" transform="translate(406.001953 0)"/>
      </g>
     </g>
    </g>
    <g id="xtick_3">
     <g id="line2d_3">
      <g>
       <use xlink:href="#m24026dd6ca" x="182.020894" y="237.597187" style="stroke: #000000; stroke-width: 0.8"/>
      </g>
     </g>
     <g id="text_3">
      <!-- endothelial -->
      <g transform="translate(151.67488 276.079917) rotate(-20) scale(0.12 -0.12)">
       <defs>
        <path id="DejaVuSans-6e" d="M 3513 2113 
L 3513 0 
L 2938 0 
L 2938 2094 
Q 2938 2591 2744 2837 
Q 2550 3084 2163 3084 
Q 1697 3084 1428 2787 
Q 1159 2491 1159 1978 
L 1159 0 
L 581 0 
L 581 3500 
L 1159 3500 
L 1159 2956 
Q 1366 3272 1645 3428 
Q 1925 3584 2291 3584 
Q 2894 3584 3203 3211 
Q 3513 2838 3513 2113 
z
" transform="scale(0.015625)"/>
        <path id="DejaVuSans-64" d="M 2906 2969 
L 2906 4863 
L 3481 4863 
L 3481 0 
L 2906 0 
L 2906 525 
Q 2725 213 2448 61 
Q 2172 -91 1784 -91 
Q 1150 -91 751 415 
Q 353 922 353 1747 
Q 353 2572 751 3078 
Q 1150 3584 1784 3584 
Q 2172 3584 2448 3432 
Q 2725 3281 2906 2969 
z
M 947 1747 
Q 947 1113 1208 752 
Q 1469 391 1925 391 
Q 2381 391 2643 752 
Q 2906 1113 2906 1747 
Q 2906 2381 2643 2742 
Q 2381 3103 1925 3103 
Q 1469 3103 1208 2742 
Q 947 2381 947 1747 
z
" transform="scale(0.015625)"/>
        <path id="DejaVuSans-68" d="M 3513 2113 
L 3513 0 
L 2938 0 
L 2938 2094 
Q 2938 2591 2744 2837 
Q 2550 3084 2163 3084 
Q 1697 3084 1428 2787 
Q 1159 2491 1159 1978 
L 1159 0 
L 581 0 
L 581 4863 
L 1159 4863 
L 1159 2956 
Q 1366 3272 1645 3428 
Q 1925 3584 2291 3584 
Q 2894 3584 3203 3211 
Q 3513 2838 3513 2113 
z
" transform="scale(0.015625)"/>
        <path id="DejaVuSans-6c" d="M 603 4863 
L 1178 4863 
L 1178 0 
L 603 0 
L 603 4863 
z
" transform="scale(0.015625)"/>
       </defs>
       <use xlink:href="#DejaVuSans-65"/>
       <use xlink:href="#DejaVuSans-6e" transform="translate(61.523438 0)"/>
       <use xlink:href="#DejaVuSans-64" transform="translate(124.902344 0)"/>
       <use xlink:href="#DejaVuSans-6f" transform="translate(188.378906 0)"/>
       <use xlink:href="#DejaVuSans-74" transform="translate(249.560547 0)"/>
       <use xlink:href="#DejaVuSans-68" transform="translate(288.769531 0)"/>
       <use xlink:href="#DejaVuSans-65" transform="translate(352.148438 0)"/>
       <use xlink:href="#DejaVuSans-6c" transform="translate(413.671875 0)"/>
       <use xlink:href="#DejaVuSans-69" transform="translate(441.455078 0)"/>
       <use xlink:href="#DejaVuSans-61" transform="translate(469.238281 0)"/>
       <use xlink:href="#DejaVuSans-6c" transform="translate(530.517578 0)"/>
      </g>
     </g>
    </g>
    <g id="xtick_4">
     <g id="line2d_4">
      <g>
       <use xlink:href="#m24026dd6ca" x="241.515751" y="237.597187" style="stroke: #000000; stroke-width: 0.8"/>
      </g>
     </g>
     <g id="text_4">
      <!-- glutamatergic -->
      <g transform="translate(203.172366 281.901527) rotate(-20) scale(0.12 -0.12)">
       <defs>
        <path id="DejaVuSans-75" d="M 544 1381 
L 544 3500 
L 1119 3500 
L 1119 1403 
Q 1119 906 1312 657 
Q 1506 409 1894 409 
Q 2359 409 2629 706 
Q 2900 1003 2900 1516 
L 2900 3500 
L 3475 3500 
L 3475 0 
L 2900 0 
L 2900 538 
Q 2691 219 2414 64 
Q 2138 -91 1772 -91 
Q 1169 -91 856 284 
Q 544 659 544 1381 
z
M 1991 3584 
L 1991 3584 
z
" transform="scale(0.015625)"/>
        <path id="DejaVuSans-6d" d="M 3328 2828 
Q 3544 3216 3844 3400 
Q 4144 3584 4550 3584 
Q 5097 3584 5394 3201 
Q 5691 2819 5691 2113 
L 5691 0 
L 5113 0 
L 5113 2094 
Q 5113 2597 4934 2840 
Q 4756 3084 4391 3084 
Q 3944 3084 3684 2787 
Q 3425 2491 3425 1978 
L 3425 0 
L 2847 0 
L 2847 2094 
Q 2847 2600 2669 2842 
Q 2491 3084 2119 3084 
Q 1678 3084 1418 2786 
Q 1159 2488 1159 1978 
L 1159 0 
L 581 0 
L 581 3500 
L 1159 3500 
L 1159 2956 
Q 1356 3278 1631 3431 
Q 1906 3584 2284 3584 
Q 2666 3584 2933 3390 
Q 3200 3197 3328 2828 
z
" transform="scale(0.015625)"/>
       </defs>
       <use xlink:href="#DejaVuSans-67"/>
       <use xlink:href="#DejaVuSans-6c" transform="translate(63.476562 0)"/>
       <use xlink:href="#DejaVuSans-75" transform="translate(91.259766 0)"/>
       <use xlink:href="#DejaVuSans-74" transform="translate(154.638672 0)"/>
       <use xlink:href="#DejaVuSans-61" transform="translate(193.847656 0)"/>
       <use xlink:href="#DejaVuSans-6d" transform="translate(255.126953 0)"/>
       <use xlink:href="#DejaVuSans-61" transform="translate(352.539062 0)"/>
       <use xlink:href="#DejaVuSans-74" transform="translate(413.818359 0)"/>
       <use xlink:href="#DejaVuSans-65" transform="translate(453.027344 0)"/>
       <use xlink:href="#DejaVuSans-72" transform="translate(514.550781 0)"/>
       <use xlink:href="#DejaVuSans-67" transform="translate(553.914062 0)"/>
       <use xlink:href="#DejaVuSans-69" transform="translate(617.390625 0)"/>
       <use xlink:href="#DejaVuSans-63" transform="translate(645.173828 0)"/>
      </g>
     </g>
    </g>
    <g id="xtick_5">
     <g id="line2d_5">
      <g>
       <use xlink:href="#m24026dd6ca" x="301.010609" y="237.597187" style="stroke: #000000; stroke-width: 0.8"/>
      </g>
     </g>
     <g id="text_5">
      <!-- oligodendrocyte -->
      <g transform="translate(256.572729 286.337956) rotate(-20) scale(0.12 -0.12)">
       <use xlink:href="#DejaVuSans-6f"/>
       <use xlink:href="#DejaVuSans-6c" transform="translate(61.181641 0)"/>
       <use xlink:href="#DejaVuSans-69" transform="translate(88.964844 0)"/>
       <use xlink:href="#DejaVuSans-67" transform="translate(116.748047 0)"/>
       <use xlink:href="#DejaVuSans-6f" transform="translate(180.224609 0)"/>
       <use xlink:href="#DejaVuSans-64" transform="translate(241.40625 0)"/>
       <use xlink:href="#DejaVuSans-65" transform="translate(304.882812 0)"/>
       <use xlink:href="#DejaVuSans-6e" transform="translate(366.40625 0)"/>
       <use xlink:href="#DejaVuSans-64" transform="translate(429.785156 0)"/>
       <use xlink:href="#DejaVuSans-72" transform="translate(493.261719 0)"/>
       <use xlink:href="#DejaVuSans-6f" transform="translate(532.125 0)"/>
       <use xlink:href="#DejaVuSans-63" transform="translate(593.306641 0)"/>
       <use xlink:href="#DejaVuSans-79" transform="translate(648.287109 0)"/>
       <use xlink:href="#DejaVuSans-74" transform="translate(707.466797 0)"/>
       <use xlink:href="#DejaVuSans-65" transform="translate(746.675781 0)"/>
      </g>
     </g>
    </g>
   </g>
   <g id="matplotlib.axis_2">
    <g id="ytick_1">
     <g id="line2d_6">
      <defs>
       <path id="m528c248532" d="M 0 0 
L -3.5 0 
" style="stroke: #000000; stroke-width: 0.8"/>
      </defs>
      <g>
       <use xlink:href="#m528c248532" x="33.28375" y="237.597187" style="stroke: #000000; stroke-width: 0.8"/>
      </g>
     </g>
     <g id="text_6">
      <!-- 0.0 -->
      <g transform="translate(7.2 242.15625) scale(0.12 -0.12)">
       <defs>
        <path id="DejaVuSans-30" d="M 2034 4250 
Q 1547 4250 1301 3770 
Q 1056 3291 1056 2328 
Q 1056 1369 1301 889 
Q 1547 409 2034 409 
Q 2525 409 2770 889 
Q 3016 1369 3016 2328 
Q 3016 3291 2770 3770 
Q 2525 4250 2034 4250 
z
M 2034 4750 
Q 2819 4750 3233 4129 
Q 3647 3509 3647 2328 
Q 3647 1150 3233 529 
Q 2819 -91 2034 -91 
Q 1250 -91 836 529 
Q 422 1150 422 2328 
Q 422 3509 836 4129 
Q 1250 4750 2034 4750 
z
" transform="scale(0.015625)"/>
        <path id="DejaVuSans-2e" d="M 684 794 
L 1344 794 
L 1344 0 
L 684 0 
L 684 794 
z
" transform="scale(0.015625)"/>
       </defs>
       <use xlink:href="#DejaVuSans-30"/>
       <use xlink:href="#DejaVuSans-2e" transform="translate(63.623047 0)"/>
       <use xlink:href="#DejaVuSans-30" transform="translate(95.410156 0)"/>
      </g>
     </g>
    </g>
    <g id="ytick_2">
     <g id="line2d_7">
      <g>
       <use xlink:href="#m528c248532" x="33.28375" y="186.139312" style="stroke: #000000; stroke-width: 0.8"/>
      </g>
     </g>
     <g id="text_7">
      <!-- 0.2 -->
      <g transform="translate(7.2 190.698375) scale(0.12 -0.12)">
       <defs>
        <path id="DejaVuSans-32" d="M 1228 531 
L 3431 531 
L 3431 0 
L 469 0 
L 469 531 
Q 828 903 1448 1529 
Q 2069 2156 2228 2338 
Q 2531 2678 2651 2914 
Q 2772 3150 2772 3378 
Q 2772 3750 2511 3984 
Q 2250 4219 1831 4219 
Q 1534 4219 1204 4116 
Q 875 4013 500 3803 
L 500 4441 
Q 881 4594 1212 4672 
Q 1544 4750 1819 4750 
Q 2544 4750 2975 4387 
Q 3406 4025 3406 3419 
Q 3406 3131 3298 2873 
Q 3191 2616 2906 2266 
Q 2828 2175 2409 1742 
Q 1991 1309 1228 531 
z
" transform="scale(0.015625)"/>
       </defs>
       <use xlink:href="#DejaVuSans-30"/>
       <use xlink:href="#DejaVuSans-2e" transform="translate(63.623047 0)"/>
       <use xlink:href="#DejaVuSans-32" transform="translate(95.410156 0)"/>
      </g>
     </g>
    </g>
    <g id="ytick_3">
     <g id="line2d_8">
      <g>
       <use xlink:href="#m528c248532" x="33.28375" y="134.681437" style="stroke: #000000; stroke-width: 0.8"/>
      </g>
     </g>
     <g id="text_8">
      <!-- 0.4 -->
      <g transform="translate(7.2 139.240499) scale(0.12 -0.12)">
       <defs>
        <path id="DejaVuSans-34" d="M 2419 4116 
L 825 1625 
L 2419 1625 
L 2419 4116 
z
M 2253 4666 
L 3047 4666 
L 3047 1625 
L 3713 1625 
L 3713 1100 
L 3047 1100 
L 3047 0 
L 2419 0 
L 2419 1100 
L 313 1100 
L 313 1709 
L 2253 4666 
z
" transform="scale(0.015625)"/>
       </defs>
       <use xlink:href="#DejaVuSans-30"/>
       <use xlink:href="#DejaVuSans-2e" transform="translate(63.623047 0)"/>
       <use xlink:href="#DejaVuSans-34" transform="translate(95.410156 0)"/>
      </g>
     </g>
    </g>
    <g id="ytick_4">
     <g id="line2d_9">
      <g>
       <use xlink:href="#m528c248532" x="33.28375" y="83.223561" style="stroke: #000000; stroke-width: 0.8"/>
      </g>
     </g>
     <g id="text_9">
      <!-- 0.6 -->
      <g transform="translate(7.2 87.782624) scale(0.12 -0.12)">
       <defs>
        <path id="DejaVuSans-36" d="M 2113 2584 
Q 1688 2584 1439 2293 
Q 1191 2003 1191 1497 
Q 1191 994 1439 701 
Q 1688 409 2113 409 
Q 2538 409 2786 701 
Q 3034 994 3034 1497 
Q 3034 2003 2786 2293 
Q 2538 2584 2113 2584 
z
M 3366 4563 
L 3366 3988 
Q 3128 4100 2886 4159 
Q 2644 4219 2406 4219 
Q 1781 4219 1451 3797 
Q 1122 3375 1075 2522 
Q 1259 2794 1537 2939 
Q 1816 3084 2150 3084 
Q 2853 3084 3261 2657 
Q 3669 2231 3669 1497 
Q 3669 778 3244 343 
Q 2819 -91 2113 -91 
Q 1303 -91 875 529 
Q 447 1150 447 2328 
Q 447 3434 972 4092 
Q 1497 4750 2381 4750 
Q 2619 4750 2861 4703 
Q 3103 4656 3366 4563 
z
" transform="scale(0.015625)"/>
       </defs>
       <use xlink:href="#DejaVuSans-30"/>
       <use xlink:href="#DejaVuSans-2e" transform="translate(63.623047 0)"/>
       <use xlink:href="#DejaVuSans-36" transform="translate(95.410156 0)"/>
      </g>
     </g>
    </g>
    <g id="ytick_5">
     <g id="line2d_10">
      <g>
       <use xlink:href="#m528c248532" x="33.28375" y="31.765686" style="stroke: #000000; stroke-width: 0.8"/>
      </g>
     </g>
     <g id="text_10">
      <!-- 0.8 -->
      <g transform="translate(7.2 36.324748) scale(0.12 -0.12)">
       <defs>
        <path id="DejaVuSans-38" d="M 2034 2216 
Q 1584 2216 1326 1975 
Q 1069 1734 1069 1313 
Q 1069 891 1326 650 
Q 1584 409 2034 409 
Q 2484 409 2743 651 
Q 3003 894 3003 1313 
Q 3003 1734 2745 1975 
Q 2488 2216 2034 2216 
z
M 1403 2484 
Q 997 2584 770 2862 
Q 544 3141 544 3541 
Q 544 4100 942 4425 
Q 1341 4750 2034 4750 
Q 2731 4750 3128 4425 
Q 3525 4100 3525 3541 
Q 3525 3141 3298 2862 
Q 3072 2584 2669 2484 
Q 3125 2378 3379 2068 
Q 3634 1759 3634 1313 
Q 3634 634 3220 271 
Q 2806 -91 2034 -91 
Q 1263 -91 848 271 
Q 434 634 434 1313 
Q 434 1759 690 2068 
Q 947 2378 1403 2484 
z
M 1172 3481 
Q 1172 3119 1398 2916 
Q 1625 2713 2034 2713 
Q 2441 2713 2670 2916 
Q 2900 3119 2900 3481 
Q 2900 3844 2670 4047 
Q 2441 4250 2034 4250 
Q 1625 4250 1398 4047 
Q 1172 3844 1172 3481 
z
" transform="scale(0.015625)"/>
       </defs>
       <use xlink:href="#DejaVuSans-30"/>
       <use xlink:href="#DejaVuSans-2e" transform="translate(63.623047 0)"/>
       <use xlink:href="#DejaVuSans-38" transform="translate(95.410156 0)"/>
      </g>
     </g>
    </g>
   </g>
   <g id="line2d_11">
    <path d="M 40.274396 237.597187 
L 40.274396 234.166662 
" clip-path="url(#p01c1a9017b)" style="fill: none; stroke: #424242; stroke-width: 2.25; stroke-linecap: square"/>
   </g>
   <g id="line2d_12">
    <path d="M 99.769253 217.014037 
L 99.769253 199.861412 
" clip-path="url(#p01c1a9017b)" style="fill: none; stroke: #424242; stroke-width: 2.25; stroke-linecap: square"/>
   </g>
   <g id="line2d_13">
    <path d="M 159.264111 237.597187 
L 159.264111 227.305612 
" clip-path="url(#p01c1a9017b)" style="fill: none; stroke: #424242; stroke-width: 2.25; stroke-linecap: square"/>
   </g>
   <g id="line2d_14">
    <path d="M 218.758968 227.305612 
L 218.758968 217.014037 
" clip-path="url(#p01c1a9017b)" style="fill: none; stroke: #424242; stroke-width: 2.25; stroke-linecap: square"/>
   </g>
   <g id="line2d_15">
    <path d="M 278.253826 214.526623 
L 278.253826 188.626727 
" clip-path="url(#p01c1a9017b)" style="fill: none; stroke: #424242; stroke-width: 2.25; stroke-linecap: square"/>
   </g>
   <g id="line2d_16">
    <path d="M 45.331459 165.556162 
L 45.331459 107.237236 
" clip-path="url(#p01c1a9017b)" style="fill: none; stroke: #424242; stroke-width: 2.25; stroke-linecap: square"/>
   </g>
   <g id="line2d_17">
    <path d="M 104.826316 165.83944 
L 104.826316 134.398159 
" clip-path="url(#p01c1a9017b)" style="fill: none; stroke: #424242; stroke-width: 2.25; stroke-linecap: square"/>
   </g>
   <g id="line2d_18">
    <path d="M 164.321174 204.547597 
L 164.321174 198.605753 
" clip-path="url(#p01c1a9017b)" style="fill: none; stroke: #424242; stroke-width: 2.25; stroke-linecap: square"/>
   </g>
   <g id="line2d_19">
    <path d="M 223.816031 159.733791 
L 223.816031 147.364857 
" clip-path="url(#p01c1a9017b)" style="fill: none; stroke: #424242; stroke-width: 2.25; stroke-linecap: square"/>
   </g>
   <g id="line2d_20">
    <path d="M 283.310889 152.941695 
L 283.310889 143.865379 
" clip-path="url(#p01c1a9017b)" style="fill: none; stroke: #424242; stroke-width: 2.25; stroke-linecap: square"/>
   </g>
   <g id="line2d_21">
    <path d="M 50.388522 194.401138 
L 50.388522 157.294336 
" clip-path="url(#p01c1a9017b)" style="fill: none; stroke: #424242; stroke-width: 2.25; stroke-linecap: square"/>
   </g>
   <g id="line2d_22">
    <path d="M 109.883379 207.696327 
L 109.883379 188.595972 
" clip-path="url(#p01c1a9017b)" style="fill: none; stroke: #424242; stroke-width: 2.25; stroke-linecap: square"/>
   </g>
   <g id="line2d_23">
    <path d="M 169.378237 189.569837 
L 169.378237 186.139312 
" clip-path="url(#p01c1a9017b)" style="fill: none; stroke: #424242; stroke-width: 2.25; stroke-linecap: square"/>
   </g>
   <g id="line2d_24">
    <path d="M 228.873094 230.736137 
L 228.873094 227.305612 
" clip-path="url(#p01c1a9017b)" style="fill: none; stroke: #424242; stroke-width: 2.25; stroke-linecap: square"/>
   </g>
   <g id="line2d_25">
    <path d="M 288.367952 209.545358 
L 288.367952 200.469042 
" clip-path="url(#p01c1a9017b)" style="fill: none; stroke: #424242; stroke-width: 2.25; stroke-linecap: square"/>
   </g>
   <g id="line2d_26">
    <path d="M 55.445584 170.701949 
L 55.445584 115.813549 
" clip-path="url(#p01c1a9017b)" style="fill: none; stroke: #424242; stroke-width: 2.25; stroke-linecap: square"/>
   </g>
   <g id="line2d_27">
    <path d="M 114.940442 210.152987 
L 114.940442 206.722462 
" clip-path="url(#p01c1a9017b)" style="fill: none; stroke: #424242; stroke-width: 2.25; stroke-linecap: square"/>
   </g>
   <g id="line2d_28">
    <path d="M 174.435299 210.152987 
L 174.435299 206.722462 
" clip-path="url(#p01c1a9017b)" style="fill: none; stroke: #424242; stroke-width: 2.25; stroke-linecap: square"/>
   </g>
   <g id="line2d_29">
    <path d="M 233.930157 147.687544 
L 233.930157 131.966904 
" clip-path="url(#p01c1a9017b)" style="fill: none; stroke: #424242; stroke-width: 2.25; stroke-linecap: square"/>
   </g>
   <g id="line2d_30">
    <path d="M 293.425015 230.059554 
L 293.425015 217.69062 
" clip-path="url(#p01c1a9017b)" style="fill: none; stroke: #424242; stroke-width: 2.25; stroke-linecap: square"/>
   </g>
   <g id="line2d_31">
    <path d="M 60.502647 217.014037 
L 60.502647 217.014037 
" clip-path="url(#p01c1a9017b)" style="fill: none; stroke: #424242; stroke-width: 2.25; stroke-linecap: square"/>
   </g>
   <g id="line2d_32">
    <path d="M 119.997505 217.014037 
L 119.997505 217.014037 
" clip-path="url(#p01c1a9017b)" style="fill: none; stroke: #424242; stroke-width: 2.25; stroke-linecap: square"/>
   </g>
   <g id="line2d_33">
    <path d="M 179.492362 192.081156 
L 179.492362 180.197468 
" clip-path="url(#p01c1a9017b)" style="fill: none; stroke: #424242; stroke-width: 2.25; stroke-linecap: square"/>
   </g>
   <g id="line2d_34">
    <path d="M 238.98722 235.422322 
L 238.98722 229.480478 
" clip-path="url(#p01c1a9017b)" style="fill: none; stroke: #424242; stroke-width: 2.25; stroke-linecap: square"/>
   </g>
   <g id="line2d_35">
    <path d="M 298.482077 235.274295 
L 298.482077 226.197979 
" clip-path="url(#p01c1a9017b)" style="fill: none; stroke: #424242; stroke-width: 2.25; stroke-linecap: square"/>
   </g>
   <g id="line2d_36">
    <path d="M 65.55971 160.581333 
L 65.55971 108.781541 
" clip-path="url(#p01c1a9017b)" style="fill: none; stroke: #424242; stroke-width: 2.25; stroke-linecap: square"/>
   </g>
   <g id="line2d_37">
    <path d="M 125.054568 160.693652 
L 125.054568 129.252371 
" clip-path="url(#p01c1a9017b)" style="fill: none; stroke: #424242; stroke-width: 2.25; stroke-linecap: square"/>
   </g>
   <g id="line2d_38">
    <path d="M 184.549425 206.722462 
L 184.549425 206.722462 
" clip-path="url(#p01c1a9017b)" style="fill: none; stroke: #424242; stroke-width: 2.25; stroke-linecap: square"/>
   </g>
   <g id="line2d_39">
    <path d="M 244.044283 150.118799 
L 244.044283 146.688274 
" clip-path="url(#p01c1a9017b)" style="fill: none; stroke: #424242; stroke-width: 2.25; stroke-linecap: square"/>
   </g>
   <g id="line2d_40">
    <path d="M 303.53914 204.248091 
L 303.53914 181.752634 
" clip-path="url(#p01c1a9017b)" style="fill: none; stroke: #424242; stroke-width: 2.25; stroke-linecap: square"/>
   </g>
   <g id="line2d_41">
    <path d="M 70.616773 129.406762 
L 70.616773 61.054035 
" clip-path="url(#p01c1a9017b)" style="fill: none; stroke: #424242; stroke-width: 2.25; stroke-linecap: square"/>
   </g>
   <g id="line2d_42">
    <path d="M 130.111631 128.314735 
L 130.111631 86.159738 
" clip-path="url(#p01c1a9017b)" style="fill: none; stroke: #424242; stroke-width: 2.25; stroke-linecap: square"/>
   </g>
   <g id="line2d_43">
    <path d="M 189.606488 209.693384 
L 189.606488 203.75154 
" clip-path="url(#p01c1a9017b)" style="fill: none; stroke: #424242; stroke-width: 2.25; stroke-linecap: square"/>
   </g>
   <g id="line2d_44">
    <path d="M 249.101346 83.223561 
L 249.101346 79.793036 
" clip-path="url(#p01c1a9017b)" style="fill: none; stroke: #424242; stroke-width: 2.25; stroke-linecap: square"/>
   </g>
   <g id="line2d_45">
    <path d="M 308.596203 134.894739 
L 308.596203 93.301834 
" clip-path="url(#p01c1a9017b)" style="fill: none; stroke: #424242; stroke-width: 2.25; stroke-linecap: square"/>
   </g>
   <g id="line2d_46">
    <path d="M 75.673836 152.726443 
L 75.673836 89.19223 
" clip-path="url(#p01c1a9017b)" style="fill: none; stroke: #424242; stroke-width: 2.25; stroke-linecap: square"/>
   </g>
   <g id="line2d_47">
    <path d="M 135.168694 124.130613 
L 135.168694 90.34386 
" clip-path="url(#p01c1a9017b)" style="fill: none; stroke: #424242; stroke-width: 2.25; stroke-linecap: square"/>
   </g>
   <g id="line2d_48">
    <path d="M 194.663551 206.722462 
L 194.663551 203.291937 
" clip-path="url(#p01c1a9017b)" style="fill: none; stroke: #424242; stroke-width: 2.25; stroke-linecap: square"/>
   </g>
   <g id="line2d_49">
    <path d="M 254.158409 124.389861 
L 254.158409 107.237236 
" clip-path="url(#p01c1a9017b)" style="fill: none; stroke: #424242; stroke-width: 2.25; stroke-linecap: square"/>
   </g>
   <g id="line2d_50">
    <path d="M 313.653266 155.264587 
L 313.653266 103.806711 
" clip-path="url(#p01c1a9017b)" style="fill: none; stroke: #424242; stroke-width: 2.25; stroke-linecap: square"/>
   </g>
   <g id="line2d_51">
    <path d="M 80.730899 217.014037 
L 80.730899 217.014037 
" clip-path="url(#p01c1a9017b)" style="fill: none; stroke: #424242; stroke-width: 2.25; stroke-linecap: square"/>
   </g>
   <g id="line2d_52">
    <path d="M 140.225756 217.014037 
L 140.225756 217.014037 
" clip-path="url(#p01c1a9017b)" style="fill: none; stroke: #424242; stroke-width: 2.25; stroke-linecap: square"/>
   </g>
   <g id="line2d_53">
    <path d="M 199.720614 192.081156 
L 199.720614 180.197468 
" clip-path="url(#p01c1a9017b)" style="fill: none; stroke: #424242; stroke-width: 2.25; stroke-linecap: square"/>
   </g>
   <g id="line2d_54">
    <path d="M 259.215471 235.422322 
L 259.215471 229.480478 
" clip-path="url(#p01c1a9017b)" style="fill: none; stroke: #424242; stroke-width: 2.25; stroke-linecap: square"/>
   </g>
   <g id="line2d_55">
    <path d="M 318.710329 235.274295 
L 318.710329 226.197979 
" clip-path="url(#p01c1a9017b)" style="fill: none; stroke: #424242; stroke-width: 2.25; stroke-linecap: square"/>
   </g>
   <g id="line2d_56">
    <path d="M 85.787962 171.239183 
L 85.787962 104.98474 
" clip-path="url(#p01c1a9017b)" style="fill: none; stroke: #424242; stroke-width: 2.25; stroke-linecap: square"/>
   </g>
   <g id="line2d_57">
    <path d="M 145.282819 184.164801 
L 145.282819 150.378048 
" clip-path="url(#p01c1a9017b)" style="fill: none; stroke: #424242; stroke-width: 2.25; stroke-linecap: square"/>
   </g>
   <g id="line2d_58">
    <path d="M 204.777677 206.722462 
L 204.777677 203.291937 
" clip-path="url(#p01c1a9017b)" style="fill: none; stroke: #424242; stroke-width: 2.25; stroke-linecap: square"/>
   </g>
   <g id="line2d_59">
    <path d="M 264.272534 108.952499 
L 264.272534 105.521974 
" clip-path="url(#p01c1a9017b)" style="fill: none; stroke: #424242; stroke-width: 2.25; stroke-linecap: square"/>
   </g>
   <g id="line2d_60">
    <path d="M 323.767392 209.545358 
L 323.767392 200.469042 
" clip-path="url(#p01c1a9017b)" style="fill: none; stroke: #424242; stroke-width: 2.25; stroke-linecap: square"/>
   </g>
   <g id="patch_73">
    <path d="M 33.28375 237.597187 
L 33.28375 26.877187 
" style="fill: none; stroke: #000000; stroke-width: 0.8; stroke-linejoin: miter; stroke-linecap: square"/>
   </g>
   <g id="patch_74">
    <path d="M 330.758038 237.597187 
L 330.758038 26.877187 
" style="fill: none; stroke: #000000; stroke-width: 0.8; stroke-linejoin: miter; stroke-linecap: square"/>
   </g>
   <g id="patch_75">
    <path d="M 33.28375 237.597187 
L 330.758038 237.597187 
" style="fill: none; stroke: #000000; stroke-width: 0.8; stroke-linejoin: miter; stroke-linecap: square"/>
   </g>
   <g id="patch_76">
    <path d="M 33.28375 26.877187 
L 330.758038 26.877187 
" style="fill: none; stroke: #000000; stroke-width: 0.8; stroke-linejoin: miter; stroke-linecap: square"/>
   </g>
   <g id="text_11">
    <!-- Signed Precision ↑ -->
    <g transform="translate(97.723238 20.877187) scale(0.18 -0.18)">
     <defs>
      <path id="DejaVuSans-53" d="M 3425 4513 
L 3425 3897 
Q 3066 4069 2747 4153 
Q 2428 4238 2131 4238 
Q 1616 4238 1336 4038 
Q 1056 3838 1056 3469 
Q 1056 3159 1242 3001 
Q 1428 2844 1947 2747 
L 2328 2669 
Q 3034 2534 3370 2195 
Q 3706 1856 3706 1288 
Q 3706 609 3251 259 
Q 2797 -91 1919 -91 
Q 1588 -91 1214 -16 
Q 841 59 441 206 
L 441 856 
Q 825 641 1194 531 
Q 1563 422 1919 422 
Q 2459 422 2753 634 
Q 3047 847 3047 1241 
Q 3047 1584 2836 1778 
Q 2625 1972 2144 2069 
L 1759 2144 
Q 1053 2284 737 2584 
Q 422 2884 422 3419 
Q 422 4038 858 4394 
Q 1294 4750 2059 4750 
Q 2388 4750 2728 4690 
Q 3069 4631 3425 4513 
z
" transform="scale(0.015625)"/>
      <path id="DejaVuSans-20" transform="scale(0.015625)"/>
      <path id="DejaVuSans-50" d="M 1259 4147 
L 1259 2394 
L 2053 2394 
Q 2494 2394 2734 2622 
Q 2975 2850 2975 3272 
Q 2975 3691 2734 3919 
Q 2494 4147 2053 4147 
L 1259 4147 
z
M 628 4666 
L 2053 4666 
Q 2838 4666 3239 4311 
Q 3641 3956 3641 3272 
Q 3641 2581 3239 2228 
Q 2838 1875 2053 1875 
L 1259 1875 
L 1259 0 
L 628 0 
L 628 4666 
z
" transform="scale(0.015625)"/>
      <path id="DejaVuSans-2191" d="M 2541 4688 
L 2822 4688 
L 4047 3456 
L 3672 3081 
L 2947 3813 
L 2947 0 
L 2416 0 
L 2416 3813 
L 1684 3081 
L 1309 3456 
L 2541 4688 
z
" transform="scale(0.015625)"/>
     </defs>
     <use xlink:href="#DejaVuSans-53"/>
     <use xlink:href="#DejaVuSans-69" transform="translate(63.476562 0)"/>
     <use xlink:href="#DejaVuSans-67" transform="translate(91.259766 0)"/>
     <use xlink:href="#DejaVuSans-6e" transform="translate(154.736328 0)"/>
     <use xlink:href="#DejaVuSans-65" transform="translate(218.115234 0)"/>
     <use xlink:href="#DejaVuSans-64" transform="translate(279.638672 0)"/>
     <use xlink:href="#DejaVuSans-20" transform="translate(343.115234 0)"/>
     <use xlink:href="#DejaVuSans-50" transform="translate(374.902344 0)"/>
     <use xlink:href="#DejaVuSans-72" transform="translate(433.455078 0)"/>
     <use xlink:href="#DejaVuSans-65" transform="translate(472.318359 0)"/>
     <use xlink:href="#DejaVuSans-63" transform="translate(533.841797 0)"/>
     <use xlink:href="#DejaVuSans-69" transform="translate(588.822266 0)"/>
     <use xlink:href="#DejaVuSans-73" transform="translate(616.605469 0)"/>
     <use xlink:href="#DejaVuSans-69" transform="translate(668.705078 0)"/>
     <use xlink:href="#DejaVuSans-6f" transform="translate(696.488281 0)"/>
     <use xlink:href="#DejaVuSans-6e" transform="translate(757.669922 0)"/>
     <use xlink:href="#DejaVuSans-20" transform="translate(821.048828 0)"/>
     <use xlink:href="#DejaVuSans-2191" transform="translate(852.835938 0)"/>
    </g>
   </g>
  </g>
  <g id="axes_2">
   <g id="patch_77">
    <path d="M 385.99375 237.597187 
L 683.468038 237.597187 
L 683.468038 26.877187 
L 385.99375 26.877187 
z
" style="fill: #ffffff"/>
   </g>
   <g id="patch_78">
    <path d="M 390.455864 240.41201 
L 395.512927 240.41201 
L 395.512927 82.633748 
L 390.455864 82.633748 
z
" clip-path="url(#pe8af5b363b)" style="fill: #df2020; stroke: #d3d3d3; stroke-width: 0.8; stroke-linejoin: miter"/>
   </g>
   <g id="patch_79">
    <path d="M 449.950722 240.41201 
L 455.007785 240.41201 
L 455.007785 128.962453 
L 449.950722 128.962453 
z
" clip-path="url(#pe8af5b363b)" style="fill: #df2020; stroke: #d3d3d3; stroke-width: 0.8; stroke-linejoin: miter"/>
   </g>
   <g id="patch_80">
    <path d="M 509.445579 240.41201 
L 514.502642 240.41201 
L 514.502642 106.163478 
L 509.445579 106.163478 
z
" clip-path="url(#pe8af5b363b)" style="fill: #df2020; stroke: #d3d3d3; stroke-width: 0.8; stroke-linejoin: miter"/>
   </g>
   <g id="patch_81">
    <path d="M 568.940437 240.41201 
L 573.9975 240.41201 
L 573.9975 49.629001 
L 568.940437 49.629001 
z
" clip-path="url(#pe8af5b363b)" style="fill: #df2020; stroke: #d3d3d3; stroke-width: 0.8; stroke-linejoin: miter"/>
   </g>
   <g id="patch_82">
    <path d="M 628.435294 240.41201 
L 633.492357 240.41201 
L 633.492357 115.129352 
L 628.435294 115.129352 
z
" clip-path="url(#pe8af5b363b)" style="fill: #df2020; stroke: #d3d3d3; stroke-width: 0.8; stroke-linejoin: miter"/>
   </g>
   <g id="patch_83">
    <path d="M 395.512927 240.41201 
L 400.56999 240.41201 
L 400.56999 194.625449 
L 395.512927 194.625449 
z
" clip-path="url(#pe8af5b363b)" style="fill: #7c5624; stroke: #d3d3d3; stroke-width: 0.8; stroke-linejoin: miter"/>
   </g>
   <g id="patch_84">
    <path d="M 455.007785 240.41201 
L 460.064848 240.41201 
L 460.064848 206.676798 
L 455.007785 206.676798 
z
" clip-path="url(#pe8af5b363b)" style="fill: #7c5624; stroke: #d3d3d3; stroke-width: 0.8; stroke-linejoin: miter"/>
   </g>
   <g id="patch_85">
    <path d="M 514.502642 240.41201 
L 519.559705 240.41201 
L 519.559705 210.105813 
L 514.502642 210.105813 
z
" clip-path="url(#pe8af5b363b)" style="fill: #7c5624; stroke: #d3d3d3; stroke-width: 0.8; stroke-linejoin: miter"/>
   </g>
   <g id="patch_86">
    <path d="M 573.9975 240.41201 
L 579.054563 240.41201 
L 579.054563 171.216134 
L 573.9975 171.216134 
z
" clip-path="url(#pe8af5b363b)" style="fill: #7c5624; stroke: #d3d3d3; stroke-width: 0.8; stroke-linejoin: miter"/>
   </g>
   <g id="patch_87">
    <path d="M 633.492357 240.41201 
L 638.54942 240.41201 
L 638.54942 209.906456 
L 633.492357 209.906456 
z
" clip-path="url(#pe8af5b363b)" style="fill: #7c5624; stroke: #d3d3d3; stroke-width: 0.8; stroke-linejoin: miter"/>
   </g>
   <g id="patch_88">
    <path d="M 400.56999 240.41201 
L 405.627053 240.41201 
L 405.627053 205.27704 
L 400.56999 205.27704 
z
" clip-path="url(#pe8af5b363b)" style="fill: #df9c20; stroke: #d3d3d3; stroke-width: 0.8; stroke-linejoin: miter"/>
   </g>
   <g id="patch_89">
    <path d="M 460.064848 240.41201 
L 465.121911 240.41201 
L 465.121911 222.146224 
L 460.064848 222.146224 
z
" clip-path="url(#pe8af5b363b)" style="fill: #df9c20; stroke: #d3d3d3; stroke-width: 0.8; stroke-linejoin: miter"/>
   </g>
   <g id="patch_90">
    <path d="M 519.559705 240.41201 
L 524.616768 240.41201 
L 524.616768 225.854386 
L 519.559705 225.854386 
z
" clip-path="url(#pe8af5b363b)" style="fill: #df9c20; stroke: #d3d3d3; stroke-width: 0.8; stroke-linejoin: miter"/>
   </g>
   <g id="patch_91">
    <path d="M 579.054563 240.41201 
L 584.111626 240.41201 
L 584.111626 165.961514 
L 579.054563 165.961514 
z
" clip-path="url(#pe8af5b363b)" style="fill: #df9c20; stroke: #d3d3d3; stroke-width: 0.8; stroke-linejoin: miter"/>
   </g>
   <g id="patch_92">
    <path d="M 638.54942 240.41201 
L 643.606483 240.41201 
L 643.606483 230.331035 
L 638.54942 230.331035 
z
" clip-path="url(#pe8af5b363b)" style="fill: #df9c20; stroke: #d3d3d3; stroke-width: 0.8; stroke-linejoin: miter"/>
   </g>
   <g id="patch_93">
    <path d="M 405.627053 240.41201 
L 410.684116 240.41201 
L 410.684116 132.352711 
L 405.627053 132.352711 
z
" clip-path="url(#pe8af5b363b)" style="fill: #107010; stroke: #d3d3d3; stroke-width: 0.8; stroke-linejoin: miter"/>
   </g>
   <g id="patch_94">
    <path d="M 465.121911 240.41201 
L 470.178973 240.41201 
L 470.178973 116.968827 
L 465.121911 116.968827 
z
" clip-path="url(#pe8af5b363b)" style="fill: #107010; stroke: #d3d3d3; stroke-width: 0.8; stroke-linejoin: miter"/>
   </g>
   <g id="patch_95">
    <path d="M 524.616768 240.41201 
L 529.673831 240.41201 
L 529.673831 124.33012 
L 524.616768 124.33012 
z
" clip-path="url(#pe8af5b363b)" style="fill: #107010; stroke: #d3d3d3; stroke-width: 0.8; stroke-linejoin: miter"/>
   </g>
   <g id="patch_96">
    <path d="M 584.111626 240.41201 
L 589.168688 240.41201 
L 589.168688 131.975585 
L 584.111626 131.975585 
z
" clip-path="url(#pe8af5b363b)" style="fill: #107010; stroke: #d3d3d3; stroke-width: 0.8; stroke-linejoin: miter"/>
   </g>
   <g id="patch_97">
    <path d="M 643.606483 240.41201 
L 648.663546 240.41201 
L 648.663546 118.777593 
L 643.606483 118.777593 
z
" clip-path="url(#pe8af5b363b)" style="fill: #107010; stroke: #d3d3d3; stroke-width: 0.8; stroke-linejoin: miter"/>
   </g>
   <g id="patch_98">
    <path d="M 410.684116 240.41201 
L 415.741179 240.41201 
L 415.741179 140.198694 
L 410.684116 140.198694 
z
" clip-path="url(#pe8af5b363b)" style="fill: #94c9de; stroke: #d3d3d3; stroke-width: 0.8; stroke-linejoin: miter"/>
   </g>
   <g id="patch_99">
    <path d="M 470.178973 240.41201 
L 475.236036 240.41201 
L 475.236036 142.451899 
L 470.178973 142.451899 
z
" clip-path="url(#pe8af5b363b)" style="fill: #94c9de; stroke: #d3d3d3; stroke-width: 0.8; stroke-linejoin: miter"/>
   </g>
   <g id="patch_100">
    <path d="M 529.673831 240.41201 
L 534.730894 240.41201 
L 534.730894 120.182315 
L 529.673831 120.182315 
z
" clip-path="url(#pe8af5b363b)" style="fill: #94c9de; stroke: #d3d3d3; stroke-width: 0.8; stroke-linejoin: miter"/>
   </g>
   <g id="patch_101">
    <path d="M 589.168688 240.41201 
L 594.225751 240.41201 
L 594.225751 129.903094 
L 589.168688 129.903094 
z
" clip-path="url(#pe8af5b363b)" style="fill: #94c9de; stroke: #d3d3d3; stroke-width: 0.8; stroke-linejoin: miter"/>
   </g>
   <g id="patch_102">
    <path d="M 648.663546 240.41201 
L 653.720609 240.41201 
L 653.720609 119.739735 
L 648.663546 119.739735 
z
" clip-path="url(#pe8af5b363b)" style="fill: #94c9de; stroke: #d3d3d3; stroke-width: 0.8; stroke-linejoin: miter"/>
   </g>
   <g id="patch_103">
    <path d="M 415.741179 240.41201 
L 420.798242 240.41201 
L 420.798242 195.596526 
L 415.741179 195.596526 
z
" clip-path="url(#pe8af5b363b)" style="fill: #bdbac7; stroke: #d3d3d3; stroke-width: 0.8; stroke-linejoin: miter"/>
   </g>
   <g id="patch_104">
    <path d="M 475.236036 240.41201 
L 480.293099 240.41201 
L 480.293099 207.753666 
L 475.236036 207.753666 
z
" clip-path="url(#pe8af5b363b)" style="fill: #bdbac7; stroke: #d3d3d3; stroke-width: 0.8; stroke-linejoin: miter"/>
   </g>
   <g id="patch_105">
    <path d="M 534.730894 240.41201 
L 539.787957 240.41201 
L 539.787957 207.541162 
L 534.730894 207.541162 
z
" clip-path="url(#pe8af5b363b)" style="fill: #bdbac7; stroke: #d3d3d3; stroke-width: 0.8; stroke-linejoin: miter"/>
   </g>
   <g id="patch_106">
    <path d="M 594.225751 240.41201 
L 599.282814 240.41201 
L 599.282814 162.575814 
L 594.225751 162.575814 
z
" clip-path="url(#pe8af5b363b)" style="fill: #bdbac7; stroke: #d3d3d3; stroke-width: 0.8; stroke-linejoin: miter"/>
   </g>
   <g id="patch_107">
    <path d="M 653.720609 240.41201 
L 658.777672 240.41201 
L 658.777672 203.160084 
L 653.720609 203.160084 
z
" clip-path="url(#pe8af5b363b)" style="fill: #bdbac7; stroke: #d3d3d3; stroke-width: 0.8; stroke-linejoin: miter"/>
   </g>
   <g id="patch_108">
    <path d="M 420.798242 240.41201 
L 425.855305 240.41201 
L 425.855305 199.3745 
L 420.798242 199.3745 
z
" clip-path="url(#pe8af5b363b)" style="fill: #857aaa; stroke: #d3d3d3; stroke-width: 0.8; stroke-linejoin: miter"/>
   </g>
   <g id="patch_109">
    <path d="M 480.293099 240.41201 
L 485.350162 240.41201 
L 485.350162 207.236394 
L 480.293099 207.236394 
z
" clip-path="url(#pe8af5b363b)" style="fill: #857aaa; stroke: #d3d3d3; stroke-width: 0.8; stroke-linejoin: miter"/>
   </g>
   <g id="patch_110">
    <path d="M 539.787957 240.41201 
L 544.84502 240.41201 
L 544.84502 202.814833 
L 539.787957 202.814833 
z
" clip-path="url(#pe8af5b363b)" style="fill: #857aaa; stroke: #d3d3d3; stroke-width: 0.8; stroke-linejoin: miter"/>
   </g>
   <g id="patch_111">
    <path d="M 599.282814 240.41201 
L 604.339877 240.41201 
L 604.339877 196.817573 
L 599.282814 196.817573 
z
" clip-path="url(#pe8af5b363b)" style="fill: #857aaa; stroke: #d3d3d3; stroke-width: 0.8; stroke-linejoin: miter"/>
   </g>
   <g id="patch_112">
    <path d="M 658.777672 240.41201 
L 663.834735 240.41201 
L 663.834735 202.373651 
L 658.777672 202.373651 
z
" clip-path="url(#pe8af5b363b)" style="fill: #857aaa; stroke: #d3d3d3; stroke-width: 0.8; stroke-linejoin: miter"/>
   </g>
   <g id="patch_113">
    <path d="M 425.855305 240.41201 
L 430.912367 240.41201 
L 430.912367 189.440658 
L 425.855305 189.440658 
z
" clip-path="url(#pe8af5b363b)" style="fill: #5f4aa2; stroke: #d3d3d3; stroke-width: 0.8; stroke-linejoin: miter"/>
   </g>
   <g id="patch_114">
    <path d="M 485.350162 240.41201 
L 490.407225 240.41201 
L 490.407225 205.027251 
L 485.350162 205.027251 
z
" clip-path="url(#pe8af5b363b)" style="fill: #5f4aa2; stroke: #d3d3d3; stroke-width: 0.8; stroke-linejoin: miter"/>
   </g>
   <g id="patch_115">
    <path d="M 544.84502 240.41201 
L 549.902082 240.41201 
L 549.902082 196.226887 
L 544.84502 196.226887 
z
" clip-path="url(#pe8af5b363b)" style="fill: #5f4aa2; stroke: #d3d3d3; stroke-width: 0.8; stroke-linejoin: miter"/>
   </g>
   <g id="patch_116">
    <path d="M 604.339877 240.41201 
L 609.39694 240.41201 
L 609.39694 181.485708 
L 604.339877 181.485708 
z
" clip-path="url(#pe8af5b363b)" style="fill: #5f4aa2; stroke: #d3d3d3; stroke-width: 0.8; stroke-linejoin: miter"/>
   </g>
   <g id="patch_117">
    <path d="M 663.834735 240.41201 
L 668.891798 240.41201 
L 668.891798 199.987365 
L 663.834735 199.987365 
z
" clip-path="url(#pe8af5b363b)" style="fill: #5f4aa2; stroke: #d3d3d3; stroke-width: 0.8; stroke-linejoin: miter"/>
   </g>
   <g id="patch_118">
    <path d="M 430.912367 240.41201 
L 435.96943 240.41201 
L 435.96943 140.352347 
L 430.912367 140.352347 
z
" clip-path="url(#pe8af5b363b)" style="fill: url(#ha70df3c752); stroke: #d3d3d3; stroke-width: 0.8; stroke-linejoin: miter"/>
   </g>
   <g id="patch_119">
    <path d="M 490.407225 240.41201 
L 495.464288 240.41201 
L 495.464288 142.134154 
L 490.407225 142.134154 
z
" clip-path="url(#pe8af5b363b)" style="fill: url(#ha70df3c752); stroke: #d3d3d3; stroke-width: 0.8; stroke-linejoin: miter"/>
   </g>
   <g id="patch_120">
    <path d="M 549.902082 240.41201 
L 554.959145 240.41201 
L 554.959145 119.738596 
L 549.902082 119.738596 
z
" clip-path="url(#pe8af5b363b)" style="fill: url(#ha70df3c752); stroke: #d3d3d3; stroke-width: 0.8; stroke-linejoin: miter"/>
   </g>
   <g id="patch_121">
    <path d="M 609.39694 240.41201 
L 614.454003 240.41201 
L 614.454003 129.242894 
L 609.39694 129.242894 
z
" clip-path="url(#pe8af5b363b)" style="fill: url(#ha70df3c752); stroke: #d3d3d3; stroke-width: 0.8; stroke-linejoin: miter"/>
   </g>
   <g id="patch_122">
    <path d="M 668.891798 240.41201 
L 673.94886 240.41201 
L 673.94886 120.590397 
L 668.891798 120.590397 
z
" clip-path="url(#pe8af5b363b)" style="fill: url(#ha70df3c752); stroke: #d3d3d3; stroke-width: 0.8; stroke-linejoin: miter"/>
   </g>
   <g id="patch_123">
    <path d="M 435.96943 240.41201 
L 441.026493 240.41201 
L 441.026493 190.595409 
L 435.96943 190.595409 
z
" clip-path="url(#pe8af5b363b)" style="fill: url(#h841ef68eee); stroke: #d3d3d3; stroke-width: 0.8; stroke-linejoin: miter"/>
   </g>
   <g id="patch_124">
    <path d="M 495.464288 240.41201 
L 500.521351 240.41201 
L 500.521351 195.134263 
L 495.464288 195.134263 
z
" clip-path="url(#pe8af5b363b)" style="fill: url(#h841ef68eee); stroke: #d3d3d3; stroke-width: 0.8; stroke-linejoin: miter"/>
   </g>
   <g id="patch_125">
    <path d="M 554.959145 240.41201 
L 560.016208 240.41201 
L 560.016208 192.936079 
L 554.959145 192.936079 
z
" clip-path="url(#pe8af5b363b)" style="fill: url(#h841ef68eee); stroke: #d3d3d3; stroke-width: 0.8; stroke-linejoin: miter"/>
   </g>
   <g id="patch_126">
    <path d="M 614.454003 240.41201 
L 619.511066 240.41201 
L 619.511066 183.734586 
L 614.454003 183.734586 
z
" clip-path="url(#pe8af5b363b)" style="fill: url(#h841ef68eee); stroke: #d3d3d3; stroke-width: 0.8; stroke-linejoin: miter"/>
   </g>
   <g id="patch_127">
    <path d="M 673.94886 240.41201 
L 679.005923 240.41201 
L 679.005923 187.530812 
L 673.94886 187.530812 
z
" clip-path="url(#pe8af5b363b)" style="fill: url(#h841ef68eee); stroke: #d3d3d3; stroke-width: 0.8; stroke-linejoin: miter"/>
   </g>
   <g id="patch_128">
    <path d="M 415.741179 240.41201 
L 415.741179 240.41201 
L 415.741179 240.41201 
L 415.741179 240.41201 
z
" clip-path="url(#pe8af5b363b)" style="fill: #df2020"/>
   </g>
   <g id="patch_129">
    <path d="M 415.741179 240.41201 
L 415.741179 240.41201 
L 415.741179 240.41201 
L 415.741179 240.41201 
z
" clip-path="url(#pe8af5b363b)" style="fill: #7c5624"/>
   </g>
   <g id="patch_130">
    <path d="M 415.741179 240.41201 
L 415.741179 240.41201 
L 415.741179 240.41201 
L 415.741179 240.41201 
z
" clip-path="url(#pe8af5b363b)" style="fill: #df9c20"/>
   </g>
   <g id="patch_131">
    <path d="M 415.741179 240.41201 
L 415.741179 240.41201 
L 415.741179 240.41201 
L 415.741179 240.41201 
z
" clip-path="url(#pe8af5b363b)" style="fill: #107010"/>
   </g>
   <g id="patch_132">
    <path d="M 415.741179 240.41201 
L 415.741179 240.41201 
L 415.741179 240.41201 
L 415.741179 240.41201 
z
" clip-path="url(#pe8af5b363b)" style="fill: #94c9de"/>
   </g>
   <g id="patch_133">
    <path d="M 415.741179 240.41201 
L 415.741179 240.41201 
L 415.741179 240.41201 
L 415.741179 240.41201 
z
" clip-path="url(#pe8af5b363b)" style="fill: #bdbac7"/>
   </g>
   <g id="patch_134">
    <path d="M 415.741179 240.41201 
L 415.741179 240.41201 
L 415.741179 240.41201 
L 415.741179 240.41201 
z
" clip-path="url(#pe8af5b363b)" style="fill: #857aaa"/>
   </g>
   <g id="patch_135">
    <path d="M 415.741179 240.41201 
L 415.741179 240.41201 
L 415.741179 240.41201 
L 415.741179 240.41201 
z
" clip-path="url(#pe8af5b363b)" style="fill: #5f4aa2"/>
   </g>
   <g id="patch_136">
    <path d="M 415.741179 240.41201 
L 415.741179 240.41201 
L 415.741179 240.41201 
L 415.741179 240.41201 
z
" clip-path="url(#pe8af5b363b)" style="fill: #94c9de"/>
   </g>
   <g id="patch_137">
    <path d="M 415.741179 240.41201 
L 415.741179 240.41201 
L 415.741179 240.41201 
L 415.741179 240.41201 
z
" clip-path="url(#pe8af5b363b)" style="fill: #857aaa"/>
   </g>
   <g id="patch_138">
    <path d="M 430.912367 240.41201 
L 435.96943 240.41201 
L 435.96943 140.352347 
L 430.912367 140.352347 
z
" clip-path="url(#pe8af5b363b)" style="fill: url(#h692d65649c)"/>
   </g>
   <g id="patch_139">
    <path d="M 490.407225 240.41201 
L 495.464288 240.41201 
L 495.464288 142.134154 
L 490.407225 142.134154 
z
" clip-path="url(#pe8af5b363b)" style="fill: url(#h692d65649c)"/>
   </g>
   <g id="patch_140">
    <path d="M 549.902082 240.41201 
L 554.959145 240.41201 
L 554.959145 119.738596 
L 549.902082 119.738596 
z
" clip-path="url(#pe8af5b363b)" style="fill: url(#h692d65649c)"/>
   </g>
   <g id="patch_141">
    <path d="M 609.39694 240.41201 
L 614.454003 240.41201 
L 614.454003 129.242894 
L 609.39694 129.242894 
z
" clip-path="url(#pe8af5b363b)" style="fill: url(#h692d65649c)"/>
   </g>
   <g id="patch_142">
    <path d="M 668.891798 240.41201 
L 673.94886 240.41201 
L 673.94886 120.590397 
L 668.891798 120.590397 
z
" clip-path="url(#pe8af5b363b)" style="fill: url(#h692d65649c)"/>
   </g>
   <g id="patch_143">
    <path d="M 435.96943 240.41201 
L 441.026493 240.41201 
L 441.026493 190.595409 
L 435.96943 190.595409 
z
" clip-path="url(#pe8af5b363b)" style="fill: url(#h692d65649c)"/>
   </g>
   <g id="patch_144">
    <path d="M 495.464288 240.41201 
L 500.521351 240.41201 
L 500.521351 195.134263 
L 495.464288 195.134263 
z
" clip-path="url(#pe8af5b363b)" style="fill: url(#h692d65649c)"/>
   </g>
   <g id="patch_145">
    <path d="M 554.959145 240.41201 
L 560.016208 240.41201 
L 560.016208 192.936079 
L 554.959145 192.936079 
z
" clip-path="url(#pe8af5b363b)" style="fill: url(#h692d65649c)"/>
   </g>
   <g id="patch_146">
    <path d="M 614.454003 240.41201 
L 619.511066 240.41201 
L 619.511066 183.734586 
L 614.454003 183.734586 
z
" clip-path="url(#pe8af5b363b)" style="fill: url(#h692d65649c)"/>
   </g>
   <g id="patch_147">
    <path d="M 673.94886 240.41201 
L 679.005923 240.41201 
L 679.005923 187.530812 
L 673.94886 187.530812 
z
" clip-path="url(#pe8af5b363b)" style="fill: url(#h692d65649c)"/>
   </g>
   <g id="matplotlib.axis_3">
    <g id="xtick_6">
     <g id="line2d_61">
      <g>
       <use xlink:href="#m24026dd6ca" x="415.741179" y="237.597187" style="stroke: #000000; stroke-width: 0.8"/>
      </g>
     </g>
     <g id="text_12">
      <!-- GABAergic -->
      <g transform="translate(387.087492 274.848003) rotate(-20) scale(0.12 -0.12)">
       <use xlink:href="#DejaVuSans-47"/>
       <use xlink:href="#DejaVuSans-41" transform="translate(77.490234 0)"/>
       <use xlink:href="#DejaVuSans-42" transform="translate(145.898438 0)"/>
       <use xlink:href="#DejaVuSans-41" transform="translate(214.501953 0)"/>
       <use xlink:href="#DejaVuSans-65" transform="translate(281.160156 0)"/>
       <use xlink:href="#DejaVuSans-72" transform="translate(342.683594 0)"/>
       <use xlink:href="#DejaVuSans-67" transform="translate(382.046875 0)"/>
       <use xlink:href="#DejaVuSans-69" transform="translate(445.523438 0)"/>
       <use xlink:href="#DejaVuSans-63" transform="translate(473.306641 0)"/>
      </g>
     </g>
    </g>
    <g id="xtick_7">
     <g id="line2d_62">
      <g>
       <use xlink:href="#m24026dd6ca" x="475.236036" y="237.597187" style="stroke: #000000; stroke-width: 0.8"/>
      </g>
     </g>
     <g id="text_13">
      <!-- astrocyte -->
      <g transform="translate(450.008411 272.354035) rotate(-20) scale(0.12 -0.12)">
       <use xlink:href="#DejaVuSans-61"/>
       <use xlink:href="#DejaVuSans-73" transform="translate(61.279297 0)"/>
       <use xlink:href="#DejaVuSans-74" transform="translate(113.378906 0)"/>
       <use xlink:href="#DejaVuSans-72" transform="translate(152.587891 0)"/>
       <use xlink:href="#DejaVuSans-6f" transform="translate(191.451172 0)"/>
       <use xlink:href="#DejaVuSans-63" transform="translate(252.632812 0)"/>
       <use xlink:href="#DejaVuSans-79" transform="translate(307.613281 0)"/>
       <use xlink:href="#DejaVuSans-74" transform="translate(366.792969 0)"/>
       <use xlink:href="#DejaVuSans-65" transform="translate(406.001953 0)"/>
      </g>
     </g>
    </g>
    <g id="xtick_8">
     <g id="line2d_63">
      <g>
       <use xlink:href="#m24026dd6ca" x="534.730894" y="237.597187" style="stroke: #000000; stroke-width: 0.8"/>
      </g>
     </g>
     <g id="text_14">
      <!-- endothelial -->
      <g transform="translate(504.38488 276.079917) rotate(-20) scale(0.12 -0.12)">
       <use xlink:href="#DejaVuSans-65"/>
       <use xlink:href="#DejaVuSans-6e" transform="translate(61.523438 0)"/>
       <use xlink:href="#DejaVuSans-64" transform="translate(124.902344 0)"/>
       <use xlink:href="#DejaVuSans-6f" transform="translate(188.378906 0)"/>
       <use xlink:href="#DejaVuSans-74" transform="translate(249.560547 0)"/>
       <use xlink:href="#DejaVuSans-68" transform="translate(288.769531 0)"/>
       <use xlink:href="#DejaVuSans-65" transform="translate(352.148438 0)"/>
       <use xlink:href="#DejaVuSans-6c" transform="translate(413.671875 0)"/>
       <use xlink:href="#DejaVuSans-69" transform="translate(441.455078 0)"/>
       <use xlink:href="#DejaVuSans-61" transform="translate(469.238281 0)"/>
       <use xlink:href="#DejaVuSans-6c" transform="translate(530.517578 0)"/>
      </g>
     </g>
    </g>
    <g id="xtick_9">
     <g id="line2d_64">
      <g>
       <use xlink:href="#m24026dd6ca" x="594.225751" y="237.597187" style="stroke: #000000; stroke-width: 0.8"/>
      </g>
     </g>
     <g id="text_15">
      <!-- glutamatergic -->
      <g transform="translate(555.882366 281.901527) rotate(-20) scale(0.12 -0.12)">
       <use xlink:href="#DejaVuSans-67"/>
       <use xlink:href="#DejaVuSans-6c" transform="translate(63.476562 0)"/>
       <use xlink:href="#DejaVuSans-75" transform="translate(91.259766 0)"/>
       <use xlink:href="#DejaVuSans-74" transform="translate(154.638672 0)"/>
       <use xlink:href="#DejaVuSans-61" transform="translate(193.847656 0)"/>
       <use xlink:href="#DejaVuSans-6d" transform="translate(255.126953 0)"/>
       <use xlink:href="#DejaVuSans-61" transform="translate(352.539062 0)"/>
       <use xlink:href="#DejaVuSans-74" transform="translate(413.818359 0)"/>
       <use xlink:href="#DejaVuSans-65" transform="translate(453.027344 0)"/>
       <use xlink:href="#DejaVuSans-72" transform="translate(514.550781 0)"/>
       <use xlink:href="#DejaVuSans-67" transform="translate(553.914062 0)"/>
       <use xlink:href="#DejaVuSans-69" transform="translate(617.390625 0)"/>
       <use xlink:href="#DejaVuSans-63" transform="translate(645.173828 0)"/>
      </g>
     </g>
    </g>
    <g id="xtick_10">
     <g id="line2d_65">
      <g>
       <use xlink:href="#m24026dd6ca" x="653.720609" y="237.597187" style="stroke: #000000; stroke-width: 0.8"/>
      </g>
     </g>
     <g id="text_16">
      <!-- oligodendrocyte -->
      <g transform="translate(609.282729 286.337956) rotate(-20) scale(0.12 -0.12)">
       <use xlink:href="#DejaVuSans-6f"/>
       <use xlink:href="#DejaVuSans-6c" transform="translate(61.181641 0)"/>
       <use xlink:href="#DejaVuSans-69" transform="translate(88.964844 0)"/>
       <use xlink:href="#DejaVuSans-67" transform="translate(116.748047 0)"/>
       <use xlink:href="#DejaVuSans-6f" transform="translate(180.224609 0)"/>
       <use xlink:href="#DejaVuSans-64" transform="translate(241.40625 0)"/>
       <use xlink:href="#DejaVuSans-65" transform="translate(304.882812 0)"/>
       <use xlink:href="#DejaVuSans-6e" transform="translate(366.40625 0)"/>
       <use xlink:href="#DejaVuSans-64" transform="translate(429.785156 0)"/>
       <use xlink:href="#DejaVuSans-72" transform="translate(493.261719 0)"/>
       <use xlink:href="#DejaVuSans-6f" transform="translate(532.125 0)"/>
       <use xlink:href="#DejaVuSans-63" transform="translate(593.306641 0)"/>
       <use xlink:href="#DejaVuSans-79" transform="translate(648.287109 0)"/>
       <use xlink:href="#DejaVuSans-74" transform="translate(707.466797 0)"/>
       <use xlink:href="#DejaVuSans-65" transform="translate(746.675781 0)"/>
      </g>
     </g>
    </g>
   </g>
   <g id="matplotlib.axis_4">
    <g id="ytick_6">
     <g id="line2d_66">
      <g>
       <use xlink:href="#m528c248532" x="385.99375" y="211.510265" style="stroke: #000000; stroke-width: 0.8"/>
      </g>
     </g>
     <g id="text_17">
      <!-- 5 -->
      <g transform="translate(371.35875 216.069328) scale(0.12 -0.12)">
       <defs>
        <path id="DejaVuSans-35" d="M 691 4666 
L 3169 4666 
L 3169 4134 
L 1269 4134 
L 1269 2991 
Q 1406 3038 1543 3061 
Q 1681 3084 1819 3084 
Q 2600 3084 3056 2656 
Q 3513 2228 3513 1497 
Q 3513 744 3044 326 
Q 2575 -91 1722 -91 
Q 1428 -91 1123 -41 
Q 819 9 494 109 
L 494 744 
Q 775 591 1075 516 
Q 1375 441 1709 441 
Q 2250 441 2565 725 
Q 2881 1009 2881 1497 
Q 2881 1984 2565 2268 
Q 2250 2553 1709 2553 
Q 1456 2553 1204 2497 
Q 953 2441 691 2322 
L 691 4666 
z
" transform="scale(0.015625)"/>
       </defs>
       <use xlink:href="#DejaVuSans-35"/>
      </g>
     </g>
    </g>
    <g id="ytick_7">
     <g id="line2d_67">
      <g>
       <use xlink:href="#m528c248532" x="385.99375" y="182.608521" style="stroke: #000000; stroke-width: 0.8"/>
      </g>
     </g>
     <g id="text_18">
      <!-- 10 -->
      <g transform="translate(363.72375 187.167584) scale(0.12 -0.12)">
       <defs>
        <path id="DejaVuSans-31" d="M 794 531 
L 1825 531 
L 1825 4091 
L 703 3866 
L 703 4441 
L 1819 4666 
L 2450 4666 
L 2450 531 
L 3481 531 
L 3481 0 
L 794 0 
L 794 531 
z
" transform="scale(0.015625)"/>
       </defs>
       <use xlink:href="#DejaVuSans-31"/>
       <use xlink:href="#DejaVuSans-30" transform="translate(63.623047 0)"/>
      </g>
     </g>
    </g>
    <g id="ytick_8">
     <g id="line2d_68">
      <g>
       <use xlink:href="#m528c248532" x="385.99375" y="153.706777" style="stroke: #000000; stroke-width: 0.8"/>
      </g>
     </g>
     <g id="text_19">
      <!-- 15 -->
      <g transform="translate(363.72375 158.265839) scale(0.12 -0.12)">
       <use xlink:href="#DejaVuSans-31"/>
       <use xlink:href="#DejaVuSans-35" transform="translate(63.623047 0)"/>
      </g>
     </g>
    </g>
    <g id="ytick_9">
     <g id="line2d_69">
      <g>
       <use xlink:href="#m528c248532" x="385.99375" y="124.805033" style="stroke: #000000; stroke-width: 0.8"/>
      </g>
     </g>
     <g id="text_20">
      <!-- 20 -->
      <g transform="translate(363.72375 129.364095) scale(0.12 -0.12)">
       <use xlink:href="#DejaVuSans-32"/>
       <use xlink:href="#DejaVuSans-30" transform="translate(63.623047 0)"/>
      </g>
     </g>
    </g>
    <g id="ytick_10">
     <g id="line2d_70">
      <g>
       <use xlink:href="#m528c248532" x="385.99375" y="95.903289" style="stroke: #000000; stroke-width: 0.8"/>
      </g>
     </g>
     <g id="text_21">
      <!-- 25 -->
      <g transform="translate(363.72375 100.462351) scale(0.12 -0.12)">
       <use xlink:href="#DejaVuSans-32"/>
       <use xlink:href="#DejaVuSans-35" transform="translate(63.623047 0)"/>
      </g>
     </g>
    </g>
    <g id="ytick_11">
     <g id="line2d_71">
      <g>
       <use xlink:href="#m528c248532" x="385.99375" y="67.001544" style="stroke: #000000; stroke-width: 0.8"/>
      </g>
     </g>
     <g id="text_22">
      <!-- 30 -->
      <g transform="translate(363.72375 71.560607) scale(0.12 -0.12)">
       <defs>
        <path id="DejaVuSans-33" d="M 2597 2516 
Q 3050 2419 3304 2112 
Q 3559 1806 3559 1356 
Q 3559 666 3084 287 
Q 2609 -91 1734 -91 
Q 1441 -91 1130 -33 
Q 819 25 488 141 
L 488 750 
Q 750 597 1062 519 
Q 1375 441 1716 441 
Q 2309 441 2620 675 
Q 2931 909 2931 1356 
Q 2931 1769 2642 2001 
Q 2353 2234 1838 2234 
L 1294 2234 
L 1294 2753 
L 1863 2753 
Q 2328 2753 2575 2939 
Q 2822 3125 2822 3475 
Q 2822 3834 2567 4026 
Q 2313 4219 1838 4219 
Q 1578 4219 1281 4162 
Q 984 4106 628 3988 
L 628 4550 
Q 988 4650 1302 4700 
Q 1616 4750 1894 4750 
Q 2613 4750 3031 4423 
Q 3450 4097 3450 3541 
Q 3450 3153 3228 2886 
Q 3006 2619 2597 2516 
z
" transform="scale(0.015625)"/>
       </defs>
       <use xlink:href="#DejaVuSans-33"/>
       <use xlink:href="#DejaVuSans-30" transform="translate(63.623047 0)"/>
      </g>
     </g>
    </g>
    <g id="ytick_12">
     <g id="line2d_72">
      <g>
       <use xlink:href="#m528c248532" x="385.99375" y="38.0998" style="stroke: #000000; stroke-width: 0.8"/>
      </g>
     </g>
     <g id="text_23">
      <!-- 35 -->
      <g transform="translate(363.72375 42.658863) scale(0.12 -0.12)">
       <use xlink:href="#DejaVuSans-33"/>
       <use xlink:href="#DejaVuSans-35" transform="translate(63.623047 0)"/>
      </g>
     </g>
    </g>
   </g>
   <g id="line2d_73">
    <path d="M 392.984396 95.938924 
L 392.984396 69.328572 
" clip-path="url(#pe8af5b363b)" style="fill: none; stroke: #424242; stroke-width: 2.25; stroke-linecap: square"/>
   </g>
   <g id="line2d_74">
    <path d="M 452.479253 135.84749 
L 452.479253 122.077416 
" clip-path="url(#pe8af5b363b)" style="fill: none; stroke: #424242; stroke-width: 2.25; stroke-linecap: square"/>
   </g>
   <g id="line2d_75">
    <path d="M 511.974111 115.119289 
L 511.974111 97.207667 
" clip-path="url(#pe8af5b363b)" style="fill: none; stroke: #424242; stroke-width: 2.25; stroke-linecap: square"/>
   </g>
   <g id="line2d_76">
    <path d="M 571.468968 56.863375 
L 571.468968 42.394626 
" clip-path="url(#pe8af5b363b)" style="fill: none; stroke: #424242; stroke-width: 2.25; stroke-linecap: square"/>
   </g>
   <g id="line2d_77">
    <path d="M 630.963826 130.520492 
L 630.963826 99.738211 
" clip-path="url(#pe8af5b363b)" style="fill: none; stroke: #424242; stroke-width: 2.25; stroke-linecap: square"/>
   </g>
   <g id="line2d_78">
    <path d="M 398.041459 198.52261 
L 398.041459 190.728288 
" clip-path="url(#pe8af5b363b)" style="fill: none; stroke: #424242; stroke-width: 2.25; stroke-linecap: square"/>
   </g>
   <g id="line2d_79">
    <path d="M 457.536316 208.298024 
L 457.536316 205.055572 
" clip-path="url(#pe8af5b363b)" style="fill: none; stroke: #424242; stroke-width: 2.25; stroke-linecap: square"/>
   </g>
   <g id="line2d_80">
    <path d="M 517.031174 210.803797 
L 517.031174 209.407829 
" clip-path="url(#pe8af5b363b)" style="fill: none; stroke: #424242; stroke-width: 2.25; stroke-linecap: square"/>
   </g>
   <g id="line2d_81">
    <path d="M 576.526031 173.012765 
L 576.526031 169.419504 
" clip-path="url(#pe8af5b363b)" style="fill: none; stroke: #424242; stroke-width: 2.25; stroke-linecap: square"/>
   </g>
   <g id="line2d_82">
    <path d="M 636.020889 211.311451 
L 636.020889 208.501462 
" clip-path="url(#pe8af5b363b)" style="fill: none; stroke: #424242; stroke-width: 2.25; stroke-linecap: square"/>
   </g>
   <g id="line2d_83">
    <path d="M 403.098522 208.521678 
L 403.098522 202.032402 
" clip-path="url(#pe8af5b363b)" style="fill: none; stroke: #424242; stroke-width: 2.25; stroke-linecap: square"/>
   </g>
   <g id="line2d_84">
    <path d="M 462.593379 224.467148 
L 462.593379 219.8253 
" clip-path="url(#pe8af5b363b)" style="fill: none; stroke: #424242; stroke-width: 2.25; stroke-linecap: square"/>
   </g>
   <g id="line2d_85">
    <path d="M 522.088237 228.225386 
L 522.088237 223.483386 
" clip-path="url(#pe8af5b363b)" style="fill: none; stroke: #424242; stroke-width: 2.25; stroke-linecap: square"/>
   </g>
   <g id="line2d_86">
    <path d="M 581.583094 175.461988 
L 581.583094 156.461039 
" clip-path="url(#pe8af5b363b)" style="fill: none; stroke: #424242; stroke-width: 2.25; stroke-linecap: square"/>
   </g>
   <g id="line2d_87">
    <path d="M 641.077952 230.684223 
L 641.077952 229.977846 
" clip-path="url(#pe8af5b363b)" style="fill: none; stroke: #424242; stroke-width: 2.25; stroke-linecap: square"/>
   </g>
   <g id="line2d_88">
    <path d="M 408.155584 135.340186 
L 408.155584 129.365236 
" clip-path="url(#pe8af5b363b)" style="fill: none; stroke: #424242; stroke-width: 2.25; stroke-linecap: square"/>
   </g>
   <g id="line2d_89">
    <path d="M 467.650442 119.948574 
L 467.650442 113.989081 
" clip-path="url(#pe8af5b363b)" style="fill: none; stroke: #424242; stroke-width: 2.25; stroke-linecap: square"/>
   </g>
   <g id="line2d_90">
    <path d="M 527.145299 127.091313 
L 527.145299 121.568928 
" clip-path="url(#pe8af5b363b)" style="fill: none; stroke: #424242; stroke-width: 2.25; stroke-linecap: square"/>
   </g>
   <g id="line2d_91">
    <path d="M 586.640157 133.895238 
L 586.640157 130.055932 
" clip-path="url(#pe8af5b363b)" style="fill: none; stroke: #424242; stroke-width: 2.25; stroke-linecap: square"/>
   </g>
   <g id="line2d_92">
    <path d="M 646.135015 125.220934 
L 646.135015 112.334253 
" clip-path="url(#pe8af5b363b)" style="fill: none; stroke: #424242; stroke-width: 2.25; stroke-linecap: square"/>
   </g>
   <g id="line2d_93">
    <path d="M 413.212647 145.076667 
L 413.212647 135.320721 
" clip-path="url(#pe8af5b363b)" style="fill: none; stroke: #424242; stroke-width: 2.25; stroke-linecap: square"/>
   </g>
   <g id="line2d_94">
    <path d="M 472.707505 142.886935 
L 472.707505 142.016862 
" clip-path="url(#pe8af5b363b)" style="fill: none; stroke: #424242; stroke-width: 2.25; stroke-linecap: square"/>
   </g>
   <g id="line2d_95">
    <path d="M 532.202362 123.50818 
L 532.202362 116.856449 
" clip-path="url(#pe8af5b363b)" style="fill: none; stroke: #424242; stroke-width: 2.25; stroke-linecap: square"/>
   </g>
   <g id="line2d_96">
    <path d="M 591.69722 140.563436 
L 591.69722 119.242752 
" clip-path="url(#pe8af5b363b)" style="fill: none; stroke: #424242; stroke-width: 2.25; stroke-linecap: square"/>
   </g>
   <g id="line2d_97">
    <path d="M 651.192077 124.076575 
L 651.192077 115.402894 
" clip-path="url(#pe8af5b363b)" style="fill: none; stroke: #424242; stroke-width: 2.25; stroke-linecap: square"/>
   </g>
   <g id="line2d_98">
    <path d="M 418.26971 197.140611 
L 418.26971 194.052441 
" clip-path="url(#pe8af5b363b)" style="fill: none; stroke: #424242; stroke-width: 2.25; stroke-linecap: square"/>
   </g>
   <g id="line2d_99">
    <path d="M 477.764568 209.734395 
L 477.764568 205.772937 
" clip-path="url(#pe8af5b363b)" style="fill: none; stroke: #424242; stroke-width: 2.25; stroke-linecap: square"/>
   </g>
   <g id="line2d_100">
    <path d="M 537.259425 209.493138 
L 537.259425 205.589185 
" clip-path="url(#pe8af5b363b)" style="fill: none; stroke: #424242; stroke-width: 2.25; stroke-linecap: square"/>
   </g>
   <g id="line2d_101">
    <path d="M 596.754283 173.876152 
L 596.754283 151.275476 
" clip-path="url(#pe8af5b363b)" style="fill: none; stroke: #424242; stroke-width: 2.25; stroke-linecap: square"/>
   </g>
   <g id="line2d_102">
    <path d="M 656.24914 204.927877 
L 656.24914 201.392292 
" clip-path="url(#pe8af5b363b)" style="fill: none; stroke: #424242; stroke-width: 2.25; stroke-linecap: square"/>
   </g>
   <g id="line2d_103">
    <path d="M 423.326773 200.839804 
L 423.326773 197.909196 
" clip-path="url(#pe8af5b363b)" style="fill: none; stroke: #424242; stroke-width: 2.25; stroke-linecap: square"/>
   </g>
   <g id="line2d_104">
    <path d="M 482.821631 208.959683 
L 482.821631 205.513105 
" clip-path="url(#pe8af5b363b)" style="fill: none; stroke: #424242; stroke-width: 2.25; stroke-linecap: square"/>
   </g>
   <g id="line2d_105">
    <path d="M 542.316488 203.981193 
L 542.316488 201.648472 
" clip-path="url(#pe8af5b363b)" style="fill: none; stroke: #424242; stroke-width: 2.25; stroke-linecap: square"/>
   </g>
   <g id="line2d_106">
    <path d="M 601.811346 198.572774 
L 601.811346 195.062373 
" clip-path="url(#pe8af5b363b)" style="fill: none; stroke: #424242; stroke-width: 2.25; stroke-linecap: square"/>
   </g>
   <g id="line2d_107">
    <path d="M 661.306203 204.851559 
L 661.306203 199.895743 
" clip-path="url(#pe8af5b363b)" style="fill: none; stroke: #424242; stroke-width: 2.25; stroke-linecap: square"/>
   </g>
   <g id="line2d_108">
    <path d="M 428.383836 190.915659 
L 428.383836 187.965657 
" clip-path="url(#pe8af5b363b)" style="fill: none; stroke: #424242; stroke-width: 2.25; stroke-linecap: square"/>
   </g>
   <g id="line2d_109">
    <path d="M 487.878694 205.540623 
L 487.878694 204.513879 
" clip-path="url(#pe8af5b363b)" style="fill: none; stroke: #424242; stroke-width: 2.25; stroke-linecap: square"/>
   </g>
   <g id="line2d_110">
    <path d="M 547.373551 198.750649 
L 547.373551 193.703125 
" clip-path="url(#pe8af5b363b)" style="fill: none; stroke: #424242; stroke-width: 2.25; stroke-linecap: square"/>
   </g>
   <g id="line2d_111">
    <path d="M 606.868409 185.75101 
L 606.868409 177.220406 
" clip-path="url(#pe8af5b363b)" style="fill: none; stroke: #424242; stroke-width: 2.25; stroke-linecap: square"/>
   </g>
   <g id="line2d_112">
    <path d="M 666.363266 202.157553 
L 666.363266 197.817178 
" clip-path="url(#pe8af5b363b)" style="fill: none; stroke: #424242; stroke-width: 2.25; stroke-linecap: square"/>
   </g>
   <g id="line2d_113">
    <path d="M 433.440899 144.898176 
L 433.440899 135.806518 
" clip-path="url(#pe8af5b363b)" style="fill: none; stroke: #424242; stroke-width: 2.25; stroke-linecap: square"/>
   </g>
   <g id="line2d_114">
    <path d="M 492.935756 142.776654 
L 492.935756 141.491654 
" clip-path="url(#pe8af5b363b)" style="fill: none; stroke: #424242; stroke-width: 2.25; stroke-linecap: square"/>
   </g>
   <g id="line2d_115">
    <path d="M 552.430614 122.914156 
L 552.430614 116.563035 
" clip-path="url(#pe8af5b363b)" style="fill: none; stroke: #424242; stroke-width: 2.25; stroke-linecap: square"/>
   </g>
   <g id="line2d_116">
    <path d="M 611.925471 140.786864 
L 611.925471 117.698923 
" clip-path="url(#pe8af5b363b)" style="fill: none; stroke: #424242; stroke-width: 2.25; stroke-linecap: square"/>
   </g>
   <g id="line2d_117">
    <path d="M 671.420329 124.824577 
L 671.420329 116.356217 
" clip-path="url(#pe8af5b363b)" style="fill: none; stroke: #424242; stroke-width: 2.25; stroke-linecap: square"/>
   </g>
   <g id="line2d_118">
    <path d="M 438.497962 192.20617 
L 438.497962 188.984649 
" clip-path="url(#pe8af5b363b)" style="fill: none; stroke: #424242; stroke-width: 2.25; stroke-linecap: square"/>
   </g>
   <g id="line2d_119">
    <path d="M 497.992819 196.194534 
L 497.992819 194.073991 
" clip-path="url(#pe8af5b363b)" style="fill: none; stroke: #424242; stroke-width: 2.25; stroke-linecap: square"/>
   </g>
   <g id="line2d_120">
    <path d="M 557.487677 194.817363 
L 557.487677 191.054796 
" clip-path="url(#pe8af5b363b)" style="fill: none; stroke: #424242; stroke-width: 2.25; stroke-linecap: square"/>
   </g>
   <g id="line2d_121">
    <path d="M 616.982534 187.380102 
L 616.982534 180.08907 
" clip-path="url(#pe8af5b363b)" style="fill: none; stroke: #424242; stroke-width: 2.25; stroke-linecap: square"/>
   </g>
   <g id="line2d_122">
    <path d="M 676.477392 189.77467 
L 676.477392 185.286953 
" clip-path="url(#pe8af5b363b)" style="fill: none; stroke: #424242; stroke-width: 2.25; stroke-linecap: square"/>
   </g>
   <g id="patch_148">
    <path d="M 385.99375 237.597187 
L 385.99375 26.877187 
" style="fill: none; stroke: #000000; stroke-width: 0.8; stroke-linejoin: miter; stroke-linecap: square"/>
   </g>
   <g id="patch_149">
    <path d="M 683.468038 237.597187 
L 683.468038 26.877187 
" style="fill: none; stroke: #000000; stroke-width: 0.8; stroke-linejoin: miter; stroke-linecap: square"/>
   </g>
   <g id="patch_150">
    <path d="M 385.99375 237.597187 
L 683.468038 237.597187 
" style="fill: none; stroke: #000000; stroke-width: 0.8; stroke-linejoin: miter; stroke-linecap: square"/>
   </g>
   <g id="patch_151">
    <path d="M 385.99375 26.877187 
L 683.468038 26.877187 
" style="fill: none; stroke: #000000; stroke-width: 0.8; stroke-linejoin: miter; stroke-linecap: square"/>
   </g>
   <g id="text_24">
    <!-- E-distance ↓ -->
    <g transform="translate(477.258863 20.877187) scale(0.18 -0.18)">
     <defs>
      <path id="DejaVuSans-45" d="M 628 4666 
L 3578 4666 
L 3578 4134 
L 1259 4134 
L 1259 2753 
L 3481 2753 
L 3481 2222 
L 1259 2222 
L 1259 531 
L 3634 531 
L 3634 0 
L 628 0 
L 628 4666 
z
" transform="scale(0.015625)"/>
      <path id="DejaVuSans-2d" d="M 313 2009 
L 1997 2009 
L 1997 1497 
L 313 1497 
L 313 2009 
z
" transform="scale(0.015625)"/>
      <path id="DejaVuSans-2193" d="M 2822 -22 
L 2541 -22 
L 1309 1209 
L 1684 1584 
L 2416 853 
L 2416 4666 
L 2947 4666 
L 2947 853 
L 3672 1584 
L 4047 1209 
L 2822 -22 
z
" transform="scale(0.015625)"/>
     </defs>
     <use xlink:href="#DejaVuSans-45"/>
     <use xlink:href="#DejaVuSans-2d" transform="translate(63.183594 0)"/>
     <use xlink:href="#DejaVuSans-64" transform="translate(99.267578 0)"/>
     <use xlink:href="#DejaVuSans-69" transform="translate(162.744141 0)"/>
     <use xlink:href="#DejaVuSans-73" transform="translate(190.527344 0)"/>
     <use xlink:href="#DejaVuSans-74" transform="translate(242.626953 0)"/>
     <use xlink:href="#DejaVuSans-61" transform="translate(281.835938 0)"/>
     <use xlink:href="#DejaVuSans-6e" transform="translate(343.115234 0)"/>
     <use xlink:href="#DejaVuSans-63" transform="translate(406.494141 0)"/>
     <use xlink:href="#DejaVuSans-65" transform="translate(461.474609 0)"/>
     <use xlink:href="#DejaVuSans-20" transform="translate(522.998047 0)"/>
     <use xlink:href="#DejaVuSans-2193" transform="translate(554.785156 0)"/>
    </g>
   </g>
  </g>
 </g>
 <defs>
  <clipPath id="p01c1a9017b">
   <rect x="33.28375" y="26.877187" width="297.474288" height="210.72"/>
  </clipPath>
  <clipPath id="pe8af5b363b">
   <rect x="385.99375" y="26.877187" width="297.474288" height="210.72"/>
  </clipPath>
 </defs>
 <defs>
  <pattern id="ha70df3c752" patternUnits="userSpaceOnUse" x="0" y="0" width="72" height="72">
   <rect x="0" y="0" width="73" height="73" fill="#94c9de"/>
   <path d="M -36 36 
L 36 -36 
M -32 40 
L 40 -32 
M -28 44 
L 44 -28 
M -24 48 
L 48 -24 
M -20 52 
L 52 -20 
M -16 56 
L 56 -16 
M -12 60 
L 60 -12 
M -8 64 
L 64 -8 
M -4 68 
L 68 -4 
M 0 72 
L 72 0 
M 4 76 
L 76 4 
M 8 80 
L 80 8 
M 12 84 
L 84 12 
M 16 88 
L 88 16 
M 20 92 
L 92 20 
M 24 96 
L 96 24 
M 28 100 
L 100 28 
M 32 104 
L 104 32 
M 36 108 
L 108 36 
" style="fill: #d3d3d3; stroke: #d3d3d3; stroke-width: 1.0; stroke-linecap: butt; stroke-linejoin: miter"/>
  </pattern>
  <pattern id="h841ef68eee" patternUnits="userSpaceOnUse" x="0" y="0" width="72" height="72">
   <rect x="0" y="0" width="73" height="73" fill="#857aaa"/>
   <path d="M -36 36 
L 36 -36 
M -32 40 
L 40 -32 
M -28 44 
L 44 -28 
M -24 48 
L 48 -24 
M -20 52 
L 52 -20 
M -16 56 
L 56 -16 
M -12 60 
L 60 -12 
M -8 64 
L 64 -8 
M -4 68 
L 68 -4 
M 0 72 
L 72 0 
M 4 76 
L 76 4 
M 8 80 
L 80 8 
M 12 84 
L 84 12 
M 16 88 
L 88 16 
M 20 92 
L 92 20 
M 24 96 
L 96 24 
M 28 100 
L 100 28 
M 32 104 
L 104 32 
M 36 108 
L 108 36 
" style="fill: #d3d3d3; stroke: #d3d3d3; stroke-width: 1.0; stroke-linecap: butt; stroke-linejoin: miter"/>
  </pattern>
  <pattern id="h692d65649c" patternUnits="userSpaceOnUse" x="0" y="0" width="72" height="72">
   <rect x="0" y="0" width="73" height="73" fill="none"/>
   <path d="M -36 36 
L 36 -36 
M -32 40 
L 40 -32 
M -28 44 
L 44 -28 
M -24 48 
L 48 -24 
M -20 52 
L 52 -20 
M -16 56 
L 56 -16 
M -12 60 
L 60 -12 
M -8 64 
L 64 -8 
M -4 68 
L 68 -4 
M 0 72 
L 72 0 
M 4 76 
L 76 4 
M 8 80 
L 80 8 
M 12 84 
L 84 12 
M 16 88 
L 88 16 
M 20 92 
L 92 20 
M 24 96 
L 96 24 
M 28 100 
L 100 28 
M 32 104 
L 104 32 
M 36 108 
L 108 36 
" style="fill: #000000; stroke: #000000; stroke-width: 1.0; stroke-linecap: butt; stroke-linejoin: miter"/>
  </pattern>
 </defs>
</svg>
