<?xml version="1.0" encoding="utf-8" standalone="no"?>
<!DOCTYPE svg PUBLIC "-//W3C//DTD SVG 1.1//EN"
  "http://www.w3.org/Graphics/SVG/1.1/DTD/svg11.dtd">
<svg xmlns:xlink="http://www.w3.org/1999/xlink" width="708.481571pt" height="294.443076pt" viewBox="0 0 708.481571 294.443076" xmlns="http://www.w3.org/2000/svg" version="1.1">
 <metadata>
  <rdf:RDF xmlns:dc="http://purl.org/dc/elements/1.1/" xmlns:cc="http://creativecommons.org/ns#" xmlns:rdf="http://www.w3.org/1999/02/22-rdf-syntax-ns#">
   <cc:Work>
    <dc:type rdf:resource="http://purl.org/dc/dcmitype/StillImage"/>
    <dc:date>2026-05-01T20:29:13.607055</dc:date>
    <dc:format>image/svg+xml</dc:format>
    <dc:creator>
     <cc:Agent>
      <dc:title>Matplotlib v3.10.8, https://matplotlib.org/</dc:title>
     </cc:Agent>
    </dc:creator>
   </cc:Work>
  </rdf:RDF>
 </metadata>
 <defs>
  <style type="text/css">*{stroke-linejoin: round; stroke-linecap: butt}</style>
 </defs>
 <g id="figure_1">
  <g id="patch_1">
   <path d="M 0 294.443076 
L 708.481571 294.443076 
L 708.481571 0 
L 0 0 
z
" style="fill: #ffffff"/>
  </g>
  <g id="axes_1">
   <g id="patch_2">
    <path d="M 33.28375 236.157187 
L 330.713038 236.157187 
L 330.713038 26.877187 
L 33.28375 26.877187 
z
" style="fill: #ffffff"/>
   </g>
   <g id="patch_3">
    <path d="M 37.745189 290.818969 
L 42.801487 290.818969 
L 42.801487 100.207599 
L 37.745189 100.207599 
z
" clip-path="url(#pfe9a7ae289)" style="fill: #df2020; stroke: #d3d3d3; stroke-width: 0.8; stroke-linejoin: miter"/>
   </g>
   <g id="patch_4">
    <path d="M 97.231047 290.818969 
L 102.287345 290.818969 
L 102.287345 82.002779 
L 97.231047 82.002779 
z
" clip-path="url(#pfe9a7ae289)" style="fill: #df2020; stroke: #d3d3d3; stroke-width: 0.8; stroke-linejoin: miter"/>
   </g>
   <g id="patch_5">
    <path d="M 156.716904 290.818969 
L 161.773202 290.818969 
L 161.773202 88.037442 
L 156.716904 88.037442 
z
" clip-path="url(#pfe9a7ae289)" style="fill: #df2020; stroke: #d3d3d3; stroke-width: 0.8; stroke-linejoin: miter"/>
   </g>
   <g id="patch_6">
    <path d="M 216.202762 290.818969 
L 221.25906 290.818969 
L 221.25906 51.497312 
L 216.202762 51.497312 
z
" clip-path="url(#pfe9a7ae289)" style="fill: #df2020; stroke: #d3d3d3; stroke-width: 0.8; stroke-linejoin: miter"/>
   </g>
   <g id="patch_7">
    <path d="M 275.688619 290.818969 
L 280.744917 290.818969 
L 280.744917 71.848164 
L 275.688619 71.848164 
z
" clip-path="url(#pfe9a7ae289)" style="fill: #df2020; stroke: #d3d3d3; stroke-width: 0.8; stroke-linejoin: miter"/>
   </g>
   <g id="patch_8">
    <path d="M 42.801487 290.818969 
L 47.857785 290.818969 
L 47.857785 100.62085 
L 42.801487 100.62085 
z
" clip-path="url(#pfe9a7ae289)" style="fill: #7c5624; stroke: #d3d3d3; stroke-width: 0.8; stroke-linejoin: miter"/>
   </g>
   <g id="patch_9">
    <path d="M 102.287345 290.818969 
L 107.343643 290.818969 
L 107.343643 81.024445 
L 102.287345 81.024445 
z
" clip-path="url(#pfe9a7ae289)" style="fill: #7c5624; stroke: #d3d3d3; stroke-width: 0.8; stroke-linejoin: miter"/>
   </g>
   <g id="patch_10">
    <path d="M 161.773202 290.818969 
L 166.8295 290.818969 
L 166.8295 83.079776 
L 161.773202 83.079776 
z
" clip-path="url(#pfe9a7ae289)" style="fill: #7c5624; stroke: #d3d3d3; stroke-width: 0.8; stroke-linejoin: miter"/>
   </g>
   <g id="patch_11">
    <path d="M 221.25906 290.818969 
L 226.315358 290.818969 
L 226.315358 54.568088 
L 221.25906 54.568088 
z
" clip-path="url(#pfe9a7ae289)" style="fill: #7c5624; stroke: #d3d3d3; stroke-width: 0.8; stroke-linejoin: miter"/>
   </g>
   <g id="patch_12">
    <path d="M 280.744917 290.818969 
L 285.801215 290.818969 
L 285.801215 66.886399 
L 280.744917 66.886399 
z
" clip-path="url(#pfe9a7ae289)" style="fill: #7c5624; stroke: #d3d3d3; stroke-width: 0.8; stroke-linejoin: miter"/>
   </g>
   <g id="patch_13">
    <path d="M 47.857785 290.818969 
L 52.914083 290.818969 
L 52.914083 99.547029 
L 47.857785 99.547029 
z
" clip-path="url(#pfe9a7ae289)" style="fill: #df9c20; stroke: #d3d3d3; stroke-width: 0.8; stroke-linejoin: miter"/>
   </g>
   <g id="patch_14">
    <path d="M 107.343643 290.818969 
L 112.399941 290.818969 
L 112.399941 84.047798 
L 107.343643 84.047798 
z
" clip-path="url(#pfe9a7ae289)" style="fill: #df9c20; stroke: #d3d3d3; stroke-width: 0.8; stroke-linejoin: miter"/>
   </g>
   <g id="patch_15">
    <path d="M 166.8295 290.818969 
L 171.885798 290.818969 
L 171.885798 88.18534 
L 166.8295 88.18534 
z
" clip-path="url(#pfe9a7ae289)" style="fill: #df9c20; stroke: #d3d3d3; stroke-width: 0.8; stroke-linejoin: miter"/>
   </g>
   <g id="patch_16">
    <path d="M 226.315358 290.818969 
L 231.371656 290.818969 
L 231.371656 51.875759 
L 226.315358 51.875759 
z
" clip-path="url(#pfe9a7ae289)" style="fill: #df9c20; stroke: #d3d3d3; stroke-width: 0.8; stroke-linejoin: miter"/>
   </g>
   <g id="patch_17">
    <path d="M 285.801215 290.818969 
L 290.857513 290.818969 
L 290.857513 71.05331 
L 285.801215 71.05331 
z
" clip-path="url(#pfe9a7ae289)" style="fill: #df9c20; stroke: #d3d3d3; stroke-width: 0.8; stroke-linejoin: miter"/>
   </g>
   <g id="patch_18">
    <path d="M 52.914083 290.818969 
L 57.970381 290.818969 
L 57.970381 76.933621 
L 52.914083 76.933621 
z
" clip-path="url(#pfe9a7ae289)" style="fill: #107010; stroke: #d3d3d3; stroke-width: 0.8; stroke-linejoin: miter"/>
   </g>
   <g id="patch_19">
    <path d="M 112.399941 290.818969 
L 117.456238 290.818969 
L 117.456238 71.452708 
L 112.399941 71.452708 
z
" clip-path="url(#pfe9a7ae289)" style="fill: #107010; stroke: #d3d3d3; stroke-width: 0.8; stroke-linejoin: miter"/>
   </g>
   <g id="patch_20">
    <path d="M 171.885798 290.818969 
L 176.942096 290.818969 
L 176.942096 70.928532 
L 171.885798 70.928532 
z
" clip-path="url(#pfe9a7ae289)" style="fill: #107010; stroke: #d3d3d3; stroke-width: 0.8; stroke-linejoin: miter"/>
   </g>
   <g id="patch_21">
    <path d="M 231.371656 290.818969 
L 236.427953 290.818969 
L 236.427953 40.692275 
L 231.371656 40.692275 
z
" clip-path="url(#pfe9a7ae289)" style="fill: #107010; stroke: #d3d3d3; stroke-width: 0.8; stroke-linejoin: miter"/>
   </g>
   <g id="patch_22">
    <path d="M 290.857513 290.818969 
L 295.913811 290.818969 
L 295.913811 84.998641 
L 290.857513 84.998641 
z
" clip-path="url(#pfe9a7ae289)" style="fill: #107010; stroke: #d3d3d3; stroke-width: 0.8; stroke-linejoin: miter"/>
   </g>
   <g id="patch_23">
    <path d="M 57.970381 290.818969 
L 63.026679 290.818969 
L 63.026679 82.428026 
L 57.970381 82.428026 
z
" clip-path="url(#pfe9a7ae289)" style="fill: #94c9de; stroke: #d3d3d3; stroke-width: 0.8; stroke-linejoin: miter"/>
   </g>
   <g id="patch_24">
    <path d="M 117.456238 290.818969 
L 122.512536 290.818969 
L 122.512536 76.78021 
L 117.456238 76.78021 
z
" clip-path="url(#pfe9a7ae289)" style="fill: #94c9de; stroke: #d3d3d3; stroke-width: 0.8; stroke-linejoin: miter"/>
   </g>
   <g id="patch_25">
    <path d="M 176.942096 290.818969 
L 181.998394 290.818969 
L 181.998394 77.959739 
L 176.942096 77.959739 
z
" clip-path="url(#pfe9a7ae289)" style="fill: #94c9de; stroke: #d3d3d3; stroke-width: 0.8; stroke-linejoin: miter"/>
   </g>
   <g id="patch_26">
    <path d="M 236.427953 290.818969 
L 241.484251 290.818969 
L 241.484251 44.508223 
L 236.427953 44.508223 
z
" clip-path="url(#pfe9a7ae289)" style="fill: #94c9de; stroke: #d3d3d3; stroke-width: 0.8; stroke-linejoin: miter"/>
   </g>
   <g id="patch_27">
    <path d="M 295.913811 290.818969 
L 300.970109 290.818969 
L 300.970109 92.204218 
L 295.913811 92.204218 
z
" clip-path="url(#pfe9a7ae289)" style="fill: #94c9de; stroke: #d3d3d3; stroke-width: 0.8; stroke-linejoin: miter"/>
   </g>
   <g id="patch_28">
    <path d="M 63.026679 290.818969 
L 68.082977 290.818969 
L 68.082977 98.822876 
L 63.026679 98.822876 
z
" clip-path="url(#pfe9a7ae289)" style="fill: #bdbac7; stroke: #d3d3d3; stroke-width: 0.8; stroke-linejoin: miter"/>
   </g>
   <g id="patch_29">
    <path d="M 122.512536 290.818969 
L 127.568834 290.818969 
L 127.568834 80.091554 
L 122.512536 80.091554 
z
" clip-path="url(#pfe9a7ae289)" style="fill: #bdbac7; stroke: #d3d3d3; stroke-width: 0.8; stroke-linejoin: miter"/>
   </g>
   <g id="patch_30">
    <path d="M 181.998394 290.818969 
L 187.054692 290.818969 
L 187.054692 81.992521 
L 181.998394 81.992521 
z
" clip-path="url(#pfe9a7ae289)" style="fill: #bdbac7; stroke: #d3d3d3; stroke-width: 0.8; stroke-linejoin: miter"/>
   </g>
   <g id="patch_31">
    <path d="M 241.484251 290.818969 
L 246.540549 290.818969 
L 246.540549 51.52054 
L 241.484251 51.52054 
z
" clip-path="url(#pfe9a7ae289)" style="fill: #bdbac7; stroke: #d3d3d3; stroke-width: 0.8; stroke-linejoin: miter"/>
   </g>
   <g id="patch_32">
    <path d="M 300.970109 290.818969 
L 306.026407 290.818969 
L 306.026407 66.387096 
L 300.970109 66.387096 
z
" clip-path="url(#pfe9a7ae289)" style="fill: #bdbac7; stroke: #d3d3d3; stroke-width: 0.8; stroke-linejoin: miter"/>
   </g>
   <g id="patch_33">
    <path d="M 68.082977 290.818969 
L 73.139275 290.818969 
L 73.139275 101.633783 
L 68.082977 101.633783 
z
" clip-path="url(#pfe9a7ae289)" style="fill: #857aaa; stroke: #d3d3d3; stroke-width: 0.8; stroke-linejoin: miter"/>
   </g>
   <g id="patch_34">
    <path d="M 127.568834 290.818969 
L 132.625132 290.818969 
L 132.625132 80.213459 
L 127.568834 80.213459 
z
" clip-path="url(#pfe9a7ae289)" style="fill: #857aaa; stroke: #d3d3d3; stroke-width: 0.8; stroke-linejoin: miter"/>
   </g>
   <g id="patch_35">
    <path d="M 187.054692 290.818969 
L 192.11099 290.818969 
L 192.11099 81.951521 
L 187.054692 81.951521 
z
" clip-path="url(#pfe9a7ae289)" style="fill: #857aaa; stroke: #d3d3d3; stroke-width: 0.8; stroke-linejoin: miter"/>
   </g>
   <g id="patch_36">
    <path d="M 246.540549 290.818969 
L 251.596847 290.818969 
L 251.596847 55.71853 
L 246.540549 55.71853 
z
" clip-path="url(#pfe9a7ae289)" style="fill: #857aaa; stroke: #d3d3d3; stroke-width: 0.8; stroke-linejoin: miter"/>
   </g>
   <g id="patch_37">
    <path d="M 306.026407 290.818969 
L 311.082705 290.818969 
L 311.082705 66.713539 
L 306.026407 66.713539 
z
" clip-path="url(#pfe9a7ae289)" style="fill: #857aaa; stroke: #d3d3d3; stroke-width: 0.8; stroke-linejoin: miter"/>
   </g>
   <g id="patch_38">
    <path d="M 73.139275 290.818969 
L 78.195572 290.818969 
L 78.195572 102.748943 
L 73.139275 102.748943 
z
" clip-path="url(#pfe9a7ae289)" style="fill: #5f4aa2; stroke: #d3d3d3; stroke-width: 0.8; stroke-linejoin: miter"/>
   </g>
   <g id="patch_39">
    <path d="M 132.625132 290.818969 
L 137.68143 290.818969 
L 137.68143 80.198771 
L 132.625132 80.198771 
z
" clip-path="url(#pfe9a7ae289)" style="fill: #5f4aa2; stroke: #d3d3d3; stroke-width: 0.8; stroke-linejoin: miter"/>
   </g>
   <g id="patch_40">
    <path d="M 192.11099 290.818969 
L 197.167287 290.818969 
L 197.167287 83.250733 
L 192.11099 83.250733 
z
" clip-path="url(#pfe9a7ae289)" style="fill: #5f4aa2; stroke: #d3d3d3; stroke-width: 0.8; stroke-linejoin: miter"/>
   </g>
   <g id="patch_41">
    <path d="M 251.596847 290.818969 
L 256.653145 290.818969 
L 256.653145 57.574972 
L 251.596847 57.574972 
z
" clip-path="url(#pfe9a7ae289)" style="fill: #5f4aa2; stroke: #d3d3d3; stroke-width: 0.8; stroke-linejoin: miter"/>
   </g>
   <g id="patch_42">
    <path d="M 311.082705 290.818969 
L 316.139003 290.818969 
L 316.139003 66.397807 
L 311.082705 66.397807 
z
" clip-path="url(#pfe9a7ae289)" style="fill: #5f4aa2; stroke: #d3d3d3; stroke-width: 0.8; stroke-linejoin: miter"/>
   </g>
   <g id="patch_43">
    <path d="M 78.195572 290.818969 
L 83.25187 290.818969 
L 83.25187 82.433491 
L 78.195572 82.433491 
z
" clip-path="url(#pfe9a7ae289)" style="fill: url(#hac7aacfd65); stroke: #d3d3d3; stroke-width: 0.8; stroke-linejoin: miter"/>
   </g>
   <g id="patch_44">
    <path d="M 137.68143 290.818969 
L 142.737728 290.818969 
L 142.737728 76.761815 
L 137.68143 76.761815 
z
" clip-path="url(#pfe9a7ae289)" style="fill: url(#hac7aacfd65); stroke: #d3d3d3; stroke-width: 0.8; stroke-linejoin: miter"/>
   </g>
   <g id="patch_45">
    <path d="M 197.167287 290.818969 
L 202.223585 290.818969 
L 202.223585 77.952153 
L 197.167287 77.952153 
z
" clip-path="url(#pfe9a7ae289)" style="fill: url(#hac7aacfd65); stroke: #d3d3d3; stroke-width: 0.8; stroke-linejoin: miter"/>
   </g>
   <g id="patch_46">
    <path d="M 256.653145 290.818969 
L 261.709443 290.818969 
L 261.709443 44.658088 
L 256.653145 44.658088 
z
" clip-path="url(#pfe9a7ae289)" style="fill: url(#hac7aacfd65); stroke: #d3d3d3; stroke-width: 0.8; stroke-linejoin: miter"/>
   </g>
   <g id="patch_47">
    <path d="M 316.139003 290.818969 
L 321.1953 290.818969 
L 321.1953 92.217942 
L 316.139003 92.217942 
z
" clip-path="url(#pfe9a7ae289)" style="fill: url(#hac7aacfd65); stroke: #d3d3d3; stroke-width: 0.8; stroke-linejoin: miter"/>
   </g>
   <g id="patch_48">
    <path d="M 83.25187 290.818969 
L 88.308168 290.818969 
L 88.308168 97.354799 
L 83.25187 97.354799 
z
" clip-path="url(#pfe9a7ae289)" style="fill: url(#h1035e1fff1); stroke: #d3d3d3; stroke-width: 0.8; stroke-linejoin: miter"/>
   </g>
   <g id="patch_49">
    <path d="M 142.737728 290.818969 
L 147.794026 290.818969 
L 147.794026 81.877461 
L 142.737728 81.877461 
z
" clip-path="url(#pfe9a7ae289)" style="fill: url(#h1035e1fff1); stroke: #d3d3d3; stroke-width: 0.8; stroke-linejoin: miter"/>
   </g>
   <g id="patch_50">
    <path d="M 202.223585 290.818969 
L 207.279883 290.818969 
L 207.279883 82.611109 
L 202.223585 82.611109 
z
" clip-path="url(#pfe9a7ae289)" style="fill: url(#h1035e1fff1); stroke: #d3d3d3; stroke-width: 0.8; stroke-linejoin: miter"/>
   </g>
   <g id="patch_51">
    <path d="M 261.709443 290.818969 
L 266.765741 290.818969 
L 266.765741 51.328401 
L 261.709443 51.328401 
z
" clip-path="url(#pfe9a7ae289)" style="fill: url(#h1035e1fff1); stroke: #d3d3d3; stroke-width: 0.8; stroke-linejoin: miter"/>
   </g>
   <g id="patch_52">
    <path d="M 321.1953 290.818969 
L 326.251598 290.818969 
L 326.251598 68.018378 
L 321.1953 68.018378 
z
" clip-path="url(#pfe9a7ae289)" style="fill: url(#h1035e1fff1); stroke: #d3d3d3; stroke-width: 0.8; stroke-linejoin: miter"/>
   </g>
   <g id="patch_53">
    <path d="M 63.026679 290.818969 
L 63.026679 290.818969 
L 63.026679 290.818969 
L 63.026679 290.818969 
z
" clip-path="url(#pfe9a7ae289)" style="fill: #df2020"/>
   </g>
   <g id="patch_54">
    <path d="M 63.026679 290.818969 
L 63.026679 290.818969 
L 63.026679 290.818969 
L 63.026679 290.818969 
z
" clip-path="url(#pfe9a7ae289)" style="fill: #7c5624"/>
   </g>
   <g id="patch_55">
    <path d="M 63.026679 290.818969 
L 63.026679 290.818969 
L 63.026679 290.818969 
L 63.026679 290.818969 
z
" clip-path="url(#pfe9a7ae289)" style="fill: #df9c20"/>
   </g>
   <g id="patch_56">
    <path d="M 63.026679 290.818969 
L 63.026679 290.818969 
L 63.026679 290.818969 
L 63.026679 290.818969 
z
" clip-path="url(#pfe9a7ae289)" style="fill: #107010"/>
   </g>
   <g id="patch_57">
    <path d="M 63.026679 290.818969 
L 63.026679 290.818969 
L 63.026679 290.818969 
L 63.026679 290.818969 
z
" clip-path="url(#pfe9a7ae289)" style="fill: #94c9de"/>
   </g>
   <g id="patch_58">
    <path d="M 63.026679 290.818969 
L 63.026679 290.818969 
L 63.026679 290.818969 
L 63.026679 290.818969 
z
" clip-path="url(#pfe9a7ae289)" style="fill: #bdbac7"/>
   </g>
   <g id="patch_59">
    <path d="M 63.026679 290.818969 
L 63.026679 290.818969 
L 63.026679 290.818969 
L 63.026679 290.818969 
z
" clip-path="url(#pfe9a7ae289)" style="fill: #857aaa"/>
   </g>
   <g id="patch_60">
    <path d="M 63.026679 290.818969 
L 63.026679 290.818969 
L 63.026679 290.818969 
L 63.026679 290.818969 
z
" clip-path="url(#pfe9a7ae289)" style="fill: #5f4aa2"/>
   </g>
   <g id="patch_61">
    <path d="M 63.026679 290.818969 
L 63.026679 290.818969 
L 63.026679 290.818969 
L 63.026679 290.818969 
z
" clip-path="url(#pfe9a7ae289)" style="fill: #94c9de"/>
   </g>
   <g id="patch_62">
    <path d="M 63.026679 290.818969 
L 63.026679 290.818969 
L 63.026679 290.818969 
L 63.026679 290.818969 
z
" clip-path="url(#pfe9a7ae289)" style="fill: #857aaa"/>
   </g>
   <g id="patch_63">
    <path d="M 78.195572 290.818969 
L 83.25187 290.818969 
L 83.25187 82.433491 
L 78.195572 82.433491 
z
" clip-path="url(#pfe9a7ae289)" style="fill: url(#hc77656bc79)"/>
   </g>
   <g id="patch_64">
    <path d="M 137.68143 290.818969 
L 142.737728 290.818969 
L 142.737728 76.761815 
L 137.68143 76.761815 
z
" clip-path="url(#pfe9a7ae289)" style="fill: url(#hc77656bc79)"/>
   </g>
   <g id="patch_65">
    <path d="M 197.167287 290.818969 
L 202.223585 290.818969 
L 202.223585 77.952153 
L 197.167287 77.952153 
z
" clip-path="url(#pfe9a7ae289)" style="fill: url(#hc77656bc79)"/>
   </g>
   <g id="patch_66">
    <path d="M 256.653145 290.818969 
L 261.709443 290.818969 
L 261.709443 44.658088 
L 256.653145 44.658088 
z
" clip-path="url(#pfe9a7ae289)" style="fill: url(#hc77656bc79)"/>
   </g>
   <g id="patch_67">
    <path d="M 316.139003 290.818969 
L 321.1953 290.818969 
L 321.1953 92.217942 
L 316.139003 92.217942 
z
" clip-path="url(#pfe9a7ae289)" style="fill: url(#hc77656bc79)"/>
   </g>
   <g id="patch_68">
    <path d="M 83.25187 290.818969 
L 88.308168 290.818969 
L 88.308168 97.354799 
L 83.25187 97.354799 
z
" clip-path="url(#pfe9a7ae289)" style="fill: url(#hc77656bc79)"/>
   </g>
   <g id="patch_69">
    <path d="M 142.737728 290.818969 
L 147.794026 290.818969 
L 147.794026 81.877461 
L 142.737728 81.877461 
z
" clip-path="url(#pfe9a7ae289)" style="fill: url(#hc77656bc79)"/>
   </g>
   <g id="patch_70">
    <path d="M 202.223585 290.818969 
L 207.279883 290.818969 
L 207.279883 82.611109 
L 202.223585 82.611109 
z
" clip-path="url(#pfe9a7ae289)" style="fill: url(#hc77656bc79)"/>
   </g>
   <g id="patch_71">
    <path d="M 261.709443 290.818969 
L 266.765741 290.818969 
L 266.765741 51.328401 
L 261.709443 51.328401 
z
" clip-path="url(#pfe9a7ae289)" style="fill: url(#hc77656bc79)"/>
   </g>
   <g id="patch_72">
    <path d="M 321.1953 290.818969 
L 326.251598 290.818969 
L 326.251598 68.018378 
L 321.1953 68.018378 
z
" clip-path="url(#pfe9a7ae289)" style="fill: url(#hc77656bc79)"/>
   </g>
   <g id="matplotlib.axis_1">
    <g id="xtick_1">
     <g id="line2d_1">
      <defs>
       <path id="m7df36f89f3" d="M 0 0 
L 0 3.5 
" style="stroke: #000000; stroke-width: 0.8"/>
      </defs>
      <g>
       <use xlink:href="#m7df36f89f3" x="63.026679" y="236.157187" style="stroke: #000000; stroke-width: 0.8"/>
      </g>
     </g>
     <g id="text_1">
      <!-- GABAergic -->
      <g transform="translate(34.372992 273.408003) rotate(-20) scale(0.12 -0.12)">
       <defs>
        <path id="DejaVuSans-47" d="M 3809 666 
L 3809 1919 
L 2778 1919 
L 2778 2438 
L 4434 2438 
L 4434 434 
Q 4069 175 3628 42 
Q 3188 -91 2688 -91 
Q 1594 -91 976 548 
Q 359 1188 359 2328 
Q 359 3472 976 4111 
Q 1594 4750 2688 4750 
Q 3144 4750 3555 4637 
Q 3966 4525 4313 4306 
L 4313 3634 
Q 3963 3931 3569 4081 
Q 3175 4231 2741 4231 
Q 1884 4231 1454 3753 
Q 1025 3275 1025 2328 
Q 1025 1384 1454 906 
Q 1884 428 2741 428 
Q 3075 428 3337 486 
Q 3600 544 3809 666 
z
" transform="scale(0.015625)"/>
        <path id="DejaVuSans-41" d="M 2188 4044 
L 1331 1722 
L 3047 1722 
L 2188 4044 
z
M 1831 4666 
L 2547 4666 
L 4325 0 
L 3669 0 
L 3244 1197 
L 1141 1197 
L 716 0 
L 50 0 
L 1831 4666 
z
" transform="scale(0.015625)"/>
        <path id="DejaVuSans-42" d="M 1259 2228 
L 1259 519 
L 2272 519 
Q 2781 519 3026 730 
Q 3272 941 3272 1375 
Q 3272 1813 3026 2020 
Q 2781 2228 2272 2228 
L 1259 2228 
z
M 1259 4147 
L 1259 2741 
L 2194 2741 
Q 2656 2741 2882 2914 
Q 3109 3088 3109 3444 
Q 3109 3797 2882 3972 
Q 2656 4147 2194 4147 
L 1259 4147 
z
M 628 4666 
L 2241 4666 
Q 2963 4666 3353 4366 
Q 3744 4066 3744 3513 
Q 3744 3084 3544 2831 
Q 3344 2578 2956 2516 
Q 3422 2416 3680 2098 
Q 3938 1781 3938 1306 
Q 3938 681 3513 340 
Q 3088 0 2303 0 
L 628 0 
L 628 4666 
z
" transform="scale(0.015625)"/>
        <path id="DejaVuSans-65" d="M 3597 1894 
L 3597 1613 
L 953 1613 
Q 991 1019 1311 708 
Q 1631 397 2203 397 
Q 2534 397 2845 478 
Q 3156 559 3463 722 
L 3463 178 
Q 3153 47 2828 -22 
Q 2503 -91 2169 -91 
Q 1331 -91 842 396 
Q 353 884 353 1716 
Q 353 2575 817 3079 
Q 1281 3584 2069 3584 
Q 2775 3584 3186 3129 
Q 3597 2675 3597 1894 
z
M 3022 2063 
Q 3016 2534 2758 2815 
Q 2500 3097 2075 3097 
Q 1594 3097 1305 2825 
Q 1016 2553 972 2059 
L 3022 2063 
z
" transform="scale(0.015625)"/>
        <path id="DejaVuSans-72" d="M 2631 2963 
Q 2534 3019 2420 3045 
Q 2306 3072 2169 3072 
Q 1681 3072 1420 2755 
Q 1159 2438 1159 1844 
L 1159 0 
L 581 0 
L 581 3500 
L 1159 3500 
L 1159 2956 
Q 1341 3275 1631 3429 
Q 1922 3584 2338 3584 
Q 2397 3584 2469 3576 
Q 2541 3569 2628 3553 
L 2631 2963 
z
" transform="scale(0.015625)"/>
        <path id="DejaVuSans-67" d="M 2906 1791 
Q 2906 2416 2648 2759 
Q 2391 3103 1925 3103 
Q 1463 3103 1205 2759 
Q 947 2416 947 1791 
Q 947 1169 1205 825 
Q 1463 481 1925 481 
Q 2391 481 2648 825 
Q 2906 1169 2906 1791 
z
M 3481 434 
Q 3481 -459 3084 -895 
Q 2688 -1331 1869 -1331 
Q 1566 -1331 1297 -1286 
Q 1028 -1241 775 -1147 
L 775 -588 
Q 1028 -725 1275 -790 
Q 1522 -856 1778 -856 
Q 2344 -856 2625 -561 
Q 2906 -266 2906 331 
L 2906 616 
Q 2728 306 2450 153 
Q 2172 0 1784 0 
Q 1141 0 747 490 
Q 353 981 353 1791 
Q 353 2603 747 3093 
Q 1141 3584 1784 3584 
Q 2172 3584 2450 3431 
Q 2728 3278 2906 2969 
L 2906 3500 
L 3481 3500 
L 3481 434 
z
" transform="scale(0.015625)"/>
        <path id="DejaVuSans-69" d="M 603 3500 
L 1178 3500 
L 1178 0 
L 603 0 
L 603 3500 
z
M 603 4863 
L 1178 4863 
L 1178 4134 
L 603 4134 
L 603 4863 
z
" transform="scale(0.015625)"/>
        <path id="DejaVuSans-63" d="M 3122 3366 
L 3122 2828 
Q 2878 2963 2633 3030 
Q 2388 3097 2138 3097 
Q 1578 3097 1268 2742 
Q 959 2388 959 1747 
Q 959 1106 1268 751 
Q 1578 397 2138 397 
Q 2388 397 2633 464 
Q 2878 531 3122 666 
L 3122 134 
Q 2881 22 2623 -34 
Q 2366 -91 2075 -91 
Q 1284 -91 818 406 
Q 353 903 353 1747 
Q 353 2603 823 3093 
Q 1294 3584 2113 3584 
Q 2378 3584 2631 3529 
Q 2884 3475 3122 3366 
z
" transform="scale(0.015625)"/>
       </defs>
       <use xlink:href="#DejaVuSans-47"/>
       <use xlink:href="#DejaVuSans-41" transform="translate(77.490234 0)"/>
       <use xlink:href="#DejaVuSans-42" transform="translate(145.898438 0)"/>
       <use xlink:href="#DejaVuSans-41" transform="translate(214.501953 0)"/>
       <use xlink:href="#DejaVuSans-65" transform="translate(281.160156 0)"/>
       <use xlink:href="#DejaVuSans-72" transform="translate(342.683594 0)"/>
       <use xlink:href="#DejaVuSans-67" transform="translate(382.046875 0)"/>
       <use xlink:href="#DejaVuSans-69" transform="translate(445.523438 0)"/>
       <use xlink:href="#DejaVuSans-63" transform="translate(473.306641 0)"/>
      </g>
     </g>
    </g>
    <g id="xtick_2">
     <g id="line2d_2">
      <g>
       <use xlink:href="#m7df36f89f3" x="122.512536" y="236.157187" style="stroke: #000000; stroke-width: 0.8"/>
      </g>
     </g>
     <g id="text_2">
      <!-- astrocyte -->
      <g transform="translate(97.284911 270.914035) rotate(-20) scale(0.12 -0.12)">
       <defs>
        <path id="DejaVuSans-61" d="M 2194 1759 
Q 1497 1759 1228 1600 
Q 959 1441 959 1056 
Q 959 750 1161 570 
Q 1363 391 1709 391 
Q 2188 391 2477 730 
Q 2766 1069 2766 1631 
L 2766 1759 
L 2194 1759 
z
M 3341 1997 
L 3341 0 
L 2766 0 
L 2766 531 
Q 2569 213 2275 61 
Q 1981 -91 1556 -91 
Q 1019 -91 701 211 
Q 384 513 384 1019 
Q 384 1609 779 1909 
Q 1175 2209 1959 2209 
L 2766 2209 
L 2766 2266 
Q 2766 2663 2505 2880 
Q 2244 3097 1772 3097 
Q 1472 3097 1187 3025 
Q 903 2953 641 2809 
L 641 3341 
Q 956 3463 1253 3523 
Q 1550 3584 1831 3584 
Q 2591 3584 2966 3190 
Q 3341 2797 3341 1997 
z
" transform="scale(0.015625)"/>
        <path id="DejaVuSans-73" d="M 2834 3397 
L 2834 2853 
Q 2591 2978 2328 3040 
Q 2066 3103 1784 3103 
Q 1356 3103 1142 2972 
Q 928 2841 928 2578 
Q 928 2378 1081 2264 
Q 1234 2150 1697 2047 
L 1894 2003 
Q 2506 1872 2764 1633 
Q 3022 1394 3022 966 
Q 3022 478 2636 193 
Q 2250 -91 1575 -91 
Q 1294 -91 989 -36 
Q 684 19 347 128 
L 347 722 
Q 666 556 975 473 
Q 1284 391 1588 391 
Q 1994 391 2212 530 
Q 2431 669 2431 922 
Q 2431 1156 2273 1281 
Q 2116 1406 1581 1522 
L 1381 1569 
Q 847 1681 609 1914 
Q 372 2147 372 2553 
Q 372 3047 722 3315 
Q 1072 3584 1716 3584 
Q 2034 3584 2315 3537 
Q 2597 3491 2834 3397 
z
" transform="scale(0.015625)"/>
        <path id="DejaVuSans-74" d="M 1172 4494 
L 1172 3500 
L 2356 3500 
L 2356 3053 
L 1172 3053 
L 1172 1153 
Q 1172 725 1289 603 
Q 1406 481 1766 481 
L 2356 481 
L 2356 0 
L 1766 0 
Q 1100 0 847 248 
Q 594 497 594 1153 
L 594 3053 
L 172 3053 
L 172 3500 
L 594 3500 
L 594 4494 
L 1172 4494 
z
" transform="scale(0.015625)"/>
        <path id="DejaVuSans-6f" d="M 1959 3097 
Q 1497 3097 1228 2736 
Q 959 2375 959 1747 
Q 959 1119 1226 758 
Q 1494 397 1959 397 
Q 2419 397 2687 759 
Q 2956 1122 2956 1747 
Q 2956 2369 2687 2733 
Q 2419 3097 1959 3097 
z
M 1959 3584 
Q 2709 3584 3137 3096 
Q 3566 2609 3566 1747 
Q 3566 888 3137 398 
Q 2709 -91 1959 -91 
Q 1206 -91 779 398 
Q 353 888 353 1747 
Q 353 2609 779 3096 
Q 1206 3584 1959 3584 
z
" transform="scale(0.015625)"/>
        <path id="DejaVuSans-79" d="M 2059 -325 
Q 1816 -950 1584 -1140 
Q 1353 -1331 966 -1331 
L 506 -1331 
L 506 -850 
L 844 -850 
Q 1081 -850 1212 -737 
Q 1344 -625 1503 -206 
L 1606 56 
L 191 3500 
L 800 3500 
L 1894 763 
L 2988 3500 
L 3597 3500 
L 2059 -325 
z
" transform="scale(0.015625)"/>
       </defs>
       <use xlink:href="#DejaVuSans-61"/>
       <use xlink:href="#DejaVuSans-73" transform="translate(61.279297 0)"/>
       <use xlink:href="#DejaVuSans-74" transform="translate(113.378906 0)"/>
       <use xlink:href="#DejaVuSans-72" transform="translate(152.587891 0)"/>
       <use xlink:href="#DejaVuSans-6f" transform="translate(191.451172 0)"/>
       <use xlink:href="#DejaVuSans-63" transform="translate(252.632812 0)"/>
       <use xlink:href="#DejaVuSans-79" transform="translate(307.613281 0)"/>
       <use xlink:href="#DejaVuSans-74" transform="translate(366.792969 0)"/>
       <use xlink:href="#DejaVuSans-65" transform="translate(406.001953 0)"/>
      </g>
     </g>
    </g>
    <g id="xtick_3">
     <g id="line2d_3">
      <g>
       <use xlink:href="#m7df36f89f3" x="181.998394" y="236.157187" style="stroke: #000000; stroke-width: 0.8"/>
      </g>
     </g>
     <g id="text_3">
      <!-- endothelial -->
      <g transform="translate(151.65238 274.639917) rotate(-20) scale(0.12 -0.12)">
       <defs>
        <path id="DejaVuSans-6e" d="M 3513 2113 
L 3513 0 
L 2938 0 
L 2938 2094 
Q 2938 2591 2744 2837 
Q 2550 3084 2163 3084 
Q 1697 3084 1428 2787 
Q 1159 2491 1159 1978 
L 1159 0 
L 581 0 
L 581 3500 
L 1159 3500 
L 1159 2956 
Q 1366 3272 1645 3428 
Q 1925 3584 2291 3584 
Q 2894 3584 3203 3211 
Q 3513 2838 3513 2113 
z
" transform="scale(0.015625)"/>
        <path id="DejaVuSans-64" d="M 2906 2969 
L 2906 4863 
L 3481 4863 
L 3481 0 
L 2906 0 
L 2906 525 
Q 2725 213 2448 61 
Q 2172 -91 1784 -91 
Q 1150 -91 751 415 
Q 353 922 353 1747 
Q 353 2572 751 3078 
Q 1150 3584 1784 3584 
Q 2172 3584 2448 3432 
Q 2725 3281 2906 2969 
z
M 947 1747 
Q 947 1113 1208 752 
Q 1469 391 1925 391 
Q 2381 391 2643 752 
Q 2906 1113 2906 1747 
Q 2906 2381 2643 2742 
Q 2381 3103 1925 3103 
Q 1469 3103 1208 2742 
Q 947 2381 947 1747 
z
" transform="scale(0.015625)"/>
        <path id="DejaVuSans-68" d="M 3513 2113 
L 3513 0 
L 2938 0 
L 2938 2094 
Q 2938 2591 2744 2837 
Q 2550 3084 2163 3084 
Q 1697 3084 1428 2787 
Q 1159 2491 1159 1978 
L 1159 0 
L 581 0 
L 581 4863 
L 1159 4863 
L 1159 2956 
Q 1366 3272 1645 3428 
Q 1925 3584 2291 3584 
Q 2894 3584 3203 3211 
Q 3513 2838 3513 2113 
z
" transform="scale(0.015625)"/>
        <path id="DejaVuSans-6c" d="M 603 4863 
L 1178 4863 
L 1178 0 
L 603 0 
L 603 4863 
z
" transform="scale(0.015625)"/>
       </defs>
       <use xlink:href="#DejaVuSans-65"/>
       <use xlink:href="#DejaVuSans-6e" transform="translate(61.523438 0)"/>
       <use xlink:href="#DejaVuSans-64" transform="translate(124.902344 0)"/>
       <use xlink:href="#DejaVuSans-6f" transform="translate(188.378906 0)"/>
       <use xlink:href="#DejaVuSans-74" transform="translate(249.560547 0)"/>
       <use xlink:href="#DejaVuSans-68" transform="translate(288.769531 0)"/>
       <use xlink:href="#DejaVuSans-65" transform="translate(352.148438 0)"/>
       <use xlink:href="#DejaVuSans-6c" transform="translate(413.671875 0)"/>
       <use xlink:href="#DejaVuSans-69" transform="translate(441.455078 0)"/>
       <use xlink:href="#DejaVuSans-61" transform="translate(469.238281 0)"/>
       <use xlink:href="#DejaVuSans-6c" transform="translate(530.517578 0)"/>
      </g>
     </g>
    </g>
    <g id="xtick_4">
     <g id="line2d_4">
      <g>
       <use xlink:href="#m7df36f89f3" x="241.484251" y="236.157187" style="stroke: #000000; stroke-width: 0.8"/>
      </g>
     </g>
     <g id="text_4">
      <!-- glutamatergic -->
      <g transform="translate(203.140866 280.461527) rotate(-20) scale(0.12 -0.12)">
       <defs>
        <path id="DejaVuSans-75" d="M 544 1381 
L 544 3500 
L 1119 3500 
L 1119 1403 
Q 1119 906 1312 657 
Q 1506 409 1894 409 
Q 2359 409 2629 706 
Q 2900 1003 2900 1516 
L 2900 3500 
L 3475 3500 
L 3475 0 
L 2900 0 
L 2900 538 
Q 2691 219 2414 64 
Q 2138 -91 1772 -91 
Q 1169 -91 856 284 
Q 544 659 544 1381 
z
M 1991 3584 
L 1991 3584 
z
" transform="scale(0.015625)"/>
        <path id="DejaVuSans-6d" d="M 3328 2828 
Q 3544 3216 3844 3400 
Q 4144 3584 4550 3584 
Q 5097 3584 5394 3201 
Q 5691 2819 5691 2113 
L 5691 0 
L 5113 0 
L 5113 2094 
Q 5113 2597 4934 2840 
Q 4756 3084 4391 3084 
Q 3944 3084 3684 2787 
Q 3425 2491 3425 1978 
L 3425 0 
L 2847 0 
L 2847 2094 
Q 2847 2600 2669 2842 
Q 2491 3084 2119 3084 
Q 1678 3084 1418 2786 
Q 1159 2488 1159 1978 
L 1159 0 
L 581 0 
L 581 3500 
L 1159 3500 
L 1159 2956 
Q 1356 3278 1631 3431 
Q 1906 3584 2284 3584 
Q 2666 3584 2933 3390 
Q 3200 3197 3328 2828 
z
" transform="scale(0.015625)"/>
       </defs>
       <use xlink:href="#DejaVuSans-67"/>
       <use xlink:href="#DejaVuSans-6c" transform="translate(63.476562 0)"/>
       <use xlink:href="#DejaVuSans-75" transform="translate(91.259766 0)"/>
       <use xlink:href="#DejaVuSans-74" transform="translate(154.638672 0)"/>
       <use xlink:href="#DejaVuSans-61" transform="translate(193.847656 0)"/>
       <use xlink:href="#DejaVuSans-6d" transform="translate(255.126953 0)"/>
       <use xlink:href="#DejaVuSans-61" transform="translate(352.539062 0)"/>
       <use xlink:href="#DejaVuSans-74" transform="translate(413.818359 0)"/>
       <use xlink:href="#DejaVuSans-65" transform="translate(453.027344 0)"/>
       <use xlink:href="#DejaVuSans-72" transform="translate(514.550781 0)"/>
       <use xlink:href="#DejaVuSans-67" transform="translate(553.914062 0)"/>
       <use xlink:href="#DejaVuSans-69" transform="translate(617.390625 0)"/>
       <use xlink:href="#DejaVuSans-63" transform="translate(645.173828 0)"/>
      </g>
     </g>
    </g>
    <g id="xtick_5">
     <g id="line2d_5">
      <g>
       <use xlink:href="#m7df36f89f3" x="300.970109" y="236.157187" style="stroke: #000000; stroke-width: 0.8"/>
      </g>
     </g>
     <g id="text_5">
      <!-- oligodendrocyte -->
      <g transform="translate(256.532229 284.897956) rotate(-20) scale(0.12 -0.12)">
       <use xlink:href="#DejaVuSans-6f"/>
       <use xlink:href="#DejaVuSans-6c" transform="translate(61.181641 0)"/>
       <use xlink:href="#DejaVuSans-69" transform="translate(88.964844 0)"/>
       <use xlink:href="#DejaVuSans-67" transform="translate(116.748047 0)"/>
       <use xlink:href="#DejaVuSans-6f" transform="translate(180.224609 0)"/>
       <use xlink:href="#DejaVuSans-64" transform="translate(241.40625 0)"/>
       <use xlink:href="#DejaVuSans-65" transform="translate(304.882812 0)"/>
       <use xlink:href="#DejaVuSans-6e" transform="translate(366.40625 0)"/>
       <use xlink:href="#DejaVuSans-64" transform="translate(429.785156 0)"/>
       <use xlink:href="#DejaVuSans-72" transform="translate(493.261719 0)"/>
       <use xlink:href="#DejaVuSans-6f" transform="translate(532.125 0)"/>
       <use xlink:href="#DejaVuSans-63" transform="translate(593.306641 0)"/>
       <use xlink:href="#DejaVuSans-79" transform="translate(648.287109 0)"/>
       <use xlink:href="#DejaVuSans-74" transform="translate(707.466797 0)"/>
       <use xlink:href="#DejaVuSans-65" transform="translate(746.675781 0)"/>
      </g>
     </g>
    </g>
   </g>
   <g id="matplotlib.axis_2">
    <g id="ytick_1">
     <g id="line2d_6">
      <defs>
       <path id="m16a589f2b0" d="M 0 0 
L -3.5 0 
" style="stroke: #000000; stroke-width: 0.8"/>
      </defs>
      <g>
       <use xlink:href="#m16a589f2b0" x="33.28375" y="213.662373" style="stroke: #000000; stroke-width: 0.8"/>
      </g>
     </g>
     <g id="text_6">
      <!-- 0.2 -->
      <g transform="translate(7.2 218.221435) scale(0.12 -0.12)">
       <defs>
        <path id="DejaVuSans-30" d="M 2034 4250 
Q 1547 4250 1301 3770 
Q 1056 3291 1056 2328 
Q 1056 1369 1301 889 
Q 1547 409 2034 409 
Q 2525 409 2770 889 
Q 3016 1369 3016 2328 
Q 3016 3291 2770 3770 
Q 2525 4250 2034 4250 
z
M 2034 4750 
Q 2819 4750 3233 4129 
Q 3647 3509 3647 2328 
Q 3647 1150 3233 529 
Q 2819 -91 2034 -91 
Q 1250 -91 836 529 
Q 422 1150 422 2328 
Q 422 3509 836 4129 
Q 1250 4750 2034 4750 
z
" transform="scale(0.015625)"/>
        <path id="DejaVuSans-2e" d="M 684 794 
L 1344 794 
L 1344 0 
L 684 0 
L 684 794 
z
" transform="scale(0.015625)"/>
        <path id="DejaVuSans-32" d="M 1228 531 
L 3431 531 
L 3431 0 
L 469 0 
L 469 531 
Q 828 903 1448 1529 
Q 2069 2156 2228 2338 
Q 2531 2678 2651 2914 
Q 2772 3150 2772 3378 
Q 2772 3750 2511 3984 
Q 2250 4219 1831 4219 
Q 1534 4219 1204 4116 
Q 875 4013 500 3803 
L 500 4441 
Q 881 4594 1212 4672 
Q 1544 4750 1819 4750 
Q 2544 4750 2975 4387 
Q 3406 4025 3406 3419 
Q 3406 3131 3298 2873 
Q 3191 2616 2906 2266 
Q 2828 2175 2409 1742 
Q 1991 1309 1228 531 
z
" transform="scale(0.015625)"/>
       </defs>
       <use xlink:href="#DejaVuSans-30"/>
       <use xlink:href="#DejaVuSans-2e" transform="translate(63.623047 0)"/>
       <use xlink:href="#DejaVuSans-32" transform="translate(95.410156 0)"/>
      </g>
     </g>
    </g>
    <g id="ytick_2">
     <g id="line2d_7">
      <g>
       <use xlink:href="#m16a589f2b0" x="33.28375" y="175.084074" style="stroke: #000000; stroke-width: 0.8"/>
      </g>
     </g>
     <g id="text_7">
      <!-- 0.3 -->
      <g transform="translate(7.2 179.643137) scale(0.12 -0.12)">
       <defs>
        <path id="DejaVuSans-33" d="M 2597 2516 
Q 3050 2419 3304 2112 
Q 3559 1806 3559 1356 
Q 3559 666 3084 287 
Q 2609 -91 1734 -91 
Q 1441 -91 1130 -33 
Q 819 25 488 141 
L 488 750 
Q 750 597 1062 519 
Q 1375 441 1716 441 
Q 2309 441 2620 675 
Q 2931 909 2931 1356 
Q 2931 1769 2642 2001 
Q 2353 2234 1838 2234 
L 1294 2234 
L 1294 2753 
L 1863 2753 
Q 2328 2753 2575 2939 
Q 2822 3125 2822 3475 
Q 2822 3834 2567 4026 
Q 2313 4219 1838 4219 
Q 1578 4219 1281 4162 
Q 984 4106 628 3988 
L 628 4550 
Q 988 4650 1302 4700 
Q 1616 4750 1894 4750 
Q 2613 4750 3031 4423 
Q 3450 4097 3450 3541 
Q 3450 3153 3228 2886 
Q 3006 2619 2597 2516 
z
" transform="scale(0.015625)"/>
       </defs>
       <use xlink:href="#DejaVuSans-30"/>
       <use xlink:href="#DejaVuSans-2e" transform="translate(63.623047 0)"/>
       <use xlink:href="#DejaVuSans-33" transform="translate(95.410156 0)"/>
      </g>
     </g>
    </g>
    <g id="ytick_3">
     <g id="line2d_8">
      <g>
       <use xlink:href="#m16a589f2b0" x="33.28375" y="136.505776" style="stroke: #000000; stroke-width: 0.8"/>
      </g>
     </g>
     <g id="text_8">
      <!-- 0.4 -->
      <g transform="translate(7.2 141.064838) scale(0.12 -0.12)">
       <defs>
        <path id="DejaVuSans-34" d="M 2419 4116 
L 825 1625 
L 2419 1625 
L 2419 4116 
z
M 2253 4666 
L 3047 4666 
L 3047 1625 
L 3713 1625 
L 3713 1100 
L 3047 1100 
L 3047 0 
L 2419 0 
L 2419 1100 
L 313 1100 
L 313 1709 
L 2253 4666 
z
" transform="scale(0.015625)"/>
       </defs>
       <use xlink:href="#DejaVuSans-30"/>
       <use xlink:href="#DejaVuSans-2e" transform="translate(63.623047 0)"/>
       <use xlink:href="#DejaVuSans-34" transform="translate(95.410156 0)"/>
      </g>
     </g>
    </g>
    <g id="ytick_4">
     <g id="line2d_9">
      <g>
       <use xlink:href="#m16a589f2b0" x="33.28375" y="97.927478" style="stroke: #000000; stroke-width: 0.8"/>
      </g>
     </g>
     <g id="text_9">
      <!-- 0.5 -->
      <g transform="translate(7.2 102.48654) scale(0.12 -0.12)">
       <defs>
        <path id="DejaVuSans-35" d="M 691 4666 
L 3169 4666 
L 3169 4134 
L 1269 4134 
L 1269 2991 
Q 1406 3038 1543 3061 
Q 1681 3084 1819 3084 
Q 2600 3084 3056 2656 
Q 3513 2228 3513 1497 
Q 3513 744 3044 326 
Q 2575 -91 1722 -91 
Q 1428 -91 1123 -41 
Q 819 9 494 109 
L 494 744 
Q 775 591 1075 516 
Q 1375 441 1709 441 
Q 2250 441 2565 725 
Q 2881 1009 2881 1497 
Q 2881 1984 2565 2268 
Q 2250 2553 1709 2553 
Q 1456 2553 1204 2497 
Q 953 2441 691 2322 
L 691 4666 
z
" transform="scale(0.015625)"/>
       </defs>
       <use xlink:href="#DejaVuSans-30"/>
       <use xlink:href="#DejaVuSans-2e" transform="translate(63.623047 0)"/>
       <use xlink:href="#DejaVuSans-35" transform="translate(95.410156 0)"/>
      </g>
     </g>
    </g>
    <g id="ytick_5">
     <g id="line2d_10">
      <g>
       <use xlink:href="#m16a589f2b0" x="33.28375" y="59.349179" style="stroke: #000000; stroke-width: 0.8"/>
      </g>
     </g>
     <g id="text_10">
      <!-- 0.6 -->
      <g transform="translate(7.2 63.908242) scale(0.12 -0.12)">
       <defs>
        <path id="DejaVuSans-36" d="M 2113 2584 
Q 1688 2584 1439 2293 
Q 1191 2003 1191 1497 
Q 1191 994 1439 701 
Q 1688 409 2113 409 
Q 2538 409 2786 701 
Q 3034 994 3034 1497 
Q 3034 2003 2786 2293 
Q 2538 2584 2113 2584 
z
M 3366 4563 
L 3366 3988 
Q 3128 4100 2886 4159 
Q 2644 4219 2406 4219 
Q 1781 4219 1451 3797 
Q 1122 3375 1075 2522 
Q 1259 2794 1537 2939 
Q 1816 3084 2150 3084 
Q 2853 3084 3261 2657 
Q 3669 2231 3669 1497 
Q 3669 778 3244 343 
Q 2819 -91 2113 -91 
Q 1303 -91 875 529 
Q 447 1150 447 2328 
Q 447 3434 972 4092 
Q 1497 4750 2381 4750 
Q 2619 4750 2861 4703 
Q 3103 4656 3366 4563 
z
" transform="scale(0.015625)"/>
       </defs>
       <use xlink:href="#DejaVuSans-30"/>
       <use xlink:href="#DejaVuSans-2e" transform="translate(63.623047 0)"/>
       <use xlink:href="#DejaVuSans-36" transform="translate(95.410156 0)"/>
      </g>
     </g>
    </g>
   </g>
   <g id="line2d_11">
    <path d="M 40.273338 101.865616 
L 40.273338 98.549582 
" clip-path="url(#pfe9a7ae289)" style="fill: none; stroke: #424242; stroke-width: 2.25; stroke-linecap: square"/>
   </g>
   <g id="line2d_12">
    <path d="M 99.759196 84.231264 
L 99.759196 79.774293 
" clip-path="url(#pfe9a7ae289)" style="fill: none; stroke: #424242; stroke-width: 2.25; stroke-linecap: square"/>
   </g>
   <g id="line2d_13">
    <path d="M 159.245053 89.719782 
L 159.245053 86.355103 
" clip-path="url(#pfe9a7ae289)" style="fill: none; stroke: #424242; stroke-width: 2.25; stroke-linecap: square"/>
   </g>
   <g id="line2d_14">
    <path d="M 218.730911 52.459485 
L 218.730911 50.535138 
" clip-path="url(#pfe9a7ae289)" style="fill: none; stroke: #424242; stroke-width: 2.25; stroke-linecap: square"/>
   </g>
   <g id="line2d_15">
    <path d="M 278.216768 72.951327 
L 278.216768 70.745002 
" clip-path="url(#pfe9a7ae289)" style="fill: none; stroke: #424242; stroke-width: 2.25; stroke-linecap: square"/>
   </g>
   <g id="line2d_16">
    <path d="M 45.329636 102.68426 
L 45.329636 98.55744 
" clip-path="url(#pfe9a7ae289)" style="fill: none; stroke: #424242; stroke-width: 2.25; stroke-linecap: square"/>
   </g>
   <g id="line2d_17">
    <path d="M 104.815494 83.523095 
L 104.815494 78.525795 
" clip-path="url(#pfe9a7ae289)" style="fill: none; stroke: #424242; stroke-width: 2.25; stroke-linecap: square"/>
   </g>
   <g id="line2d_18">
    <path d="M 164.301351 84.658062 
L 164.301351 81.50149 
" clip-path="url(#pfe9a7ae289)" style="fill: none; stroke: #424242; stroke-width: 2.25; stroke-linecap: square"/>
   </g>
   <g id="line2d_19">
    <path d="M 223.787209 55.272393 
L 223.787209 53.863782 
" clip-path="url(#pfe9a7ae289)" style="fill: none; stroke: #424242; stroke-width: 2.25; stroke-linecap: square"/>
   </g>
   <g id="line2d_20">
    <path d="M 283.273066 67.838512 
L 283.273066 65.934286 
" clip-path="url(#pfe9a7ae289)" style="fill: none; stroke: #424242; stroke-width: 2.25; stroke-linecap: square"/>
   </g>
   <g id="line2d_21">
    <path d="M 50.385934 102.042312 
L 50.385934 97.051747 
" clip-path="url(#pfe9a7ae289)" style="fill: none; stroke: #424242; stroke-width: 2.25; stroke-linecap: square"/>
   </g>
   <g id="line2d_22">
    <path d="M 109.871792 86.045005 
L 109.871792 82.050592 
" clip-path="url(#pfe9a7ae289)" style="fill: none; stroke: #424242; stroke-width: 2.25; stroke-linecap: square"/>
   </g>
   <g id="line2d_23">
    <path d="M 169.357649 90.312568 
L 169.357649 86.058113 
" clip-path="url(#pfe9a7ae289)" style="fill: none; stroke: #424242; stroke-width: 2.25; stroke-linecap: square"/>
   </g>
   <g id="line2d_24">
    <path d="M 228.843507 52.93597 
L 228.843507 50.815548 
" clip-path="url(#pfe9a7ae289)" style="fill: none; stroke: #424242; stroke-width: 2.25; stroke-linecap: square"/>
   </g>
   <g id="line2d_25">
    <path d="M 288.329364 72.646429 
L 288.329364 69.460191 
" clip-path="url(#pfe9a7ae289)" style="fill: none; stroke: #424242; stroke-width: 2.25; stroke-linecap: square"/>
   </g>
   <g id="line2d_26">
    <path d="M 55.442232 77.510571 
L 55.442232 76.356671 
" clip-path="url(#pfe9a7ae289)" style="fill: none; stroke: #424242; stroke-width: 2.25; stroke-linecap: square"/>
   </g>
   <g id="line2d_27">
    <path d="M 114.928089 72.871983 
L 114.928089 70.033432 
" clip-path="url(#pfe9a7ae289)" style="fill: none; stroke: #424242; stroke-width: 2.25; stroke-linecap: square"/>
   </g>
   <g id="line2d_28">
    <path d="M 174.413947 72.800293 
L 174.413947 69.056772 
" clip-path="url(#pfe9a7ae289)" style="fill: none; stroke: #424242; stroke-width: 2.25; stroke-linecap: square"/>
   </g>
   <g id="line2d_29">
    <path d="M 233.899805 41.433069 
L 233.899805 39.951481 
" clip-path="url(#pfe9a7ae289)" style="fill: none; stroke: #424242; stroke-width: 2.25; stroke-linecap: square"/>
   </g>
   <g id="line2d_30">
    <path d="M 293.385662 86.699325 
L 293.385662 83.297958 
" clip-path="url(#pfe9a7ae289)" style="fill: none; stroke: #424242; stroke-width: 2.25; stroke-linecap: square"/>
   </g>
   <g id="line2d_31">
    <path d="M 60.49853 82.863095 
L 60.49853 81.992957 
" clip-path="url(#pfe9a7ae289)" style="fill: none; stroke: #424242; stroke-width: 2.25; stroke-linecap: square"/>
   </g>
   <g id="line2d_32">
    <path d="M 119.984387 78.226572 
L 119.984387 75.333848 
" clip-path="url(#pfe9a7ae289)" style="fill: none; stroke: #424242; stroke-width: 2.25; stroke-linecap: square"/>
   </g>
   <g id="line2d_33">
    <path d="M 179.470245 81.351339 
L 179.470245 74.568139 
" clip-path="url(#pfe9a7ae289)" style="fill: none; stroke: #424242; stroke-width: 2.25; stroke-linecap: square"/>
   </g>
   <g id="line2d_34">
    <path d="M 238.956102 45.576809 
L 238.956102 43.439637 
" clip-path="url(#pfe9a7ae289)" style="fill: none; stroke: #424242; stroke-width: 2.25; stroke-linecap: square"/>
   </g>
   <g id="line2d_35">
    <path d="M 298.44196 95.989525 
L 298.44196 88.41891 
" clip-path="url(#pfe9a7ae289)" style="fill: none; stroke: #424242; stroke-width: 2.25; stroke-linecap: square"/>
   </g>
   <g id="line2d_36">
    <path d="M 65.554828 101.143805 
L 65.554828 96.501946 
" clip-path="url(#pfe9a7ae289)" style="fill: none; stroke: #424242; stroke-width: 2.25; stroke-linecap: square"/>
   </g>
   <g id="line2d_37">
    <path d="M 125.040685 81.910892 
L 125.040685 78.272216 
" clip-path="url(#pfe9a7ae289)" style="fill: none; stroke: #424242; stroke-width: 2.25; stroke-linecap: square"/>
   </g>
   <g id="line2d_38">
    <path d="M 184.526543 83.763965 
L 184.526543 80.221077 
" clip-path="url(#pfe9a7ae289)" style="fill: none; stroke: #424242; stroke-width: 2.25; stroke-linecap: square"/>
   </g>
   <g id="line2d_39">
    <path d="M 244.0124 52.530024 
L 244.0124 50.511056 
" clip-path="url(#pfe9a7ae289)" style="fill: none; stroke: #424242; stroke-width: 2.25; stroke-linecap: square"/>
   </g>
   <g id="line2d_40">
    <path d="M 303.498258 67.436989 
L 303.498258 65.337204 
" clip-path="url(#pfe9a7ae289)" style="fill: none; stroke: #424242; stroke-width: 2.25; stroke-linecap: square"/>
   </g>
   <g id="line2d_41">
    <path d="M 70.611126 104.108605 
L 70.611126 99.158962 
" clip-path="url(#pfe9a7ae289)" style="fill: none; stroke: #424242; stroke-width: 2.25; stroke-linecap: square"/>
   </g>
   <g id="line2d_42">
    <path d="M 130.096983 81.321186 
L 130.096983 79.105733 
" clip-path="url(#pfe9a7ae289)" style="fill: none; stroke: #424242; stroke-width: 2.25; stroke-linecap: square"/>
   </g>
   <g id="line2d_43">
    <path d="M 189.582841 83.750957 
L 189.582841 80.152086 
" clip-path="url(#pfe9a7ae289)" style="fill: none; stroke: #424242; stroke-width: 2.25; stroke-linecap: square"/>
   </g>
   <g id="line2d_44">
    <path d="M 249.068698 56.341112 
L 249.068698 55.095947 
" clip-path="url(#pfe9a7ae289)" style="fill: none; stroke: #424242; stroke-width: 2.25; stroke-linecap: square"/>
   </g>
   <g id="line2d_45">
    <path d="M 308.554556 68.434378 
L 308.554556 64.992699 
" clip-path="url(#pfe9a7ae289)" style="fill: none; stroke: #424242; stroke-width: 2.25; stroke-linecap: square"/>
   </g>
   <g id="line2d_46">
    <path d="M 75.667423 105.8604 
L 75.667423 99.637486 
" clip-path="url(#pfe9a7ae289)" style="fill: none; stroke: #424242; stroke-width: 2.25; stroke-linecap: square"/>
   </g>
   <g id="line2d_47">
    <path d="M 135.153281 82.000751 
L 135.153281 78.39679 
" clip-path="url(#pfe9a7ae289)" style="fill: none; stroke: #424242; stroke-width: 2.25; stroke-linecap: square"/>
   </g>
   <g id="line2d_48">
    <path d="M 194.639139 85.093904 
L 194.639139 81.407563 
" clip-path="url(#pfe9a7ae289)" style="fill: none; stroke: #424242; stroke-width: 2.25; stroke-linecap: square"/>
   </g>
   <g id="line2d_49">
    <path d="M 254.124996 58.41348 
L 254.124996 56.736463 
" clip-path="url(#pfe9a7ae289)" style="fill: none; stroke: #424242; stroke-width: 2.25; stroke-linecap: square"/>
   </g>
   <g id="line2d_50">
    <path d="M 313.610854 67.649662 
L 313.610854 65.145953 
" clip-path="url(#pfe9a7ae289)" style="fill: none; stroke: #424242; stroke-width: 2.25; stroke-linecap: square"/>
   </g>
   <g id="line2d_51">
    <path d="M 80.723721 82.889492 
L 80.723721 81.97749 
" clip-path="url(#pfe9a7ae289)" style="fill: none; stroke: #424242; stroke-width: 2.25; stroke-linecap: square"/>
   </g>
   <g id="line2d_52">
    <path d="M 140.209579 78.185802 
L 140.209579 75.337828 
" clip-path="url(#pfe9a7ae289)" style="fill: none; stroke: #424242; stroke-width: 2.25; stroke-linecap: square"/>
   </g>
   <g id="line2d_53">
    <path d="M 199.695436 81.330895 
L 199.695436 74.573411 
" clip-path="url(#pfe9a7ae289)" style="fill: none; stroke: #424242; stroke-width: 2.25; stroke-linecap: square"/>
   </g>
   <g id="line2d_54">
    <path d="M 259.181294 45.753486 
L 259.181294 43.562689 
" clip-path="url(#pfe9a7ae289)" style="fill: none; stroke: #424242; stroke-width: 2.25; stroke-linecap: square"/>
   </g>
   <g id="line2d_55">
    <path d="M 318.667151 96.010285 
L 318.667151 88.425599 
" clip-path="url(#pfe9a7ae289)" style="fill: none; stroke: #424242; stroke-width: 2.25; stroke-linecap: square"/>
   </g>
   <g id="line2d_56">
    <path d="M 85.780019 99.94014 
L 85.780019 94.769457 
" clip-path="url(#pfe9a7ae289)" style="fill: none; stroke: #424242; stroke-width: 2.25; stroke-linecap: square"/>
   </g>
   <g id="line2d_57">
    <path d="M 145.265877 83.457373 
L 145.265877 80.297548 
" clip-path="url(#pfe9a7ae289)" style="fill: none; stroke: #424242; stroke-width: 2.25; stroke-linecap: square"/>
   </g>
   <g id="line2d_58">
    <path d="M 204.751734 84.727485 
L 204.751734 80.494734 
" clip-path="url(#pfe9a7ae289)" style="fill: none; stroke: #424242; stroke-width: 2.25; stroke-linecap: square"/>
   </g>
   <g id="line2d_59">
    <path d="M 264.237592 52.311941 
L 264.237592 50.344861 
" clip-path="url(#pfe9a7ae289)" style="fill: none; stroke: #424242; stroke-width: 2.25; stroke-linecap: square"/>
   </g>
   <g id="line2d_60">
    <path d="M 323.723449 68.965063 
L 323.723449 67.071692 
" clip-path="url(#pfe9a7ae289)" style="fill: none; stroke: #424242; stroke-width: 2.25; stroke-linecap: square"/>
   </g>
   <g id="patch_73">
    <path d="M 33.28375 236.157187 
L 33.28375 26.877187 
" style="fill: none; stroke: #000000; stroke-width: 0.8; stroke-linejoin: miter; stroke-linecap: square"/>
   </g>
   <g id="patch_74">
    <path d="M 330.713038 236.157187 
L 330.713038 26.877187 
" style="fill: none; stroke: #000000; stroke-width: 0.8; stroke-linejoin: miter; stroke-linecap: square"/>
   </g>
   <g id="patch_75">
    <path d="M 33.28375 236.157187 
L 330.713038 236.157187 
" style="fill: none; stroke: #000000; stroke-width: 0.8; stroke-linejoin: miter; stroke-linecap: square"/>
   </g>
   <g id="patch_76">
    <path d="M 33.28375 26.877187 
L 330.713038 26.877187 
" style="fill: none; stroke: #000000; stroke-width: 0.8; stroke-linejoin: miter; stroke-linecap: square"/>
   </g>
   <g id="text_11">
    <!-- $\mathrm{RMSE}_{\mathrm{counts}}$ ↓ -->
    <g transform="translate(124.758394 20.877187) scale(0.18 -0.18)">
     <defs>
      <path id="DejaVuSans-52" d="M 2841 2188 
Q 3044 2119 3236 1894 
Q 3428 1669 3622 1275 
L 4263 0 
L 3584 0 
L 2988 1197 
Q 2756 1666 2539 1819 
Q 2322 1972 1947 1972 
L 1259 1972 
L 1259 0 
L 628 0 
L 628 4666 
L 2053 4666 
Q 2853 4666 3247 4331 
Q 3641 3997 3641 3322 
Q 3641 2881 3436 2590 
Q 3231 2300 2841 2188 
z
M 1259 4147 
L 1259 2491 
L 2053 2491 
Q 2509 2491 2742 2702 
Q 2975 2913 2975 3322 
Q 2975 3731 2742 3939 
Q 2509 4147 2053 4147 
L 1259 4147 
z
" transform="scale(0.015625)"/>
      <path id="DejaVuSans-4d" d="M 628 4666 
L 1569 4666 
L 2759 1491 
L 3956 4666 
L 4897 4666 
L 4897 0 
L 4281 0 
L 4281 4097 
L 3078 897 
L 2444 897 
L 1241 4097 
L 1241 0 
L 628 0 
L 628 4666 
z
" transform="scale(0.015625)"/>
      <path id="DejaVuSans-53" d="M 3425 4513 
L 3425 3897 
Q 3066 4069 2747 4153 
Q 2428 4238 2131 4238 
Q 1616 4238 1336 4038 
Q 1056 3838 1056 3469 
Q 1056 3159 1242 3001 
Q 1428 2844 1947 2747 
L 2328 2669 
Q 3034 2534 3370 2195 
Q 3706 1856 3706 1288 
Q 3706 609 3251 259 
Q 2797 -91 1919 -91 
Q 1588 -91 1214 -16 
Q 841 59 441 206 
L 441 856 
Q 825 641 1194 531 
Q 1563 422 1919 422 
Q 2459 422 2753 634 
Q 3047 847 3047 1241 
Q 3047 1584 2836 1778 
Q 2625 1972 2144 2069 
L 1759 2144 
Q 1053 2284 737 2584 
Q 422 2884 422 3419 
Q 422 4038 858 4394 
Q 1294 4750 2059 4750 
Q 2388 4750 2728 4690 
Q 3069 4631 3425 4513 
z
" transform="scale(0.015625)"/>
      <path id="DejaVuSans-45" d="M 628 4666 
L 3578 4666 
L 3578 4134 
L 1259 4134 
L 1259 2753 
L 3481 2753 
L 3481 2222 
L 1259 2222 
L 1259 531 
L 3634 531 
L 3634 0 
L 628 0 
L 628 4666 
z
" transform="scale(0.015625)"/>
      <path id="DejaVuSans-20" transform="scale(0.015625)"/>
      <path id="DejaVuSans-2193" d="M 2822 -22 
L 2541 -22 
L 1309 1209 
L 1684 1584 
L 2416 853 
L 2416 4666 
L 2947 4666 
L 2947 853 
L 3672 1584 
L 4047 1209 
L 2822 -22 
z
" transform="scale(0.015625)"/>
     </defs>
     <use xlink:href="#DejaVuSans-52" transform="translate(0 0.78125)"/>
     <use xlink:href="#DejaVuSans-4d" transform="translate(69.482422 0.78125)"/>
     <use xlink:href="#DejaVuSans-53" transform="translate(155.761719 0.78125)"/>
     <use xlink:href="#DejaVuSans-45" transform="translate(219.238281 0.78125)"/>
     <use xlink:href="#DejaVuSans-63" transform="translate(283.378906 -15.625) scale(0.7)"/>
     <use xlink:href="#DejaVuSans-6f" transform="translate(321.865234 -15.625) scale(0.7)"/>
     <use xlink:href="#DejaVuSans-75" transform="translate(364.692383 -15.625) scale(0.7)"/>
     <use xlink:href="#DejaVuSans-6e" transform="translate(409.057617 -15.625) scale(0.7)"/>
     <use xlink:href="#DejaVuSans-74" transform="translate(453.422852 -15.625) scale(0.7)"/>
     <use xlink:href="#DejaVuSans-73" transform="translate(480.869141 -15.625) scale(0.7)"/>
     <use xlink:href="#DejaVuSans-20" transform="translate(520.073242 0.78125)"/>
     <use xlink:href="#DejaVuSans-2193" transform="translate(551.860352 0.78125)"/>
    </g>
   </g>
  </g>
  <g id="axes_2">
   <g id="patch_77">
    <path d="M 386.03875 236.157187 
L 683.468038 236.157187 
L 683.468038 26.877187 
L 386.03875 26.877187 
z
" style="fill: #ffffff"/>
   </g>
   <g id="patch_78">
    <path d="M 390.500189 241.45625 
L 395.556487 241.45625 
L 395.556487 93.986809 
L 390.500189 93.986809 
z
" clip-path="url(#p66f33a295a)" style="fill: #df2020; stroke: #d3d3d3; stroke-width: 0.8; stroke-linejoin: miter"/>
   </g>
   <g id="patch_79">
    <path d="M 449.986047 241.45625 
L 455.042345 241.45625 
L 455.042345 105.201953 
L 449.986047 105.201953 
z
" clip-path="url(#p66f33a295a)" style="fill: #df2020; stroke: #d3d3d3; stroke-width: 0.8; stroke-linejoin: miter"/>
   </g>
   <g id="patch_80">
    <path d="M 509.471904 241.45625 
L 514.528202 241.45625 
L 514.528202 99.920563 
L 509.471904 99.920563 
z
" clip-path="url(#p66f33a295a)" style="fill: #df2020; stroke: #d3d3d3; stroke-width: 0.8; stroke-linejoin: miter"/>
   </g>
   <g id="patch_81">
    <path d="M 568.957762 241.45625 
L 574.01406 241.45625 
L 574.01406 98.448405 
L 568.957762 98.448405 
z
" clip-path="url(#p66f33a295a)" style="fill: #df2020; stroke: #d3d3d3; stroke-width: 0.8; stroke-linejoin: miter"/>
   </g>
   <g id="patch_82">
    <path d="M 628.443619 241.45625 
L 633.499917 241.45625 
L 633.499917 92.366692 
L 628.443619 92.366692 
z
" clip-path="url(#p66f33a295a)" style="fill: #df2020; stroke: #d3d3d3; stroke-width: 0.8; stroke-linejoin: miter"/>
   </g>
   <g id="patch_83">
    <path d="M 395.556487 241.45625 
L 400.612785 241.45625 
L 400.612785 211.579455 
L 395.556487 211.579455 
z
" clip-path="url(#p66f33a295a)" style="fill: #7c5624; stroke: #d3d3d3; stroke-width: 0.8; stroke-linejoin: miter"/>
   </g>
   <g id="patch_84">
    <path d="M 455.042345 241.45625 
L 460.098643 241.45625 
L 460.098643 199.318625 
L 455.042345 199.318625 
z
" clip-path="url(#p66f33a295a)" style="fill: #7c5624; stroke: #d3d3d3; stroke-width: 0.8; stroke-linejoin: miter"/>
   </g>
   <g id="patch_85">
    <path d="M 514.528202 241.45625 
L 519.5845 241.45625 
L 519.5845 179.022861 
L 514.528202 179.022861 
z
" clip-path="url(#p66f33a295a)" style="fill: #7c5624; stroke: #d3d3d3; stroke-width: 0.8; stroke-linejoin: miter"/>
   </g>
   <g id="patch_86">
    <path d="M 574.01406 241.45625 
L 579.070358 241.45625 
L 579.070358 207.858115 
L 574.01406 207.858115 
z
" clip-path="url(#p66f33a295a)" style="fill: #7c5624; stroke: #d3d3d3; stroke-width: 0.8; stroke-linejoin: miter"/>
   </g>
   <g id="patch_87">
    <path d="M 633.499917 241.45625 
L 638.556215 241.45625 
L 638.556215 105.812971 
L 633.499917 105.812971 
z
" clip-path="url(#p66f33a295a)" style="fill: #7c5624; stroke: #d3d3d3; stroke-width: 0.8; stroke-linejoin: miter"/>
   </g>
   <g id="patch_88">
    <path d="M 400.612785 241.45625 
L 405.669083 241.45625 
L 405.669083 198.071887 
L 400.612785 198.071887 
z
" clip-path="url(#p66f33a295a)" style="fill: #df9c20; stroke: #d3d3d3; stroke-width: 0.8; stroke-linejoin: miter"/>
   </g>
   <g id="patch_89">
    <path d="M 460.098643 241.45625 
L 465.154941 241.45625 
L 465.154941 199.036624 
L 460.098643 199.036624 
z
" clip-path="url(#p66f33a295a)" style="fill: #df9c20; stroke: #d3d3d3; stroke-width: 0.8; stroke-linejoin: miter"/>
   </g>
   <g id="patch_90">
    <path d="M 519.5845 241.45625 
L 524.640798 241.45625 
L 524.640798 179.684279 
L 519.5845 179.684279 
z
" clip-path="url(#p66f33a295a)" style="fill: #df9c20; stroke: #d3d3d3; stroke-width: 0.8; stroke-linejoin: miter"/>
   </g>
   <g id="patch_91">
    <path d="M 579.070358 241.45625 
L 584.126656 241.45625 
L 584.126656 188.199544 
L 579.070358 188.199544 
z
" clip-path="url(#p66f33a295a)" style="fill: #df9c20; stroke: #d3d3d3; stroke-width: 0.8; stroke-linejoin: miter"/>
   </g>
   <g id="patch_92">
    <path d="M 638.556215 241.45625 
L 643.612513 241.45625 
L 643.612513 116.087893 
L 638.556215 116.087893 
z
" clip-path="url(#p66f33a295a)" style="fill: #df9c20; stroke: #d3d3d3; stroke-width: 0.8; stroke-linejoin: miter"/>
   </g>
   <g id="patch_93">
    <path d="M 405.669083 241.45625 
L 410.725381 241.45625 
L 410.725381 211.095695 
L 405.669083 211.095695 
z
" clip-path="url(#p66f33a295a)" style="fill: #107010; stroke: #d3d3d3; stroke-width: 0.8; stroke-linejoin: miter"/>
   </g>
   <g id="patch_94">
    <path d="M 465.154941 241.45625 
L 470.211238 241.45625 
L 470.211238 185.606884 
L 465.154941 185.606884 
z
" clip-path="url(#p66f33a295a)" style="fill: #107010; stroke: #d3d3d3; stroke-width: 0.8; stroke-linejoin: miter"/>
   </g>
   <g id="patch_95">
    <path d="M 524.640798 241.45625 
L 529.697096 241.45625 
L 529.697096 162.186713 
L 524.640798 162.186713 
z
" clip-path="url(#p66f33a295a)" style="fill: #107010; stroke: #d3d3d3; stroke-width: 0.8; stroke-linejoin: miter"/>
   </g>
   <g id="patch_96">
    <path d="M 584.126656 241.45625 
L 589.182953 241.45625 
L 589.182953 208.201716 
L 584.126656 208.201716 
z
" clip-path="url(#p66f33a295a)" style="fill: #107010; stroke: #d3d3d3; stroke-width: 0.8; stroke-linejoin: miter"/>
   </g>
   <g id="patch_97">
    <path d="M 643.612513 241.45625 
L 648.668811 241.45625 
L 648.668811 86.471845 
L 643.612513 86.471845 
z
" clip-path="url(#p66f33a295a)" style="fill: #107010; stroke: #d3d3d3; stroke-width: 0.8; stroke-linejoin: miter"/>
   </g>
   <g id="patch_98">
    <path d="M 410.725381 241.45625 
L 415.781679 241.45625 
L 415.781679 161.227114 
L 410.725381 161.227114 
z
" clip-path="url(#p66f33a295a)" style="fill: #94c9de; stroke: #d3d3d3; stroke-width: 0.8; stroke-linejoin: miter"/>
   </g>
   <g id="patch_99">
    <path d="M 470.211238 241.45625 
L 475.267536 241.45625 
L 475.267536 183.642365 
L 470.211238 183.642365 
z
" clip-path="url(#p66f33a295a)" style="fill: #94c9de; stroke: #d3d3d3; stroke-width: 0.8; stroke-linejoin: miter"/>
   </g>
   <g id="patch_100">
    <path d="M 529.697096 241.45625 
L 534.753394 241.45625 
L 534.753394 161.503873 
L 529.697096 161.503873 
z
" clip-path="url(#p66f33a295a)" style="fill: #94c9de; stroke: #d3d3d3; stroke-width: 0.8; stroke-linejoin: miter"/>
   </g>
   <g id="patch_101">
    <path d="M 589.182953 241.45625 
L 594.239251 241.45625 
L 594.239251 196.963928 
L 589.182953 196.963928 
z
" clip-path="url(#p66f33a295a)" style="fill: #94c9de; stroke: #d3d3d3; stroke-width: 0.8; stroke-linejoin: miter"/>
   </g>
   <g id="patch_102">
    <path d="M 648.668811 241.45625 
L 653.725109 241.45625 
L 653.725109 138.791366 
L 648.668811 138.791366 
z
" clip-path="url(#p66f33a295a)" style="fill: #94c9de; stroke: #d3d3d3; stroke-width: 0.8; stroke-linejoin: miter"/>
   </g>
   <g id="patch_103">
    <path d="M 415.781679 241.45625 
L 420.837977 241.45625 
L 420.837977 208.109792 
L 415.781679 208.109792 
z
" clip-path="url(#p66f33a295a)" style="fill: #bdbac7; stroke: #d3d3d3; stroke-width: 0.8; stroke-linejoin: miter"/>
   </g>
   <g id="patch_104">
    <path d="M 475.267536 241.45625 
L 480.323834 241.45625 
L 480.323834 199.412522 
L 475.267536 199.412522 
z
" clip-path="url(#p66f33a295a)" style="fill: #bdbac7; stroke: #d3d3d3; stroke-width: 0.8; stroke-linejoin: miter"/>
   </g>
   <g id="patch_105">
    <path d="M 534.753394 241.45625 
L 539.809692 241.45625 
L 539.809692 177.370643 
L 534.753394 177.370643 
z
" clip-path="url(#p66f33a295a)" style="fill: #bdbac7; stroke: #d3d3d3; stroke-width: 0.8; stroke-linejoin: miter"/>
   </g>
   <g id="patch_106">
    <path d="M 594.239251 241.45625 
L 599.295549 241.45625 
L 599.295549 192.093067 
L 594.239251 192.093067 
z
" clip-path="url(#p66f33a295a)" style="fill: #bdbac7; stroke: #d3d3d3; stroke-width: 0.8; stroke-linejoin: miter"/>
   </g>
   <g id="patch_107">
    <path d="M 653.725109 241.45625 
L 658.781407 241.45625 
L 658.781407 104.065783 
L 653.725109 104.065783 
z
" clip-path="url(#p66f33a295a)" style="fill: #bdbac7; stroke: #d3d3d3; stroke-width: 0.8; stroke-linejoin: miter"/>
   </g>
   <g id="patch_108">
    <path d="M 420.837977 241.45625 
L 425.894275 241.45625 
L 425.894275 219.135386 
L 420.837977 219.135386 
z
" clip-path="url(#p66f33a295a)" style="fill: #857aaa; stroke: #d3d3d3; stroke-width: 0.8; stroke-linejoin: miter"/>
   </g>
   <g id="patch_109">
    <path d="M 480.323834 241.45625 
L 485.380132 241.45625 
L 485.380132 203.176558 
L 480.323834 203.176558 
z
" clip-path="url(#p66f33a295a)" style="fill: #857aaa; stroke: #d3d3d3; stroke-width: 0.8; stroke-linejoin: miter"/>
   </g>
   <g id="patch_110">
    <path d="M 539.809692 241.45625 
L 544.86599 241.45625 
L 544.86599 177.309749 
L 539.809692 177.309749 
z
" clip-path="url(#p66f33a295a)" style="fill: #857aaa; stroke: #d3d3d3; stroke-width: 0.8; stroke-linejoin: miter"/>
   </g>
   <g id="patch_111">
    <path d="M 599.295549 241.45625 
L 604.351847 241.45625 
L 604.351847 216.655558 
L 599.295549 216.655558 
z
" clip-path="url(#p66f33a295a)" style="fill: #857aaa; stroke: #d3d3d3; stroke-width: 0.8; stroke-linejoin: miter"/>
   </g>
   <g id="patch_112">
    <path d="M 658.781407 241.45625 
L 663.837705 241.45625 
L 663.837705 105.917281 
L 658.781407 105.917281 
z
" clip-path="url(#p66f33a295a)" style="fill: #857aaa; stroke: #d3d3d3; stroke-width: 0.8; stroke-linejoin: miter"/>
   </g>
   <g id="patch_113">
    <path d="M 425.894275 241.45625 
L 430.950572 241.45625 
L 430.950572 220.623694 
L 425.894275 220.623694 
z
" clip-path="url(#p66f33a295a)" style="fill: #5f4aa2; stroke: #d3d3d3; stroke-width: 0.8; stroke-linejoin: miter"/>
   </g>
   <g id="patch_114">
    <path d="M 485.380132 241.45625 
L 490.43643 241.45625 
L 490.43643 205.289718 
L 485.380132 205.289718 
z
" clip-path="url(#p66f33a295a)" style="fill: #5f4aa2; stroke: #d3d3d3; stroke-width: 0.8; stroke-linejoin: miter"/>
   </g>
   <g id="patch_115">
    <path d="M 544.86599 241.45625 
L 549.922287 241.45625 
L 549.922287 179.889456 
L 544.86599 179.889456 
z
" clip-path="url(#p66f33a295a)" style="fill: #5f4aa2; stroke: #d3d3d3; stroke-width: 0.8; stroke-linejoin: miter"/>
   </g>
   <g id="patch_116">
    <path d="M 604.351847 241.45625 
L 609.408145 241.45625 
L 609.408145 222.65863 
L 604.351847 222.65863 
z
" clip-path="url(#p66f33a295a)" style="fill: #5f4aa2; stroke: #d3d3d3; stroke-width: 0.8; stroke-linejoin: miter"/>
   </g>
   <g id="patch_117">
    <path d="M 663.837705 241.45625 
L 668.894003 241.45625 
L 668.894003 129.969926 
L 663.837705 129.969926 
z
" clip-path="url(#p66f33a295a)" style="fill: #5f4aa2; stroke: #d3d3d3; stroke-width: 0.8; stroke-linejoin: miter"/>
   </g>
   <g id="patch_118">
    <path d="M 430.950572 241.45625 
L 436.00687 241.45625 
L 436.00687 161.254971 
L 430.950572 161.254971 
z
" clip-path="url(#p66f33a295a)" style="fill: url(#hac7aacfd65); stroke: #d3d3d3; stroke-width: 0.8; stroke-linejoin: miter"/>
   </g>
   <g id="patch_119">
    <path d="M 490.43643 241.45625 
L 495.492728 241.45625 
L 495.492728 183.664626 
L 490.43643 183.664626 
z
" clip-path="url(#p66f33a295a)" style="fill: url(#hac7aacfd65); stroke: #d3d3d3; stroke-width: 0.8; stroke-linejoin: miter"/>
   </g>
   <g id="patch_120">
    <path d="M 549.922287 241.45625 
L 554.978585 241.45625 
L 554.978585 161.475202 
L 549.922287 161.475202 
z
" clip-path="url(#p66f33a295a)" style="fill: url(#hac7aacfd65); stroke: #d3d3d3; stroke-width: 0.8; stroke-linejoin: miter"/>
   </g>
   <g id="patch_121">
    <path d="M 609.408145 241.45625 
L 614.464443 241.45625 
L 614.464443 197.172828 
L 609.408145 197.172828 
z
" clip-path="url(#p66f33a295a)" style="fill: url(#hac7aacfd65); stroke: #d3d3d3; stroke-width: 0.8; stroke-linejoin: miter"/>
   </g>
   <g id="patch_122">
    <path d="M 668.894003 241.45625 
L 673.9503 241.45625 
L 673.9503 138.708955 
L 668.894003 138.708955 
z
" clip-path="url(#p66f33a295a)" style="fill: url(#hac7aacfd65); stroke: #d3d3d3; stroke-width: 0.8; stroke-linejoin: miter"/>
   </g>
   <g id="patch_123">
    <path d="M 436.00687 241.45625 
L 441.063168 241.45625 
L 441.063168 202.684895 
L 436.00687 202.684895 
z
" clip-path="url(#p66f33a295a)" style="fill: url(#h1035e1fff1); stroke: #d3d3d3; stroke-width: 0.8; stroke-linejoin: miter"/>
   </g>
   <g id="patch_124">
    <path d="M 495.492728 241.45625 
L 500.549026 241.45625 
L 500.549026 187.371784 
L 495.492728 187.371784 
z
" clip-path="url(#p66f33a295a)" style="fill: url(#h1035e1fff1); stroke: #d3d3d3; stroke-width: 0.8; stroke-linejoin: miter"/>
   </g>
   <g id="patch_125">
    <path d="M 554.978585 241.45625 
L 560.034883 241.45625 
L 560.034883 171.118213 
L 554.978585 171.118213 
z
" clip-path="url(#p66f33a295a)" style="fill: url(#h1035e1fff1); stroke: #d3d3d3; stroke-width: 0.8; stroke-linejoin: miter"/>
   </g>
   <g id="patch_126">
    <path d="M 614.464443 241.45625 
L 619.520741 241.45625 
L 619.520741 194.617096 
L 614.464443 194.617096 
z
" clip-path="url(#p66f33a295a)" style="fill: url(#h1035e1fff1); stroke: #d3d3d3; stroke-width: 0.8; stroke-linejoin: miter"/>
   </g>
   <g id="patch_127">
    <path d="M 673.9503 241.45625 
L 679.006598 241.45625 
L 679.006598 101.138994 
L 673.9503 101.138994 
z
" clip-path="url(#p66f33a295a)" style="fill: url(#h1035e1fff1); stroke: #d3d3d3; stroke-width: 0.8; stroke-linejoin: miter"/>
   </g>
   <g id="patch_128">
    <path d="M 415.781679 241.45625 
L 415.781679 241.45625 
L 415.781679 241.45625 
L 415.781679 241.45625 
z
" clip-path="url(#p66f33a295a)" style="fill: #df2020"/>
   </g>
   <g id="patch_129">
    <path d="M 415.781679 241.45625 
L 415.781679 241.45625 
L 415.781679 241.45625 
L 415.781679 241.45625 
z
" clip-path="url(#p66f33a295a)" style="fill: #7c5624"/>
   </g>
   <g id="patch_130">
    <path d="M 415.781679 241.45625 
L 415.781679 241.45625 
L 415.781679 241.45625 
L 415.781679 241.45625 
z
" clip-path="url(#p66f33a295a)" style="fill: #df9c20"/>
   </g>
   <g id="patch_131">
    <path d="M 415.781679 241.45625 
L 415.781679 241.45625 
L 415.781679 241.45625 
L 415.781679 241.45625 
z
" clip-path="url(#p66f33a295a)" style="fill: #107010"/>
   </g>
   <g id="patch_132">
    <path d="M 415.781679 241.45625 
L 415.781679 241.45625 
L 415.781679 241.45625 
L 415.781679 241.45625 
z
" clip-path="url(#p66f33a295a)" style="fill: #94c9de"/>
   </g>
   <g id="patch_133">
    <path d="M 415.781679 241.45625 
L 415.781679 241.45625 
L 415.781679 241.45625 
L 415.781679 241.45625 
z
" clip-path="url(#p66f33a295a)" style="fill: #bdbac7"/>
   </g>
   <g id="patch_134">
    <path d="M 415.781679 241.45625 
L 415.781679 241.45625 
L 415.781679 241.45625 
L 415.781679 241.45625 
z
" clip-path="url(#p66f33a295a)" style="fill: #857aaa"/>
   </g>
   <g id="patch_135">
    <path d="M 415.781679 241.45625 
L 415.781679 241.45625 
L 415.781679 241.45625 
L 415.781679 241.45625 
z
" clip-path="url(#p66f33a295a)" style="fill: #5f4aa2"/>
   </g>
   <g id="patch_136">
    <path d="M 415.781679 241.45625 
L 415.781679 241.45625 
L 415.781679 241.45625 
L 415.781679 241.45625 
z
" clip-path="url(#p66f33a295a)" style="fill: #94c9de"/>
   </g>
   <g id="patch_137">
    <path d="M 415.781679 241.45625 
L 415.781679 241.45625 
L 415.781679 241.45625 
L 415.781679 241.45625 
z
" clip-path="url(#p66f33a295a)" style="fill: #857aaa"/>
   </g>
   <g id="patch_138">
    <path d="M 430.950572 241.45625 
L 436.00687 241.45625 
L 436.00687 161.254971 
L 430.950572 161.254971 
z
" clip-path="url(#p66f33a295a)" style="fill: url(#hc77656bc79)"/>
   </g>
   <g id="patch_139">
    <path d="M 490.43643 241.45625 
L 495.492728 241.45625 
L 495.492728 183.664626 
L 490.43643 183.664626 
z
" clip-path="url(#p66f33a295a)" style="fill: url(#hc77656bc79)"/>
   </g>
   <g id="patch_140">
    <path d="M 549.922287 241.45625 
L 554.978585 241.45625 
L 554.978585 161.475202 
L 549.922287 161.475202 
z
" clip-path="url(#p66f33a295a)" style="fill: url(#hc77656bc79)"/>
   </g>
   <g id="patch_141">
    <path d="M 609.408145 241.45625 
L 614.464443 241.45625 
L 614.464443 197.172828 
L 609.408145 197.172828 
z
" clip-path="url(#p66f33a295a)" style="fill: url(#hc77656bc79)"/>
   </g>
   <g id="patch_142">
    <path d="M 668.894003 241.45625 
L 673.9503 241.45625 
L 673.9503 138.708955 
L 668.894003 138.708955 
z
" clip-path="url(#p66f33a295a)" style="fill: url(#hc77656bc79)"/>
   </g>
   <g id="patch_143">
    <path d="M 436.00687 241.45625 
L 441.063168 241.45625 
L 441.063168 202.684895 
L 436.00687 202.684895 
z
" clip-path="url(#p66f33a295a)" style="fill: url(#hc77656bc79)"/>
   </g>
   <g id="patch_144">
    <path d="M 495.492728 241.45625 
L 500.549026 241.45625 
L 500.549026 187.371784 
L 495.492728 187.371784 
z
" clip-path="url(#p66f33a295a)" style="fill: url(#hc77656bc79)"/>
   </g>
   <g id="patch_145">
    <path d="M 554.978585 241.45625 
L 560.034883 241.45625 
L 560.034883 171.118213 
L 554.978585 171.118213 
z
" clip-path="url(#p66f33a295a)" style="fill: url(#hc77656bc79)"/>
   </g>
   <g id="patch_146">
    <path d="M 614.464443 241.45625 
L 619.520741 241.45625 
L 619.520741 194.617096 
L 614.464443 194.617096 
z
" clip-path="url(#p66f33a295a)" style="fill: url(#hc77656bc79)"/>
   </g>
   <g id="patch_147">
    <path d="M 673.9503 241.45625 
L 679.006598 241.45625 
L 679.006598 101.138994 
L 673.9503 101.138994 
z
" clip-path="url(#p66f33a295a)" style="fill: url(#hc77656bc79)"/>
   </g>
   <g id="matplotlib.axis_3">
    <g id="xtick_6">
     <g id="line2d_61">
      <g>
       <use xlink:href="#m7df36f89f3" x="415.781679" y="236.157187" style="stroke: #000000; stroke-width: 0.8"/>
      </g>
     </g>
     <g id="text_12">
      <!-- GABAergic -->
      <g transform="translate(387.127992 273.408003) rotate(-20) scale(0.12 -0.12)">
       <use xlink:href="#DejaVuSans-47"/>
       <use xlink:href="#DejaVuSans-41" transform="translate(77.490234 0)"/>
       <use xlink:href="#DejaVuSans-42" transform="translate(145.898438 0)"/>
       <use xlink:href="#DejaVuSans-41" transform="translate(214.501953 0)"/>
       <use xlink:href="#DejaVuSans-65" transform="translate(281.160156 0)"/>
       <use xlink:href="#DejaVuSans-72" transform="translate(342.683594 0)"/>
       <use xlink:href="#DejaVuSans-67" transform="translate(382.046875 0)"/>
       <use xlink:href="#DejaVuSans-69" transform="translate(445.523438 0)"/>
       <use xlink:href="#DejaVuSans-63" transform="translate(473.306641 0)"/>
      </g>
     </g>
    </g>
    <g id="xtick_7">
     <g id="line2d_62">
      <g>
       <use xlink:href="#m7df36f89f3" x="475.267536" y="236.157187" style="stroke: #000000; stroke-width: 0.8"/>
      </g>
     </g>
     <g id="text_13">
      <!-- astrocyte -->
      <g transform="translate(450.039911 270.914035) rotate(-20) scale(0.12 -0.12)">
       <use xlink:href="#DejaVuSans-61"/>
       <use xlink:href="#DejaVuSans-73" transform="translate(61.279297 0)"/>
       <use xlink:href="#DejaVuSans-74" transform="translate(113.378906 0)"/>
       <use xlink:href="#DejaVuSans-72" transform="translate(152.587891 0)"/>
       <use xlink:href="#DejaVuSans-6f" transform="translate(191.451172 0)"/>
       <use xlink:href="#DejaVuSans-63" transform="translate(252.632812 0)"/>
       <use xlink:href="#DejaVuSans-79" transform="translate(307.613281 0)"/>
       <use xlink:href="#DejaVuSans-74" transform="translate(366.792969 0)"/>
       <use xlink:href="#DejaVuSans-65" transform="translate(406.001953 0)"/>
      </g>
     </g>
    </g>
    <g id="xtick_8">
     <g id="line2d_63">
      <g>
       <use xlink:href="#m7df36f89f3" x="534.753394" y="236.157187" style="stroke: #000000; stroke-width: 0.8"/>
      </g>
     </g>
     <g id="text_14">
      <!-- endothelial -->
      <g transform="translate(504.40738 274.639917) rotate(-20) scale(0.12 -0.12)">
       <use xlink:href="#DejaVuSans-65"/>
       <use xlink:href="#DejaVuSans-6e" transform="translate(61.523438 0)"/>
       <use xlink:href="#DejaVuSans-64" transform="translate(124.902344 0)"/>
       <use xlink:href="#DejaVuSans-6f" transform="translate(188.378906 0)"/>
       <use xlink:href="#DejaVuSans-74" transform="translate(249.560547 0)"/>
       <use xlink:href="#DejaVuSans-68" transform="translate(288.769531 0)"/>
       <use xlink:href="#DejaVuSans-65" transform="translate(352.148438 0)"/>
       <use xlink:href="#DejaVuSans-6c" transform="translate(413.671875 0)"/>
       <use xlink:href="#DejaVuSans-69" transform="translate(441.455078 0)"/>
       <use xlink:href="#DejaVuSans-61" transform="translate(469.238281 0)"/>
       <use xlink:href="#DejaVuSans-6c" transform="translate(530.517578 0)"/>
      </g>
     </g>
    </g>
    <g id="xtick_9">
     <g id="line2d_64">
      <g>
       <use xlink:href="#m7df36f89f3" x="594.239251" y="236.157187" style="stroke: #000000; stroke-width: 0.8"/>
      </g>
     </g>
     <g id="text_15">
      <!-- glutamatergic -->
      <g transform="translate(555.895866 280.461527) rotate(-20) scale(0.12 -0.12)">
       <use xlink:href="#DejaVuSans-67"/>
       <use xlink:href="#DejaVuSans-6c" transform="translate(63.476562 0)"/>
       <use xlink:href="#DejaVuSans-75" transform="translate(91.259766 0)"/>
       <use xlink:href="#DejaVuSans-74" transform="translate(154.638672 0)"/>
       <use xlink:href="#DejaVuSans-61" transform="translate(193.847656 0)"/>
       <use xlink:href="#DejaVuSans-6d" transform="translate(255.126953 0)"/>
       <use xlink:href="#DejaVuSans-61" transform="translate(352.539062 0)"/>
       <use xlink:href="#DejaVuSans-74" transform="translate(413.818359 0)"/>
       <use xlink:href="#DejaVuSans-65" transform="translate(453.027344 0)"/>
       <use xlink:href="#DejaVuSans-72" transform="translate(514.550781 0)"/>
       <use xlink:href="#DejaVuSans-67" transform="translate(553.914062 0)"/>
       <use xlink:href="#DejaVuSans-69" transform="translate(617.390625 0)"/>
       <use xlink:href="#DejaVuSans-63" transform="translate(645.173828 0)"/>
      </g>
     </g>
    </g>
    <g id="xtick_10">
     <g id="line2d_65">
      <g>
       <use xlink:href="#m7df36f89f3" x="653.725109" y="236.157187" style="stroke: #000000; stroke-width: 0.8"/>
      </g>
     </g>
     <g id="text_16">
      <!-- oligodendrocyte -->
      <g transform="translate(609.287229 284.897956) rotate(-20) scale(0.12 -0.12)">
       <use xlink:href="#DejaVuSans-6f"/>
       <use xlink:href="#DejaVuSans-6c" transform="translate(61.181641 0)"/>
       <use xlink:href="#DejaVuSans-69" transform="translate(88.964844 0)"/>
       <use xlink:href="#DejaVuSans-67" transform="translate(116.748047 0)"/>
       <use xlink:href="#DejaVuSans-6f" transform="translate(180.224609 0)"/>
       <use xlink:href="#DejaVuSans-64" transform="translate(241.40625 0)"/>
       <use xlink:href="#DejaVuSans-65" transform="translate(304.882812 0)"/>
       <use xlink:href="#DejaVuSans-6e" transform="translate(366.40625 0)"/>
       <use xlink:href="#DejaVuSans-64" transform="translate(429.785156 0)"/>
       <use xlink:href="#DejaVuSans-72" transform="translate(493.261719 0)"/>
       <use xlink:href="#DejaVuSans-6f" transform="translate(532.125 0)"/>
       <use xlink:href="#DejaVuSans-63" transform="translate(593.306641 0)"/>
       <use xlink:href="#DejaVuSans-79" transform="translate(648.287109 0)"/>
       <use xlink:href="#DejaVuSans-74" transform="translate(707.466797 0)"/>
       <use xlink:href="#DejaVuSans-65" transform="translate(746.675781 0)"/>
      </g>
     </g>
    </g>
   </g>
   <g id="matplotlib.axis_4">
    <g id="ytick_6">
     <g id="line2d_66">
      <g>
       <use xlink:href="#m16a589f2b0" x="386.03875" y="212.01272" style="stroke: #000000; stroke-width: 0.8"/>
      </g>
     </g>
     <g id="text_17">
      <!-- 2.5 -->
      <g transform="translate(359.955 216.571783) scale(0.12 -0.12)">
       <use xlink:href="#DejaVuSans-32"/>
       <use xlink:href="#DejaVuSans-2e" transform="translate(63.623047 0)"/>
       <use xlink:href="#DejaVuSans-35" transform="translate(95.410156 0)"/>
      </g>
     </g>
    </g>
    <g id="ytick_7">
     <g id="line2d_67">
      <g>
       <use xlink:href="#m16a589f2b0" x="386.03875" y="182.569191" style="stroke: #000000; stroke-width: 0.8"/>
      </g>
     </g>
     <g id="text_18">
      <!-- 5.0 -->
      <g transform="translate(359.955 187.128254) scale(0.12 -0.12)">
       <use xlink:href="#DejaVuSans-35"/>
       <use xlink:href="#DejaVuSans-2e" transform="translate(63.623047 0)"/>
       <use xlink:href="#DejaVuSans-30" transform="translate(95.410156 0)"/>
      </g>
     </g>
    </g>
    <g id="ytick_8">
     <g id="line2d_68">
      <g>
       <use xlink:href="#m16a589f2b0" x="386.03875" y="153.125662" style="stroke: #000000; stroke-width: 0.8"/>
      </g>
     </g>
     <g id="text_19">
      <!-- 7.5 -->
      <g transform="translate(359.955 157.684725) scale(0.12 -0.12)">
       <defs>
        <path id="DejaVuSans-37" d="M 525 4666 
L 3525 4666 
L 3525 4397 
L 1831 0 
L 1172 0 
L 2766 4134 
L 525 4134 
L 525 4666 
z
" transform="scale(0.015625)"/>
       </defs>
       <use xlink:href="#DejaVuSans-37"/>
       <use xlink:href="#DejaVuSans-2e" transform="translate(63.623047 0)"/>
       <use xlink:href="#DejaVuSans-35" transform="translate(95.410156 0)"/>
      </g>
     </g>
    </g>
    <g id="ytick_9">
     <g id="line2d_69">
      <g>
       <use xlink:href="#m16a589f2b0" x="386.03875" y="123.682133" style="stroke: #000000; stroke-width: 0.8"/>
      </g>
     </g>
     <g id="text_20">
      <!-- 10.0 -->
      <g transform="translate(352.32 128.241195) scale(0.12 -0.12)">
       <defs>
        <path id="DejaVuSans-31" d="M 794 531 
L 1825 531 
L 1825 4091 
L 703 3866 
L 703 4441 
L 1819 4666 
L 2450 4666 
L 2450 531 
L 3481 531 
L 3481 0 
L 794 0 
L 794 531 
z
" transform="scale(0.015625)"/>
       </defs>
       <use xlink:href="#DejaVuSans-31"/>
       <use xlink:href="#DejaVuSans-30" transform="translate(63.623047 0)"/>
       <use xlink:href="#DejaVuSans-2e" transform="translate(127.246094 0)"/>
       <use xlink:href="#DejaVuSans-30" transform="translate(159.033203 0)"/>
      </g>
     </g>
    </g>
    <g id="ytick_10">
     <g id="line2d_70">
      <g>
       <use xlink:href="#m16a589f2b0" x="386.03875" y="94.238604" style="stroke: #000000; stroke-width: 0.8"/>
      </g>
     </g>
     <g id="text_21">
      <!-- 12.5 -->
      <g transform="translate(352.32 98.797666) scale(0.12 -0.12)">
       <use xlink:href="#DejaVuSans-31"/>
       <use xlink:href="#DejaVuSans-32" transform="translate(63.623047 0)"/>
       <use xlink:href="#DejaVuSans-2e" transform="translate(127.246094 0)"/>
       <use xlink:href="#DejaVuSans-35" transform="translate(159.033203 0)"/>
      </g>
     </g>
    </g>
    <g id="ytick_11">
     <g id="line2d_71">
      <g>
       <use xlink:href="#m16a589f2b0" x="386.03875" y="64.795074" style="stroke: #000000; stroke-width: 0.8"/>
      </g>
     </g>
     <g id="text_22">
      <!-- 15.0 -->
      <g transform="translate(352.32 69.354137) scale(0.12 -0.12)">
       <use xlink:href="#DejaVuSans-31"/>
       <use xlink:href="#DejaVuSans-35" transform="translate(63.623047 0)"/>
       <use xlink:href="#DejaVuSans-2e" transform="translate(127.246094 0)"/>
       <use xlink:href="#DejaVuSans-30" transform="translate(159.033203 0)"/>
      </g>
     </g>
    </g>
    <g id="ytick_12">
     <g id="line2d_72">
      <g>
       <use xlink:href="#m16a589f2b0" x="386.03875" y="35.351545" style="stroke: #000000; stroke-width: 0.8"/>
      </g>
     </g>
     <g id="text_23">
      <!-- 17.5 -->
      <g transform="translate(352.32 39.910608) scale(0.12 -0.12)">
       <use xlink:href="#DejaVuSans-31"/>
       <use xlink:href="#DejaVuSans-37" transform="translate(63.623047 0)"/>
       <use xlink:href="#DejaVuSans-2e" transform="translate(127.246094 0)"/>
       <use xlink:href="#DejaVuSans-35" transform="translate(159.033203 0)"/>
      </g>
     </g>
    </g>
   </g>
   <g id="line2d_73">
    <path d="M 393.028338 100.927496 
L 393.028338 87.046123 
" clip-path="url(#p66f33a295a)" style="fill: none; stroke: #424242; stroke-width: 2.25; stroke-linecap: square"/>
   </g>
   <g id="line2d_74">
    <path d="M 452.514196 113.675351 
L 452.514196 96.728554 
" clip-path="url(#p66f33a295a)" style="fill: none; stroke: #424242; stroke-width: 2.25; stroke-linecap: square"/>
   </g>
   <g id="line2d_75">
    <path d="M 512.000053 108.577705 
L 512.000053 91.263422 
" clip-path="url(#p66f33a295a)" style="fill: none; stroke: #424242; stroke-width: 2.25; stroke-linecap: square"/>
   </g>
   <g id="line2d_76">
    <path d="M 571.485911 105.211838 
L 571.485911 91.684971 
" clip-path="url(#p66f33a295a)" style="fill: none; stroke: #424242; stroke-width: 2.25; stroke-linecap: square"/>
   </g>
   <g id="line2d_77">
    <path d="M 630.971768 105.698185 
L 630.971768 79.0352 
" clip-path="url(#p66f33a295a)" style="fill: none; stroke: #424242; stroke-width: 2.25; stroke-linecap: square"/>
   </g>
   <g id="line2d_78">
    <path d="M 398.084636 212.38669 
L 398.084636 210.77222 
" clip-path="url(#p66f33a295a)" style="fill: none; stroke: #424242; stroke-width: 2.25; stroke-linecap: square"/>
   </g>
   <g id="line2d_79">
    <path d="M 457.570494 203.577709 
L 457.570494 195.05954 
" clip-path="url(#p66f33a295a)" style="fill: none; stroke: #424242; stroke-width: 2.25; stroke-linecap: square"/>
   </g>
   <g id="line2d_80">
    <path d="M 517.056351 186.477163 
L 517.056351 171.568558 
" clip-path="url(#p66f33a295a)" style="fill: none; stroke: #424242; stroke-width: 2.25; stroke-linecap: square"/>
   </g>
   <g id="line2d_81">
    <path d="M 576.542209 209.14599 
L 576.542209 206.57024 
" clip-path="url(#p66f33a295a)" style="fill: none; stroke: #424242; stroke-width: 2.25; stroke-linecap: square"/>
   </g>
   <g id="line2d_82">
    <path d="M 636.028066 129.003581 
L 636.028066 82.62236 
" clip-path="url(#p66f33a295a)" style="fill: none; stroke: #424242; stroke-width: 2.25; stroke-linecap: square"/>
   </g>
   <g id="line2d_83">
    <path d="M 403.140934 202.377587 
L 403.140934 193.766186 
" clip-path="url(#p66f33a295a)" style="fill: none; stroke: #424242; stroke-width: 2.25; stroke-linecap: square"/>
   </g>
   <g id="line2d_84">
    <path d="M 462.626792 202.786763 
L 462.626792 195.286484 
" clip-path="url(#p66f33a295a)" style="fill: none; stroke: #424242; stroke-width: 2.25; stroke-linecap: square"/>
   </g>
   <g id="line2d_85">
    <path d="M 522.112649 185.356481 
L 522.112649 174.012076 
" clip-path="url(#p66f33a295a)" style="fill: none; stroke: #424242; stroke-width: 2.25; stroke-linecap: square"/>
   </g>
   <g id="line2d_86">
    <path d="M 581.598507 189.017543 
L 581.598507 187.381545 
" clip-path="url(#p66f33a295a)" style="fill: none; stroke: #424242; stroke-width: 2.25; stroke-linecap: square"/>
   </g>
   <g id="line2d_87">
    <path d="M 641.084364 136.144114 
L 641.084364 96.031673 
" clip-path="url(#p66f33a295a)" style="fill: none; stroke: #424242; stroke-width: 2.25; stroke-linecap: square"/>
   </g>
   <g id="line2d_88">
    <path d="M 408.197232 212.21803 
L 408.197232 209.97336 
" clip-path="url(#p66f33a295a)" style="fill: none; stroke: #424242; stroke-width: 2.25; stroke-linecap: square"/>
   </g>
   <g id="line2d_89">
    <path d="M 467.683089 189.914146 
L 467.683089 181.299622 
" clip-path="url(#p66f33a295a)" style="fill: none; stroke: #424242; stroke-width: 2.25; stroke-linecap: square"/>
   </g>
   <g id="line2d_90">
    <path d="M 527.168947 168.767051 
L 527.168947 155.606374 
" clip-path="url(#p66f33a295a)" style="fill: none; stroke: #424242; stroke-width: 2.25; stroke-linecap: square"/>
   </g>
   <g id="line2d_91">
    <path d="M 586.654805 208.863668 
L 586.654805 207.539764 
" clip-path="url(#p66f33a295a)" style="fill: none; stroke: #424242; stroke-width: 2.25; stroke-linecap: square"/>
   </g>
   <g id="line2d_92">
    <path d="M 646.140662 111.160181 
L 646.140662 61.783509 
" clip-path="url(#p66f33a295a)" style="fill: none; stroke: #424242; stroke-width: 2.25; stroke-linecap: square"/>
   </g>
   <g id="line2d_93">
    <path d="M 413.25353 172.229895 
L 413.25353 150.224333 
" clip-path="url(#p66f33a295a)" style="fill: none; stroke: #424242; stroke-width: 2.25; stroke-linecap: square"/>
   </g>
   <g id="line2d_94">
    <path d="M 472.739387 185.67149 
L 472.739387 181.613241 
" clip-path="url(#p66f33a295a)" style="fill: none; stroke: #424242; stroke-width: 2.25; stroke-linecap: square"/>
   </g>
   <g id="line2d_95">
    <path d="M 532.225245 168.988852 
L 532.225245 154.018895 
" clip-path="url(#p66f33a295a)" style="fill: none; stroke: #424242; stroke-width: 2.25; stroke-linecap: square"/>
   </g>
   <g id="line2d_96">
    <path d="M 591.711102 203.277636 
L 591.711102 190.65022 
" clip-path="url(#p66f33a295a)" style="fill: none; stroke: #424242; stroke-width: 2.25; stroke-linecap: square"/>
   </g>
   <g id="line2d_97">
    <path d="M 651.19696 155.68182 
L 651.19696 121.900912 
" clip-path="url(#p66f33a295a)" style="fill: none; stroke: #424242; stroke-width: 2.25; stroke-linecap: square"/>
   </g>
   <g id="line2d_98">
    <path d="M 418.309828 210.313421 
L 418.309828 205.906163 
" clip-path="url(#p66f33a295a)" style="fill: none; stroke: #424242; stroke-width: 2.25; stroke-linecap: square"/>
   </g>
   <g id="line2d_99">
    <path d="M 477.795685 203.494338 
L 477.795685 195.330706 
" clip-path="url(#p66f33a295a)" style="fill: none; stroke: #424242; stroke-width: 2.25; stroke-linecap: square"/>
   </g>
   <g id="line2d_100">
    <path d="M 537.281543 184.43906 
L 537.281543 170.302227 
" clip-path="url(#p66f33a295a)" style="fill: none; stroke: #424242; stroke-width: 2.25; stroke-linecap: square"/>
   </g>
   <g id="line2d_101">
    <path d="M 596.7674 194.601654 
L 596.7674 189.58448 
" clip-path="url(#p66f33a295a)" style="fill: none; stroke: #424242; stroke-width: 2.25; stroke-linecap: square"/>
   </g>
   <g id="line2d_102">
    <path d="M 656.253258 127.098745 
L 656.253258 81.03282 
" clip-path="url(#p66f33a295a)" style="fill: none; stroke: #424242; stroke-width: 2.25; stroke-linecap: square"/>
   </g>
   <g id="line2d_103">
    <path d="M 423.366126 219.618103 
L 423.366126 218.652669 
" clip-path="url(#p66f33a295a)" style="fill: none; stroke: #424242; stroke-width: 2.25; stroke-linecap: square"/>
   </g>
   <g id="line2d_104">
    <path d="M 482.851983 208.126142 
L 482.851983 198.226974 
" clip-path="url(#p66f33a295a)" style="fill: none; stroke: #424242; stroke-width: 2.25; stroke-linecap: square"/>
   </g>
   <g id="line2d_105">
    <path d="M 542.337841 185.226719 
L 542.337841 169.39278 
" clip-path="url(#p66f33a295a)" style="fill: none; stroke: #424242; stroke-width: 2.25; stroke-linecap: square"/>
   </g>
   <g id="line2d_106">
    <path d="M 601.823698 217.494356 
L 601.823698 215.81676 
" clip-path="url(#p66f33a295a)" style="fill: none; stroke: #424242; stroke-width: 2.25; stroke-linecap: square"/>
   </g>
   <g id="line2d_107">
    <path d="M 661.309556 128.908248 
L 661.309556 82.926314 
" clip-path="url(#p66f33a295a)" style="fill: none; stroke: #424242; stroke-width: 2.25; stroke-linecap: square"/>
   </g>
   <g id="line2d_108">
    <path d="M 428.422423 221.571373 
L 428.422423 219.676016 
" clip-path="url(#p66f33a295a)" style="fill: none; stroke: #424242; stroke-width: 2.25; stroke-linecap: square"/>
   </g>
   <g id="line2d_109">
    <path d="M 487.908281 210.310047 
L 487.908281 200.26939 
" clip-path="url(#p66f33a295a)" style="fill: none; stroke: #424242; stroke-width: 2.25; stroke-linecap: square"/>
   </g>
   <g id="line2d_110">
    <path d="M 547.394139 187.719746 
L 547.394139 172.059165 
" clip-path="url(#p66f33a295a)" style="fill: none; stroke: #424242; stroke-width: 2.25; stroke-linecap: square"/>
   </g>
   <g id="line2d_111">
    <path d="M 606.879996 223.228196 
L 606.879996 222.089064 
" clip-path="url(#p66f33a295a)" style="fill: none; stroke: #424242; stroke-width: 2.25; stroke-linecap: square"/>
   </g>
   <g id="line2d_112">
    <path d="M 666.365854 132.978559 
L 666.365854 126.961293 
" clip-path="url(#p66f33a295a)" style="fill: none; stroke: #424242; stroke-width: 2.25; stroke-linecap: square"/>
   </g>
   <g id="line2d_113">
    <path d="M 433.478721 172.332614 
L 433.478721 150.177327 
" clip-path="url(#p66f33a295a)" style="fill: none; stroke: #424242; stroke-width: 2.25; stroke-linecap: square"/>
   </g>
   <g id="line2d_114">
    <path d="M 492.964579 185.551901 
L 492.964579 181.777351 
" clip-path="url(#p66f33a295a)" style="fill: none; stroke: #424242; stroke-width: 2.25; stroke-linecap: square"/>
   </g>
   <g id="line2d_115">
    <path d="M 552.450436 168.988323 
L 552.450436 153.962081 
" clip-path="url(#p66f33a295a)" style="fill: none; stroke: #424242; stroke-width: 2.25; stroke-linecap: square"/>
   </g>
   <g id="line2d_116">
    <path d="M 611.936294 203.583088 
L 611.936294 190.762568 
" clip-path="url(#p66f33a295a)" style="fill: none; stroke: #424242; stroke-width: 2.25; stroke-linecap: square"/>
   </g>
   <g id="line2d_117">
    <path d="M 671.422151 155.574539 
L 671.422151 121.84337 
" clip-path="url(#p66f33a295a)" style="fill: none; stroke: #424242; stroke-width: 2.25; stroke-linecap: square"/>
   </g>
   <g id="line2d_118">
    <path d="M 438.535019 203.036623 
L 438.535019 202.333167 
" clip-path="url(#p66f33a295a)" style="fill: none; stroke: #424242; stroke-width: 2.25; stroke-linecap: square"/>
   </g>
   <g id="line2d_119">
    <path d="M 498.020877 192.203541 
L 498.020877 182.540026 
" clip-path="url(#p66f33a295a)" style="fill: none; stroke: #424242; stroke-width: 2.25; stroke-linecap: square"/>
   </g>
   <g id="line2d_120">
    <path d="M 557.506734 177.539781 
L 557.506734 164.696646 
" clip-path="url(#p66f33a295a)" style="fill: none; stroke: #424242; stroke-width: 2.25; stroke-linecap: square"/>
   </g>
   <g id="line2d_121">
    <path d="M 616.992592 196.107573 
L 616.992592 193.12662 
" clip-path="url(#p66f33a295a)" style="fill: none; stroke: #424242; stroke-width: 2.25; stroke-linecap: square"/>
   </g>
   <g id="line2d_122">
    <path d="M 676.478449 123.06644 
L 676.478449 79.211548 
" clip-path="url(#p66f33a295a)" style="fill: none; stroke: #424242; stroke-width: 2.25; stroke-linecap: square"/>
   </g>
   <g id="patch_148">
    <path d="M 386.03875 236.157187 
L 386.03875 26.877188 
" style="fill: none; stroke: #000000; stroke-width: 0.8; stroke-linejoin: miter; stroke-linecap: square"/>
   </g>
   <g id="patch_149">
    <path d="M 683.468038 236.157187 
L 683.468038 26.877188 
" style="fill: none; stroke: #000000; stroke-width: 0.8; stroke-linejoin: miter; stroke-linecap: square"/>
   </g>
   <g id="patch_150">
    <path d="M 386.03875 236.157187 
L 683.468038 236.157187 
" style="fill: none; stroke: #000000; stroke-width: 0.8; stroke-linejoin: miter; stroke-linecap: square"/>
   </g>
   <g id="patch_151">
    <path d="M 386.03875 26.877187 
L 683.468038 26.877187 
" style="fill: none; stroke: #000000; stroke-width: 0.8; stroke-linejoin: miter; stroke-linecap: square"/>
   </g>
   <g id="text_24">
    <!-- $\mathrm{RMSE}_{\mathrm{LFC}}$ ↓ -->
    <g transform="translate(487.053394 20.877187) scale(0.18 -0.18)">
     <defs>
      <path id="DejaVuSans-4c" d="M 628 4666 
L 1259 4666 
L 1259 531 
L 3531 531 
L 3531 0 
L 628 0 
L 628 4666 
z
" transform="scale(0.015625)"/>
      <path id="DejaVuSans-46" d="M 628 4666 
L 3309 4666 
L 3309 4134 
L 1259 4134 
L 1259 2759 
L 3109 2759 
L 3109 2228 
L 1259 2228 
L 1259 0 
L 628 0 
L 628 4666 
z
" transform="scale(0.015625)"/>
      <path id="DejaVuSans-43" d="M 4122 4306 
L 4122 3641 
Q 3803 3938 3442 4084 
Q 3081 4231 2675 4231 
Q 1875 4231 1450 3742 
Q 1025 3253 1025 2328 
Q 1025 1406 1450 917 
Q 1875 428 2675 428 
Q 3081 428 3442 575 
Q 3803 722 4122 1019 
L 4122 359 
Q 3791 134 3420 21 
Q 3050 -91 2638 -91 
Q 1578 -91 968 557 
Q 359 1206 359 2328 
Q 359 3453 968 4101 
Q 1578 4750 2638 4750 
Q 3056 4750 3426 4639 
Q 3797 4528 4122 4306 
z
" transform="scale(0.015625)"/>
     </defs>
     <use xlink:href="#DejaVuSans-52" transform="translate(0 0.78125)"/>
     <use xlink:href="#DejaVuSans-4d" transform="translate(69.482422 0.78125)"/>
     <use xlink:href="#DejaVuSans-53" transform="translate(155.761719 0.78125)"/>
     <use xlink:href="#DejaVuSans-45" transform="translate(219.238281 0.78125)"/>
     <use xlink:href="#DejaVuSans-4c" transform="translate(283.378906 -15.625) scale(0.7)"/>
     <use xlink:href="#DejaVuSans-46" transform="translate(322.37793 -15.625) scale(0.7)"/>
     <use xlink:href="#DejaVuSans-43" transform="translate(362.641602 -15.625) scale(0.7)"/>
     <use xlink:href="#DejaVuSans-20" transform="translate(414.25293 0.78125)"/>
     <use xlink:href="#DejaVuSans-2193" transform="translate(446.040039 0.78125)"/>
    </g>
   </g>
  </g>
 </g>
 <defs>
  <clipPath id="pfe9a7ae289">
   <rect x="33.28375" y="26.877187" width="297.429288" height="209.28"/>
  </clipPath>
  <clipPath id="p66f33a295a">
   <rect x="386.03875" y="26.877187" width="297.429288" height="209.28"/>
  </clipPath>
 </defs>
 <defs>
  <pattern id="hac7aacfd65" patternUnits="userSpaceOnUse" x="0" y="0" width="72" height="72">
   <rect x="0" y="0" width="73" height="73" fill="#94c9de"/>
   <path d="M -36 36 
L 36 -36 
M -32 40 
L 40 -32 
M -28 44 
L 44 -28 
M -24 48 
L 48 -24 
M -20 52 
L 52 -20 
M -16 56 
L 56 -16 
M -12 60 
L 60 -12 
M -8 64 
L 64 -8 
M -4 68 
L 68 -4 
M 0 72 
L 72 0 
M 4 76 
L 76 4 
M 8 80 
L 80 8 
M 12 84 
L 84 12 
M 16 88 
L 88 16 
M 20 92 
L 92 20 
M 24 96 
L 96 24 
M 28 100 
L 100 28 
M 32 104 
L 104 32 
M 36 108 
L 108 36 
" style="fill: #d3d3d3; stroke: #d3d3d3; stroke-width: 1.0; stroke-linecap: butt; stroke-linejoin: miter"/>
  </pattern>
  <pattern id="h1035e1fff1" patternUnits="userSpaceOnUse" x="0" y="0" width="72" height="72">
   <rect x="0" y="0" width="73" height="73" fill="#857aaa"/>
   <path d="M -36 36 
L 36 -36 
M -32 40 
L 40 -32 
M -28 44 
L 44 -28 
M -24 48 
L 48 -24 
M -20 52 
L 52 -20 
M -16 56 
L 56 -16 
M -12 60 
L 60 -12 
M -8 64 
L 64 -8 
M -4 68 
L 68 -4 
M 0 72 
L 72 0 
M 4 76 
L 76 4 
M 8 80 
L 80 8 
M 12 84 
L 84 12 
M 16 88 
L 88 16 
M 20 92 
L 92 20 
M 24 96 
L 96 24 
M 28 100 
L 100 28 
M 32 104 
L 104 32 
M 36 108 
L 108 36 
" style="fill: #d3d3d3; stroke: #d3d3d3; stroke-width: 1.0; stroke-linecap: butt; stroke-linejoin: miter"/>
  </pattern>
  <pattern id="hc77656bc79" patternUnits="userSpaceOnUse" x="0" y="0" width="72" height="72">
   <rect x="0" y="0" width="73" height="73" fill="none"/>
   <path d="M -36 36 
L 36 -36 
M -32 40 
L 40 -32 
M -28 44 
L 44 -28 
M -24 48 
L 48 -24 
M -20 52 
L 52 -20 
M -16 56 
L 56 -16 
M -12 60 
L 60 -12 
M -8 64 
L 64 -8 
M -4 68 
L 68 -4 
M 0 72 
L 72 0 
M 4 76 
L 76 4 
M 8 80 
L 80 8 
M 12 84 
L 84 12 
M 16 88 
L 88 16 
M 20 92 
L 92 20 
M 24 96 
L 96 24 
M 28 100 
L 100 28 
M 32 104 
L 104 32 
M 36 108 
L 108 36 
" style="fill: #000000; stroke: #000000; stroke-width: 1.0; stroke-linecap: butt; stroke-linejoin: miter"/>
  </pattern>
 </defs>
</svg>
