<?xml version="1.0" encoding="utf-8" standalone="no"?>
<!DOCTYPE svg PUBLIC "-//W3C//DTD SVG 1.1//EN"
  "http://www.w3.org/Graphics/SVG/1.1/DTD/svg11.dtd">
<svg xmlns:xlink="http://www.w3.org/1999/xlink" width="708.477071pt" height="295.883076pt" viewBox="0 0 708.477071 295.883076" xmlns="http://www.w3.org/2000/svg" version="1.1">
 <metadata>
  <rdf:RDF xmlns:dc="http://purl.org/dc/elements/1.1/" xmlns:cc="http://creativecommons.org/ns#" xmlns:rdf="http://www.w3.org/1999/02/22-rdf-syntax-ns#">
   <cc:Work>
    <dc:type rdf:resource="http://purl.org/dc/dcmitype/StillImage"/>
    <dc:date>2026-05-01T19:17:36.549827</dc:date>
    <dc:format>image/svg+xml</dc:format>
    <dc:creator>
     <cc:Agent>
      <dc:title>Matplotlib v3.10.8, https://matplotlib.org/</dc:title>
     </cc:Agent>
    </dc:creator>
   </cc:Work>
  </rdf:RDF>
 </metadata>
 <defs>
  <style type="text/css">*{stroke-linejoin: round; stroke-linecap: butt}</style>
 </defs>
 <g id="figure_1">
  <g id="patch_1">
   <path d="M 0 295.883076 
L 708.477071 295.883076 
L 708.477071 0 
L 0 0 
z
" style="fill: #ffffff"/>
  </g>
  <g id="axes_1">
   <g id="patch_2">
    <path d="M 33.28375 237.597187 
L 330.758038 237.597187 
L 330.758038 26.877187 
L 33.28375 26.877187 
z
" style="fill: #ffffff"/>
   </g>
   <g id="patch_3">
    <path d="M 37.745864 237.597187 
L 42.802927 237.597187 
L 42.802927 185.38627 
L 37.745864 185.38627 
z
" clip-path="url(#p71b0b21ed8)" style="fill: #df2020; stroke: #d3d3d3; stroke-width: 0.8; stroke-linejoin: miter"/>
   </g>
   <g id="patch_4">
    <path d="M 97.240722 237.597187 
L 102.297785 237.597187 
L 102.297785 167.438767 
L 97.240722 167.438767 
z
" clip-path="url(#p71b0b21ed8)" style="fill: #df2020; stroke: #d3d3d3; stroke-width: 0.8; stroke-linejoin: miter"/>
   </g>
   <g id="patch_5">
    <path d="M 156.735579 237.597187 
L 161.792642 237.597187 
L 161.792642 149.491264 
L 156.735579 149.491264 
z
" clip-path="url(#p71b0b21ed8)" style="fill: #df2020; stroke: #d3d3d3; stroke-width: 0.8; stroke-linejoin: miter"/>
   </g>
   <g id="patch_6">
    <path d="M 216.230437 237.597187 
L 221.2875 237.597187 
L 221.2875 191.912635 
L 216.230437 191.912635 
z
" clip-path="url(#p71b0b21ed8)" style="fill: #df2020; stroke: #d3d3d3; stroke-width: 0.8; stroke-linejoin: miter"/>
   </g>
   <g id="patch_7">
    <path d="M 275.725294 237.597187 
L 280.782357 237.597187 
L 280.782357 187.017861 
L 275.725294 187.017861 
z
" clip-path="url(#p71b0b21ed8)" style="fill: #df2020; stroke: #d3d3d3; stroke-width: 0.8; stroke-linejoin: miter"/>
   </g>
   <g id="patch_8">
    <path d="M 42.802927 237.597187 
L 47.85999 237.597187 
L 47.85999 110.333076 
L 42.802927 110.333076 
z
" clip-path="url(#p71b0b21ed8)" style="fill: #7c5624; stroke: #d3d3d3; stroke-width: 0.8; stroke-linejoin: miter"/>
   </g>
   <g id="patch_9">
    <path d="M 102.297785 237.597187 
L 107.354848 237.597187 
L 107.354848 121.754214 
L 102.297785 121.754214 
z
" clip-path="url(#p71b0b21ed8)" style="fill: #7c5624; stroke: #d3d3d3; stroke-width: 0.8; stroke-linejoin: miter"/>
   </g>
   <g id="patch_10">
    <path d="M 161.792642 237.597187 
L 166.849705 237.597187 
L 166.849705 67.911706 
L 161.792642 67.911706 
z
" clip-path="url(#p71b0b21ed8)" style="fill: #7c5624; stroke: #d3d3d3; stroke-width: 0.8; stroke-linejoin: miter"/>
   </g>
   <g id="patch_11">
    <path d="M 221.2875 237.597187 
L 226.344563 237.597187 
L 226.344563 94.017164 
L 221.2875 94.017164 
z
" clip-path="url(#p71b0b21ed8)" style="fill: #7c5624; stroke: #d3d3d3; stroke-width: 0.8; stroke-linejoin: miter"/>
   </g>
   <g id="patch_12">
    <path d="M 280.782357 237.597187 
L 285.83942 237.597187 
L 285.83942 139.701717 
L 280.782357 139.701717 
z
" clip-path="url(#p71b0b21ed8)" style="fill: #7c5624; stroke: #d3d3d3; stroke-width: 0.8; stroke-linejoin: miter"/>
   </g>
   <g id="patch_13">
    <path d="M 47.85999 237.597187 
L 52.917053 237.597187 
L 52.917053 142.964899 
L 47.85999 142.964899 
z
" clip-path="url(#p71b0b21ed8)" style="fill: #df9c20; stroke: #d3d3d3; stroke-width: 0.8; stroke-linejoin: miter"/>
   </g>
   <g id="patch_14">
    <path d="M 107.354848 237.597187 
L 112.411911 237.597187 
L 112.411911 187.017861 
L 107.354848 187.017861 
z
" clip-path="url(#p71b0b21ed8)" style="fill: #df9c20; stroke: #d3d3d3; stroke-width: 0.8; stroke-linejoin: miter"/>
   </g>
   <g id="patch_15">
    <path d="M 166.849705 237.597187 
L 171.906768 237.597187 
L 171.906768 126.648988 
L 166.849705 126.648988 
z
" clip-path="url(#p71b0b21ed8)" style="fill: #df9c20; stroke: #d3d3d3; stroke-width: 0.8; stroke-linejoin: miter"/>
   </g>
   <g id="patch_16">
    <path d="M 226.344563 237.597187 
L 231.401626 237.597187 
L 231.401626 195.175817 
L 226.344563 195.175817 
z
" clip-path="url(#p71b0b21ed8)" style="fill: #df9c20; stroke: #d3d3d3; stroke-width: 0.8; stroke-linejoin: miter"/>
   </g>
   <g id="patch_17">
    <path d="M 285.83942 237.597187 
L 290.896483 237.597187 
L 290.896483 208.228546 
L 285.83942 208.228546 
z
" clip-path="url(#p71b0b21ed8)" style="fill: #df9c20; stroke: #d3d3d3; stroke-width: 0.8; stroke-linejoin: miter"/>
   </g>
   <g id="patch_18">
    <path d="M 52.917053 237.597187 
L 57.974116 237.597187 
L 57.974116 134.806944 
L 52.917053 134.806944 
z
" clip-path="url(#p71b0b21ed8)" style="fill: #107010; stroke: #d3d3d3; stroke-width: 0.8; stroke-linejoin: miter"/>
   </g>
   <g id="patch_19">
    <path d="M 112.411911 237.597187 
L 117.468973 237.597187 
L 117.468973 182.123088 
L 112.411911 182.123088 
z
" clip-path="url(#p71b0b21ed8)" style="fill: #107010; stroke: #d3d3d3; stroke-width: 0.8; stroke-linejoin: miter"/>
   </g>
   <g id="patch_20">
    <path d="M 171.906768 237.597187 
L 176.963831 237.597187 
L 176.963831 105.438302 
L 171.906768 105.438302 
z
" clip-path="url(#p71b0b21ed8)" style="fill: #107010; stroke: #d3d3d3; stroke-width: 0.8; stroke-linejoin: miter"/>
   </g>
   <g id="patch_21">
    <path d="M 231.401626 237.597187 
L 236.458688 237.597187 
L 236.458688 134.806944 
L 231.401626 134.806944 
z
" clip-path="url(#p71b0b21ed8)" style="fill: #107010; stroke: #d3d3d3; stroke-width: 0.8; stroke-linejoin: miter"/>
   </g>
   <g id="patch_22">
    <path d="M 290.896483 237.597187 
L 295.953546 237.597187 
L 295.953546 182.123088 
L 290.896483 182.123088 
z
" clip-path="url(#p71b0b21ed8)" style="fill: #107010; stroke: #d3d3d3; stroke-width: 0.8; stroke-linejoin: miter"/>
   </g>
   <g id="patch_23">
    <path d="M 57.974116 237.597187 
L 63.031179 237.597187 
L 63.031179 222.912867 
L 57.974116 222.912867 
z
" clip-path="url(#p71b0b21ed8)" style="fill: #94c9de; stroke: #d3d3d3; stroke-width: 0.8; stroke-linejoin: miter"/>
   </g>
   <g id="patch_24">
    <path d="M 117.468973 237.597187 
L 122.526036 237.597187 
L 122.526036 222.912867 
L 117.468973 222.912867 
z
" clip-path="url(#p71b0b21ed8)" style="fill: #94c9de; stroke: #d3d3d3; stroke-width: 0.8; stroke-linejoin: miter"/>
   </g>
   <g id="patch_25">
    <path d="M 176.963831 237.597187 
L 182.020894 237.597187 
L 182.020894 190.281043 
L 176.963831 190.281043 
z
" clip-path="url(#p71b0b21ed8)" style="fill: #94c9de; stroke: #d3d3d3; stroke-width: 0.8; stroke-linejoin: miter"/>
   </g>
   <g id="patch_26">
    <path d="M 236.458688 237.597187 
L 241.515751 237.597187 
L 241.515751 232.702414 
L 236.458688 232.702414 
z
" clip-path="url(#p71b0b21ed8)" style="fill: #94c9de; stroke: #d3d3d3; stroke-width: 0.8; stroke-linejoin: miter"/>
   </g>
   <g id="patch_27">
    <path d="M 295.953546 237.597187 
L 301.010609 237.597187 
L 301.010609 216.386502 
L 295.953546 216.386502 
z
" clip-path="url(#p71b0b21ed8)" style="fill: #94c9de; stroke: #d3d3d3; stroke-width: 0.8; stroke-linejoin: miter"/>
   </g>
   <g id="patch_28">
    <path d="M 63.031179 237.597187 
L 68.088242 237.597187 
L 68.088242 118.491032 
L 63.031179 118.491032 
z
" clip-path="url(#p71b0b21ed8)" style="fill: #bdbac7; stroke: #d3d3d3; stroke-width: 0.8; stroke-linejoin: miter"/>
   </g>
   <g id="patch_29">
    <path d="M 122.526036 237.597187 
L 127.583099 237.597187 
L 127.583099 98.911938 
L 122.526036 98.911938 
z
" clip-path="url(#p71b0b21ed8)" style="fill: #bdbac7; stroke: #d3d3d3; stroke-width: 0.8; stroke-linejoin: miter"/>
   </g>
   <g id="patch_30">
    <path d="M 182.020894 237.597187 
L 187.077957 237.597187 
L 187.077957 74.43807 
L 182.020894 74.43807 
z
" clip-path="url(#p71b0b21ed8)" style="fill: #bdbac7; stroke: #d3d3d3; stroke-width: 0.8; stroke-linejoin: miter"/>
   </g>
   <g id="patch_31">
    <path d="M 241.515751 237.597187 
L 246.572814 237.597187 
L 246.572814 139.701717 
L 241.515751 139.701717 
z
" clip-path="url(#p71b0b21ed8)" style="fill: #bdbac7; stroke: #d3d3d3; stroke-width: 0.8; stroke-linejoin: miter"/>
   </g>
   <g id="patch_32">
    <path d="M 301.010609 237.597187 
L 306.067672 237.597187 
L 306.067672 142.964899 
L 301.010609 142.964899 
z
" clip-path="url(#p71b0b21ed8)" style="fill: #bdbac7; stroke: #d3d3d3; stroke-width: 0.8; stroke-linejoin: miter"/>
   </g>
   <g id="patch_33">
    <path d="M 68.088242 237.597187 
L 73.145305 237.597187 
L 73.145305 98.911938 
L 68.088242 98.911938 
z
" clip-path="url(#p71b0b21ed8)" style="fill: #857aaa; stroke: #d3d3d3; stroke-width: 0.8; stroke-linejoin: miter"/>
   </g>
   <g id="patch_34">
    <path d="M 127.583099 237.597187 
L 132.640162 237.597187 
L 132.640162 89.122391 
L 127.583099 89.122391 
z
" clip-path="url(#p71b0b21ed8)" style="fill: #857aaa; stroke: #d3d3d3; stroke-width: 0.8; stroke-linejoin: miter"/>
   </g>
   <g id="patch_35">
    <path d="M 187.077957 237.597187 
L 192.13502 237.597187 
L 192.13502 64.648523 
L 187.077957 64.648523 
z
" clip-path="url(#p71b0b21ed8)" style="fill: #857aaa; stroke: #d3d3d3; stroke-width: 0.8; stroke-linejoin: miter"/>
   </g>
   <g id="patch_36">
    <path d="M 246.572814 237.597187 
L 251.629877 237.597187 
L 251.629877 74.43807 
L 246.572814 74.43807 
z
" clip-path="url(#p71b0b21ed8)" style="fill: #857aaa; stroke: #d3d3d3; stroke-width: 0.8; stroke-linejoin: miter"/>
   </g>
   <g id="patch_37">
    <path d="M 306.067672 237.597187 
L 311.124735 237.597187 
L 311.124735 141.333308 
L 306.067672 141.333308 
z
" clip-path="url(#p71b0b21ed8)" style="fill: #857aaa; stroke: #d3d3d3; stroke-width: 0.8; stroke-linejoin: miter"/>
   </g>
   <g id="patch_38">
    <path d="M 73.145305 237.597187 
L 78.202367 237.597187 
L 78.202367 94.017164 
L 73.145305 94.017164 
z
" clip-path="url(#p71b0b21ed8)" style="fill: #5f4aa2; stroke: #d3d3d3; stroke-width: 0.8; stroke-linejoin: miter"/>
   </g>
   <g id="patch_39">
    <path d="M 132.640162 237.597187 
L 137.697225 237.597187 
L 137.697225 72.806479 
L 132.640162 72.806479 
z
" clip-path="url(#p71b0b21ed8)" style="fill: #5f4aa2; stroke: #d3d3d3; stroke-width: 0.8; stroke-linejoin: miter"/>
   </g>
   <g id="patch_40">
    <path d="M 192.13502 237.597187 
L 197.192082 237.597187 
L 197.192082 56.490567 
L 192.13502 56.490567 
z
" clip-path="url(#p71b0b21ed8)" style="fill: #5f4aa2; stroke: #d3d3d3; stroke-width: 0.8; stroke-linejoin: miter"/>
   </g>
   <g id="patch_41">
    <path d="M 251.629877 237.597187 
L 256.68694 237.597187 
L 256.68694 61.385341 
L 251.629877 61.385341 
z
" clip-path="url(#p71b0b21ed8)" style="fill: #5f4aa2; stroke: #d3d3d3; stroke-width: 0.8; stroke-linejoin: miter"/>
   </g>
   <g id="patch_42">
    <path d="M 311.124735 237.597187 
L 316.181798 237.597187 
L 316.181798 110.333076 
L 311.124735 110.333076 
z
" clip-path="url(#p71b0b21ed8)" style="fill: #5f4aa2; stroke: #d3d3d3; stroke-width: 0.8; stroke-linejoin: miter"/>
   </g>
   <g id="patch_43">
    <path d="M 78.202367 237.597187 
L 83.25943 237.597187 
L 83.25943 222.912867 
L 78.202367 222.912867 
z
" clip-path="url(#p71b0b21ed8)" style="fill: url(#h00dfef1155); stroke: #d3d3d3; stroke-width: 0.8; stroke-linejoin: miter"/>
   </g>
   <g id="patch_44">
    <path d="M 137.697225 237.597187 
L 142.754288 237.597187 
L 142.754288 222.912867 
L 137.697225 222.912867 
z
" clip-path="url(#p71b0b21ed8)" style="fill: url(#h00dfef1155); stroke: #d3d3d3; stroke-width: 0.8; stroke-linejoin: miter"/>
   </g>
   <g id="patch_45">
    <path d="M 197.192082 237.597187 
L 202.249145 237.597187 
L 202.249145 190.281043 
L 197.192082 190.281043 
z
" clip-path="url(#p71b0b21ed8)" style="fill: url(#h00dfef1155); stroke: #d3d3d3; stroke-width: 0.8; stroke-linejoin: miter"/>
   </g>
   <g id="patch_46">
    <path d="M 256.68694 237.597187 
L 261.744003 237.597187 
L 261.744003 232.702414 
L 256.68694 232.702414 
z
" clip-path="url(#p71b0b21ed8)" style="fill: url(#h00dfef1155); stroke: #d3d3d3; stroke-width: 0.8; stroke-linejoin: miter"/>
   </g>
   <g id="patch_47">
    <path d="M 316.181798 237.597187 
L 321.23886 237.597187 
L 321.23886 216.386502 
L 316.181798 216.386502 
z
" clip-path="url(#p71b0b21ed8)" style="fill: url(#h00dfef1155); stroke: #d3d3d3; stroke-width: 0.8; stroke-linejoin: miter"/>
   </g>
   <g id="patch_48">
    <path d="M 83.25943 237.597187 
L 88.316493 237.597187 
L 88.316493 131.543761 
L 83.25943 131.543761 
z
" clip-path="url(#p71b0b21ed8)" style="fill: url(#h6a7359b366); stroke: #d3d3d3; stroke-width: 0.8; stroke-linejoin: miter"/>
   </g>
   <g id="patch_49">
    <path d="M 142.754288 237.597187 
L 147.811351 237.597187 
L 147.811351 175.596723 
L 142.754288 175.596723 
z
" clip-path="url(#p71b0b21ed8)" style="fill: url(#h6a7359b366); stroke: #d3d3d3; stroke-width: 0.8; stroke-linejoin: miter"/>
   </g>
   <g id="patch_50">
    <path d="M 202.249145 237.597187 
L 207.306208 237.597187 
L 207.306208 115.22785 
L 202.249145 115.22785 
z
" clip-path="url(#p71b0b21ed8)" style="fill: url(#h6a7359b366); stroke: #d3d3d3; stroke-width: 0.8; stroke-linejoin: miter"/>
   </g>
   <g id="patch_51">
    <path d="M 261.744003 237.597187 
L 266.801066 237.597187 
L 266.801066 126.648988 
L 261.744003 126.648988 
z
" clip-path="url(#p71b0b21ed8)" style="fill: url(#h6a7359b366); stroke: #d3d3d3; stroke-width: 0.8; stroke-linejoin: miter"/>
   </g>
   <g id="patch_52">
    <path d="M 321.23886 237.597187 
L 326.295923 237.597187 
L 326.295923 204.965364 
L 321.23886 204.965364 
z
" clip-path="url(#p71b0b21ed8)" style="fill: url(#h6a7359b366); stroke: #d3d3d3; stroke-width: 0.8; stroke-linejoin: miter"/>
   </g>
   <g id="patch_53">
    <path d="M 63.031179 237.597187 
L 63.031179 237.597187 
L 63.031179 237.597187 
L 63.031179 237.597187 
z
" clip-path="url(#p71b0b21ed8)" style="fill: #df2020"/>
   </g>
   <g id="patch_54">
    <path d="M 63.031179 237.597187 
L 63.031179 237.597187 
L 63.031179 237.597187 
L 63.031179 237.597187 
z
" clip-path="url(#p71b0b21ed8)" style="fill: #7c5624"/>
   </g>
   <g id="patch_55">
    <path d="M 63.031179 237.597187 
L 63.031179 237.597187 
L 63.031179 237.597187 
L 63.031179 237.597187 
z
" clip-path="url(#p71b0b21ed8)" style="fill: #df9c20"/>
   </g>
   <g id="patch_56">
    <path d="M 63.031179 237.597187 
L 63.031179 237.597187 
L 63.031179 237.597187 
L 63.031179 237.597187 
z
" clip-path="url(#p71b0b21ed8)" style="fill: #107010"/>
   </g>
   <g id="patch_57">
    <path d="M 63.031179 237.597187 
L 63.031179 237.597187 
L 63.031179 237.597187 
L 63.031179 237.597187 
z
" clip-path="url(#p71b0b21ed8)" style="fill: #94c9de"/>
   </g>
   <g id="patch_58">
    <path d="M 63.031179 237.597187 
L 63.031179 237.597187 
L 63.031179 237.597187 
L 63.031179 237.597187 
z
" clip-path="url(#p71b0b21ed8)" style="fill: #bdbac7"/>
   </g>
   <g id="patch_59">
    <path d="M 63.031179 237.597187 
L 63.031179 237.597187 
L 63.031179 237.597187 
L 63.031179 237.597187 
z
" clip-path="url(#p71b0b21ed8)" style="fill: #857aaa"/>
   </g>
   <g id="patch_60">
    <path d="M 63.031179 237.597187 
L 63.031179 237.597187 
L 63.031179 237.597187 
L 63.031179 237.597187 
z
" clip-path="url(#p71b0b21ed8)" style="fill: #5f4aa2"/>
   </g>
   <g id="patch_61">
    <path d="M 63.031179 237.597187 
L 63.031179 237.597187 
L 63.031179 237.597187 
L 63.031179 237.597187 
z
" clip-path="url(#p71b0b21ed8)" style="fill: #94c9de"/>
   </g>
   <g id="patch_62">
    <path d="M 63.031179 237.597187 
L 63.031179 237.597187 
L 63.031179 237.597187 
L 63.031179 237.597187 
z
" clip-path="url(#p71b0b21ed8)" style="fill: #857aaa"/>
   </g>
   <g id="patch_63">
    <path d="M 78.202367 237.597187 
L 83.25943 237.597187 
L 83.25943 222.912867 
L 78.202367 222.912867 
z
" clip-path="url(#p71b0b21ed8)" style="fill: url(#he4b5162085)"/>
   </g>
   <g id="patch_64">
    <path d="M 137.697225 237.597187 
L 142.754288 237.597187 
L 142.754288 222.912867 
L 137.697225 222.912867 
z
" clip-path="url(#p71b0b21ed8)" style="fill: url(#he4b5162085)"/>
   </g>
   <g id="patch_65">
    <path d="M 197.192082 237.597187 
L 202.249145 237.597187 
L 202.249145 190.281043 
L 197.192082 190.281043 
z
" clip-path="url(#p71b0b21ed8)" style="fill: url(#he4b5162085)"/>
   </g>
   <g id="patch_66">
    <path d="M 256.68694 237.597187 
L 261.744003 237.597187 
L 261.744003 232.702414 
L 256.68694 232.702414 
z
" clip-path="url(#p71b0b21ed8)" style="fill: url(#he4b5162085)"/>
   </g>
   <g id="patch_67">
    <path d="M 316.181798 237.597187 
L 321.23886 237.597187 
L 321.23886 216.386502 
L 316.181798 216.386502 
z
" clip-path="url(#p71b0b21ed8)" style="fill: url(#he4b5162085)"/>
   </g>
   <g id="patch_68">
    <path d="M 83.25943 237.597187 
L 88.316493 237.597187 
L 88.316493 131.543761 
L 83.25943 131.543761 
z
" clip-path="url(#p71b0b21ed8)" style="fill: url(#he4b5162085)"/>
   </g>
   <g id="patch_69">
    <path d="M 142.754288 237.597187 
L 147.811351 237.597187 
L 147.811351 175.596723 
L 142.754288 175.596723 
z
" clip-path="url(#p71b0b21ed8)" style="fill: url(#he4b5162085)"/>
   </g>
   <g id="patch_70">
    <path d="M 202.249145 237.597187 
L 207.306208 237.597187 
L 207.306208 115.22785 
L 202.249145 115.22785 
z
" clip-path="url(#p71b0b21ed8)" style="fill: url(#he4b5162085)"/>
   </g>
   <g id="patch_71">
    <path d="M 261.744003 237.597187 
L 266.801066 237.597187 
L 266.801066 126.648988 
L 261.744003 126.648988 
z
" clip-path="url(#p71b0b21ed8)" style="fill: url(#he4b5162085)"/>
   </g>
   <g id="patch_72">
    <path d="M 321.23886 237.597187 
L 326.295923 237.597187 
L 326.295923 204.965364 
L 321.23886 204.965364 
z
" clip-path="url(#p71b0b21ed8)" style="fill: url(#he4b5162085)"/>
   </g>
   <g id="matplotlib.axis_1">
    <g id="xtick_1">
     <g id="line2d_1">
      <defs>
       <path id="mda5edddba3" d="M 0 0 
L 0 3.5 
" style="stroke: #000000; stroke-width: 0.8"/>
      </defs>
      <g>
       <use xlink:href="#mda5edddba3" x="63.031179" y="237.597187" style="stroke: #000000; stroke-width: 0.8"/>
      </g>
     </g>
     <g id="text_1">
      <!-- GABAergic -->
      <g transform="translate(34.377492 274.848003) rotate(-20) scale(0.12 -0.12)">
       <defs>
        <path id="DejaVuSans-47" d="M 3809 666 
L 3809 1919 
L 2778 1919 
L 2778 2438 
L 4434 2438 
L 4434 434 
Q 4069 175 3628 42 
Q 3188 -91 2688 -91 
Q 1594 -91 976 548 
Q 359 1188 359 2328 
Q 359 3472 976 4111 
Q 1594 4750 2688 4750 
Q 3144 4750 3555 4637 
Q 3966 4525 4313 4306 
L 4313 3634 
Q 3963 3931 3569 4081 
Q 3175 4231 2741 4231 
Q 1884 4231 1454 3753 
Q 1025 3275 1025 2328 
Q 1025 1384 1454 906 
Q 1884 428 2741 428 
Q 3075 428 3337 486 
Q 3600 544 3809 666 
z
" transform="scale(0.015625)"/>
        <path id="DejaVuSans-41" d="M 2188 4044 
L 1331 1722 
L 3047 1722 
L 2188 4044 
z
M 1831 4666 
L 2547 4666 
L 4325 0 
L 3669 0 
L 3244 1197 
L 1141 1197 
L 716 0 
L 50 0 
L 1831 4666 
z
" transform="scale(0.015625)"/>
        <path id="DejaVuSans-42" d="M 1259 2228 
L 1259 519 
L 2272 519 
Q 2781 519 3026 730 
Q 3272 941 3272 1375 
Q 3272 1813 3026 2020 
Q 2781 2228 2272 2228 
L 1259 2228 
z
M 1259 4147 
L 1259 2741 
L 2194 2741 
Q 2656 2741 2882 2914 
Q 3109 3088 3109 3444 
Q 3109 3797 2882 3972 
Q 2656 4147 2194 4147 
L 1259 4147 
z
M 628 4666 
L 2241 4666 
Q 2963 4666 3353 4366 
Q 3744 4066 3744 3513 
Q 3744 3084 3544 2831 
Q 3344 2578 2956 2516 
Q 3422 2416 3680 2098 
Q 3938 1781 3938 1306 
Q 3938 681 3513 340 
Q 3088 0 2303 0 
L 628 0 
L 628 4666 
z
" transform="scale(0.015625)"/>
        <path id="DejaVuSans-65" d="M 3597 1894 
L 3597 1613 
L 953 1613 
Q 991 1019 1311 708 
Q 1631 397 2203 397 
Q 2534 397 2845 478 
Q 3156 559 3463 722 
L 3463 178 
Q 3153 47 2828 -22 
Q 2503 -91 2169 -91 
Q 1331 -91 842 396 
Q 353 884 353 1716 
Q 353 2575 817 3079 
Q 1281 3584 2069 3584 
Q 2775 3584 3186 3129 
Q 3597 2675 3597 1894 
z
M 3022 2063 
Q 3016 2534 2758 2815 
Q 2500 3097 2075 3097 
Q 1594 3097 1305 2825 
Q 1016 2553 972 2059 
L 3022 2063 
z
" transform="scale(0.015625)"/>
        <path id="DejaVuSans-72" d="M 2631 2963 
Q 2534 3019 2420 3045 
Q 2306 3072 2169 3072 
Q 1681 3072 1420 2755 
Q 1159 2438 1159 1844 
L 1159 0 
L 581 0 
L 581 3500 
L 1159 3500 
L 1159 2956 
Q 1341 3275 1631 3429 
Q 1922 3584 2338 3584 
Q 2397 3584 2469 3576 
Q 2541 3569 2628 3553 
L 2631 2963 
z
" transform="scale(0.015625)"/>
        <path id="DejaVuSans-67" d="M 2906 1791 
Q 2906 2416 2648 2759 
Q 2391 3103 1925 3103 
Q 1463 3103 1205 2759 
Q 947 2416 947 1791 
Q 947 1169 1205 825 
Q 1463 481 1925 481 
Q 2391 481 2648 825 
Q 2906 1169 2906 1791 
z
M 3481 434 
Q 3481 -459 3084 -895 
Q 2688 -1331 1869 -1331 
Q 1566 -1331 1297 -1286 
Q 1028 -1241 775 -1147 
L 775 -588 
Q 1028 -725 1275 -790 
Q 1522 -856 1778 -856 
Q 2344 -856 2625 -561 
Q 2906 -266 2906 331 
L 2906 616 
Q 2728 306 2450 153 
Q 2172 0 1784 0 
Q 1141 0 747 490 
Q 353 981 353 1791 
Q 353 2603 747 3093 
Q 1141 3584 1784 3584 
Q 2172 3584 2450 3431 
Q 2728 3278 2906 2969 
L 2906 3500 
L 3481 3500 
L 3481 434 
z
" transform="scale(0.015625)"/>
        <path id="DejaVuSans-69" d="M 603 3500 
L 1178 3500 
L 1178 0 
L 603 0 
L 603 3500 
z
M 603 4863 
L 1178 4863 
L 1178 4134 
L 603 4134 
L 603 4863 
z
" transform="scale(0.015625)"/>
        <path id="DejaVuSans-63" d="M 3122 3366 
L 3122 2828 
Q 2878 2963 2633 3030 
Q 2388 3097 2138 3097 
Q 1578 3097 1268 2742 
Q 959 2388 959 1747 
Q 959 1106 1268 751 
Q 1578 397 2138 397 
Q 2388 397 2633 464 
Q 2878 531 3122 666 
L 3122 134 
Q 2881 22 2623 -34 
Q 2366 -91 2075 -91 
Q 1284 -91 818 406 
Q 353 903 353 1747 
Q 353 2603 823 3093 
Q 1294 3584 2113 3584 
Q 2378 3584 2631 3529 
Q 2884 3475 3122 3366 
z
" transform="scale(0.015625)"/>
       </defs>
       <use xlink:href="#DejaVuSans-47"/>
       <use xlink:href="#DejaVuSans-41" transform="translate(77.490234 0)"/>
       <use xlink:href="#DejaVuSans-42" transform="translate(145.898438 0)"/>
       <use xlink:href="#DejaVuSans-41" transform="translate(214.501953 0)"/>
       <use xlink:href="#DejaVuSans-65" transform="translate(281.160156 0)"/>
       <use xlink:href="#DejaVuSans-72" transform="translate(342.683594 0)"/>
       <use xlink:href="#DejaVuSans-67" transform="translate(382.046875 0)"/>
       <use xlink:href="#DejaVuSans-69" transform="translate(445.523438 0)"/>
       <use xlink:href="#DejaVuSans-63" transform="translate(473.306641 0)"/>
      </g>
     </g>
    </g>
    <g id="xtick_2">
     <g id="line2d_2">
      <g>
       <use xlink:href="#mda5edddba3" x="122.526036" y="237.597187" style="stroke: #000000; stroke-width: 0.8"/>
      </g>
     </g>
     <g id="text_2">
      <!-- astrocyte -->
      <g transform="translate(97.298411 272.354035) rotate(-20) scale(0.12 -0.12)">
       <defs>
        <path id="DejaVuSans-61" d="M 2194 1759 
Q 1497 1759 1228 1600 
Q 959 1441 959 1056 
Q 959 750 1161 570 
Q 1363 391 1709 391 
Q 2188 391 2477 730 
Q 2766 1069 2766 1631 
L 2766 1759 
L 2194 1759 
z
M 3341 1997 
L 3341 0 
L 2766 0 
L 2766 531 
Q 2569 213 2275 61 
Q 1981 -91 1556 -91 
Q 1019 -91 701 211 
Q 384 513 384 1019 
Q 384 1609 779 1909 
Q 1175 2209 1959 2209 
L 2766 2209 
L 2766 2266 
Q 2766 2663 2505 2880 
Q 2244 3097 1772 3097 
Q 1472 3097 1187 3025 
Q 903 2953 641 2809 
L 641 3341 
Q 956 3463 1253 3523 
Q 1550 3584 1831 3584 
Q 2591 3584 2966 3190 
Q 3341 2797 3341 1997 
z
" transform="scale(0.015625)"/>
        <path id="DejaVuSans-73" d="M 2834 3397 
L 2834 2853 
Q 2591 2978 2328 3040 
Q 2066 3103 1784 3103 
Q 1356 3103 1142 2972 
Q 928 2841 928 2578 
Q 928 2378 1081 2264 
Q 1234 2150 1697 2047 
L 1894 2003 
Q 2506 1872 2764 1633 
Q 3022 1394 3022 966 
Q 3022 478 2636 193 
Q 2250 -91 1575 -91 
Q 1294 -91 989 -36 
Q 684 19 347 128 
L 347 722 
Q 666 556 975 473 
Q 1284 391 1588 391 
Q 1994 391 2212 530 
Q 2431 669 2431 922 
Q 2431 1156 2273 1281 
Q 2116 1406 1581 1522 
L 1381 1569 
Q 847 1681 609 1914 
Q 372 2147 372 2553 
Q 372 3047 722 3315 
Q 1072 3584 1716 3584 
Q 2034 3584 2315 3537 
Q 2597 3491 2834 3397 
z
" transform="scale(0.015625)"/>
        <path id="DejaVuSans-74" d="M 1172 4494 
L 1172 3500 
L 2356 3500 
L 2356 3053 
L 1172 3053 
L 1172 1153 
Q 1172 725 1289 603 
Q 1406 481 1766 481 
L 2356 481 
L 2356 0 
L 1766 0 
Q 1100 0 847 248 
Q 594 497 594 1153 
L 594 3053 
L 172 3053 
L 172 3500 
L 594 3500 
L 594 4494 
L 1172 4494 
z
" transform="scale(0.015625)"/>
        <path id="DejaVuSans-6f" d="M 1959 3097 
Q 1497 3097 1228 2736 
Q 959 2375 959 1747 
Q 959 1119 1226 758 
Q 1494 397 1959 397 
Q 2419 397 2687 759 
Q 2956 1122 2956 1747 
Q 2956 2369 2687 2733 
Q 2419 3097 1959 3097 
z
M 1959 3584 
Q 2709 3584 3137 3096 
Q 3566 2609 3566 1747 
Q 3566 888 3137 398 
Q 2709 -91 1959 -91 
Q 1206 -91 779 398 
Q 353 888 353 1747 
Q 353 2609 779 3096 
Q 1206 3584 1959 3584 
z
" transform="scale(0.015625)"/>
        <path id="DejaVuSans-79" d="M 2059 -325 
Q 1816 -950 1584 -1140 
Q 1353 -1331 966 -1331 
L 506 -1331 
L 506 -850 
L 844 -850 
Q 1081 -850 1212 -737 
Q 1344 -625 1503 -206 
L 1606 56 
L 191 3500 
L 800 3500 
L 1894 763 
L 2988 3500 
L 3597 3500 
L 2059 -325 
z
" transform="scale(0.015625)"/>
       </defs>
       <use xlink:href="#DejaVuSans-61"/>
       <use xlink:href="#DejaVuSans-73" transform="translate(61.279297 0)"/>
       <use xlink:href="#DejaVuSans-74" transform="translate(113.378906 0)"/>
       <use xlink:href="#DejaVuSans-72" transform="translate(152.587891 0)"/>
       <use xlink:href="#DejaVuSans-6f" transform="translate(191.451172 0)"/>
       <use xlink:href="#DejaVuSans-63" transform="translate(252.632812 0)"/>
       <use xlink:href="#DejaVuSans-79" transform="translate(307.613281 0)"/>
       <use xlink:href="#DejaVuSans-74" transform="translate(366.792969 0)"/>
       <use xlink:href="#DejaVuSans-65" transform="translate(406.001953 0)"/>
      </g>
     </g>
    </g>
    <g id="xtick_3">
     <g id="line2d_3">
      <g>
       <use xlink:href="#mda5edddba3" x="182.020894" y="237.597187" style="stroke: #000000; stroke-width: 0.8"/>
      </g>
     </g>
     <g id="text_3">
      <!-- endothelial -->
      <g transform="translate(151.67488 276.079917) rotate(-20) scale(0.12 -0.12)">
       <defs>
        <path id="DejaVuSans-6e" d="M 3513 2113 
L 3513 0 
L 2938 0 
L 2938 2094 
Q 2938 2591 2744 2837 
Q 2550 3084 2163 3084 
Q 1697 3084 1428 2787 
Q 1159 2491 1159 1978 
L 1159 0 
L 581 0 
L 581 3500 
L 1159 3500 
L 1159 2956 
Q 1366 3272 1645 3428 
Q 1925 3584 2291 3584 
Q 2894 3584 3203 3211 
Q 3513 2838 3513 2113 
z
" transform="scale(0.015625)"/>
        <path id="DejaVuSans-64" d="M 2906 2969 
L 2906 4863 
L 3481 4863 
L 3481 0 
L 2906 0 
L 2906 525 
Q 2725 213 2448 61 
Q 2172 -91 1784 -91 
Q 1150 -91 751 415 
Q 353 922 353 1747 
Q 353 2572 751 3078 
Q 1150 3584 1784 3584 
Q 2172 3584 2448 3432 
Q 2725 3281 2906 2969 
z
M 947 1747 
Q 947 1113 1208 752 
Q 1469 391 1925 391 
Q 2381 391 2643 752 
Q 2906 1113 2906 1747 
Q 2906 2381 2643 2742 
Q 2381 3103 1925 3103 
Q 1469 3103 1208 2742 
Q 947 2381 947 1747 
z
" transform="scale(0.015625)"/>
        <path id="DejaVuSans-68" d="M 3513 2113 
L 3513 0 
L 2938 0 
L 2938 2094 
Q 2938 2591 2744 2837 
Q 2550 3084 2163 3084 
Q 1697 3084 1428 2787 
Q 1159 2491 1159 1978 
L 1159 0 
L 581 0 
L 581 4863 
L 1159 4863 
L 1159 2956 
Q 1366 3272 1645 3428 
Q 1925 3584 2291 3584 
Q 2894 3584 3203 3211 
Q 3513 2838 3513 2113 
z
" transform="scale(0.015625)"/>
        <path id="DejaVuSans-6c" d="M 603 4863 
L 1178 4863 
L 1178 0 
L 603 0 
L 603 4863 
z
" transform="scale(0.015625)"/>
       </defs>
       <use xlink:href="#DejaVuSans-65"/>
       <use xlink:href="#DejaVuSans-6e" transform="translate(61.523438 0)"/>
       <use xlink:href="#DejaVuSans-64" transform="translate(124.902344 0)"/>
       <use xlink:href="#DejaVuSans-6f" transform="translate(188.378906 0)"/>
       <use xlink:href="#DejaVuSans-74" transform="translate(249.560547 0)"/>
       <use xlink:href="#DejaVuSans-68" transform="translate(288.769531 0)"/>
       <use xlink:href="#DejaVuSans-65" transform="translate(352.148438 0)"/>
       <use xlink:href="#DejaVuSans-6c" transform="translate(413.671875 0)"/>
       <use xlink:href="#DejaVuSans-69" transform="translate(441.455078 0)"/>
       <use xlink:href="#DejaVuSans-61" transform="translate(469.238281 0)"/>
       <use xlink:href="#DejaVuSans-6c" transform="translate(530.517578 0)"/>
      </g>
     </g>
    </g>
    <g id="xtick_4">
     <g id="line2d_4">
      <g>
       <use xlink:href="#mda5edddba3" x="241.515751" y="237.597187" style="stroke: #000000; stroke-width: 0.8"/>
      </g>
     </g>
     <g id="text_4">
      <!-- glutamatergic -->
      <g transform="translate(203.172366 281.901527) rotate(-20) scale(0.12 -0.12)">
       <defs>
        <path id="DejaVuSans-75" d="M 544 1381 
L 544 3500 
L 1119 3500 
L 1119 1403 
Q 1119 906 1312 657 
Q 1506 409 1894 409 
Q 2359 409 2629 706 
Q 2900 1003 2900 1516 
L 2900 3500 
L 3475 3500 
L 3475 0 
L 2900 0 
L 2900 538 
Q 2691 219 2414 64 
Q 2138 -91 1772 -91 
Q 1169 -91 856 284 
Q 544 659 544 1381 
z
M 1991 3584 
L 1991 3584 
z
" transform="scale(0.015625)"/>
        <path id="DejaVuSans-6d" d="M 3328 2828 
Q 3544 3216 3844 3400 
Q 4144 3584 4550 3584 
Q 5097 3584 5394 3201 
Q 5691 2819 5691 2113 
L 5691 0 
L 5113 0 
L 5113 2094 
Q 5113 2597 4934 2840 
Q 4756 3084 4391 3084 
Q 3944 3084 3684 2787 
Q 3425 2491 3425 1978 
L 3425 0 
L 2847 0 
L 2847 2094 
Q 2847 2600 2669 2842 
Q 2491 3084 2119 3084 
Q 1678 3084 1418 2786 
Q 1159 2488 1159 1978 
L 1159 0 
L 581 0 
L 581 3500 
L 1159 3500 
L 1159 2956 
Q 1356 3278 1631 3431 
Q 1906 3584 2284 3584 
Q 2666 3584 2933 3390 
Q 3200 3197 3328 2828 
z
" transform="scale(0.015625)"/>
       </defs>
       <use xlink:href="#DejaVuSans-67"/>
       <use xlink:href="#DejaVuSans-6c" transform="translate(63.476562 0)"/>
       <use xlink:href="#DejaVuSans-75" transform="translate(91.259766 0)"/>
       <use xlink:href="#DejaVuSans-74" transform="translate(154.638672 0)"/>
       <use xlink:href="#DejaVuSans-61" transform="translate(193.847656 0)"/>
       <use xlink:href="#DejaVuSans-6d" transform="translate(255.126953 0)"/>
       <use xlink:href="#DejaVuSans-61" transform="translate(352.539062 0)"/>
       <use xlink:href="#DejaVuSans-74" transform="translate(413.818359 0)"/>
       <use xlink:href="#DejaVuSans-65" transform="translate(453.027344 0)"/>
       <use xlink:href="#DejaVuSans-72" transform="translate(514.550781 0)"/>
       <use xlink:href="#DejaVuSans-67" transform="translate(553.914062 0)"/>
       <use xlink:href="#DejaVuSans-69" transform="translate(617.390625 0)"/>
       <use xlink:href="#DejaVuSans-63" transform="translate(645.173828 0)"/>
      </g>
     </g>
    </g>
    <g id="xtick_5">
     <g id="line2d_5">
      <g>
       <use xlink:href="#mda5edddba3" x="301.010609" y="237.597187" style="stroke: #000000; stroke-width: 0.8"/>
      </g>
     </g>
     <g id="text_5">
      <!-- oligodendrocyte -->
      <g transform="translate(256.572729 286.337956) rotate(-20) scale(0.12 -0.12)">
       <use xlink:href="#DejaVuSans-6f"/>
       <use xlink:href="#DejaVuSans-6c" transform="translate(61.181641 0)"/>
       <use xlink:href="#DejaVuSans-69" transform="translate(88.964844 0)"/>
       <use xlink:href="#DejaVuSans-67" transform="translate(116.748047 0)"/>
       <use xlink:href="#DejaVuSans-6f" transform="translate(180.224609 0)"/>
       <use xlink:href="#DejaVuSans-64" transform="translate(241.40625 0)"/>
       <use xlink:href="#DejaVuSans-65" transform="translate(304.882812 0)"/>
       <use xlink:href="#DejaVuSans-6e" transform="translate(366.40625 0)"/>
       <use xlink:href="#DejaVuSans-64" transform="translate(429.785156 0)"/>
       <use xlink:href="#DejaVuSans-72" transform="translate(493.261719 0)"/>
       <use xlink:href="#DejaVuSans-6f" transform="translate(532.125 0)"/>
       <use xlink:href="#DejaVuSans-63" transform="translate(593.306641 0)"/>
       <use xlink:href="#DejaVuSans-79" transform="translate(648.287109 0)"/>
       <use xlink:href="#DejaVuSans-74" transform="translate(707.466797 0)"/>
       <use xlink:href="#DejaVuSans-65" transform="translate(746.675781 0)"/>
      </g>
     </g>
    </g>
   </g>
   <g id="matplotlib.axis_2">
    <g id="ytick_1">
     <g id="line2d_6">
      <defs>
       <path id="m86adfaecb6" d="M 0 0 
L -3.5 0 
" style="stroke: #000000; stroke-width: 0.8"/>
      </defs>
      <g>
       <use xlink:href="#m86adfaecb6" x="33.28375" y="237.597187" style="stroke: #000000; stroke-width: 0.8"/>
      </g>
     </g>
     <g id="text_6">
      <!-- 0.0 -->
      <g transform="translate(7.2 242.15625) scale(0.12 -0.12)">
       <defs>
        <path id="DejaVuSans-30" d="M 2034 4250 
Q 1547 4250 1301 3770 
Q 1056 3291 1056 2328 
Q 1056 1369 1301 889 
Q 1547 409 2034 409 
Q 2525 409 2770 889 
Q 3016 1369 3016 2328 
Q 3016 3291 2770 3770 
Q 2525 4250 2034 4250 
z
M 2034 4750 
Q 2819 4750 3233 4129 
Q 3647 3509 3647 2328 
Q 3647 1150 3233 529 
Q 2819 -91 2034 -91 
Q 1250 -91 836 529 
Q 422 1150 422 2328 
Q 422 3509 836 4129 
Q 1250 4750 2034 4750 
z
" transform="scale(0.015625)"/>
        <path id="DejaVuSans-2e" d="M 684 794 
L 1344 794 
L 1344 0 
L 684 0 
L 684 794 
z
" transform="scale(0.015625)"/>
       </defs>
       <use xlink:href="#DejaVuSans-30"/>
       <use xlink:href="#DejaVuSans-2e" transform="translate(63.623047 0)"/>
       <use xlink:href="#DejaVuSans-30" transform="translate(95.410156 0)"/>
      </g>
     </g>
    </g>
    <g id="ytick_2">
     <g id="line2d_7">
      <g>
       <use xlink:href="#m86adfaecb6" x="33.28375" y="188.649452" style="stroke: #000000; stroke-width: 0.8"/>
      </g>
     </g>
     <g id="text_7">
      <!-- 0.2 -->
      <g transform="translate(7.2 193.208515) scale(0.12 -0.12)">
       <defs>
        <path id="DejaVuSans-32" d="M 1228 531 
L 3431 531 
L 3431 0 
L 469 0 
L 469 531 
Q 828 903 1448 1529 
Q 2069 2156 2228 2338 
Q 2531 2678 2651 2914 
Q 2772 3150 2772 3378 
Q 2772 3750 2511 3984 
Q 2250 4219 1831 4219 
Q 1534 4219 1204 4116 
Q 875 4013 500 3803 
L 500 4441 
Q 881 4594 1212 4672 
Q 1544 4750 1819 4750 
Q 2544 4750 2975 4387 
Q 3406 4025 3406 3419 
Q 3406 3131 3298 2873 
Q 3191 2616 2906 2266 
Q 2828 2175 2409 1742 
Q 1991 1309 1228 531 
z
" transform="scale(0.015625)"/>
       </defs>
       <use xlink:href="#DejaVuSans-30"/>
       <use xlink:href="#DejaVuSans-2e" transform="translate(63.623047 0)"/>
       <use xlink:href="#DejaVuSans-32" transform="translate(95.410156 0)"/>
      </g>
     </g>
    </g>
    <g id="ytick_3">
     <g id="line2d_8">
      <g>
       <use xlink:href="#m86adfaecb6" x="33.28375" y="139.701717" style="stroke: #000000; stroke-width: 0.8"/>
      </g>
     </g>
     <g id="text_8">
      <!-- 0.4 -->
      <g transform="translate(7.2 144.26078) scale(0.12 -0.12)">
       <defs>
        <path id="DejaVuSans-34" d="M 2419 4116 
L 825 1625 
L 2419 1625 
L 2419 4116 
z
M 2253 4666 
L 3047 4666 
L 3047 1625 
L 3713 1625 
L 3713 1100 
L 3047 1100 
L 3047 0 
L 2419 0 
L 2419 1100 
L 313 1100 
L 313 1709 
L 2253 4666 
z
" transform="scale(0.015625)"/>
       </defs>
       <use xlink:href="#DejaVuSans-30"/>
       <use xlink:href="#DejaVuSans-2e" transform="translate(63.623047 0)"/>
       <use xlink:href="#DejaVuSans-34" transform="translate(95.410156 0)"/>
      </g>
     </g>
    </g>
    <g id="ytick_4">
     <g id="line2d_9">
      <g>
       <use xlink:href="#m86adfaecb6" x="33.28375" y="90.753982" style="stroke: #000000; stroke-width: 0.8"/>
      </g>
     </g>
     <g id="text_9">
      <!-- 0.6 -->
      <g transform="translate(7.2 95.313044) scale(0.12 -0.12)">
       <defs>
        <path id="DejaVuSans-36" d="M 2113 2584 
Q 1688 2584 1439 2293 
Q 1191 2003 1191 1497 
Q 1191 994 1439 701 
Q 1688 409 2113 409 
Q 2538 409 2786 701 
Q 3034 994 3034 1497 
Q 3034 2003 2786 2293 
Q 2538 2584 2113 2584 
z
M 3366 4563 
L 3366 3988 
Q 3128 4100 2886 4159 
Q 2644 4219 2406 4219 
Q 1781 4219 1451 3797 
Q 1122 3375 1075 2522 
Q 1259 2794 1537 2939 
Q 1816 3084 2150 3084 
Q 2853 3084 3261 2657 
Q 3669 2231 3669 1497 
Q 3669 778 3244 343 
Q 2819 -91 2113 -91 
Q 1303 -91 875 529 
Q 447 1150 447 2328 
Q 447 3434 972 4092 
Q 1497 4750 2381 4750 
Q 2619 4750 2861 4703 
Q 3103 4656 3366 4563 
z
" transform="scale(0.015625)"/>
       </defs>
       <use xlink:href="#DejaVuSans-30"/>
       <use xlink:href="#DejaVuSans-2e" transform="translate(63.623047 0)"/>
       <use xlink:href="#DejaVuSans-36" transform="translate(95.410156 0)"/>
      </g>
     </g>
    </g>
    <g id="ytick_5">
     <g id="line2d_10">
      <g>
       <use xlink:href="#m86adfaecb6" x="33.28375" y="41.806247" style="stroke: #000000; stroke-width: 0.8"/>
      </g>
     </g>
     <g id="text_10">
      <!-- 0.8 -->
      <g transform="translate(7.2 46.365309) scale(0.12 -0.12)">
       <defs>
        <path id="DejaVuSans-38" d="M 2034 2216 
Q 1584 2216 1326 1975 
Q 1069 1734 1069 1313 
Q 1069 891 1326 650 
Q 1584 409 2034 409 
Q 2484 409 2743 651 
Q 3003 894 3003 1313 
Q 3003 1734 2745 1975 
Q 2488 2216 2034 2216 
z
M 1403 2484 
Q 997 2584 770 2862 
Q 544 3141 544 3541 
Q 544 4100 942 4425 
Q 1341 4750 2034 4750 
Q 2731 4750 3128 4425 
Q 3525 4100 3525 3541 
Q 3525 3141 3298 2862 
Q 3072 2584 2669 2484 
Q 3125 2378 3379 2068 
Q 3634 1759 3634 1313 
Q 3634 634 3220 271 
Q 2806 -91 2034 -91 
Q 1263 -91 848 271 
Q 434 634 434 1313 
Q 434 1759 690 2068 
Q 947 2378 1403 2484 
z
M 1172 3481 
Q 1172 3119 1398 2916 
Q 1625 2713 2034 2713 
Q 2441 2713 2670 2916 
Q 2900 3119 2900 3481 
Q 2900 3844 2670 4047 
Q 2441 4250 2034 4250 
Q 1625 4250 1398 4047 
Q 1172 3844 1172 3481 
z
" transform="scale(0.015625)"/>
       </defs>
       <use xlink:href="#DejaVuSans-30"/>
       <use xlink:href="#DejaVuSans-2e" transform="translate(63.623047 0)"/>
       <use xlink:href="#DejaVuSans-38" transform="translate(95.410156 0)"/>
      </g>
     </g>
    </g>
   </g>
   <g id="line2d_11">
    <path d="M 40.274396 189.703054 
L 40.274396 181.069485 
" clip-path="url(#p71b0b21ed8)" style="fill: none; stroke: #424242; stroke-width: 2.25; stroke-linecap: square"/>
   </g>
   <g id="line2d_12">
    <path d="M 99.769253 176.523082 
L 99.769253 158.354452 
" clip-path="url(#p71b0b21ed8)" style="fill: none; stroke: #424242; stroke-width: 2.25; stroke-linecap: square"/>
   </g>
   <g id="line2d_13">
    <path d="M 159.264111 159.680548 
L 159.264111 139.301981 
" clip-path="url(#p71b0b21ed8)" style="fill: none; stroke: #424242; stroke-width: 2.25; stroke-linecap: square"/>
   </g>
   <g id="line2d_14">
    <path d="M 218.758968 199.024576 
L 218.758968 184.800694 
" clip-path="url(#p71b0b21ed8)" style="fill: none; stroke: #424242; stroke-width: 2.25; stroke-linecap: square"/>
   </g>
   <g id="line2d_15">
    <path d="M 278.253826 194.129802 
L 278.253826 179.90592 
" clip-path="url(#p71b0b21ed8)" style="fill: none; stroke: #424242; stroke-width: 2.25; stroke-linecap: square"/>
   </g>
   <g id="line2d_16">
    <path d="M 45.331459 120.52236 
L 45.331459 100.143792 
" clip-path="url(#p71b0b21ed8)" style="fill: none; stroke: #424242; stroke-width: 2.25; stroke-linecap: square"/>
   </g>
   <g id="line2d_17">
    <path d="M 104.826316 126.070999 
L 104.826316 117.43743 
" clip-path="url(#p71b0b21ed8)" style="fill: none; stroke: #424242; stroke-width: 2.25; stroke-linecap: square"/>
   </g>
   <g id="line2d_18">
    <path d="M 164.321174 83.981015 
L 164.321174 51.842396 
" clip-path="url(#p71b0b21ed8)" style="fill: none; stroke: #424242; stroke-width: 2.25; stroke-linecap: square"/>
   </g>
   <g id="line2d_19">
    <path d="M 223.816031 95.648755 
L 223.816031 92.385573 
" clip-path="url(#p71b0b21ed8)" style="fill: none; stroke: #424242; stroke-width: 2.25; stroke-linecap: square"/>
   </g>
   <g id="line2d_20">
    <path d="M 283.310889 166.660028 
L 283.310889 112.743407 
" clip-path="url(#p71b0b21ed8)" style="fill: none; stroke: #424242; stroke-width: 2.25; stroke-linecap: square"/>
   </g>
   <g id="line2d_21">
    <path d="M 50.388522 152.889481 
L 50.388522 133.040318 
" clip-path="url(#p71b0b21ed8)" style="fill: none; stroke: #424242; stroke-width: 2.25; stroke-linecap: square"/>
   </g>
   <g id="line2d_22">
    <path d="M 109.883379 196.942443 
L 109.883379 177.093279 
" clip-path="url(#p71b0b21ed8)" style="fill: none; stroke: #424242; stroke-width: 2.25; stroke-linecap: square"/>
   </g>
   <g id="line2d_23">
    <path d="M 169.378237 153.804077 
L 169.378237 99.493899 
" clip-path="url(#p71b0b21ed8)" style="fill: none; stroke: #424242; stroke-width: 2.25; stroke-linecap: square"/>
   </g>
   <g id="line2d_24">
    <path d="M 228.873094 206.941388 
L 228.873094 183.410246 
" clip-path="url(#p71b0b21ed8)" style="fill: none; stroke: #424242; stroke-width: 2.25; stroke-linecap: square"/>
   </g>
   <g id="line2d_25">
    <path d="M 288.367952 218.41783 
L 288.367952 198.039263 
" clip-path="url(#p71b0b21ed8)" style="fill: none; stroke: #424242; stroke-width: 2.25; stroke-linecap: square"/>
   </g>
   <g id="line2d_26">
    <path d="M 55.445584 154.588935 
L 55.445584 115.024952 
" clip-path="url(#p71b0b21ed8)" style="fill: none; stroke: #424242; stroke-width: 2.25; stroke-linecap: square"/>
   </g>
   <g id="line2d_27">
    <path d="M 114.940442 183.754679 
L 114.940442 180.491496 
" clip-path="url(#p71b0b21ed8)" style="fill: none; stroke: #424242; stroke-width: 2.25; stroke-linecap: square"/>
   </g>
   <g id="line2d_28">
    <path d="M 174.435299 132.396613 
L 174.435299 78.479992 
" clip-path="url(#p71b0b21ed8)" style="fill: none; stroke: #424242; stroke-width: 2.25; stroke-linecap: square"/>
   </g>
   <g id="line2d_29">
    <path d="M 233.930157 139.701717 
L 233.930157 129.91217 
" clip-path="url(#p71b0b21ed8)" style="fill: none; stroke: #424242; stroke-width: 2.25; stroke-linecap: square"/>
   </g>
   <g id="line2d_30">
    <path d="M 293.425015 197.687475 
L 293.425015 166.5587 
" clip-path="url(#p71b0b21ed8)" style="fill: none; stroke: #424242; stroke-width: 2.25; stroke-linecap: square"/>
   </g>
   <g id="line2d_31">
    <path d="M 60.502647 228.564865 
L 60.502647 217.260869 
" clip-path="url(#p71b0b21ed8)" style="fill: none; stroke: #424242; stroke-width: 2.25; stroke-linecap: square"/>
   </g>
   <g id="line2d_32">
    <path d="M 119.997505 225.738866 
L 119.997505 220.086868 
" clip-path="url(#p71b0b21ed8)" style="fill: none; stroke: #424242; stroke-width: 2.25; stroke-linecap: square"/>
   </g>
   <g id="line2d_33">
    <path d="M 179.492362 207.315355 
L 179.492362 173.246732 
" clip-path="url(#p71b0b21ed8)" style="fill: none; stroke: #424242; stroke-width: 2.25; stroke-linecap: square"/>
   </g>
   <g id="line2d_34">
    <path d="M 238.98722 237.597187 
L 238.98722 227.80764 
" clip-path="url(#p71b0b21ed8)" style="fill: none; stroke: #424242; stroke-width: 2.25; stroke-linecap: square"/>
   </g>
   <g id="line2d_35">
    <path d="M 298.482077 220.703287 
L 298.482077 212.069718 
" clip-path="url(#p71b0b21ed8)" style="fill: none; stroke: #424242; stroke-width: 2.25; stroke-linecap: square"/>
   </g>
   <g id="line2d_36">
    <path d="M 65.55971 130.256603 
L 65.55971 106.725461 
" clip-path="url(#p71b0b21ed8)" style="fill: none; stroke: #424242; stroke-width: 2.25; stroke-linecap: square"/>
   </g>
   <g id="line2d_37">
    <path d="M 125.054568 104.794723 
L 125.054568 93.029152 
" clip-path="url(#p71b0b21ed8)" style="fill: none; stroke: #424242; stroke-width: 2.25; stroke-linecap: square"/>
   </g>
   <g id="line2d_38">
    <path d="M 184.549425 87.181205 
L 184.549425 61.694936 
" clip-path="url(#p71b0b21ed8)" style="fill: none; stroke: #424242; stroke-width: 2.25; stroke-linecap: square"/>
   </g>
   <g id="line2d_39">
    <path d="M 244.044283 145.353715 
L 244.044283 134.049719 
" clip-path="url(#p71b0b21ed8)" style="fill: none; stroke: #424242; stroke-width: 2.25; stroke-linecap: square"/>
   </g>
   <g id="line2d_40">
    <path d="M 303.53914 169.222874 
L 303.53914 116.706925 
" clip-path="url(#p71b0b21ed8)" style="fill: none; stroke: #424242; stroke-width: 2.25; stroke-linecap: square"/>
   </g>
   <g id="line2d_41">
    <path d="M 70.616773 107.996253 
L 70.616773 89.827623 
" clip-path="url(#p71b0b21ed8)" style="fill: none; stroke: #424242; stroke-width: 2.25; stroke-linecap: square"/>
   </g>
   <g id="line2d_42">
    <path d="M 130.111631 97.75596 
L 130.111631 80.488822 
" clip-path="url(#p71b0b21ed8)" style="fill: none; stroke: #424242; stroke-width: 2.25; stroke-linecap: square"/>
   </g>
   <g id="line2d_43">
    <path d="M 189.606488 74.573105 
L 189.606488 54.723942 
" clip-path="url(#p71b0b21ed8)" style="fill: none; stroke: #424242; stroke-width: 2.25; stroke-linecap: square"/>
   </g>
   <g id="line2d_44">
    <path d="M 249.101346 78.754855 
L 249.101346 70.121286 
" clip-path="url(#p71b0b21ed8)" style="fill: none; stroke: #424242; stroke-width: 2.25; stroke-linecap: square"/>
   </g>
   <g id="line2d_45">
    <path d="M 308.596203 166.975776 
L 308.596203 115.69084 
" clip-path="url(#p71b0b21ed8)" style="fill: none; stroke: #424242; stroke-width: 2.25; stroke-linecap: square"/>
   </g>
   <g id="line2d_46">
    <path d="M 75.673836 108.241046 
L 75.673836 79.793282 
" clip-path="url(#p71b0b21ed8)" style="fill: none; stroke: #424242; stroke-width: 2.25; stroke-linecap: square"/>
   </g>
   <g id="line2d_47">
    <path d="M 135.168694 76.069661 
L 135.168694 69.543297 
" clip-path="url(#p71b0b21ed8)" style="fill: none; stroke: #424242; stroke-width: 2.25; stroke-linecap: square"/>
   </g>
   <g id="line2d_48">
    <path d="M 194.663551 66.679851 
L 194.663551 46.301284 
" clip-path="url(#p71b0b21ed8)" style="fill: none; stroke: #424242; stroke-width: 2.25; stroke-linecap: square"/>
   </g>
   <g id="line2d_49">
    <path d="M 254.158409 66.280114 
L 254.158409 56.490567 
" clip-path="url(#p71b0b21ed8)" style="fill: none; stroke: #424242; stroke-width: 2.25; stroke-linecap: square"/>
   </g>
   <g id="line2d_50">
    <path d="M 313.653266 125.017397 
L 313.653266 95.648755 
" clip-path="url(#p71b0b21ed8)" style="fill: none; stroke: #424242; stroke-width: 2.25; stroke-linecap: square"/>
   </g>
   <g id="line2d_51">
    <path d="M 80.730899 228.564865 
L 80.730899 217.260869 
" clip-path="url(#p71b0b21ed8)" style="fill: none; stroke: #424242; stroke-width: 2.25; stroke-linecap: square"/>
   </g>
   <g id="line2d_52">
    <path d="M 140.225756 225.738866 
L 140.225756 220.086868 
" clip-path="url(#p71b0b21ed8)" style="fill: none; stroke: #424242; stroke-width: 2.25; stroke-linecap: square"/>
   </g>
   <g id="line2d_53">
    <path d="M 199.720614 207.315355 
L 199.720614 173.246732 
" clip-path="url(#p71b0b21ed8)" style="fill: none; stroke: #424242; stroke-width: 2.25; stroke-linecap: square"/>
   </g>
   <g id="line2d_54">
    <path d="M 259.215471 237.597187 
L 259.215471 227.80764 
" clip-path="url(#p71b0b21ed8)" style="fill: none; stroke: #424242; stroke-width: 2.25; stroke-linecap: square"/>
   </g>
   <g id="line2d_55">
    <path d="M 318.710329 220.703287 
L 318.710329 212.069718 
" clip-path="url(#p71b0b21ed8)" style="fill: none; stroke: #424242; stroke-width: 2.25; stroke-linecap: square"/>
   </g>
   <g id="line2d_56">
    <path d="M 85.787962 152.374523 
L 85.787962 110.713 
" clip-path="url(#p71b0b21ed8)" style="fill: none; stroke: #424242; stroke-width: 2.25; stroke-linecap: square"/>
   </g>
   <g id="line2d_57">
    <path d="M 145.282819 186.295782 
L 145.282819 164.897664 
" clip-path="url(#p71b0b21ed8)" style="fill: none; stroke: #424242; stroke-width: 2.25; stroke-linecap: square"/>
   </g>
   <g id="line2d_58">
    <path d="M 204.777677 140.661839 
L 204.777677 89.79386 
" clip-path="url(#p71b0b21ed8)" style="fill: none; stroke: #424242; stroke-width: 2.25; stroke-linecap: square"/>
   </g>
   <g id="line2d_59">
    <path d="M 264.272534 129.91217 
L 264.272534 123.385805 
" clip-path="url(#p71b0b21ed8)" style="fill: none; stroke: #424242; stroke-width: 2.25; stroke-linecap: square"/>
   </g>
   <g id="line2d_60">
    <path d="M 323.767392 209.282149 
L 323.767392 200.64858 
" clip-path="url(#p71b0b21ed8)" style="fill: none; stroke: #424242; stroke-width: 2.25; stroke-linecap: square"/>
   </g>
   <g id="patch_73">
    <path d="M 33.28375 237.597187 
L 33.28375 26.877187 
" style="fill: none; stroke: #000000; stroke-width: 0.8; stroke-linejoin: miter; stroke-linecap: square"/>
   </g>
   <g id="patch_74">
    <path d="M 330.758038 237.597187 
L 330.758038 26.877187 
" style="fill: none; stroke: #000000; stroke-width: 0.8; stroke-linejoin: miter; stroke-linecap: square"/>
   </g>
   <g id="patch_75">
    <path d="M 33.28375 237.597187 
L 330.758038 237.597187 
" style="fill: none; stroke: #000000; stroke-width: 0.8; stroke-linejoin: miter; stroke-linecap: square"/>
   </g>
   <g id="patch_76">
    <path d="M 33.28375 26.877187 
L 330.758038 26.877187 
" style="fill: none; stroke: #000000; stroke-width: 0.8; stroke-linejoin: miter; stroke-linecap: square"/>
   </g>
   <g id="text_11">
    <!-- Signed Precision ↑ -->
    <g transform="translate(97.723238 20.877187) scale(0.18 -0.18)">
     <defs>
      <path id="DejaVuSans-53" d="M 3425 4513 
L 3425 3897 
Q 3066 4069 2747 4153 
Q 2428 4238 2131 4238 
Q 1616 4238 1336 4038 
Q 1056 3838 1056 3469 
Q 1056 3159 1242 3001 
Q 1428 2844 1947 2747 
L 2328 2669 
Q 3034 2534 3370 2195 
Q 3706 1856 3706 1288 
Q 3706 609 3251 259 
Q 2797 -91 1919 -91 
Q 1588 -91 1214 -16 
Q 841 59 441 206 
L 441 856 
Q 825 641 1194 531 
Q 1563 422 1919 422 
Q 2459 422 2753 634 
Q 3047 847 3047 1241 
Q 3047 1584 2836 1778 
Q 2625 1972 2144 2069 
L 1759 2144 
Q 1053 2284 737 2584 
Q 422 2884 422 3419 
Q 422 4038 858 4394 
Q 1294 4750 2059 4750 
Q 2388 4750 2728 4690 
Q 3069 4631 3425 4513 
z
" transform="scale(0.015625)"/>
      <path id="DejaVuSans-20" transform="scale(0.015625)"/>
      <path id="DejaVuSans-50" d="M 1259 4147 
L 1259 2394 
L 2053 2394 
Q 2494 2394 2734 2622 
Q 2975 2850 2975 3272 
Q 2975 3691 2734 3919 
Q 2494 4147 2053 4147 
L 1259 4147 
z
M 628 4666 
L 2053 4666 
Q 2838 4666 3239 4311 
Q 3641 3956 3641 3272 
Q 3641 2581 3239 2228 
Q 2838 1875 2053 1875 
L 1259 1875 
L 1259 0 
L 628 0 
L 628 4666 
z
" transform="scale(0.015625)"/>
      <path id="DejaVuSans-2191" d="M 2541 4688 
L 2822 4688 
L 4047 3456 
L 3672 3081 
L 2947 3813 
L 2947 0 
L 2416 0 
L 2416 3813 
L 1684 3081 
L 1309 3456 
L 2541 4688 
z
" transform="scale(0.015625)"/>
     </defs>
     <use xlink:href="#DejaVuSans-53"/>
     <use xlink:href="#DejaVuSans-69" transform="translate(63.476562 0)"/>
     <use xlink:href="#DejaVuSans-67" transform="translate(91.259766 0)"/>
     <use xlink:href="#DejaVuSans-6e" transform="translate(154.736328 0)"/>
     <use xlink:href="#DejaVuSans-65" transform="translate(218.115234 0)"/>
     <use xlink:href="#DejaVuSans-64" transform="translate(279.638672 0)"/>
     <use xlink:href="#DejaVuSans-20" transform="translate(343.115234 0)"/>
     <use xlink:href="#DejaVuSans-50" transform="translate(374.902344 0)"/>
     <use xlink:href="#DejaVuSans-72" transform="translate(433.455078 0)"/>
     <use xlink:href="#DejaVuSans-65" transform="translate(472.318359 0)"/>
     <use xlink:href="#DejaVuSans-63" transform="translate(533.841797 0)"/>
     <use xlink:href="#DejaVuSans-69" transform="translate(588.822266 0)"/>
     <use xlink:href="#DejaVuSans-73" transform="translate(616.605469 0)"/>
     <use xlink:href="#DejaVuSans-69" transform="translate(668.705078 0)"/>
     <use xlink:href="#DejaVuSans-6f" transform="translate(696.488281 0)"/>
     <use xlink:href="#DejaVuSans-6e" transform="translate(757.669922 0)"/>
     <use xlink:href="#DejaVuSans-20" transform="translate(821.048828 0)"/>
     <use xlink:href="#DejaVuSans-2191" transform="translate(852.835938 0)"/>
    </g>
   </g>
  </g>
  <g id="axes_2">
   <g id="patch_77">
    <path d="M 385.99375 237.597187 
L 683.468038 237.597187 
L 683.468038 26.877187 
L 385.99375 26.877187 
z
" style="fill: #ffffff"/>
   </g>
   <g id="patch_78">
    <path d="M 390.455864 240.825306 
L 395.512927 240.825306 
L 395.512927 97.875246 
L 390.455864 97.875246 
z
" clip-path="url(#p6837ea5e6e)" style="fill: #df2020; stroke: #d3d3d3; stroke-width: 0.8; stroke-linejoin: miter"/>
   </g>
   <g id="patch_79">
    <path d="M 449.950722 240.825306 
L 455.007785 240.825306 
L 455.007785 49.360544 
L 449.950722 49.360544 
z
" clip-path="url(#p6837ea5e6e)" style="fill: #df2020; stroke: #d3d3d3; stroke-width: 0.8; stroke-linejoin: miter"/>
   </g>
   <g id="patch_80">
    <path d="M 509.445579 240.825306 
L 514.502642 240.825306 
L 514.502642 70.075703 
L 509.445579 70.075703 
z
" clip-path="url(#p6837ea5e6e)" style="fill: #df2020; stroke: #d3d3d3; stroke-width: 0.8; stroke-linejoin: miter"/>
   </g>
   <g id="patch_81">
    <path d="M 568.940437 240.825306 
L 573.9975 240.825306 
L 573.9975 51.201634 
L 568.940437 51.201634 
z
" clip-path="url(#p6837ea5e6e)" style="fill: #df2020; stroke: #d3d3d3; stroke-width: 0.8; stroke-linejoin: miter"/>
   </g>
   <g id="patch_82">
    <path d="M 628.435294 240.825306 
L 633.492357 240.825306 
L 633.492357 79.386177 
L 628.435294 79.386177 
z
" clip-path="url(#p6837ea5e6e)" style="fill: #df2020; stroke: #d3d3d3; stroke-width: 0.8; stroke-linejoin: miter"/>
   </g>
   <g id="patch_83">
    <path d="M 395.512927 240.825306 
L 400.56999 240.825306 
L 400.56999 201.280386 
L 395.512927 201.280386 
z
" clip-path="url(#p6837ea5e6e)" style="fill: #7c5624; stroke: #d3d3d3; stroke-width: 0.8; stroke-linejoin: miter"/>
   </g>
   <g id="patch_84">
    <path d="M 455.007785 240.825306 
L 460.064848 240.825306 
L 460.064848 208.636646 
L 455.007785 208.636646 
z
" clip-path="url(#p6837ea5e6e)" style="fill: #7c5624; stroke: #d3d3d3; stroke-width: 0.8; stroke-linejoin: miter"/>
   </g>
   <g id="patch_85">
    <path d="M 514.502642 240.825306 
L 519.559705 240.825306 
L 519.559705 215.282032 
L 514.502642 215.282032 
z
" clip-path="url(#p6837ea5e6e)" style="fill: #7c5624; stroke: #d3d3d3; stroke-width: 0.8; stroke-linejoin: miter"/>
   </g>
   <g id="patch_86">
    <path d="M 573.9975 240.825306 
L 579.054563 240.825306 
L 579.054563 193.162737 
L 573.9975 193.162737 
z
" clip-path="url(#p6837ea5e6e)" style="fill: #7c5624; stroke: #d3d3d3; stroke-width: 0.8; stroke-linejoin: miter"/>
   </g>
   <g id="patch_87">
    <path d="M 633.492357 240.825306 
L 638.54942 240.825306 
L 638.54942 215.82992 
L 633.492357 215.82992 
z
" clip-path="url(#p6837ea5e6e)" style="fill: #7c5624; stroke: #d3d3d3; stroke-width: 0.8; stroke-linejoin: miter"/>
   </g>
   <g id="patch_88">
    <path d="M 400.56999 240.825306 
L 405.627053 240.825306 
L 405.627053 201.893936 
L 400.56999 201.893936 
z
" clip-path="url(#p6837ea5e6e)" style="fill: #df9c20; stroke: #d3d3d3; stroke-width: 0.8; stroke-linejoin: miter"/>
   </g>
   <g id="patch_89">
    <path d="M 460.064848 240.825306 
L 465.121911 240.825306 
L 465.121911 224.393245 
L 460.064848 224.393245 
z
" clip-path="url(#p6837ea5e6e)" style="fill: #df9c20; stroke: #d3d3d3; stroke-width: 0.8; stroke-linejoin: miter"/>
   </g>
   <g id="patch_90">
    <path d="M 519.559705 240.825306 
L 524.616768 240.825306 
L 524.616768 229.680827 
L 519.559705 229.680827 
z
" clip-path="url(#p6837ea5e6e)" style="fill: #df9c20; stroke: #d3d3d3; stroke-width: 0.8; stroke-linejoin: miter"/>
   </g>
   <g id="patch_91">
    <path d="M 579.054563 240.825306 
L 584.111626 240.825306 
L 584.111626 164.608182 
L 579.054563 164.608182 
z
" clip-path="url(#p6837ea5e6e)" style="fill: #df9c20; stroke: #d3d3d3; stroke-width: 0.8; stroke-linejoin: miter"/>
   </g>
   <g id="patch_92">
    <path d="M 638.54942 240.825306 
L 643.606483 240.825306 
L 643.606483 228.330883 
L 638.54942 228.330883 
z
" clip-path="url(#p6837ea5e6e)" style="fill: #df9c20; stroke: #d3d3d3; stroke-width: 0.8; stroke-linejoin: miter"/>
   </g>
   <g id="patch_93">
    <path d="M 405.627053 240.825306 
L 410.684116 240.825306 
L 410.684116 142.697778 
L 405.627053 142.697778 
z
" clip-path="url(#p6837ea5e6e)" style="fill: #107010; stroke: #d3d3d3; stroke-width: 0.8; stroke-linejoin: miter"/>
   </g>
   <g id="patch_94">
    <path d="M 465.121911 240.825306 
L 470.178973 240.825306 
L 470.178973 134.979922 
L 465.121911 134.979922 
z
" clip-path="url(#p6837ea5e6e)" style="fill: #107010; stroke: #d3d3d3; stroke-width: 0.8; stroke-linejoin: miter"/>
   </g>
   <g id="patch_95">
    <path d="M 524.616768 240.825306 
L 529.673831 240.825306 
L 529.673831 143.046806 
L 524.616768 143.046806 
z
" clip-path="url(#p6837ea5e6e)" style="fill: #107010; stroke: #d3d3d3; stroke-width: 0.8; stroke-linejoin: miter"/>
   </g>
   <g id="patch_96">
    <path d="M 584.111626 240.825306 
L 589.168688 240.825306 
L 589.168688 146.729999 
L 584.111626 146.729999 
z
" clip-path="url(#p6837ea5e6e)" style="fill: #107010; stroke: #d3d3d3; stroke-width: 0.8; stroke-linejoin: miter"/>
   </g>
   <g id="patch_97">
    <path d="M 643.606483 240.825306 
L 648.663546 240.825306 
L 648.663546 157.406307 
L 643.606483 157.406307 
z
" clip-path="url(#p6837ea5e6e)" style="fill: #107010; stroke: #d3d3d3; stroke-width: 0.8; stroke-linejoin: miter"/>
   </g>
   <g id="patch_98">
    <path d="M 410.684116 240.825306 
L 415.741179 240.825306 
L 415.741179 140.738226 
L 410.684116 140.738226 
z
" clip-path="url(#p6837ea5e6e)" style="fill: #94c9de; stroke: #d3d3d3; stroke-width: 0.8; stroke-linejoin: miter"/>
   </g>
   <g id="patch_99">
    <path d="M 470.178973 240.825306 
L 475.236036 240.825306 
L 475.236036 133.050074 
L 470.178973 133.050074 
z
" clip-path="url(#p6837ea5e6e)" style="fill: #94c9de; stroke: #d3d3d3; stroke-width: 0.8; stroke-linejoin: miter"/>
   </g>
   <g id="patch_100">
    <path d="M 529.673831 240.825306 
L 534.730894 240.825306 
L 534.730894 133.879051 
L 529.673831 133.879051 
z
" clip-path="url(#p6837ea5e6e)" style="fill: #94c9de; stroke: #d3d3d3; stroke-width: 0.8; stroke-linejoin: miter"/>
   </g>
   <g id="patch_101">
    <path d="M 589.168688 240.825306 
L 594.225751 240.825306 
L 594.225751 125.245402 
L 589.168688 125.245402 
z
" clip-path="url(#p6837ea5e6e)" style="fill: #94c9de; stroke: #d3d3d3; stroke-width: 0.8; stroke-linejoin: miter"/>
   </g>
   <g id="patch_102">
    <path d="M 648.663546 240.825306 
L 653.720609 240.825306 
L 653.720609 133.938986 
L 648.663546 133.938986 
z
" clip-path="url(#p6837ea5e6e)" style="fill: #94c9de; stroke: #d3d3d3; stroke-width: 0.8; stroke-linejoin: miter"/>
   </g>
   <g id="patch_103">
    <path d="M 415.741179 240.825306 
L 420.798242 240.825306 
L 420.798242 195.643206 
L 415.741179 195.643206 
z
" clip-path="url(#p6837ea5e6e)" style="fill: #bdbac7; stroke: #d3d3d3; stroke-width: 0.8; stroke-linejoin: miter"/>
   </g>
   <g id="patch_104">
    <path d="M 475.236036 240.825306 
L 480.293099 240.825306 
L 480.293099 214.07954 
L 475.236036 214.07954 
z
" clip-path="url(#p6837ea5e6e)" style="fill: #bdbac7; stroke: #d3d3d3; stroke-width: 0.8; stroke-linejoin: miter"/>
   </g>
   <g id="patch_105">
    <path d="M 534.730894 240.825306 
L 539.787957 240.825306 
L 539.787957 215.204713 
L 534.730894 215.204713 
z
" clip-path="url(#p6837ea5e6e)" style="fill: #bdbac7; stroke: #d3d3d3; stroke-width: 0.8; stroke-linejoin: miter"/>
   </g>
   <g id="patch_106">
    <path d="M 594.225751 240.825306 
L 599.282814 240.825306 
L 599.282814 161.567817 
L 594.225751 161.567817 
z
" clip-path="url(#p6837ea5e6e)" style="fill: #bdbac7; stroke: #d3d3d3; stroke-width: 0.8; stroke-linejoin: miter"/>
   </g>
   <g id="patch_107">
    <path d="M 653.720609 240.825306 
L 658.777672 240.825306 
L 658.777672 214.299291 
L 653.720609 214.299291 
z
" clip-path="url(#p6837ea5e6e)" style="fill: #bdbac7; stroke: #d3d3d3; stroke-width: 0.8; stroke-linejoin: miter"/>
   </g>
   <g id="patch_108">
    <path d="M 420.798242 240.825306 
L 425.855305 240.825306 
L 425.855305 201.88699 
L 420.798242 201.88699 
z
" clip-path="url(#p6837ea5e6e)" style="fill: #857aaa; stroke: #d3d3d3; stroke-width: 0.8; stroke-linejoin: miter"/>
   </g>
   <g id="patch_109">
    <path d="M 480.293099 240.825306 
L 485.350162 240.825306 
L 485.350162 207.08414 
L 480.293099 207.08414 
z
" clip-path="url(#p6837ea5e6e)" style="fill: #857aaa; stroke: #d3d3d3; stroke-width: 0.8; stroke-linejoin: miter"/>
   </g>
   <g id="patch_110">
    <path d="M 539.787957 240.825306 
L 544.84502 240.825306 
L 544.84502 207.885439 
L 539.787957 207.885439 
z
" clip-path="url(#p6837ea5e6e)" style="fill: #857aaa; stroke: #d3d3d3; stroke-width: 0.8; stroke-linejoin: miter"/>
   </g>
   <g id="patch_111">
    <path d="M 599.282814 240.825306 
L 604.339877 240.825306 
L 604.339877 204.646438 
L 599.282814 204.646438 
z
" clip-path="url(#p6837ea5e6e)" style="fill: #857aaa; stroke: #d3d3d3; stroke-width: 0.8; stroke-linejoin: miter"/>
   </g>
   <g id="patch_112">
    <path d="M 658.777672 240.825306 
L 663.834735 240.825306 
L 663.834735 206.770165 
L 658.777672 206.770165 
z
" clip-path="url(#p6837ea5e6e)" style="fill: #857aaa; stroke: #d3d3d3; stroke-width: 0.8; stroke-linejoin: miter"/>
   </g>
   <g id="patch_113">
    <path d="M 425.855305 240.825306 
L 430.912367 240.825306 
L 430.912367 187.086229 
L 425.855305 187.086229 
z
" clip-path="url(#p6837ea5e6e)" style="fill: #5f4aa2; stroke: #d3d3d3; stroke-width: 0.8; stroke-linejoin: miter"/>
   </g>
   <g id="patch_114">
    <path d="M 485.350162 240.825306 
L 490.407225 240.825306 
L 490.407225 201.154905 
L 485.350162 201.154905 
z
" clip-path="url(#p6837ea5e6e)" style="fill: #5f4aa2; stroke: #d3d3d3; stroke-width: 0.8; stroke-linejoin: miter"/>
   </g>
   <g id="patch_115">
    <path d="M 544.84502 240.825306 
L 549.902082 240.825306 
L 549.902082 200.050798 
L 544.84502 200.050798 
z
" clip-path="url(#p6837ea5e6e)" style="fill: #5f4aa2; stroke: #d3d3d3; stroke-width: 0.8; stroke-linejoin: miter"/>
   </g>
   <g id="patch_116">
    <path d="M 604.339877 240.825306 
L 609.39694 240.825306 
L 609.39694 201.157392 
L 604.339877 201.157392 
z
" clip-path="url(#p6837ea5e6e)" style="fill: #5f4aa2; stroke: #d3d3d3; stroke-width: 0.8; stroke-linejoin: miter"/>
   </g>
   <g id="patch_117">
    <path d="M 663.834735 240.825306 
L 668.891798 240.825306 
L 668.891798 200.710078 
L 663.834735 200.710078 
z
" clip-path="url(#p6837ea5e6e)" style="fill: #5f4aa2; stroke: #d3d3d3; stroke-width: 0.8; stroke-linejoin: miter"/>
   </g>
   <g id="patch_118">
    <path d="M 430.912367 240.825306 
L 435.96943 240.825306 
L 435.96943 140.647313 
L 430.912367 140.647313 
z
" clip-path="url(#p6837ea5e6e)" style="fill: url(#h00dfef1155); stroke: #d3d3d3; stroke-width: 0.8; stroke-linejoin: miter"/>
   </g>
   <g id="patch_119">
    <path d="M 490.407225 240.825306 
L 495.464288 240.825306 
L 495.464288 132.98546 
L 490.407225 132.98546 
z
" clip-path="url(#p6837ea5e6e)" style="fill: url(#h00dfef1155); stroke: #d3d3d3; stroke-width: 0.8; stroke-linejoin: miter"/>
   </g>
   <g id="patch_120">
    <path d="M 549.902082 240.825306 
L 554.959145 240.825306 
L 554.959145 134.408938 
L 549.902082 134.408938 
z
" clip-path="url(#p6837ea5e6e)" style="fill: url(#h00dfef1155); stroke: #d3d3d3; stroke-width: 0.8; stroke-linejoin: miter"/>
   </g>
   <g id="patch_121">
    <path d="M 609.39694 240.825306 
L 614.454003 240.825306 
L 614.454003 124.42549 
L 609.39694 124.42549 
z
" clip-path="url(#p6837ea5e6e)" style="fill: url(#h00dfef1155); stroke: #d3d3d3; stroke-width: 0.8; stroke-linejoin: miter"/>
   </g>
   <g id="patch_122">
    <path d="M 668.891798 240.825306 
L 673.94886 240.825306 
L 673.94886 134.996551 
L 668.891798 134.996551 
z
" clip-path="url(#p6837ea5e6e)" style="fill: url(#h00dfef1155); stroke: #d3d3d3; stroke-width: 0.8; stroke-linejoin: miter"/>
   </g>
   <g id="patch_123">
    <path d="M 435.96943 240.825306 
L 441.026493 240.825306 
L 441.026493 185.062976 
L 435.96943 185.062976 
z
" clip-path="url(#p6837ea5e6e)" style="fill: url(#h6a7359b366); stroke: #d3d3d3; stroke-width: 0.8; stroke-linejoin: miter"/>
   </g>
   <g id="patch_124">
    <path d="M 495.464288 240.825306 
L 500.521351 240.825306 
L 500.521351 192.092526 
L 495.464288 192.092526 
z
" clip-path="url(#p6837ea5e6e)" style="fill: url(#h6a7359b366); stroke: #d3d3d3; stroke-width: 0.8; stroke-linejoin: miter"/>
   </g>
   <g id="patch_125">
    <path d="M 554.959145 240.825306 
L 560.016208 240.825306 
L 560.016208 195.314408 
L 554.959145 195.314408 
z
" clip-path="url(#p6837ea5e6e)" style="fill: url(#h6a7359b366); stroke: #d3d3d3; stroke-width: 0.8; stroke-linejoin: miter"/>
   </g>
   <g id="patch_126">
    <path d="M 614.454003 240.825306 
L 619.511066 240.825306 
L 619.511066 174.682142 
L 614.454003 174.682142 
z
" clip-path="url(#p6837ea5e6e)" style="fill: url(#h6a7359b366); stroke: #d3d3d3; stroke-width: 0.8; stroke-linejoin: miter"/>
   </g>
   <g id="patch_127">
    <path d="M 673.94886 240.825306 
L 679.005923 240.825306 
L 679.005923 192.034145 
L 673.94886 192.034145 
z
" clip-path="url(#p6837ea5e6e)" style="fill: url(#h6a7359b366); stroke: #d3d3d3; stroke-width: 0.8; stroke-linejoin: miter"/>
   </g>
   <g id="patch_128">
    <path d="M 415.741179 240.825306 
L 415.741179 240.825306 
L 415.741179 240.825306 
L 415.741179 240.825306 
z
" clip-path="url(#p6837ea5e6e)" style="fill: #df2020"/>
   </g>
   <g id="patch_129">
    <path d="M 415.741179 240.825306 
L 415.741179 240.825306 
L 415.741179 240.825306 
L 415.741179 240.825306 
z
" clip-path="url(#p6837ea5e6e)" style="fill: #7c5624"/>
   </g>
   <g id="patch_130">
    <path d="M 415.741179 240.825306 
L 415.741179 240.825306 
L 415.741179 240.825306 
L 415.741179 240.825306 
z
" clip-path="url(#p6837ea5e6e)" style="fill: #df9c20"/>
   </g>
   <g id="patch_131">
    <path d="M 415.741179 240.825306 
L 415.741179 240.825306 
L 415.741179 240.825306 
L 415.741179 240.825306 
z
" clip-path="url(#p6837ea5e6e)" style="fill: #107010"/>
   </g>
   <g id="patch_132">
    <path d="M 415.741179 240.825306 
L 415.741179 240.825306 
L 415.741179 240.825306 
L 415.741179 240.825306 
z
" clip-path="url(#p6837ea5e6e)" style="fill: #94c9de"/>
   </g>
   <g id="patch_133">
    <path d="M 415.741179 240.825306 
L 415.741179 240.825306 
L 415.741179 240.825306 
L 415.741179 240.825306 
z
" clip-path="url(#p6837ea5e6e)" style="fill: #bdbac7"/>
   </g>
   <g id="patch_134">
    <path d="M 415.741179 240.825306 
L 415.741179 240.825306 
L 415.741179 240.825306 
L 415.741179 240.825306 
z
" clip-path="url(#p6837ea5e6e)" style="fill: #857aaa"/>
   </g>
   <g id="patch_135">
    <path d="M 415.741179 240.825306 
L 415.741179 240.825306 
L 415.741179 240.825306 
L 415.741179 240.825306 
z
" clip-path="url(#p6837ea5e6e)" style="fill: #5f4aa2"/>
   </g>
   <g id="patch_136">
    <path d="M 415.741179 240.825306 
L 415.741179 240.825306 
L 415.741179 240.825306 
L 415.741179 240.825306 
z
" clip-path="url(#p6837ea5e6e)" style="fill: #94c9de"/>
   </g>
   <g id="patch_137">
    <path d="M 415.741179 240.825306 
L 415.741179 240.825306 
L 415.741179 240.825306 
L 415.741179 240.825306 
z
" clip-path="url(#p6837ea5e6e)" style="fill: #857aaa"/>
   </g>
   <g id="patch_138">
    <path d="M 430.912367 240.825306 
L 435.96943 240.825306 
L 435.96943 140.647313 
L 430.912367 140.647313 
z
" clip-path="url(#p6837ea5e6e)" style="fill: url(#he4b5162085)"/>
   </g>
   <g id="patch_139">
    <path d="M 490.407225 240.825306 
L 495.464288 240.825306 
L 495.464288 132.98546 
L 490.407225 132.98546 
z
" clip-path="url(#p6837ea5e6e)" style="fill: url(#he4b5162085)"/>
   </g>
   <g id="patch_140">
    <path d="M 549.902082 240.825306 
L 554.959145 240.825306 
L 554.959145 134.408938 
L 549.902082 134.408938 
z
" clip-path="url(#p6837ea5e6e)" style="fill: url(#he4b5162085)"/>
   </g>
   <g id="patch_141">
    <path d="M 609.39694 240.825306 
L 614.454003 240.825306 
L 614.454003 124.42549 
L 609.39694 124.42549 
z
" clip-path="url(#p6837ea5e6e)" style="fill: url(#he4b5162085)"/>
   </g>
   <g id="patch_142">
    <path d="M 668.891798 240.825306 
L 673.94886 240.825306 
L 673.94886 134.996551 
L 668.891798 134.996551 
z
" clip-path="url(#p6837ea5e6e)" style="fill: url(#he4b5162085)"/>
   </g>
   <g id="patch_143">
    <path d="M 435.96943 240.825306 
L 441.026493 240.825306 
L 441.026493 185.062976 
L 435.96943 185.062976 
z
" clip-path="url(#p6837ea5e6e)" style="fill: url(#he4b5162085)"/>
   </g>
   <g id="patch_144">
    <path d="M 495.464288 240.825306 
L 500.521351 240.825306 
L 500.521351 192.092526 
L 495.464288 192.092526 
z
" clip-path="url(#p6837ea5e6e)" style="fill: url(#he4b5162085)"/>
   </g>
   <g id="patch_145">
    <path d="M 554.959145 240.825306 
L 560.016208 240.825306 
L 560.016208 195.314408 
L 554.959145 195.314408 
z
" clip-path="url(#p6837ea5e6e)" style="fill: url(#he4b5162085)"/>
   </g>
   <g id="patch_146">
    <path d="M 614.454003 240.825306 
L 619.511066 240.825306 
L 619.511066 174.682142 
L 614.454003 174.682142 
z
" clip-path="url(#p6837ea5e6e)" style="fill: url(#he4b5162085)"/>
   </g>
   <g id="patch_147">
    <path d="M 673.94886 240.825306 
L 679.005923 240.825306 
L 679.005923 192.034145 
L 673.94886 192.034145 
z
" clip-path="url(#p6837ea5e6e)" style="fill: url(#he4b5162085)"/>
   </g>
   <g id="matplotlib.axis_3">
    <g id="xtick_6">
     <g id="line2d_61">
      <g>
       <use xlink:href="#mda5edddba3" x="415.741179" y="237.597187" style="stroke: #000000; stroke-width: 0.8"/>
      </g>
     </g>
     <g id="text_12">
      <!-- GABAergic -->
      <g transform="translate(387.087492 274.848003) rotate(-20) scale(0.12 -0.12)">
       <use xlink:href="#DejaVuSans-47"/>
       <use xlink:href="#DejaVuSans-41" transform="translate(77.490234 0)"/>
       <use xlink:href="#DejaVuSans-42" transform="translate(145.898438 0)"/>
       <use xlink:href="#DejaVuSans-41" transform="translate(214.501953 0)"/>
       <use xlink:href="#DejaVuSans-65" transform="translate(281.160156 0)"/>
       <use xlink:href="#DejaVuSans-72" transform="translate(342.683594 0)"/>
       <use xlink:href="#DejaVuSans-67" transform="translate(382.046875 0)"/>
       <use xlink:href="#DejaVuSans-69" transform="translate(445.523438 0)"/>
       <use xlink:href="#DejaVuSans-63" transform="translate(473.306641 0)"/>
      </g>
     </g>
    </g>
    <g id="xtick_7">
     <g id="line2d_62">
      <g>
       <use xlink:href="#mda5edddba3" x="475.236036" y="237.597187" style="stroke: #000000; stroke-width: 0.8"/>
      </g>
     </g>
     <g id="text_13">
      <!-- astrocyte -->
      <g transform="translate(450.008411 272.354035) rotate(-20) scale(0.12 -0.12)">
       <use xlink:href="#DejaVuSans-61"/>
       <use xlink:href="#DejaVuSans-73" transform="translate(61.279297 0)"/>
       <use xlink:href="#DejaVuSans-74" transform="translate(113.378906 0)"/>
       <use xlink:href="#DejaVuSans-72" transform="translate(152.587891 0)"/>
       <use xlink:href="#DejaVuSans-6f" transform="translate(191.451172 0)"/>
       <use xlink:href="#DejaVuSans-63" transform="translate(252.632812 0)"/>
       <use xlink:href="#DejaVuSans-79" transform="translate(307.613281 0)"/>
       <use xlink:href="#DejaVuSans-74" transform="translate(366.792969 0)"/>
       <use xlink:href="#DejaVuSans-65" transform="translate(406.001953 0)"/>
      </g>
     </g>
    </g>
    <g id="xtick_8">
     <g id="line2d_63">
      <g>
       <use xlink:href="#mda5edddba3" x="534.730894" y="237.597187" style="stroke: #000000; stroke-width: 0.8"/>
      </g>
     </g>
     <g id="text_14">
      <!-- endothelial -->
      <g transform="translate(504.38488 276.079917) rotate(-20) scale(0.12 -0.12)">
       <use xlink:href="#DejaVuSans-65"/>
       <use xlink:href="#DejaVuSans-6e" transform="translate(61.523438 0)"/>
       <use xlink:href="#DejaVuSans-64" transform="translate(124.902344 0)"/>
       <use xlink:href="#DejaVuSans-6f" transform="translate(188.378906 0)"/>
       <use xlink:href="#DejaVuSans-74" transform="translate(249.560547 0)"/>
       <use xlink:href="#DejaVuSans-68" transform="translate(288.769531 0)"/>
       <use xlink:href="#DejaVuSans-65" transform="translate(352.148438 0)"/>
       <use xlink:href="#DejaVuSans-6c" transform="translate(413.671875 0)"/>
       <use xlink:href="#DejaVuSans-69" transform="translate(441.455078 0)"/>
       <use xlink:href="#DejaVuSans-61" transform="translate(469.238281 0)"/>
       <use xlink:href="#DejaVuSans-6c" transform="translate(530.517578 0)"/>
      </g>
     </g>
    </g>
    <g id="xtick_9">
     <g id="line2d_64">
      <g>
       <use xlink:href="#mda5edddba3" x="594.225751" y="237.597187" style="stroke: #000000; stroke-width: 0.8"/>
      </g>
     </g>
     <g id="text_15">
      <!-- glutamatergic -->
      <g transform="translate(555.882366 281.901527) rotate(-20) scale(0.12 -0.12)">
       <use xlink:href="#DejaVuSans-67"/>
       <use xlink:href="#DejaVuSans-6c" transform="translate(63.476562 0)"/>
       <use xlink:href="#DejaVuSans-75" transform="translate(91.259766 0)"/>
       <use xlink:href="#DejaVuSans-74" transform="translate(154.638672 0)"/>
       <use xlink:href="#DejaVuSans-61" transform="translate(193.847656 0)"/>
       <use xlink:href="#DejaVuSans-6d" transform="translate(255.126953 0)"/>
       <use xlink:href="#DejaVuSans-61" transform="translate(352.539062 0)"/>
       <use xlink:href="#DejaVuSans-74" transform="translate(413.818359 0)"/>
       <use xlink:href="#DejaVuSans-65" transform="translate(453.027344 0)"/>
       <use xlink:href="#DejaVuSans-72" transform="translate(514.550781 0)"/>
       <use xlink:href="#DejaVuSans-67" transform="translate(553.914062 0)"/>
       <use xlink:href="#DejaVuSans-69" transform="translate(617.390625 0)"/>
       <use xlink:href="#DejaVuSans-63" transform="translate(645.173828 0)"/>
      </g>
     </g>
    </g>
    <g id="xtick_10">
     <g id="line2d_65">
      <g>
       <use xlink:href="#mda5edddba3" x="653.720609" y="237.597187" style="stroke: #000000; stroke-width: 0.8"/>
      </g>
     </g>
     <g id="text_16">
      <!-- oligodendrocyte -->
      <g transform="translate(609.282729 286.337956) rotate(-20) scale(0.12 -0.12)">
       <use xlink:href="#DejaVuSans-6f"/>
       <use xlink:href="#DejaVuSans-6c" transform="translate(61.181641 0)"/>
       <use xlink:href="#DejaVuSans-69" transform="translate(88.964844 0)"/>
       <use xlink:href="#DejaVuSans-67" transform="translate(116.748047 0)"/>
       <use xlink:href="#DejaVuSans-6f" transform="translate(180.224609 0)"/>
       <use xlink:href="#DejaVuSans-64" transform="translate(241.40625 0)"/>
       <use xlink:href="#DejaVuSans-65" transform="translate(304.882812 0)"/>
       <use xlink:href="#DejaVuSans-6e" transform="translate(366.40625 0)"/>
       <use xlink:href="#DejaVuSans-64" transform="translate(429.785156 0)"/>
       <use xlink:href="#DejaVuSans-72" transform="translate(493.261719 0)"/>
       <use xlink:href="#DejaVuSans-6f" transform="translate(532.125 0)"/>
       <use xlink:href="#DejaVuSans-63" transform="translate(593.306641 0)"/>
       <use xlink:href="#DejaVuSans-79" transform="translate(648.287109 0)"/>
       <use xlink:href="#DejaVuSans-74" transform="translate(707.466797 0)"/>
       <use xlink:href="#DejaVuSans-65" transform="translate(746.675781 0)"/>
      </g>
     </g>
    </g>
   </g>
   <g id="matplotlib.axis_4">
    <g id="ytick_6">
     <g id="line2d_66">
      <g>
       <use xlink:href="#m86adfaecb6" x="385.99375" y="190.830879" style="stroke: #000000; stroke-width: 0.8"/>
      </g>
     </g>
     <g id="text_17">
      <!-- 10 -->
      <g transform="translate(363.72375 195.389942) scale(0.12 -0.12)">
       <defs>
        <path id="DejaVuSans-31" d="M 794 531 
L 1825 531 
L 1825 4091 
L 703 3866 
L 703 4441 
L 1819 4666 
L 2450 4666 
L 2450 531 
L 3481 531 
L 3481 0 
L 794 0 
L 794 531 
z
" transform="scale(0.015625)"/>
       </defs>
       <use xlink:href="#DejaVuSans-31"/>
       <use xlink:href="#DejaVuSans-30" transform="translate(63.623047 0)"/>
      </g>
     </g>
    </g>
    <g id="ytick_7">
     <g id="line2d_67">
      <g>
       <use xlink:href="#m86adfaecb6" x="385.99375" y="140.836452" style="stroke: #000000; stroke-width: 0.8"/>
      </g>
     </g>
     <g id="text_18">
      <!-- 20 -->
      <g transform="translate(363.72375 145.395515) scale(0.12 -0.12)">
       <use xlink:href="#DejaVuSans-32"/>
       <use xlink:href="#DejaVuSans-30" transform="translate(63.623047 0)"/>
      </g>
     </g>
    </g>
    <g id="ytick_8">
     <g id="line2d_68">
      <g>
       <use xlink:href="#m86adfaecb6" x="385.99375" y="90.842026" style="stroke: #000000; stroke-width: 0.8"/>
      </g>
     </g>
     <g id="text_19">
      <!-- 30 -->
      <g transform="translate(363.72375 95.401088) scale(0.12 -0.12)">
       <defs>
        <path id="DejaVuSans-33" d="M 2597 2516 
Q 3050 2419 3304 2112 
Q 3559 1806 3559 1356 
Q 3559 666 3084 287 
Q 2609 -91 1734 -91 
Q 1441 -91 1130 -33 
Q 819 25 488 141 
L 488 750 
Q 750 597 1062 519 
Q 1375 441 1716 441 
Q 2309 441 2620 675 
Q 2931 909 2931 1356 
Q 2931 1769 2642 2001 
Q 2353 2234 1838 2234 
L 1294 2234 
L 1294 2753 
L 1863 2753 
Q 2328 2753 2575 2939 
Q 2822 3125 2822 3475 
Q 2822 3834 2567 4026 
Q 2313 4219 1838 4219 
Q 1578 4219 1281 4162 
Q 984 4106 628 3988 
L 628 4550 
Q 988 4650 1302 4700 
Q 1616 4750 1894 4750 
Q 2613 4750 3031 4423 
Q 3450 4097 3450 3541 
Q 3450 3153 3228 2886 
Q 3006 2619 2597 2516 
z
" transform="scale(0.015625)"/>
       </defs>
       <use xlink:href="#DejaVuSans-33"/>
       <use xlink:href="#DejaVuSans-30" transform="translate(63.623047 0)"/>
      </g>
     </g>
    </g>
    <g id="ytick_9">
     <g id="line2d_69">
      <g>
       <use xlink:href="#m86adfaecb6" x="385.99375" y="40.847599" style="stroke: #000000; stroke-width: 0.8"/>
      </g>
     </g>
     <g id="text_20">
      <!-- 40 -->
      <g transform="translate(363.72375 45.406661) scale(0.12 -0.12)">
       <use xlink:href="#DejaVuSans-34"/>
       <use xlink:href="#DejaVuSans-30" transform="translate(63.623047 0)"/>
      </g>
     </g>
    </g>
   </g>
   <g id="line2d_70">
    <path d="M 392.984396 99.965096 
L 392.984396 95.785395 
" clip-path="url(#p6837ea5e6e)" style="fill: none; stroke: #424242; stroke-width: 2.25; stroke-linecap: square"/>
   </g>
   <g id="line2d_71">
    <path d="M 452.479253 53.172021 
L 452.479253 45.549066 
" clip-path="url(#p6837ea5e6e)" style="fill: none; stroke: #424242; stroke-width: 2.25; stroke-linecap: square"/>
   </g>
   <g id="line2d_72">
    <path d="M 511.974111 73.287218 
L 511.974111 66.864188 
" clip-path="url(#p6837ea5e6e)" style="fill: none; stroke: #424242; stroke-width: 2.25; stroke-linecap: square"/>
   </g>
   <g id="line2d_73">
    <path d="M 571.468968 58.296489 
L 571.468968 44.10678 
" clip-path="url(#p6837ea5e6e)" style="fill: none; stroke: #424242; stroke-width: 2.25; stroke-linecap: square"/>
   </g>
   <g id="line2d_74">
    <path d="M 630.963826 84.06186 
L 630.963826 74.710494 
" clip-path="url(#p6837ea5e6e)" style="fill: none; stroke: #424242; stroke-width: 2.25; stroke-linecap: square"/>
   </g>
   <g id="line2d_75">
    <path d="M 398.041459 205.992369 
L 398.041459 196.568403 
" clip-path="url(#p6837ea5e6e)" style="fill: none; stroke: #424242; stroke-width: 2.25; stroke-linecap: square"/>
   </g>
   <g id="line2d_76">
    <path d="M 457.536316 211.81025 
L 457.536316 205.463041 
" clip-path="url(#p6837ea5e6e)" style="fill: none; stroke: #424242; stroke-width: 2.25; stroke-linecap: square"/>
   </g>
   <g id="line2d_77">
    <path d="M 517.031174 216.12911 
L 517.031174 214.434954 
" clip-path="url(#p6837ea5e6e)" style="fill: none; stroke: #424242; stroke-width: 2.25; stroke-linecap: square"/>
   </g>
   <g id="line2d_78">
    <path d="M 576.526031 194.548928 
L 576.526031 191.776545 
" clip-path="url(#p6837ea5e6e)" style="fill: none; stroke: #424242; stroke-width: 2.25; stroke-linecap: square"/>
   </g>
   <g id="line2d_79">
    <path d="M 636.020889 217.082843 
L 636.020889 214.576997 
" clip-path="url(#p6837ea5e6e)" style="fill: none; stroke: #424242; stroke-width: 2.25; stroke-linecap: square"/>
   </g>
   <g id="line2d_80">
    <path d="M 403.098522 207.613154 
L 403.098522 196.174717 
" clip-path="url(#p6837ea5e6e)" style="fill: none; stroke: #424242; stroke-width: 2.25; stroke-linecap: square"/>
   </g>
   <g id="line2d_81">
    <path d="M 462.593379 225.759627 
L 462.593379 223.026864 
" clip-path="url(#p6837ea5e6e)" style="fill: none; stroke: #424242; stroke-width: 2.25; stroke-linecap: square"/>
   </g>
   <g id="line2d_82">
    <path d="M 522.088237 229.884694 
L 522.088237 229.476961 
" clip-path="url(#p6837ea5e6e)" style="fill: none; stroke: #424242; stroke-width: 2.25; stroke-linecap: square"/>
   </g>
   <g id="line2d_83">
    <path d="M 581.583094 170.173092 
L 581.583094 159.043271 
" clip-path="url(#p6837ea5e6e)" style="fill: none; stroke: #424242; stroke-width: 2.25; stroke-linecap: square"/>
   </g>
   <g id="line2d_84">
    <path d="M 641.077952 228.704404 
L 641.077952 227.957362 
" clip-path="url(#p6837ea5e6e)" style="fill: none; stroke: #424242; stroke-width: 2.25; stroke-linecap: square"/>
   </g>
   <g id="line2d_85">
    <path d="M 408.155584 144.165641 
L 408.155584 141.229914 
" clip-path="url(#p6837ea5e6e)" style="fill: none; stroke: #424242; stroke-width: 2.25; stroke-linecap: square"/>
   </g>
   <g id="line2d_86">
    <path d="M 467.650442 138.811702 
L 467.650442 131.148142 
" clip-path="url(#p6837ea5e6e)" style="fill: none; stroke: #424242; stroke-width: 2.25; stroke-linecap: square"/>
   </g>
   <g id="line2d_87">
    <path d="M 527.145299 149.225205 
L 527.145299 136.868407 
" clip-path="url(#p6837ea5e6e)" style="fill: none; stroke: #424242; stroke-width: 2.25; stroke-linecap: square"/>
   </g>
   <g id="line2d_88">
    <path d="M 586.640157 147.158587 
L 586.640157 146.301411 
" clip-path="url(#p6837ea5e6e)" style="fill: none; stroke: #424242; stroke-width: 2.25; stroke-linecap: square"/>
   </g>
   <g id="line2d_89">
    <path d="M 646.135015 163.445079 
L 646.135015 151.367535 
" clip-path="url(#p6837ea5e6e)" style="fill: none; stroke: #424242; stroke-width: 2.25; stroke-linecap: square"/>
   </g>
   <g id="line2d_90">
    <path d="M 413.212647 143.351768 
L 413.212647 138.124685 
" clip-path="url(#p6837ea5e6e)" style="fill: none; stroke: #424242; stroke-width: 2.25; stroke-linecap: square"/>
   </g>
   <g id="line2d_91">
    <path d="M 472.707505 137.934886 
L 472.707505 128.165262 
" clip-path="url(#p6837ea5e6e)" style="fill: none; stroke: #424242; stroke-width: 2.25; stroke-linecap: square"/>
   </g>
   <g id="line2d_92">
    <path d="M 532.202362 138.175489 
L 532.202362 129.582613 
" clip-path="url(#p6837ea5e6e)" style="fill: none; stroke: #424242; stroke-width: 2.25; stroke-linecap: square"/>
   </g>
   <g id="line2d_93">
    <path d="M 591.69722 149.136854 
L 591.69722 101.35395 
" clip-path="url(#p6837ea5e6e)" style="fill: none; stroke: #424242; stroke-width: 2.25; stroke-linecap: square"/>
   </g>
   <g id="line2d_94">
    <path d="M 651.192077 140.743598 
L 651.192077 127.134374 
" clip-path="url(#p6837ea5e6e)" style="fill: none; stroke: #424242; stroke-width: 2.25; stroke-linecap: square"/>
   </g>
   <g id="line2d_95">
    <path d="M 418.26971 200.633064 
L 418.26971 190.653348 
" clip-path="url(#p6837ea5e6e)" style="fill: none; stroke: #424242; stroke-width: 2.25; stroke-linecap: square"/>
   </g>
   <g id="line2d_96">
    <path d="M 477.764568 214.385346 
L 477.764568 213.773733 
" clip-path="url(#p6837ea5e6e)" style="fill: none; stroke: #424242; stroke-width: 2.25; stroke-linecap: square"/>
   </g>
   <g id="line2d_97">
    <path d="M 537.259425 215.480716 
L 537.259425 214.92871 
" clip-path="url(#p6837ea5e6e)" style="fill: none; stroke: #424242; stroke-width: 2.25; stroke-linecap: square"/>
   </g>
   <g id="line2d_98">
    <path d="M 596.754283 169.852566 
L 596.754283 153.283068 
" clip-path="url(#p6837ea5e6e)" style="fill: none; stroke: #424242; stroke-width: 2.25; stroke-linecap: square"/>
   </g>
   <g id="line2d_99">
    <path d="M 656.24914 215.290351 
L 656.24914 213.308231 
" clip-path="url(#p6837ea5e6e)" style="fill: none; stroke: #424242; stroke-width: 2.25; stroke-linecap: square"/>
   </g>
   <g id="line2d_100">
    <path d="M 423.326773 204.037876 
L 423.326773 199.736104 
" clip-path="url(#p6837ea5e6e)" style="fill: none; stroke: #424242; stroke-width: 2.25; stroke-linecap: square"/>
   </g>
   <g id="line2d_101">
    <path d="M 482.821631 210.7665 
L 482.821631 203.40178 
" clip-path="url(#p6837ea5e6e)" style="fill: none; stroke: #424242; stroke-width: 2.25; stroke-linecap: square"/>
   </g>
   <g id="line2d_102">
    <path d="M 542.316488 209.556843 
L 542.316488 206.214034 
" clip-path="url(#p6837ea5e6e)" style="fill: none; stroke: #424242; stroke-width: 2.25; stroke-linecap: square"/>
   </g>
   <g id="line2d_103">
    <path d="M 601.811346 207.536223 
L 601.811346 201.756653 
" clip-path="url(#p6837ea5e6e)" style="fill: none; stroke: #424242; stroke-width: 2.25; stroke-linecap: square"/>
   </g>
   <g id="line2d_104">
    <path d="M 661.306203 209.433553 
L 661.306203 204.106778 
" clip-path="url(#p6837ea5e6e)" style="fill: none; stroke: #424242; stroke-width: 2.25; stroke-linecap: square"/>
   </g>
   <g id="line2d_105">
    <path d="M 428.383836 189.545002 
L 428.383836 184.627456 
" clip-path="url(#p6837ea5e6e)" style="fill: none; stroke: #424242; stroke-width: 2.25; stroke-linecap: square"/>
   </g>
   <g id="line2d_106">
    <path d="M 487.878694 204.828577 
L 487.878694 197.481234 
" clip-path="url(#p6837ea5e6e)" style="fill: none; stroke: #424242; stroke-width: 2.25; stroke-linecap: square"/>
   </g>
   <g id="line2d_107">
    <path d="M 547.373551 201.519837 
L 547.373551 198.581759 
" clip-path="url(#p6837ea5e6e)" style="fill: none; stroke: #424242; stroke-width: 2.25; stroke-linecap: square"/>
   </g>
   <g id="line2d_108">
    <path d="M 606.868409 202.360197 
L 606.868409 199.954587 
" clip-path="url(#p6837ea5e6e)" style="fill: none; stroke: #424242; stroke-width: 2.25; stroke-linecap: square"/>
   </g>
   <g id="line2d_109">
    <path d="M 666.363266 205.326081 
L 666.363266 196.094075 
" clip-path="url(#p6837ea5e6e)" style="fill: none; stroke: #424242; stroke-width: 2.25; stroke-linecap: square"/>
   </g>
   <g id="line2d_110">
    <path d="M 433.440899 143.459844 
L 433.440899 137.834781 
" clip-path="url(#p6837ea5e6e)" style="fill: none; stroke: #424242; stroke-width: 2.25; stroke-linecap: square"/>
   </g>
   <g id="line2d_111">
    <path d="M 492.935756 137.642087 
L 492.935756 128.328833 
" clip-path="url(#p6837ea5e6e)" style="fill: none; stroke: #424242; stroke-width: 2.25; stroke-linecap: square"/>
   </g>
   <g id="line2d_112">
    <path d="M 552.430614 138.760372 
L 552.430614 130.057504 
" clip-path="url(#p6837ea5e6e)" style="fill: none; stroke: #424242; stroke-width: 2.25; stroke-linecap: square"/>
   </g>
   <g id="line2d_113">
    <path d="M 611.925471 149.377062 
L 611.925471 99.473918 
" clip-path="url(#p6837ea5e6e)" style="fill: none; stroke: #424242; stroke-width: 2.25; stroke-linecap: square"/>
   </g>
   <g id="line2d_114">
    <path d="M 671.420329 141.919144 
L 671.420329 128.073957 
" clip-path="url(#p6837ea5e6e)" style="fill: none; stroke: #424242; stroke-width: 2.25; stroke-linecap: square"/>
   </g>
   <g id="line2d_115">
    <path d="M 438.497962 186.676906 
L 438.497962 183.449046 
" clip-path="url(#p6837ea5e6e)" style="fill: none; stroke: #424242; stroke-width: 2.25; stroke-linecap: square"/>
   </g>
   <g id="line2d_116">
    <path d="M 497.992819 193.258628 
L 497.992819 190.926423 
" clip-path="url(#p6837ea5e6e)" style="fill: none; stroke: #424242; stroke-width: 2.25; stroke-linecap: square"/>
   </g>
   <g id="line2d_117">
    <path d="M 557.487677 197.56386 
L 557.487677 193.064955 
" clip-path="url(#p6837ea5e6e)" style="fill: none; stroke: #424242; stroke-width: 2.25; stroke-linecap: square"/>
   </g>
   <g id="line2d_118">
    <path d="M 616.982534 179.977618 
L 616.982534 169.386665 
" clip-path="url(#p6837ea5e6e)" style="fill: none; stroke: #424242; stroke-width: 2.25; stroke-linecap: square"/>
   </g>
   <g id="line2d_119">
    <path d="M 676.477392 195.034886 
L 676.477392 189.033405 
" clip-path="url(#p6837ea5e6e)" style="fill: none; stroke: #424242; stroke-width: 2.25; stroke-linecap: square"/>
   </g>
   <g id="patch_148">
    <path d="M 385.99375 237.597187 
L 385.99375 26.877188 
" style="fill: none; stroke: #000000; stroke-width: 0.8; stroke-linejoin: miter; stroke-linecap: square"/>
   </g>
   <g id="patch_149">
    <path d="M 683.468038 237.597187 
L 683.468038 26.877188 
" style="fill: none; stroke: #000000; stroke-width: 0.8; stroke-linejoin: miter; stroke-linecap: square"/>
   </g>
   <g id="patch_150">
    <path d="M 385.99375 237.597187 
L 683.468038 237.597187 
" style="fill: none; stroke: #000000; stroke-width: 0.8; stroke-linejoin: miter; stroke-linecap: square"/>
   </g>
   <g id="patch_151">
    <path d="M 385.99375 26.877187 
L 683.468038 26.877187 
" style="fill: none; stroke: #000000; stroke-width: 0.8; stroke-linejoin: miter; stroke-linecap: square"/>
   </g>
   <g id="text_21">
    <!-- E-distance ↓ -->
    <g transform="translate(477.258863 20.877187) scale(0.18 -0.18)">
     <defs>
      <path id="DejaVuSans-45" d="M 628 4666 
L 3578 4666 
L 3578 4134 
L 1259 4134 
L 1259 2753 
L 3481 2753 
L 3481 2222 
L 1259 2222 
L 1259 531 
L 3634 531 
L 3634 0 
L 628 0 
L 628 4666 
z
" transform="scale(0.015625)"/>
      <path id="DejaVuSans-2d" d="M 313 2009 
L 1997 2009 
L 1997 1497 
L 313 1497 
L 313 2009 
z
" transform="scale(0.015625)"/>
      <path id="DejaVuSans-2193" d="M 2822 -22 
L 2541 -22 
L 1309 1209 
L 1684 1584 
L 2416 853 
L 2416 4666 
L 2947 4666 
L 2947 853 
L 3672 1584 
L 4047 1209 
L 2822 -22 
z
" transform="scale(0.015625)"/>
     </defs>
     <use xlink:href="#DejaVuSans-45"/>
     <use xlink:href="#DejaVuSans-2d" transform="translate(63.183594 0)"/>
     <use xlink:href="#DejaVuSans-64" transform="translate(99.267578 0)"/>
     <use xlink:href="#DejaVuSans-69" transform="translate(162.744141 0)"/>
     <use xlink:href="#DejaVuSans-73" transform="translate(190.527344 0)"/>
     <use xlink:href="#DejaVuSans-74" transform="translate(242.626953 0)"/>
     <use xlink:href="#DejaVuSans-61" transform="translate(281.835938 0)"/>
     <use xlink:href="#DejaVuSans-6e" transform="translate(343.115234 0)"/>
     <use xlink:href="#DejaVuSans-63" transform="translate(406.494141 0)"/>
     <use xlink:href="#DejaVuSans-65" transform="translate(461.474609 0)"/>
     <use xlink:href="#DejaVuSans-20" transform="translate(522.998047 0)"/>
     <use xlink:href="#DejaVuSans-2193" transform="translate(554.785156 0)"/>
    </g>
   </g>
  </g>
 </g>
 <defs>
  <clipPath id="p71b0b21ed8">
   <rect x="33.28375" y="26.877187" width="297.474288" height="210.72"/>
  </clipPath>
  <clipPath id="p6837ea5e6e">
   <rect x="385.99375" y="26.877187" width="297.474288" height="210.72"/>
  </clipPath>
 </defs>
 <defs>
  <pattern id="h00dfef1155" patternUnits="userSpaceOnUse" x="0" y="0" width="72" height="72">
   <rect x="0" y="0" width="73" height="73" fill="#94c9de"/>
   <path d="M -36 36 
L 36 -36 
M -32 40 
L 40 -32 
M -28 44 
L 44 -28 
M -24 48 
L 48 -24 
M -20 52 
L 52 -20 
M -16 56 
L 56 -16 
M -12 60 
L 60 -12 
M -8 64 
L 64 -8 
M -4 68 
L 68 -4 
M 0 72 
L 72 0 
M 4 76 
L 76 4 
M 8 80 
L 80 8 
M 12 84 
L 84 12 
M 16 88 
L 88 16 
M 20 92 
L 92 20 
M 24 96 
L 96 24 
M 28 100 
L 100 28 
M 32 104 
L 104 32 
M 36 108 
L 108 36 
" style="fill: #d3d3d3; stroke: #d3d3d3; stroke-width: 1.0; stroke-linecap: butt; stroke-linejoin: miter"/>
  </pattern>
  <pattern id="h6a7359b366" patternUnits="userSpaceOnUse" x="0" y="0" width="72" height="72">
   <rect x="0" y="0" width="73" height="73" fill="#857aaa"/>
   <path d="M -36 36 
L 36 -36 
M -32 40 
L 40 -32 
M -28 44 
L 44 -28 
M -24 48 
L 48 -24 
M -20 52 
L 52 -20 
M -16 56 
L 56 -16 
M -12 60 
L 60 -12 
M -8 64 
L 64 -8 
M -4 68 
L 68 -4 
M 0 72 
L 72 0 
M 4 76 
L 76 4 
M 8 80 
L 80 8 
M 12 84 
L 84 12 
M 16 88 
L 88 16 
M 20 92 
L 92 20 
M 24 96 
L 96 24 
M 28 100 
L 100 28 
M 32 104 
L 104 32 
M 36 108 
L 108 36 
" style="fill: #d3d3d3; stroke: #d3d3d3; stroke-width: 1.0; stroke-linecap: butt; stroke-linejoin: miter"/>
  </pattern>
  <pattern id="he4b5162085" patternUnits="userSpaceOnUse" x="0" y="0" width="72" height="72">
   <rect x="0" y="0" width="73" height="73" fill="none"/>
   <path d="M -36 36 
L 36 -36 
M -32 40 
L 40 -32 
M -28 44 
L 44 -28 
M -24 48 
L 48 -24 
M -20 52 
L 52 -20 
M -16 56 
L 56 -16 
M -12 60 
L 60 -12 
M -8 64 
L 64 -8 
M -4 68 
L 68 -4 
M 0 72 
L 72 0 
M 4 76 
L 76 4 
M 8 80 
L 80 8 
M 12 84 
L 84 12 
M 16 88 
L 88 16 
M 20 92 
L 92 20 
M 24 96 
L 96 24 
M 28 100 
L 100 28 
M 32 104 
L 104 32 
M 36 108 
L 108 36 
" style="fill: #000000; stroke: #000000; stroke-width: 1.0; stroke-linecap: butt; stroke-linejoin: miter"/>
  </pattern>
 </defs>
</svg>
