<?xml version="1.0" encoding="utf-8" standalone="no"?>
<!DOCTYPE svg PUBLIC "-//W3C//DTD SVG 1.1//EN"
  "http://www.w3.org/Graphics/SVG/1.1/DTD/svg11.dtd">
<svg xmlns:xlink="http://www.w3.org/1999/xlink" width="712.780625pt" height="369.4pt" viewBox="0 0 712.780625 369.4" xmlns="http://www.w3.org/2000/svg" version="1.1">
 <metadata>
  <rdf:RDF xmlns:dc="http://purl.org/dc/elements/1.1/" xmlns:cc="http://creativecommons.org/ns#" xmlns:rdf="http://www.w3.org/1999/02/22-rdf-syntax-ns#">
   <cc:Work>
    <dc:type rdf:resource="http://purl.org/dc/dcmitype/StillImage"/>
    <dc:date>2026-03-29T20:19:51.578568</dc:date>
    <dc:format>image/svg+xml</dc:format>
    <dc:creator>
     <cc:Agent>
      <dc:title>Matplotlib v3.10.7, https://matplotlib.org/</dc:title>
     </cc:Agent>
    </dc:creator>
   </cc:Work>
  </rdf:RDF>
 </metadata>
 <defs>
  <style type="text/css">*{stroke-linejoin: round; stroke-linecap: butt}</style>
 </defs>
 <g id="figure_1">
  <g id="patch_1">
   <path d="M -0 369.4 
L 712.780625 369.4 
L 712.780625 -0 
L -0 -0 
z
" style="fill: #ffffff"/>
  </g>
  <g id="axes_1">
   <g id="patch_2">
    <path d="M 26.240625 252 
L 350.980625 252 
L 350.980625 52.08 
L 26.240625 52.08 
z
" style="fill: #ffffff"/>
   </g>
   <g id="patch_3">
    <path d="M 41.001534 252 
L 46.818641 252 
L 46.818641 190.942135 
L 41.001534 190.942135 
z
" clip-path="url(#p315b9b05c8)" style="fill: #176d9c"/>
   </g>
   <g id="patch_4">
    <path d="M 91.901221 252 
L 97.718328 252 
L 97.718328 207.721585 
L 91.901221 207.721585 
z
" clip-path="url(#p315b9b05c8)" style="fill: #176d9c"/>
   </g>
   <g id="patch_5">
    <path d="M 142.800907 252 
L 148.618014 252 
L 148.618014 201.788399 
L 142.800907 201.788399 
z
" clip-path="url(#p315b9b05c8)" style="fill: #176d9c"/>
   </g>
   <g id="patch_6">
    <path d="M 193.700594 252 
L 199.517701 252 
L 199.517701 187.854271 
L 193.700594 187.854271 
z
" clip-path="url(#p315b9b05c8)" style="fill: #176d9c"/>
   </g>
   <g id="patch_7">
    <path d="M 244.60028 252 
L 250.417387 252 
L 250.417387 144.909984 
L 244.60028 144.909984 
z
" clip-path="url(#p315b9b05c8)" style="fill: #176d9c"/>
   </g>
   <g id="patch_8">
    <path d="M 46.818641 252 
L 52.635748 252 
L 52.635748 252 
L 46.818641 252 
z
" clip-path="url(#p315b9b05c8)" style="fill: #c38820"/>
   </g>
   <g id="patch_9">
    <path d="M 97.718328 252 
L 103.535435 252 
L 103.535435 252 
L 97.718328 252 
z
" clip-path="url(#p315b9b05c8)" style="fill: #c38820"/>
   </g>
   <g id="patch_10">
    <path d="M 148.618014 252 
L 154.435121 252 
L 154.435121 252 
L 148.618014 252 
z
" clip-path="url(#p315b9b05c8)" style="fill: #c38820"/>
   </g>
   <g id="patch_11">
    <path d="M 199.517701 252 
L 205.334808 252 
L 205.334808 252 
L 199.517701 252 
z
" clip-path="url(#p315b9b05c8)" style="fill: #c38820"/>
   </g>
   <g id="patch_12">
    <path d="M 250.417387 252 
L 256.234494 252 
L 256.234494 252 
L 250.417387 252 
z
" clip-path="url(#p315b9b05c8)" style="fill: #c38820"/>
   </g>
   <g id="patch_13">
    <path d="M 52.635748 252 
L 58.452855 252 
L 58.452855 196.033846 
L 52.635748 196.033846 
z
" clip-path="url(#p315b9b05c8)" style="fill: #22723f"/>
   </g>
   <g id="patch_14">
    <path d="M 103.535435 252 
L 109.352542 252 
L 109.352542 148.156383 
L 103.535435 148.156383 
z
" clip-path="url(#p315b9b05c8)" style="fill: #22723f"/>
   </g>
   <g id="patch_15">
    <path d="M 154.435121 252 
L 160.252228 252 
L 160.252228 165.553522 
L 154.435121 165.553522 
z
" clip-path="url(#p315b9b05c8)" style="fill: #22723f"/>
   </g>
   <g id="patch_16">
    <path d="M 205.334808 252 
L 211.151915 252 
L 211.151915 192.026995 
L 205.334808 192.026995 
z
" clip-path="url(#p315b9b05c8)" style="fill: #22723f"/>
   </g>
   <g id="patch_17">
    <path d="M 256.234494 252 
L 262.051601 252 
L 262.051601 206.754908 
L 256.234494 206.754908 
z
" clip-path="url(#p315b9b05c8)" style="fill: #22723f"/>
   </g>
   <g id="patch_18">
    <path d="M 58.452855 252 
L 64.269962 252 
L 64.269962 225.161941 
L 58.452855 225.161941 
z
" clip-path="url(#p315b9b05c8)" style="fill: #58a369"/>
   </g>
   <g id="patch_19">
    <path d="M 109.352542 252 
L 115.169649 252 
L 115.169649 196.349208 
L 109.352542 196.349208 
z
" clip-path="url(#p315b9b05c8)" style="fill: #58a369"/>
   </g>
   <g id="patch_20">
    <path d="M 160.252228 252 
L 166.069335 252 
L 166.069335 211.905273 
L 160.252228 211.905273 
z
" clip-path="url(#p315b9b05c8)" style="fill: #58a369"/>
   </g>
   <g id="patch_21">
    <path d="M 211.151915 252 
L 216.969022 252 
L 216.969022 224.063883 
L 211.151915 224.063883 
z
" clip-path="url(#p315b9b05c8)" style="fill: #58a369"/>
   </g>
   <g id="patch_22">
    <path d="M 262.051601 252 
L 267.868708 252 
L 267.868708 235.999946 
L 262.051601 235.999946 
z
" clip-path="url(#p315b9b05c8)" style="fill: #58a369"/>
   </g>
   <g id="patch_23">
    <path d="M 64.269962 252 
L 70.087069 252 
L 70.087069 194.930188 
L 64.269962 194.930188 
z
" clip-path="url(#p315b9b05c8)" style="fill: #eda791"/>
   </g>
   <g id="patch_24">
    <path d="M 115.169649 252 
L 120.986756 252 
L 120.986756 150.337683 
L 115.169649 150.337683 
z
" clip-path="url(#p315b9b05c8)" style="fill: #eda791"/>
   </g>
   <g id="patch_25">
    <path d="M 166.069335 252 
L 171.886442 252 
L 171.886442 160.761293 
L 166.069335 160.761293 
z
" clip-path="url(#p315b9b05c8)" style="fill: #eda791"/>
   </g>
   <g id="patch_26">
    <path d="M 216.969022 252 
L 222.786129 252 
L 222.786129 191.045501 
L 216.969022 191.045501 
z
" clip-path="url(#p315b9b05c8)" style="fill: #eda791"/>
   </g>
   <g id="patch_27">
    <path d="M 267.868708 252 
L 273.685815 252 
L 273.685815 207.261272 
L 267.868708 207.261272 
z
" clip-path="url(#p315b9b05c8)" style="fill: #eda791"/>
   </g>
   <g id="patch_28">
    <path d="M 70.087069 252 
L 75.904176 252 
L 75.904176 198.537271 
L 70.087069 198.537271 
z
" clip-path="url(#p315b9b05c8)" style="fill: #cb453e"/>
   </g>
   <g id="patch_29">
    <path d="M 120.986756 252 
L 126.803863 252 
L 126.803863 148.169496 
L 120.986756 148.169496 
z
" clip-path="url(#p315b9b05c8)" style="fill: #cb453e"/>
   </g>
   <g id="patch_30">
    <path d="M 171.886442 252 
L 177.703549 252 
L 177.703549 149.965026 
L 171.886442 149.965026 
z
" clip-path="url(#p315b9b05c8)" style="fill: #cb453e"/>
   </g>
   <g id="patch_31">
    <path d="M 222.786129 252 
L 228.603236 252 
L 228.603236 180.213726 
L 222.786129 180.213726 
z
" clip-path="url(#p315b9b05c8)" style="fill: #cb453e"/>
   </g>
   <g id="patch_32">
    <path d="M 273.685815 252 
L 279.502922 252 
L 279.502922 205.28279 
L 273.685815 205.28279 
z
" clip-path="url(#p315b9b05c8)" style="fill: #cb453e"/>
   </g>
   <g id="patch_33">
    <path d="M 75.904176 252 
L 81.721283 252 
L 81.721283 192.659097 
L 75.904176 192.659097 
z
" clip-path="url(#p315b9b05c8)" style="fill: #9d262a"/>
   </g>
   <g id="patch_34">
    <path d="M 126.803863 252 
L 132.62097 252 
L 132.62097 146.189461 
L 126.803863 146.189461 
z
" clip-path="url(#p315b9b05c8)" style="fill: #9d262a"/>
   </g>
   <g id="patch_35">
    <path d="M 177.703549 252 
L 183.520656 252 
L 183.520656 159.329597 
L 177.703549 159.329597 
z
" clip-path="url(#p315b9b05c8)" style="fill: #9d262a"/>
   </g>
   <g id="patch_36">
    <path d="M 228.603236 252 
L 234.420343 252 
L 234.420343 188.687595 
L 228.603236 188.687595 
z
" clip-path="url(#p315b9b05c8)" style="fill: #9d262a"/>
   </g>
   <g id="patch_37">
    <path d="M 279.502922 252 
L 285.320029 252 
L 285.320029 205.032079 
L 279.502922 205.032079 
z
" clip-path="url(#p315b9b05c8)" style="fill: #9d262a"/>
   </g>
   <g id="patch_38">
    <path d="M 61.361409 252 
L 61.361409 252 
L 61.361409 252 
L 61.361409 252 
z
" clip-path="url(#p315b9b05c8)" style="fill: #176d9c"/>
   </g>
   <g id="patch_39">
    <path d="M 61.361409 252 
L 61.361409 252 
L 61.361409 252 
L 61.361409 252 
z
" clip-path="url(#p315b9b05c8)" style="fill: #c38820"/>
   </g>
   <g id="patch_40">
    <path d="M 61.361409 252 
L 61.361409 252 
L 61.361409 252 
L 61.361409 252 
z
" clip-path="url(#p315b9b05c8)" style="fill: #22723f"/>
   </g>
   <g id="patch_41">
    <path d="M 61.361409 252 
L 61.361409 252 
L 61.361409 252 
L 61.361409 252 
z
" clip-path="url(#p315b9b05c8)" style="fill: #58a369"/>
   </g>
   <g id="patch_42">
    <path d="M 61.361409 252 
L 61.361409 252 
L 61.361409 252 
L 61.361409 252 
z
" clip-path="url(#p315b9b05c8)" style="fill: #eda791"/>
   </g>
   <g id="patch_43">
    <path d="M 61.361409 252 
L 61.361409 252 
L 61.361409 252 
L 61.361409 252 
z
" clip-path="url(#p315b9b05c8)" style="fill: #cb453e"/>
   </g>
   <g id="patch_44">
    <path d="M 61.361409 252 
L 61.361409 252 
L 61.361409 252 
L 61.361409 252 
z
" clip-path="url(#p315b9b05c8)" style="fill: #9d262a"/>
   </g>
   <g id="patch_45">
    <path d="M 295.499967 252 
L 301.317074 252 
L 301.317074 186.643275 
L 295.499967 186.643275 
z
" clip-path="url(#p315b9b05c8)" style="fill: #0173b2; opacity: 0.9"/>
   </g>
   <g id="patch_46">
    <path d="M 301.317074 252 
L 307.134181 252 
L 307.134181 252 
L 301.317074 252 
z
" clip-path="url(#p315b9b05c8)" style="fill: #de8f05; opacity: 0.9"/>
   </g>
   <g id="patch_47">
    <path d="M 307.134181 252 
L 312.951288 252 
L 312.951288 181.705131 
L 307.134181 181.705131 
z
" clip-path="url(#p315b9b05c8)" style="fill: #157f3b; opacity: 0.9"/>
   </g>
   <g id="patch_48">
    <path d="M 312.951288 252 
L 318.768395 252 
L 318.768395 218.69605 
L 312.951288 218.69605 
z
" clip-path="url(#p315b9b05c8)" style="fill: #4bb062; opacity: 0.9"/>
   </g>
   <g id="patch_49">
    <path d="M 318.768395 252 
L 324.585502 252 
L 324.585502 180.867187 
L 318.768395 180.867187 
z
" clip-path="url(#p315b9b05c8)" style="fill: #fca082; opacity: 0.9"/>
   </g>
   <g id="patch_50">
    <path d="M 324.585502 252 
L 330.402609 252 
L 330.402609 176.433662 
L 324.585502 176.433662 
z
" clip-path="url(#p315b9b05c8)" style="fill: #e32f27; opacity: 0.9"/>
   </g>
   <g id="patch_51">
    <path d="M 330.402609 252 
L 336.219716 252 
L 336.219716 178.379566 
L 330.402609 178.379566 
z
" clip-path="url(#p315b9b05c8)" style="fill: #b11218; opacity: 0.9"/>
   </g>
   <g id="matplotlib.axis_1">
    <g id="xtick_1">
     <g id="line2d_1">
      <defs>
       <path id="m87e954406e" d="M 0 0 
L 0 3.5 
" style="stroke: #000000; stroke-width: 0.8"/>
      </defs>
      <g>
       <use xlink:href="#m87e954406e" x="61.361409" y="252" style="stroke: #000000; stroke-width: 0.8"/>
      </g>
     </g>
     <g id="text_1">
      <!-- Endothelial -->
      <g transform="translate(39.917843 311.237513) rotate(-45) scale(0.1 -0.1)">
       <defs>
        <path id="DejaVuSansMono-45" d="M 616 4666 
L 3384 4666 
L 3384 4134 
L 1247 4134 
L 1247 2753 
L 3291 2753 
L 3291 2222 
L 1247 2222 
L 1247 531 
L 3444 531 
L 3444 0 
L 616 0 
L 616 4666 
z
" transform="scale(0.015625)"/>
        <path id="DejaVuSansMono-6e" d="M 3284 2169 
L 3284 0 
L 2706 0 
L 2706 2169 
Q 2706 2641 2540 2862 
Q 2375 3084 2022 3084 
Q 1619 3084 1401 2798 
Q 1184 2513 1184 1978 
L 1184 0 
L 609 0 
L 609 3500 
L 1184 3500 
L 1184 2975 
Q 1338 3275 1600 3429 
Q 1863 3584 2222 3584 
Q 2756 3584 3020 3232 
Q 3284 2881 3284 2169 
z
" transform="scale(0.015625)"/>
        <path id="DejaVuSansMono-64" d="M 2681 3053 
L 2681 4863 
L 3256 4863 
L 3256 0 
L 2681 0 
L 2681 441 
Q 2538 181 2298 45 
Q 2059 -91 1747 -91 
Q 1113 -91 748 401 
Q 384 894 384 1759 
Q 384 2613 750 3098 
Q 1116 3584 1747 3584 
Q 2063 3584 2303 3448 
Q 2544 3313 2681 3053 
z
M 991 1747 
Q 991 1078 1203 737 
Q 1416 397 1831 397 
Q 2247 397 2464 740 
Q 2681 1084 2681 1747 
Q 2681 2413 2464 2755 
Q 2247 3097 1831 3097 
Q 1416 3097 1203 2756 
Q 991 2416 991 1747 
z
" transform="scale(0.015625)"/>
        <path id="DejaVuSansMono-6f" d="M 1925 3097 
Q 1488 3097 1263 2756 
Q 1038 2416 1038 1747 
Q 1038 1081 1263 739 
Q 1488 397 1925 397 
Q 2366 397 2591 739 
Q 2816 1081 2816 1747 
Q 2816 2416 2591 2756 
Q 2366 3097 1925 3097 
z
M 1925 3584 
Q 2653 3584 3039 3112 
Q 3425 2641 3425 1747 
Q 3425 850 3040 379 
Q 2656 -91 1925 -91 
Q 1197 -91 812 379 
Q 428 850 428 1747 
Q 428 2641 812 3112 
Q 1197 3584 1925 3584 
z
" transform="scale(0.015625)"/>
        <path id="DejaVuSansMono-74" d="M 1919 4494 
L 1919 3500 
L 3225 3500 
L 3225 3053 
L 1919 3053 
L 1919 1153 
Q 1919 766 2066 612 
Q 2213 459 2578 459 
L 3225 459 
L 3225 0 
L 2522 0 
Q 1875 0 1609 259 
Q 1344 519 1344 1153 
L 1344 3053 
L 409 3053 
L 409 3500 
L 1344 3500 
L 1344 4494 
L 1919 4494 
z
" transform="scale(0.015625)"/>
        <path id="DejaVuSansMono-68" d="M 3284 2169 
L 3284 0 
L 2706 0 
L 2706 2169 
Q 2706 2641 2540 2862 
Q 2375 3084 2022 3084 
Q 1619 3084 1401 2798 
Q 1184 2513 1184 1978 
L 1184 0 
L 609 0 
L 609 4863 
L 1184 4863 
L 1184 2975 
Q 1338 3275 1600 3429 
Q 1863 3584 2222 3584 
Q 2756 3584 3020 3232 
Q 3284 2881 3284 2169 
z
" transform="scale(0.015625)"/>
        <path id="DejaVuSansMono-65" d="M 3475 1894 
L 3475 1613 
L 984 1613 
L 984 1594 
Q 984 1022 1282 709 
Q 1581 397 2125 397 
Q 2400 397 2700 484 
Q 3000 572 3341 750 
L 3341 178 
Q 3013 44 2708 -23 
Q 2403 -91 2119 -91 
Q 1303 -91 843 398 
Q 384 888 384 1747 
Q 384 2584 834 3084 
Q 1284 3584 2034 3584 
Q 2703 3584 3089 3131 
Q 3475 2678 3475 1894 
z
M 2900 2063 
Q 2888 2569 2661 2833 
Q 2434 3097 2009 3097 
Q 1594 3097 1325 2822 
Q 1056 2547 1006 2059 
L 2900 2063 
z
" transform="scale(0.015625)"/>
        <path id="DejaVuSansMono-6c" d="M 1997 1269 
Q 1997 881 2139 684 
Q 2281 488 2559 488 
L 3231 488 
L 3231 0 
L 2503 0 
Q 1988 0 1705 331 
Q 1422 663 1422 1269 
L 1422 4447 
L 500 4447 
L 500 4897 
L 1997 4897 
L 1997 1269 
z
" transform="scale(0.015625)"/>
        <path id="DejaVuSansMono-69" d="M 800 3500 
L 2272 3500 
L 2272 447 
L 3413 447 
L 3413 0 
L 556 0 
L 556 447 
L 1697 447 
L 1697 3053 
L 800 3053 
L 800 3500 
z
M 1697 4863 
L 2272 4863 
L 2272 4134 
L 1697 4134 
L 1697 4863 
z
" transform="scale(0.015625)"/>
        <path id="DejaVuSansMono-61" d="M 2194 1759 
L 2003 1759 
Q 1500 1759 1245 1582 
Q 991 1406 991 1056 
Q 991 741 1181 566 
Q 1372 391 1709 391 
Q 2184 391 2456 720 
Q 2728 1050 2731 1631 
L 2731 1759 
L 2194 1759 
z
M 3309 1997 
L 3309 0 
L 2731 0 
L 2731 519 
Q 2547 206 2267 57 
Q 1988 -91 1588 -91 
Q 1053 -91 734 211 
Q 416 513 416 1019 
Q 416 1603 808 1906 
Q 1200 2209 1959 2209 
L 2731 2209 
L 2731 2300 
Q 2728 2719 2518 2908 
Q 2309 3097 1850 3097 
Q 1556 3097 1256 3012 
Q 956 2928 672 2766 
L 672 3341 
Q 991 3463 1283 3523 
Q 1575 3584 1850 3584 
Q 2284 3584 2592 3456 
Q 2900 3328 3091 3072 
Q 3209 2916 3259 2686 
Q 3309 2456 3309 1997 
z
" transform="scale(0.015625)"/>
       </defs>
       <use xlink:href="#DejaVuSansMono-45"/>
       <use xlink:href="#DejaVuSansMono-6e" transform="translate(60.205078 0)"/>
       <use xlink:href="#DejaVuSansMono-64" transform="translate(120.410156 0)"/>
       <use xlink:href="#DejaVuSansMono-6f" transform="translate(180.615234 0)"/>
       <use xlink:href="#DejaVuSansMono-74" transform="translate(240.820312 0)"/>
       <use xlink:href="#DejaVuSansMono-68" transform="translate(301.025391 0)"/>
       <use xlink:href="#DejaVuSansMono-65" transform="translate(361.230469 0)"/>
       <use xlink:href="#DejaVuSansMono-6c" transform="translate(421.435547 0)"/>
       <use xlink:href="#DejaVuSansMono-69" transform="translate(481.640625 0)"/>
       <use xlink:href="#DejaVuSansMono-61" transform="translate(541.845703 0)"/>
       <use xlink:href="#DejaVuSansMono-6c" transform="translate(602.050781 0)"/>
      </g>
     </g>
    </g>
    <g id="xtick_2">
     <g id="line2d_2">
      <g>
       <use xlink:href="#m87e954406e" x="112.261095" y="252" style="stroke: #000000; stroke-width: 0.8"/>
      </g>
     </g>
     <g id="text_2">
      <!-- Epithelial -->
      <g transform="translate(92.946032 306.98051) rotate(-45) scale(0.1 -0.1)">
       <defs>
        <path id="DejaVuSansMono-70" d="M 1172 441 
L 1172 -1331 
L 594 -1331 
L 594 3500 
L 1172 3500 
L 1172 3053 
Q 1316 3313 1555 3448 
Q 1794 3584 2106 3584 
Q 2741 3584 3102 3093 
Q 3463 2603 3463 1734 
Q 3463 881 3100 395 
Q 2738 -91 2106 -91 
Q 1788 -91 1548 45 
Q 1309 181 1172 441 
z
M 2859 1747 
Q 2859 2416 2648 2756 
Q 2438 3097 2022 3097 
Q 1603 3097 1387 2755 
Q 1172 2413 1172 1747 
Q 1172 1084 1387 740 
Q 1603 397 2022 397 
Q 2438 397 2648 737 
Q 2859 1078 2859 1747 
z
" transform="scale(0.015625)"/>
       </defs>
       <use xlink:href="#DejaVuSansMono-45"/>
       <use xlink:href="#DejaVuSansMono-70" transform="translate(60.205078 0)"/>
       <use xlink:href="#DejaVuSansMono-69" transform="translate(120.410156 0)"/>
       <use xlink:href="#DejaVuSansMono-74" transform="translate(180.615234 0)"/>
       <use xlink:href="#DejaVuSansMono-68" transform="translate(240.820312 0)"/>
       <use xlink:href="#DejaVuSansMono-65" transform="translate(301.025391 0)"/>
       <use xlink:href="#DejaVuSansMono-6c" transform="translate(361.230469 0)"/>
       <use xlink:href="#DejaVuSansMono-69" transform="translate(421.435547 0)"/>
       <use xlink:href="#DejaVuSansMono-61" transform="translate(481.640625 0)"/>
       <use xlink:href="#DejaVuSansMono-6c" transform="translate(541.845703 0)"/>
      </g>
     </g>
    </g>
    <g id="xtick_3">
     <g id="line2d_3">
      <g>
       <use xlink:href="#m87e954406e" x="163.160782" y="252" style="stroke: #000000; stroke-width: 0.8"/>
      </g>
     </g>
     <g id="text_3">
      <!-- Fibroblast -->
      <g transform="translate(143.845718 306.98051) rotate(-45) scale(0.1 -0.1)">
       <defs>
        <path id="DejaVuSansMono-46" d="M 728 4666 
L 3475 4666 
L 3475 4134 
L 1363 4134 
L 1363 2759 
L 3278 2759 
L 3278 2228 
L 1363 2228 
L 1363 0 
L 728 0 
L 728 4666 
z
" transform="scale(0.015625)"/>
        <path id="DejaVuSansMono-62" d="M 2869 1747 
Q 2869 2416 2656 2756 
Q 2444 3097 2028 3097 
Q 1609 3097 1393 2755 
Q 1178 2413 1178 1747 
Q 1178 1084 1393 740 
Q 1609 397 2028 397 
Q 2444 397 2656 737 
Q 2869 1078 2869 1747 
z
M 1178 3053 
Q 1316 3309 1558 3446 
Q 1800 3584 2119 3584 
Q 2750 3584 3112 3098 
Q 3475 2613 3475 1759 
Q 3475 894 3111 401 
Q 2747 -91 2113 -91 
Q 1800 -91 1561 45 
Q 1322 181 1178 441 
L 1178 0 
L 603 0 
L 603 4863 
L 1178 4863 
L 1178 3053 
z
" transform="scale(0.015625)"/>
        <path id="DejaVuSansMono-72" d="M 3609 2778 
Q 3425 2922 3234 2987 
Q 3044 3053 2816 3053 
Q 2278 3053 1993 2715 
Q 1709 2378 1709 1741 
L 1709 0 
L 1131 0 
L 1131 3500 
L 1709 3500 
L 1709 2816 
Q 1853 3188 2151 3386 
Q 2450 3584 2859 3584 
Q 3072 3584 3256 3531 
Q 3441 3478 3609 3366 
L 3609 2778 
z
" transform="scale(0.015625)"/>
        <path id="DejaVuSansMono-73" d="M 3041 3378 
L 3041 2816 
Q 2794 2959 2544 3031 
Q 2294 3103 2034 3103 
Q 1644 3103 1451 2976 
Q 1259 2850 1259 2591 
Q 1259 2356 1403 2240 
Q 1547 2125 2119 2016 
L 2350 1972 
Q 2778 1891 2998 1647 
Q 3219 1403 3219 1013 
Q 3219 494 2850 201 
Q 2481 -91 1825 -91 
Q 1566 -91 1281 -36 
Q 997 19 666 128 
L 666 722 
Q 988 556 1281 473 
Q 1575 391 1838 391 
Q 2219 391 2428 545 
Q 2638 700 2638 978 
Q 2638 1378 1872 1531 
L 1847 1538 
L 1631 1581 
Q 1134 1678 906 1908 
Q 678 2138 678 2534 
Q 678 3038 1018 3311 
Q 1359 3584 1991 3584 
Q 2272 3584 2531 3532 
Q 2791 3481 3041 3378 
z
" transform="scale(0.015625)"/>
       </defs>
       <use xlink:href="#DejaVuSansMono-46"/>
       <use xlink:href="#DejaVuSansMono-69" transform="translate(60.205078 0)"/>
       <use xlink:href="#DejaVuSansMono-62" transform="translate(120.410156 0)"/>
       <use xlink:href="#DejaVuSansMono-72" transform="translate(180.615234 0)"/>
       <use xlink:href="#DejaVuSansMono-6f" transform="translate(240.820312 0)"/>
       <use xlink:href="#DejaVuSansMono-62" transform="translate(301.025391 0)"/>
       <use xlink:href="#DejaVuSansMono-6c" transform="translate(361.230469 0)"/>
       <use xlink:href="#DejaVuSansMono-61" transform="translate(421.435547 0)"/>
       <use xlink:href="#DejaVuSansMono-73" transform="translate(481.640625 0)"/>
       <use xlink:href="#DejaVuSansMono-74" transform="translate(541.845703 0)"/>
      </g>
     </g>
    </g>
    <g id="xtick_4">
     <g id="line2d_4">
      <g>
       <use xlink:href="#m87e954406e" x="214.060468" y="252" style="stroke: #000000; stroke-width: 0.8"/>
      </g>
     </g>
     <g id="text_4">
      <!-- Myeloid -->
      <g transform="translate(201.13091 294.209498) rotate(-45) scale(0.1 -0.1)">
       <defs>
        <path id="DejaVuSansMono-4d" d="M 269 4666 
L 1113 4666 
L 1919 2291 
L 2731 4666 
L 3578 4666 
L 3578 0 
L 2994 0 
L 2994 4122 
L 2163 1663 
L 1684 1663 
L 850 4122 
L 850 0 
L 269 0 
L 269 4666 
z
" transform="scale(0.015625)"/>
        <path id="DejaVuSansMono-79" d="M 2681 1125 
Q 2538 759 2316 163 
Q 2006 -663 1900 -844 
Q 1756 -1088 1540 -1209 
Q 1325 -1331 1038 -1331 
L 575 -1331 
L 575 -850 
L 916 -850 
Q 1169 -850 1312 -703 
Q 1456 -556 1678 56 
L 325 3500 
L 934 3500 
L 1972 763 
L 2994 3500 
L 3603 3500 
L 2681 1125 
z
" transform="scale(0.015625)"/>
       </defs>
       <use xlink:href="#DejaVuSansMono-4d"/>
       <use xlink:href="#DejaVuSansMono-79" transform="translate(60.205078 0)"/>
       <use xlink:href="#DejaVuSansMono-65" transform="translate(120.410156 0)"/>
       <use xlink:href="#DejaVuSansMono-6c" transform="translate(180.615234 0)"/>
       <use xlink:href="#DejaVuSansMono-6f" transform="translate(240.820312 0)"/>
       <use xlink:href="#DejaVuSansMono-69" transform="translate(301.025391 0)"/>
       <use xlink:href="#DejaVuSansMono-64" transform="translate(361.230469 0)"/>
      </g>
     </g>
    </g>
    <g id="xtick_5">
     <g id="line2d_5">
      <g>
       <use xlink:href="#m87e954406e" x="264.960155" y="252" style="stroke: #000000; stroke-width: 0.8"/>
      </g>
     </g>
     <g id="text_5">
      <!-- T_cell -->
      <g transform="translate(254.060767 289.952494) rotate(-45) scale(0.1 -0.1)">
       <defs>
        <path id="DejaVuSansMono-54" d="M 147 4666 
L 3706 4666 
L 3706 4134 
L 2247 4134 
L 2247 0 
L 1613 0 
L 1613 4134 
L 147 4134 
L 147 4666 
z
" transform="scale(0.015625)"/>
        <path id="DejaVuSansMono-5f" d="M 3853 -1259 
L 3853 -1509 
L 0 -1509 
L 0 -1259 
L 3853 -1259 
z
" transform="scale(0.015625)"/>
        <path id="DejaVuSansMono-63" d="M 3316 178 
Q 3084 44 2839 -23 
Q 2594 -91 2338 -91 
Q 1525 -91 1067 396 
Q 609 884 609 1747 
Q 609 2609 1067 3096 
Q 1525 3584 2338 3584 
Q 2591 3584 2831 3518 
Q 3072 3453 3316 3316 
L 3316 2713 
Q 3088 2916 2858 3006 
Q 2628 3097 2338 3097 
Q 1797 3097 1506 2747 
Q 1216 2397 1216 1747 
Q 1216 1100 1508 748 
Q 1800 397 2338 397 
Q 2638 397 2875 489 
Q 3113 581 3316 775 
L 3316 178 
z
" transform="scale(0.015625)"/>
       </defs>
       <use xlink:href="#DejaVuSansMono-54"/>
       <use xlink:href="#DejaVuSansMono-5f" transform="translate(60.205078 0)"/>
       <use xlink:href="#DejaVuSansMono-63" transform="translate(120.410156 0)"/>
       <use xlink:href="#DejaVuSansMono-65" transform="translate(180.615234 0)"/>
       <use xlink:href="#DejaVuSansMono-6c" transform="translate(240.820312 0)"/>
       <use xlink:href="#DejaVuSansMono-6c" transform="translate(301.025391 0)"/>
      </g>
     </g>
    </g>
    <g id="xtick_6">
     <g id="line2d_6">
      <g>
       <use xlink:href="#m87e954406e" x="315.859841" y="252" style="stroke: #000000; stroke-width: 0.8"/>
      </g>
     </g>
     <g id="text_6">
      <!-- Average -->
      <g transform="translate(302.88167 294.160885) rotate(-45) scale(0.1 -0.1)">
       <defs>
        <path id="DejaVuSansMono-41" d="M 1925 4109 
L 1259 1722 
L 2591 1722 
L 1925 4109 
z
M 1544 4666 
L 2309 4666 
L 3738 0 
L 3084 0 
L 2741 1216 
L 1106 1216 
L 769 0 
L 116 0 
L 1544 4666 
z
" transform="scale(0.015625)"/>
        <path id="DejaVuSansMono-76" d="M 313 3500 
L 909 3500 
L 1925 563 
L 2944 3500 
L 3541 3500 
L 2297 0 
L 1556 0 
L 313 3500 
z
" transform="scale(0.015625)"/>
        <path id="DejaVuSansMono-67" d="M 2681 1778 
Q 2681 2425 2470 2761 
Q 2259 3097 1856 3097 
Q 1434 3097 1212 2761 
Q 991 2425 991 1778 
Q 991 1131 1214 792 
Q 1438 453 1863 453 
Q 2259 453 2470 793 
Q 2681 1134 2681 1778 
z
M 3256 225 
Q 3256 -563 2884 -969 
Q 2513 -1375 1791 -1375 
Q 1553 -1375 1293 -1331 
Q 1034 -1288 775 -1203 
L 775 -634 
Q 1081 -778 1331 -847 
Q 1581 -916 1791 -916 
Q 2256 -916 2468 -662 
Q 2681 -409 2681 141 
L 2681 166 
L 2681 556 
Q 2544 263 2306 119 
Q 2069 -25 1728 -25 
Q 1116 -25 750 465 
Q 384 956 384 1778 
Q 384 2603 750 3093 
Q 1116 3584 1728 3584 
Q 2066 3584 2300 3450 
Q 2534 3316 2681 3034 
L 2681 3488 
L 3256 3488 
L 3256 225 
z
" transform="scale(0.015625)"/>
       </defs>
       <use xlink:href="#DejaVuSansMono-41"/>
       <use xlink:href="#DejaVuSansMono-76" transform="translate(60.205078 0)"/>
       <use xlink:href="#DejaVuSansMono-65" transform="translate(120.410156 0)"/>
       <use xlink:href="#DejaVuSansMono-72" transform="translate(180.615234 0)"/>
       <use xlink:href="#DejaVuSansMono-61" transform="translate(240.820312 0)"/>
       <use xlink:href="#DejaVuSansMono-67" transform="translate(301.025391 0)"/>
       <use xlink:href="#DejaVuSansMono-65" transform="translate(361.230469 0)"/>
      </g>
     </g>
    </g>
   </g>
   <g id="matplotlib.axis_2">
    <g id="ytick_1">
     <g id="line2d_7">
      <defs>
       <path id="m7fe43f3e4c" d="M 0 0 
L -3.5 0 
" style="stroke: #000000; stroke-width: 0.8"/>
      </defs>
      <g>
       <use xlink:href="#m7fe43f3e4c" x="26.240625" y="252" style="stroke: #000000; stroke-width: 0.8"/>
      </g>
     </g>
     <g id="text_7">
      <!-- 0 -->
      <g transform="translate(13.220313 255.825781) scale(0.1 -0.1)">
       <defs>
        <path id="DejaVuSansMono-30" d="M 1509 2344 
Q 1509 2516 1629 2641 
Q 1750 2766 1919 2766 
Q 2094 2766 2219 2641 
Q 2344 2516 2344 2344 
Q 2344 2169 2220 2047 
Q 2097 1925 1919 1925 
Q 1744 1925 1626 2044 
Q 1509 2163 1509 2344 
z
M 1925 4250 
Q 1484 4250 1267 3775 
Q 1050 3300 1050 2328 
Q 1050 1359 1267 884 
Q 1484 409 1925 409 
Q 2369 409 2586 884 
Q 2803 1359 2803 2328 
Q 2803 3300 2586 3775 
Q 2369 4250 1925 4250 
z
M 1925 4750 
Q 2672 4750 3055 4137 
Q 3438 3525 3438 2328 
Q 3438 1134 3055 521 
Q 2672 -91 1925 -91 
Q 1178 -91 797 521 
Q 416 1134 416 2328 
Q 416 3525 797 4137 
Q 1178 4750 1925 4750 
z
" transform="scale(0.015625)"/>
       </defs>
       <use xlink:href="#DejaVuSansMono-30"/>
      </g>
     </g>
    </g>
    <g id="ytick_2">
     <g id="line2d_8">
      <g>
       <use xlink:href="#m7fe43f3e4c" x="26.240625" y="210.179129" style="stroke: #000000; stroke-width: 0.8"/>
      </g>
     </g>
     <g id="text_8">
      <!-- 5 -->
      <g transform="translate(13.220313 214.004911) scale(0.1 -0.1)">
       <defs>
        <path id="DejaVuSansMono-35" d="M 647 4666 
L 3009 4666 
L 3009 4134 
L 1222 4134 
L 1222 2988 
Q 1356 3038 1492 3061 
Q 1628 3084 1766 3084 
Q 2491 3084 2916 2656 
Q 3341 2228 3341 1497 
Q 3341 759 2895 334 
Q 2450 -91 1678 -91 
Q 1306 -91 998 -41 
Q 691 9 447 109 
L 447 750 
Q 734 594 1025 517 
Q 1316 441 1619 441 
Q 2141 441 2423 716 
Q 2706 991 2706 1497 
Q 2706 1997 2414 2275 
Q 2122 2553 1600 2553 
Q 1347 2553 1106 2495 
Q 866 2438 647 2322 
L 647 4666 
z
" transform="scale(0.015625)"/>
       </defs>
       <use xlink:href="#DejaVuSansMono-35"/>
      </g>
     </g>
    </g>
    <g id="ytick_3">
     <g id="line2d_9">
      <g>
       <use xlink:href="#m7fe43f3e4c" x="26.240625" y="168.358259" style="stroke: #000000; stroke-width: 0.8"/>
      </g>
     </g>
     <g id="text_9">
      <!-- 10 -->
      <g transform="translate(7.2 172.18404) scale(0.1 -0.1)">
       <defs>
        <path id="DejaVuSansMono-31" d="M 844 531 
L 1825 531 
L 1825 4097 
L 769 3859 
L 769 4434 
L 1819 4666 
L 2450 4666 
L 2450 531 
L 3419 531 
L 3419 0 
L 844 0 
L 844 531 
z
" transform="scale(0.015625)"/>
       </defs>
       <use xlink:href="#DejaVuSansMono-31"/>
       <use xlink:href="#DejaVuSansMono-30" transform="translate(60.205078 0)"/>
      </g>
     </g>
    </g>
    <g id="ytick_4">
     <g id="line2d_10">
      <g>
       <use xlink:href="#m7fe43f3e4c" x="26.240625" y="126.537388" style="stroke: #000000; stroke-width: 0.8"/>
      </g>
     </g>
     <g id="text_10">
      <!-- 15 -->
      <g transform="translate(7.2 130.363169) scale(0.1 -0.1)">
       <use xlink:href="#DejaVuSansMono-31"/>
       <use xlink:href="#DejaVuSansMono-35" transform="translate(60.205078 0)"/>
      </g>
     </g>
    </g>
    <g id="ytick_5">
     <g id="line2d_11">
      <g>
       <use xlink:href="#m7fe43f3e4c" x="26.240625" y="84.716517" style="stroke: #000000; stroke-width: 0.8"/>
      </g>
     </g>
     <g id="text_11">
      <!-- 20 -->
      <g transform="translate(7.2 88.542298) scale(0.1 -0.1)">
       <defs>
        <path id="DejaVuSansMono-32" d="M 1166 531 
L 3309 531 
L 3309 0 
L 475 0 
L 475 531 
Q 1059 1147 1496 1619 
Q 1934 2091 2100 2284 
Q 2413 2666 2522 2902 
Q 2631 3138 2631 3384 
Q 2631 3775 2401 3997 
Q 2172 4219 1772 4219 
Q 1488 4219 1175 4116 
Q 863 4013 513 3803 
L 513 4441 
Q 834 4594 1145 4672 
Q 1456 4750 1759 4750 
Q 2444 4750 2861 4386 
Q 3278 4022 3278 3431 
Q 3278 3131 3139 2831 
Q 3000 2531 2688 2169 
Q 2513 1966 2180 1606 
Q 1847 1247 1166 531 
z
" transform="scale(0.015625)"/>
       </defs>
       <use xlink:href="#DejaVuSansMono-32"/>
       <use xlink:href="#DejaVuSansMono-30" transform="translate(60.205078 0)"/>
      </g>
     </g>
    </g>
   </g>
   <g id="line2d_12">
    <path d="M 43.910088 202.002374 
L 43.910088 179.881897 
" clip-path="url(#p315b9b05c8)" style="fill: none; stroke: #424242; stroke-width: 2.25; stroke-linecap: square"/>
   </g>
   <g id="line2d_13">
    <path d="M 94.809774 215.309828 
L 94.809774 200.133342 
" clip-path="url(#p315b9b05c8)" style="fill: none; stroke: #424242; stroke-width: 2.25; stroke-linecap: square"/>
   </g>
   <g id="line2d_14">
    <path d="M 145.709461 210.169507 
L 145.709461 193.407291 
" clip-path="url(#p315b9b05c8)" style="fill: none; stroke: #424242; stroke-width: 2.25; stroke-linecap: square"/>
   </g>
   <g id="line2d_15">
    <path d="M 196.609147 198.115036 
L 196.609147 177.593507 
" clip-path="url(#p315b9b05c8)" style="fill: none; stroke: #424242; stroke-width: 2.25; stroke-linecap: square"/>
   </g>
   <g id="line2d_16">
    <path d="M 247.508834 163.291368 
L 247.508834 126.528601 
" clip-path="url(#p315b9b05c8)" style="fill: none; stroke: #424242; stroke-width: 2.25; stroke-linecap: square"/>
   </g>
   <g id="line2d_17">
    <path d="M 49.727195 252 
L 49.727195 252 
" clip-path="url(#p315b9b05c8)" style="fill: none; stroke: #424242; stroke-width: 2.25; stroke-linecap: square"/>
   </g>
   <g id="line2d_18">
    <path d="M 100.626881 252 
L 100.626881 252 
" clip-path="url(#p315b9b05c8)" style="fill: none; stroke: #424242; stroke-width: 2.25; stroke-linecap: square"/>
   </g>
   <g id="line2d_19">
    <path d="M 151.526568 252 
L 151.526568 252 
" clip-path="url(#p315b9b05c8)" style="fill: none; stroke: #424242; stroke-width: 2.25; stroke-linecap: square"/>
   </g>
   <g id="line2d_20">
    <path d="M 202.426254 252 
L 202.426254 252 
" clip-path="url(#p315b9b05c8)" style="fill: none; stroke: #424242; stroke-width: 2.25; stroke-linecap: square"/>
   </g>
   <g id="line2d_21">
    <path d="M 253.325941 252 
L 253.325941 252 
" clip-path="url(#p315b9b05c8)" style="fill: none; stroke: #424242; stroke-width: 2.25; stroke-linecap: square"/>
   </g>
   <g id="line2d_22">
    <path d="M 55.544302 204.23003 
L 55.544302 187.837663 
" clip-path="url(#p315b9b05c8)" style="fill: none; stroke: #424242; stroke-width: 2.25; stroke-linecap: square"/>
   </g>
   <g id="line2d_23">
    <path d="M 106.443988 157.609365 
L 106.443988 138.703402 
" clip-path="url(#p315b9b05c8)" style="fill: none; stroke: #424242; stroke-width: 2.25; stroke-linecap: square"/>
   </g>
   <g id="line2d_24">
    <path d="M 157.343675 174.441247 
L 157.343675 156.665797 
" clip-path="url(#p315b9b05c8)" style="fill: none; stroke: #424242; stroke-width: 2.25; stroke-linecap: square"/>
   </g>
   <g id="line2d_25">
    <path d="M 208.243361 199.311087 
L 208.243361 184.742904 
" clip-path="url(#p315b9b05c8)" style="fill: none; stroke: #424242; stroke-width: 2.25; stroke-linecap: square"/>
   </g>
   <g id="line2d_26">
    <path d="M 259.143048 212.119672 
L 259.143048 201.390144 
" clip-path="url(#p315b9b05c8)" style="fill: none; stroke: #424242; stroke-width: 2.25; stroke-linecap: square"/>
   </g>
   <g id="line2d_27">
    <path d="M 61.361409 235.639134 
L 61.361409 214.684748 
" clip-path="url(#p315b9b05c8)" style="fill: none; stroke: #424242; stroke-width: 2.25; stroke-linecap: square"/>
   </g>
   <g id="line2d_28">
    <path d="M 112.261095 211.56602 
L 112.261095 181.132396 
" clip-path="url(#p315b9b05c8)" style="fill: none; stroke: #424242; stroke-width: 2.25; stroke-linecap: square"/>
   </g>
   <g id="line2d_29">
    <path d="M 163.160782 225.862366 
L 163.160782 197.948179 
" clip-path="url(#p315b9b05c8)" style="fill: none; stroke: #424242; stroke-width: 2.25; stroke-linecap: square"/>
   </g>
   <g id="line2d_30">
    <path d="M 214.060468 232.067287 
L 214.060468 216.06048 
" clip-path="url(#p315b9b05c8)" style="fill: none; stroke: #424242; stroke-width: 2.25; stroke-linecap: square"/>
   </g>
   <g id="line2d_31">
    <path d="M 264.960155 239.892127 
L 264.960155 232.107765 
" clip-path="url(#p315b9b05c8)" style="fill: none; stroke: #424242; stroke-width: 2.25; stroke-linecap: square"/>
   </g>
   <g id="line2d_32">
    <path d="M 67.178516 202.779543 
L 67.178516 187.080832 
" clip-path="url(#p315b9b05c8)" style="fill: none; stroke: #424242; stroke-width: 2.25; stroke-linecap: square"/>
   </g>
   <g id="line2d_33">
    <path d="M 118.078202 159.53353 
L 118.078202 141.141837 
" clip-path="url(#p315b9b05c8)" style="fill: none; stroke: #424242; stroke-width: 2.25; stroke-linecap: square"/>
   </g>
   <g id="line2d_34">
    <path d="M 168.977889 169.93624 
L 168.977889 151.586346 
" clip-path="url(#p315b9b05c8)" style="fill: none; stroke: #424242; stroke-width: 2.25; stroke-linecap: square"/>
   </g>
   <g id="line2d_35">
    <path d="M 219.877575 198.568729 
L 219.877575 183.522274 
" clip-path="url(#p315b9b05c8)" style="fill: none; stroke: #424242; stroke-width: 2.25; stroke-linecap: square"/>
   </g>
   <g id="line2d_36">
    <path d="M 270.777262 212.728546 
L 270.777262 201.793997 
" clip-path="url(#p315b9b05c8)" style="fill: none; stroke: #424242; stroke-width: 2.25; stroke-linecap: square"/>
   </g>
   <g id="line2d_37">
    <path d="M 72.995623 205.541867 
L 72.995623 191.532675 
" clip-path="url(#p315b9b05c8)" style="fill: none; stroke: #424242; stroke-width: 2.25; stroke-linecap: square"/>
   </g>
   <g id="line2d_38">
    <path d="M 123.895309 163.211978 
L 123.895309 133.127014 
" clip-path="url(#p315b9b05c8)" style="fill: none; stroke: #424242; stroke-width: 2.25; stroke-linecap: square"/>
   </g>
   <g id="line2d_39">
    <path d="M 174.794996 166.727145 
L 174.794996 133.202907 
" clip-path="url(#p315b9b05c8)" style="fill: none; stroke: #424242; stroke-width: 2.25; stroke-linecap: square"/>
   </g>
   <g id="line2d_40">
    <path d="M 225.694682 196.880707 
L 225.694682 163.546745 
" clip-path="url(#p315b9b05c8)" style="fill: none; stroke: #424242; stroke-width: 2.25; stroke-linecap: square"/>
   </g>
   <g id="line2d_41">
    <path d="M 276.594369 216.773149 
L 276.594369 193.792432 
" clip-path="url(#p315b9b05c8)" style="fill: none; stroke: #424242; stroke-width: 2.25; stroke-linecap: square"/>
   </g>
   <g id="line2d_42">
    <path d="M 78.81273 200.377182 
L 78.81273 184.941012 
" clip-path="url(#p315b9b05c8)" style="fill: none; stroke: #424242; stroke-width: 2.25; stroke-linecap: square"/>
   </g>
   <g id="line2d_43">
    <path d="M 129.712416 156.041954 
L 129.712416 136.336967 
" clip-path="url(#p315b9b05c8)" style="fill: none; stroke: #424242; stroke-width: 2.25; stroke-linecap: square"/>
   </g>
   <g id="line2d_44">
    <path d="M 180.612103 168.537478 
L 180.612103 150.121715 
" clip-path="url(#p315b9b05c8)" style="fill: none; stroke: #424242; stroke-width: 2.25; stroke-linecap: square"/>
   </g>
   <g id="line2d_45">
    <path d="M 231.511789 196.208886 
L 231.511789 181.166304 
" clip-path="url(#p315b9b05c8)" style="fill: none; stroke: #424242; stroke-width: 2.25; stroke-linecap: square"/>
   </g>
   <g id="line2d_46">
    <path d="M 282.411476 210.242622 
L 282.411476 199.821536 
" clip-path="url(#p315b9b05c8)" style="fill: none; stroke: #424242; stroke-width: 2.25; stroke-linecap: square"/>
   </g>
   <g id="LineCollection_1">
    <path d="M 298.40852 193.023116 
L 298.40852 180.263434 
" clip-path="url(#p315b9b05c8)" style="fill: none; stroke: #000000; stroke-width: 1.5"/>
   </g>
   <g id="LineCollection_2">
    <path d="M 304.225627 252 
L 304.225627 252 
" clip-path="url(#p315b9b05c8)" style="fill: none; stroke: #000000; stroke-width: 1.5"/>
   </g>
   <g id="LineCollection_3">
    <path d="M 310.042734 186.899671 
L 310.042734 176.510591 
" clip-path="url(#p315b9b05c8)" style="fill: none; stroke: #000000; stroke-width: 1.5"/>
   </g>
   <g id="LineCollection_4">
    <path d="M 315.859841 223.943169 
L 315.859841 213.448932 
" clip-path="url(#p315b9b05c8)" style="fill: none; stroke: #000000; stroke-width: 1.5"/>
   </g>
   <g id="LineCollection_5">
    <path d="M 321.676948 186.065688 
L 321.676948 175.668687 
" clip-path="url(#p315b9b05c8)" style="fill: none; stroke: #000000; stroke-width: 1.5"/>
   </g>
   <g id="LineCollection_6">
    <path d="M 327.494055 183.704393 
L 327.494055 169.162931 
" clip-path="url(#p315b9b05c8)" style="fill: none; stroke: #000000; stroke-width: 1.5"/>
   </g>
   <g id="LineCollection_7">
    <path d="M 333.311162 183.661511 
L 333.311162 173.097621 
" clip-path="url(#p315b9b05c8)" style="fill: none; stroke: #000000; stroke-width: 1.5"/>
   </g>
   <g id="patch_52">
    <path d="M 26.240625 252 
L 26.240625 52.08 
" style="fill: none; stroke: #000000; stroke-width: 0.8; stroke-linejoin: miter; stroke-linecap: square"/>
   </g>
   <g id="patch_53">
    <path d="M 350.980625 252 
L 350.980625 52.08 
" style="fill: none; stroke: #000000; stroke-width: 0.8; stroke-linejoin: miter; stroke-linecap: square"/>
   </g>
   <g id="patch_54">
    <path d="M 26.240625 252 
L 350.980625 252 
" style="fill: none; stroke: #000000; stroke-width: 0.8; stroke-linejoin: miter; stroke-linecap: square"/>
   </g>
   <g id="patch_55">
    <path d="M 26.240625 52.08 
L 350.980625 52.08 
" style="fill: none; stroke: #000000; stroke-width: 0.8; stroke-linejoin: miter; stroke-linecap: square"/>
   </g>
   <g id="text_12">
    <!-- edistance_cells -->
    <g transform="translate(134.427813 46.08) scale(0.12 -0.12)">
     <use xlink:href="#DejaVuSansMono-65"/>
     <use xlink:href="#DejaVuSansMono-64" transform="translate(60.205078 0)"/>
     <use xlink:href="#DejaVuSansMono-69" transform="translate(120.410156 0)"/>
     <use xlink:href="#DejaVuSansMono-73" transform="translate(180.615234 0)"/>
     <use xlink:href="#DejaVuSansMono-74" transform="translate(240.820312 0)"/>
     <use xlink:href="#DejaVuSansMono-61" transform="translate(301.025391 0)"/>
     <use xlink:href="#DejaVuSansMono-6e" transform="translate(361.230469 0)"/>
     <use xlink:href="#DejaVuSansMono-63" transform="translate(421.435547 0)"/>
     <use xlink:href="#DejaVuSansMono-65" transform="translate(481.640625 0)"/>
     <use xlink:href="#DejaVuSansMono-5f" transform="translate(541.845703 0)"/>
     <use xlink:href="#DejaVuSansMono-63" transform="translate(602.050781 0)"/>
     <use xlink:href="#DejaVuSansMono-65" transform="translate(662.255859 0)"/>
     <use xlink:href="#DejaVuSansMono-6c" transform="translate(722.460938 0)"/>
     <use xlink:href="#DejaVuSansMono-6c" transform="translate(782.666016 0)"/>
     <use xlink:href="#DejaVuSansMono-73" transform="translate(842.871094 0)"/>
    </g>
   </g>
  </g>
  <g id="axes_2">
   <g id="patch_56">
    <path d="M 380.840625 252 
L 705.580625 252 
L 705.580625 52.08 
L 380.840625 52.08 
z
" style="fill: #ffffff"/>
   </g>
   <g id="patch_57">
    <path d="M 395.601534 252 
L 401.418641 252 
L 401.418641 167.605687 
L 395.601534 167.605687 
z
" clip-path="url(#p3dfe93ae34)" style="fill: #176d9c"/>
   </g>
   <g id="patch_58">
    <path d="M 446.501221 252 
L 452.318328 252 
L 452.318328 199.003686 
L 446.501221 199.003686 
z
" clip-path="url(#p3dfe93ae34)" style="fill: #176d9c"/>
   </g>
   <g id="patch_59">
    <path d="M 497.400907 252 
L 503.218014 252 
L 503.218014 176.35522 
L 497.400907 176.35522 
z
" clip-path="url(#p3dfe93ae34)" style="fill: #176d9c"/>
   </g>
   <g id="patch_60">
    <path d="M 548.300594 252 
L 554.117701 252 
L 554.117701 162.208631 
L 548.300594 162.208631 
z
" clip-path="url(#p3dfe93ae34)" style="fill: #176d9c"/>
   </g>
   <g id="patch_61">
    <path d="M 599.20028 252 
L 605.017387 252 
L 605.017387 124.037347 
L 599.20028 124.037347 
z
" clip-path="url(#p3dfe93ae34)" style="fill: #176d9c"/>
   </g>
   <g id="patch_62">
    <path d="M 407.235748 252 
L 413.052855 252 
L 413.052855 237.568893 
L 407.235748 237.568893 
z
" clip-path="url(#p3dfe93ae34)" style="fill: #22723f"/>
   </g>
   <g id="patch_63">
    <path d="M 458.135435 252 
L 463.952542 252 
L 463.952542 202.98663 
L 458.135435 202.98663 
z
" clip-path="url(#p3dfe93ae34)" style="fill: #22723f"/>
   </g>
   <g id="patch_64">
    <path d="M 509.035121 252 
L 514.852228 252 
L 514.852228 208.791438 
L 509.035121 208.791438 
z
" clip-path="url(#p3dfe93ae34)" style="fill: #22723f"/>
   </g>
   <g id="patch_65">
    <path d="M 559.934808 252 
L 565.751915 252 
L 565.751915 236.685566 
L 559.934808 236.685566 
z
" clip-path="url(#p3dfe93ae34)" style="fill: #22723f"/>
   </g>
   <g id="patch_66">
    <path d="M 610.834494 252 
L 616.651601 252 
L 616.651601 245.899209 
L 610.834494 245.899209 
z
" clip-path="url(#p3dfe93ae34)" style="fill: #22723f"/>
   </g>
   <g id="patch_67">
    <path d="M 413.052855 252 
L 418.869962 252 
L 418.869962 230.238321 
L 413.052855 230.238321 
z
" clip-path="url(#p3dfe93ae34)" style="fill: #58a369"/>
   </g>
   <g id="patch_68">
    <path d="M 463.952542 252 
L 469.769649 252 
L 469.769649 207.958491 
L 463.952542 207.958491 
z
" clip-path="url(#p3dfe93ae34)" style="fill: #58a369"/>
   </g>
   <g id="patch_69">
    <path d="M 514.852228 252 
L 520.669335 252 
L 520.669335 218.610314 
L 514.852228 218.610314 
z
" clip-path="url(#p3dfe93ae34)" style="fill: #58a369"/>
   </g>
   <g id="patch_70">
    <path d="M 565.751915 252 
L 571.569022 252 
L 571.569022 231.694665 
L 565.751915 231.694665 
z
" clip-path="url(#p3dfe93ae34)" style="fill: #58a369"/>
   </g>
   <g id="patch_71">
    <path d="M 616.651601 252 
L 622.468708 252 
L 622.468708 239.838967 
L 616.651601 239.838967 
z
" clip-path="url(#p3dfe93ae34)" style="fill: #58a369"/>
   </g>
   <g id="patch_72">
    <path d="M 418.869962 252 
L 424.687069 252 
L 424.687069 238.828072 
L 418.869962 238.828072 
z
" clip-path="url(#p3dfe93ae34)" style="fill: #eda791"/>
   </g>
   <g id="patch_73">
    <path d="M 469.769649 252 
L 475.586756 252 
L 475.586756 202.889034 
L 469.769649 202.889034 
z
" clip-path="url(#p3dfe93ae34)" style="fill: #eda791"/>
   </g>
   <g id="patch_74">
    <path d="M 520.669335 252 
L 526.486442 252 
L 526.486442 213.598896 
L 520.669335 213.598896 
z
" clip-path="url(#p3dfe93ae34)" style="fill: #eda791"/>
   </g>
   <g id="patch_75">
    <path d="M 571.569022 252 
L 577.386129 252 
L 577.386129 235.225096 
L 571.569022 235.225096 
z
" clip-path="url(#p3dfe93ae34)" style="fill: #eda791"/>
   </g>
   <g id="patch_76">
    <path d="M 622.468708 252 
L 628.285815 252 
L 628.285815 246.360469 
L 622.468708 246.360469 
z
" clip-path="url(#p3dfe93ae34)" style="fill: #eda791"/>
   </g>
   <g id="patch_77">
    <path d="M 424.687069 252 
L 430.504176 252 
L 430.504176 211.451526 
L 424.687069 211.451526 
z
" clip-path="url(#p3dfe93ae34)" style="fill: #cb453e"/>
   </g>
   <g id="patch_78">
    <path d="M 475.586756 252 
L 481.403863 252 
L 481.403863 176.95751 
L 475.586756 176.95751 
z
" clip-path="url(#p3dfe93ae34)" style="fill: #cb453e"/>
   </g>
   <g id="patch_79">
    <path d="M 526.486442 252 
L 532.303549 252 
L 532.303549 152.381012 
L 526.486442 152.381012 
z
" clip-path="url(#p3dfe93ae34)" style="fill: #cb453e"/>
   </g>
   <g id="patch_80">
    <path d="M 577.386129 252 
L 583.203236 252 
L 583.203236 186.635572 
L 577.386129 186.635572 
z
" clip-path="url(#p3dfe93ae34)" style="fill: #cb453e"/>
   </g>
   <g id="patch_81">
    <path d="M 628.285815 252 
L 634.102922 252 
L 634.102922 214.028737 
L 628.285815 214.028737 
z
" clip-path="url(#p3dfe93ae34)" style="fill: #cb453e"/>
   </g>
   <g id="patch_82">
    <path d="M 430.504176 252 
L 436.321283 252 
L 436.321283 236.201852 
L 430.504176 236.201852 
z
" clip-path="url(#p3dfe93ae34)" style="fill: #9d262a"/>
   </g>
   <g id="patch_83">
    <path d="M 481.403863 252 
L 487.22097 252 
L 487.22097 199.354491 
L 481.403863 199.354491 
z
" clip-path="url(#p3dfe93ae34)" style="fill: #9d262a"/>
   </g>
   <g id="patch_84">
    <path d="M 532.303549 252 
L 538.120656 252 
L 538.120656 212.71971 
L 532.303549 212.71971 
z
" clip-path="url(#p3dfe93ae34)" style="fill: #9d262a"/>
   </g>
   <g id="patch_85">
    <path d="M 583.203236 252 
L 589.020343 252 
L 589.020343 233.327175 
L 583.203236 233.327175 
z
" clip-path="url(#p3dfe93ae34)" style="fill: #9d262a"/>
   </g>
   <g id="patch_86">
    <path d="M 634.102922 252 
L 639.920029 252 
L 639.920029 245.125041 
L 634.102922 245.125041 
z
" clip-path="url(#p3dfe93ae34)" style="fill: #9d262a"/>
   </g>
   <g id="patch_87">
    <path d="M 415.961409 252 
L 415.961409 252 
L 415.961409 252 
L 415.961409 252 
z
" clip-path="url(#p3dfe93ae34)" style="fill: #176d9c"/>
   </g>
   <g id="patch_88">
    <path d="M 415.961409 252 
L 415.961409 252 
L 415.961409 252 
L 415.961409 252 
z
" clip-path="url(#p3dfe93ae34)" style="fill: #c38820"/>
   </g>
   <g id="patch_89">
    <path d="M 415.961409 252 
L 415.961409 252 
L 415.961409 252 
L 415.961409 252 
z
" clip-path="url(#p3dfe93ae34)" style="fill: #22723f"/>
   </g>
   <g id="patch_90">
    <path d="M 415.961409 252 
L 415.961409 252 
L 415.961409 252 
L 415.961409 252 
z
" clip-path="url(#p3dfe93ae34)" style="fill: #58a369"/>
   </g>
   <g id="patch_91">
    <path d="M 415.961409 252 
L 415.961409 252 
L 415.961409 252 
L 415.961409 252 
z
" clip-path="url(#p3dfe93ae34)" style="fill: #eda791"/>
   </g>
   <g id="patch_92">
    <path d="M 415.961409 252 
L 415.961409 252 
L 415.961409 252 
L 415.961409 252 
z
" clip-path="url(#p3dfe93ae34)" style="fill: #cb453e"/>
   </g>
   <g id="patch_93">
    <path d="M 415.961409 252 
L 415.961409 252 
L 415.961409 252 
L 415.961409 252 
z
" clip-path="url(#p3dfe93ae34)" style="fill: #9d262a"/>
   </g>
   <g id="patch_94">
    <path d="M 650.099967 252 
L 655.917074 252 
L 655.917074 165.842114 
L 650.099967 165.842114 
z
" clip-path="url(#p3dfe93ae34)" style="fill: #0173b2; opacity: 0.9"/>
   </g>
   <g id="patch_95">
    <path d="M 0 0 
z
" clip-path="url(#p3dfe93ae34)" style="fill: #de8f05; opacity: 0.9"/>
   </g>
   <g id="patch_96">
    <path d="M 661.734181 252 
L 667.551288 252 
L 667.551288 226.386347 
L 661.734181 226.386347 
z
" clip-path="url(#p3dfe93ae34)" style="fill: #157f3b; opacity: 0.9"/>
   </g>
   <g id="patch_97">
    <path d="M 667.551288 252 
L 673.368395 252 
L 673.368395 225.668152 
L 667.551288 225.668152 
z
" clip-path="url(#p3dfe93ae34)" style="fill: #4bb062; opacity: 0.9"/>
   </g>
   <g id="patch_98">
    <path d="M 673.368395 252 
L 679.185502 252 
L 679.185502 227.380313 
L 673.368395 227.380313 
z
" clip-path="url(#p3dfe93ae34)" style="fill: #fca082; opacity: 0.9"/>
   </g>
   <g id="patch_99">
    <path d="M 679.185502 252 
L 685.002609 252 
L 685.002609 188.290871 
L 679.185502 188.290871 
z
" clip-path="url(#p3dfe93ae34)" style="fill: #e32f27; opacity: 0.9"/>
   </g>
   <g id="patch_100">
    <path d="M 685.002609 252 
L 690.819716 252 
L 690.819716 225.345654 
L 685.002609 225.345654 
z
" clip-path="url(#p3dfe93ae34)" style="fill: #b11218; opacity: 0.9"/>
   </g>
   <g id="matplotlib.axis_3">
    <g id="xtick_7">
     <g id="line2d_47">
      <g>
       <use xlink:href="#m87e954406e" x="415.961409" y="252" style="stroke: #000000; stroke-width: 0.8"/>
      </g>
     </g>
     <g id="text_13">
      <!-- Endothelial -->
      <g transform="translate(394.517843 311.237513) rotate(-45) scale(0.1 -0.1)">
       <use xlink:href="#DejaVuSansMono-45"/>
       <use xlink:href="#DejaVuSansMono-6e" transform="translate(60.205078 0)"/>
       <use xlink:href="#DejaVuSansMono-64" transform="translate(120.410156 0)"/>
       <use xlink:href="#DejaVuSansMono-6f" transform="translate(180.615234 0)"/>
       <use xlink:href="#DejaVuSansMono-74" transform="translate(240.820312 0)"/>
       <use xlink:href="#DejaVuSansMono-68" transform="translate(301.025391 0)"/>
       <use xlink:href="#DejaVuSansMono-65" transform="translate(361.230469 0)"/>
       <use xlink:href="#DejaVuSansMono-6c" transform="translate(421.435547 0)"/>
       <use xlink:href="#DejaVuSansMono-69" transform="translate(481.640625 0)"/>
       <use xlink:href="#DejaVuSansMono-61" transform="translate(541.845703 0)"/>
       <use xlink:href="#DejaVuSansMono-6c" transform="translate(602.050781 0)"/>
      </g>
     </g>
    </g>
    <g id="xtick_8">
     <g id="line2d_48">
      <g>
       <use xlink:href="#m87e954406e" x="466.861095" y="252" style="stroke: #000000; stroke-width: 0.8"/>
      </g>
     </g>
     <g id="text_14">
      <!-- Epithelial -->
      <g transform="translate(447.546032 306.98051) rotate(-45) scale(0.1 -0.1)">
       <use xlink:href="#DejaVuSansMono-45"/>
       <use xlink:href="#DejaVuSansMono-70" transform="translate(60.205078 0)"/>
       <use xlink:href="#DejaVuSansMono-69" transform="translate(120.410156 0)"/>
       <use xlink:href="#DejaVuSansMono-74" transform="translate(180.615234 0)"/>
       <use xlink:href="#DejaVuSansMono-68" transform="translate(240.820312 0)"/>
       <use xlink:href="#DejaVuSansMono-65" transform="translate(301.025391 0)"/>
       <use xlink:href="#DejaVuSansMono-6c" transform="translate(361.230469 0)"/>
       <use xlink:href="#DejaVuSansMono-69" transform="translate(421.435547 0)"/>
       <use xlink:href="#DejaVuSansMono-61" transform="translate(481.640625 0)"/>
       <use xlink:href="#DejaVuSansMono-6c" transform="translate(541.845703 0)"/>
      </g>
     </g>
    </g>
    <g id="xtick_9">
     <g id="line2d_49">
      <g>
       <use xlink:href="#m87e954406e" x="517.760782" y="252" style="stroke: #000000; stroke-width: 0.8"/>
      </g>
     </g>
     <g id="text_15">
      <!-- Fibroblast -->
      <g transform="translate(498.445718 306.98051) rotate(-45) scale(0.1 -0.1)">
       <use xlink:href="#DejaVuSansMono-46"/>
       <use xlink:href="#DejaVuSansMono-69" transform="translate(60.205078 0)"/>
       <use xlink:href="#DejaVuSansMono-62" transform="translate(120.410156 0)"/>
       <use xlink:href="#DejaVuSansMono-72" transform="translate(180.615234 0)"/>
       <use xlink:href="#DejaVuSansMono-6f" transform="translate(240.820312 0)"/>
       <use xlink:href="#DejaVuSansMono-62" transform="translate(301.025391 0)"/>
       <use xlink:href="#DejaVuSansMono-6c" transform="translate(361.230469 0)"/>
       <use xlink:href="#DejaVuSansMono-61" transform="translate(421.435547 0)"/>
       <use xlink:href="#DejaVuSansMono-73" transform="translate(481.640625 0)"/>
       <use xlink:href="#DejaVuSansMono-74" transform="translate(541.845703 0)"/>
      </g>
     </g>
    </g>
    <g id="xtick_10">
     <g id="line2d_50">
      <g>
       <use xlink:href="#m87e954406e" x="568.660468" y="252" style="stroke: #000000; stroke-width: 0.8"/>
      </g>
     </g>
     <g id="text_16">
      <!-- Myeloid -->
      <g transform="translate(555.73091 294.209498) rotate(-45) scale(0.1 -0.1)">
       <use xlink:href="#DejaVuSansMono-4d"/>
       <use xlink:href="#DejaVuSansMono-79" transform="translate(60.205078 0)"/>
       <use xlink:href="#DejaVuSansMono-65" transform="translate(120.410156 0)"/>
       <use xlink:href="#DejaVuSansMono-6c" transform="translate(180.615234 0)"/>
       <use xlink:href="#DejaVuSansMono-6f" transform="translate(240.820312 0)"/>
       <use xlink:href="#DejaVuSansMono-69" transform="translate(301.025391 0)"/>
       <use xlink:href="#DejaVuSansMono-64" transform="translate(361.230469 0)"/>
      </g>
     </g>
    </g>
    <g id="xtick_11">
     <g id="line2d_51">
      <g>
       <use xlink:href="#m87e954406e" x="619.560155" y="252" style="stroke: #000000; stroke-width: 0.8"/>
      </g>
     </g>
     <g id="text_17">
      <!-- T_cell -->
      <g transform="translate(608.660767 289.952494) rotate(-45) scale(0.1 -0.1)">
       <use xlink:href="#DejaVuSansMono-54"/>
       <use xlink:href="#DejaVuSansMono-5f" transform="translate(60.205078 0)"/>
       <use xlink:href="#DejaVuSansMono-63" transform="translate(120.410156 0)"/>
       <use xlink:href="#DejaVuSansMono-65" transform="translate(180.615234 0)"/>
       <use xlink:href="#DejaVuSansMono-6c" transform="translate(240.820312 0)"/>
       <use xlink:href="#DejaVuSansMono-6c" transform="translate(301.025391 0)"/>
      </g>
     </g>
    </g>
    <g id="xtick_12">
     <g id="line2d_52">
      <g>
       <use xlink:href="#m87e954406e" x="670.459841" y="252" style="stroke: #000000; stroke-width: 0.8"/>
      </g>
     </g>
     <g id="text_18">
      <!-- Average -->
      <g transform="translate(657.48167 294.160885) rotate(-45) scale(0.1 -0.1)">
       <use xlink:href="#DejaVuSansMono-41"/>
       <use xlink:href="#DejaVuSansMono-76" transform="translate(60.205078 0)"/>
       <use xlink:href="#DejaVuSansMono-65" transform="translate(120.410156 0)"/>
       <use xlink:href="#DejaVuSansMono-72" transform="translate(180.615234 0)"/>
       <use xlink:href="#DejaVuSansMono-61" transform="translate(240.820312 0)"/>
       <use xlink:href="#DejaVuSansMono-67" transform="translate(301.025391 0)"/>
       <use xlink:href="#DejaVuSansMono-65" transform="translate(361.230469 0)"/>
      </g>
     </g>
    </g>
   </g>
   <g id="matplotlib.axis_4">
    <g id="ytick_6">
     <g id="line2d_53">
      <g>
       <use xlink:href="#m7fe43f3e4c" x="380.840625" y="252" style="stroke: #000000; stroke-width: 0.8"/>
      </g>
     </g>
     <g id="text_19">
      <!-- 0 -->
      <g transform="translate(367.820312 255.825781) scale(0.1 -0.1)">
       <use xlink:href="#DejaVuSansMono-30"/>
      </g>
     </g>
    </g>
    <g id="ytick_7">
     <g id="line2d_54">
      <g>
       <use xlink:href="#m7fe43f3e4c" x="380.840625" y="210.179129" style="stroke: #000000; stroke-width: 0.8"/>
      </g>
     </g>
     <g id="text_20">
      <!-- 5 -->
      <g transform="translate(367.820312 214.004911) scale(0.1 -0.1)">
       <use xlink:href="#DejaVuSansMono-35"/>
      </g>
     </g>
    </g>
    <g id="ytick_8">
     <g id="line2d_55">
      <g>
       <use xlink:href="#m7fe43f3e4c" x="380.840625" y="168.358259" style="stroke: #000000; stroke-width: 0.8"/>
      </g>
     </g>
     <g id="text_21">
      <!-- 10 -->
      <g transform="translate(361.8 172.18404) scale(0.1 -0.1)">
       <use xlink:href="#DejaVuSansMono-31"/>
       <use xlink:href="#DejaVuSansMono-30" transform="translate(60.205078 0)"/>
      </g>
     </g>
    </g>
    <g id="ytick_9">
     <g id="line2d_56">
      <g>
       <use xlink:href="#m7fe43f3e4c" x="380.840625" y="126.537388" style="stroke: #000000; stroke-width: 0.8"/>
      </g>
     </g>
     <g id="text_22">
      <!-- 15 -->
      <g transform="translate(361.8 130.363169) scale(0.1 -0.1)">
       <use xlink:href="#DejaVuSansMono-31"/>
       <use xlink:href="#DejaVuSansMono-35" transform="translate(60.205078 0)"/>
      </g>
     </g>
    </g>
    <g id="ytick_10">
     <g id="line2d_57">
      <g>
       <use xlink:href="#m7fe43f3e4c" x="380.840625" y="84.716517" style="stroke: #000000; stroke-width: 0.8"/>
      </g>
     </g>
     <g id="text_23">
      <!-- 20 -->
      <g transform="translate(361.8 88.542298) scale(0.1 -0.1)">
       <use xlink:href="#DejaVuSansMono-32"/>
       <use xlink:href="#DejaVuSansMono-30" transform="translate(60.205078 0)"/>
      </g>
     </g>
    </g>
   </g>
   <g id="line2d_58">
    <path d="M 398.510088 180.102721 
L 398.510088 155.108652 
" clip-path="url(#p3dfe93ae34)" style="fill: none; stroke: #424242; stroke-width: 2.25; stroke-linecap: square"/>
   </g>
   <g id="line2d_59">
    <path d="M 449.409774 208.73733 
L 449.409774 189.270043 
" clip-path="url(#p3dfe93ae34)" style="fill: none; stroke: #424242; stroke-width: 2.25; stroke-linecap: square"/>
   </g>
   <g id="line2d_60">
    <path d="M 500.309461 186.632875 
L 500.309461 166.077565 
" clip-path="url(#p3dfe93ae34)" style="fill: none; stroke: #424242; stroke-width: 2.25; stroke-linecap: square"/>
   </g>
   <g id="line2d_61">
    <path d="M 551.209147 174.263168 
L 551.209147 150.154095 
" clip-path="url(#p3dfe93ae34)" style="fill: none; stroke: #424242; stroke-width: 2.25; stroke-linecap: square"/>
   </g>
   <g id="line2d_62">
    <path d="M 602.108834 143.420441 
L 602.108834 104.654253 
" clip-path="url(#p3dfe93ae34)" style="fill: none; stroke: #424242; stroke-width: 2.25; stroke-linecap: square"/>
   </g>
   <g id="line2d_63">
    <path d="M 410.144302 242.113103 
L 410.144302 233.024682 
" clip-path="url(#p3dfe93ae34)" style="fill: none; stroke: #424242; stroke-width: 2.25; stroke-linecap: square"/>
   </g>
   <g id="line2d_64">
    <path d="M 461.043988 209.134318 
L 461.043988 196.838942 
" clip-path="url(#p3dfe93ae34)" style="fill: none; stroke: #424242; stroke-width: 2.25; stroke-linecap: square"/>
   </g>
   <g id="line2d_65">
    <path d="M 511.943675 221.071199 
L 511.943675 196.511677 
" clip-path="url(#p3dfe93ae34)" style="fill: none; stroke: #424242; stroke-width: 2.25; stroke-linecap: square"/>
   </g>
   <g id="line2d_66">
    <path d="M 562.843361 240.641791 
L 562.843361 232.729341 
" clip-path="url(#p3dfe93ae34)" style="fill: none; stroke: #424242; stroke-width: 2.25; stroke-linecap: square"/>
   </g>
   <g id="line2d_67">
    <path d="M 613.743048 248.184616 
L 613.743048 243.613803 
" clip-path="url(#p3dfe93ae34)" style="fill: none; stroke: #424242; stroke-width: 2.25; stroke-linecap: square"/>
   </g>
   <g id="line2d_68">
    <path d="M 415.961409 235.491183 
L 415.961409 224.985459 
" clip-path="url(#p3dfe93ae34)" style="fill: none; stroke: #424242; stroke-width: 2.25; stroke-linecap: square"/>
   </g>
   <g id="line2d_69">
    <path d="M 466.861095 219.096809 
L 466.861095 196.820173 
" clip-path="url(#p3dfe93ae34)" style="fill: none; stroke: #424242; stroke-width: 2.25; stroke-linecap: square"/>
   </g>
   <g id="line2d_70">
    <path d="M 517.760782 229.136869 
L 517.760782 208.08376 
" clip-path="url(#p3dfe93ae34)" style="fill: none; stroke: #424242; stroke-width: 2.25; stroke-linecap: square"/>
   </g>
   <g id="line2d_71">
    <path d="M 568.660468 235.346274 
L 568.660468 228.043056 
" clip-path="url(#p3dfe93ae34)" style="fill: none; stroke: #424242; stroke-width: 2.25; stroke-linecap: square"/>
   </g>
   <g id="line2d_72">
    <path d="M 619.560155 240.408258 
L 619.560155 239.269677 
" clip-path="url(#p3dfe93ae34)" style="fill: none; stroke: #424242; stroke-width: 2.25; stroke-linecap: square"/>
   </g>
   <g id="line2d_73">
    <path d="M 421.778516 242.71332 
L 421.778516 234.942823 
" clip-path="url(#p3dfe93ae34)" style="fill: none; stroke: #424242; stroke-width: 2.25; stroke-linecap: square"/>
   </g>
   <g id="line2d_74">
    <path d="M 472.678202 209.328183 
L 472.678202 196.449885 
" clip-path="url(#p3dfe93ae34)" style="fill: none; stroke: #424242; stroke-width: 2.25; stroke-linecap: square"/>
   </g>
   <g id="line2d_75">
    <path d="M 523.577889 222.161265 
L 523.577889 205.036528 
" clip-path="url(#p3dfe93ae34)" style="fill: none; stroke: #424242; stroke-width: 2.25; stroke-linecap: square"/>
   </g>
   <g id="line2d_76">
    <path d="M 574.477575 239.930194 
L 574.477575 230.519999 
" clip-path="url(#p3dfe93ae34)" style="fill: none; stroke: #424242; stroke-width: 2.25; stroke-linecap: square"/>
   </g>
   <g id="line2d_77">
    <path d="M 625.377262 247.804489 
L 625.377262 244.916449 
" clip-path="url(#p3dfe93ae34)" style="fill: none; stroke: #424242; stroke-width: 2.25; stroke-linecap: square"/>
   </g>
   <g id="line2d_78">
    <path d="M 427.595623 224.662946 
L 427.595623 198.240106 
" clip-path="url(#p3dfe93ae34)" style="fill: none; stroke: #424242; stroke-width: 2.25; stroke-linecap: square"/>
   </g>
   <g id="line2d_79">
    <path d="M 478.495309 198.702204 
L 478.495309 155.212816 
" clip-path="url(#p3dfe93ae34)" style="fill: none; stroke: #424242; stroke-width: 2.25; stroke-linecap: square"/>
   </g>
   <g id="line2d_80">
    <path d="M 529.394996 180.54879 
L 529.394996 124.213234 
" clip-path="url(#p3dfe93ae34)" style="fill: none; stroke: #424242; stroke-width: 2.25; stroke-linecap: square"/>
   </g>
   <g id="line2d_81">
    <path d="M 580.294682 215.031949 
L 580.294682 158.239195 
" clip-path="url(#p3dfe93ae34)" style="fill: none; stroke: #424242; stroke-width: 2.25; stroke-linecap: square"/>
   </g>
   <g id="line2d_82">
    <path d="M 631.194369 233.186229 
L 631.194369 194.871245 
" clip-path="url(#p3dfe93ae34)" style="fill: none; stroke: #424242; stroke-width: 2.25; stroke-linecap: square"/>
   </g>
   <g id="line2d_83">
    <path d="M 433.41273 240.942225 
L 433.41273 231.461479 
" clip-path="url(#p3dfe93ae34)" style="fill: none; stroke: #424242; stroke-width: 2.25; stroke-linecap: square"/>
   </g>
   <g id="line2d_84">
    <path d="M 484.312416 205.952198 
L 484.312416 192.756783 
" clip-path="url(#p3dfe93ae34)" style="fill: none; stroke: #424242; stroke-width: 2.25; stroke-linecap: square"/>
   </g>
   <g id="line2d_85">
    <path d="M 535.212103 221.004258 
L 535.212103 204.435162 
" clip-path="url(#p3dfe93ae34)" style="fill: none; stroke: #424242; stroke-width: 2.25; stroke-linecap: square"/>
   </g>
   <g id="line2d_86">
    <path d="M 586.111789 238.115848 
L 586.111789 228.538501 
" clip-path="url(#p3dfe93ae34)" style="fill: none; stroke: #424242; stroke-width: 2.25; stroke-linecap: square"/>
   </g>
   <g id="line2d_87">
    <path d="M 637.011476 246.684014 
L 637.011476 243.566067 
" clip-path="url(#p3dfe93ae34)" style="fill: none; stroke: #424242; stroke-width: 2.25; stroke-linecap: square"/>
   </g>
   <g id="LineCollection_8">
    <path d="M 653.00852 172.967589 
L 653.00852 158.71664 
" clip-path="url(#p3dfe93ae34)" style="fill: none; stroke: #000000; stroke-width: 1.5"/>
   </g>
   <g id="LineCollection_9">
    <path clip-path="url(#p3dfe93ae34)" style="fill: none; stroke: #000000; stroke-width: 1.5"/>
   </g>
   <g id="LineCollection_10">
    <path d="M 664.642734 230.63675 
L 664.642734 222.135945 
" clip-path="url(#p3dfe93ae34)" style="fill: none; stroke: #000000; stroke-width: 1.5"/>
   </g>
   <g id="LineCollection_11">
    <path d="M 670.459841 229.383979 
L 670.459841 221.952324 
" clip-path="url(#p3dfe93ae34)" style="fill: none; stroke: #000000; stroke-width: 1.5"/>
   </g>
   <g id="LineCollection_12">
    <path d="M 676.276948 231.197754 
L 676.276948 223.562873 
" clip-path="url(#p3dfe93ae34)" style="fill: none; stroke: #000000; stroke-width: 1.5"/>
   </g>
   <g id="LineCollection_13">
    <path d="M 682.094055 198.693245 
L 682.094055 177.888497 
" clip-path="url(#p3dfe93ae34)" style="fill: none; stroke: #000000; stroke-width: 1.5"/>
   </g>
   <g id="LineCollection_14">
    <path d="M 687.911162 229.247663 
L 687.911162 221.443645 
" clip-path="url(#p3dfe93ae34)" style="fill: none; stroke: #000000; stroke-width: 1.5"/>
   </g>
   <g id="patch_101">
    <path d="M 380.840625 252 
L 380.840625 52.08 
" style="fill: none; stroke: #000000; stroke-width: 0.8; stroke-linejoin: miter; stroke-linecap: square"/>
   </g>
   <g id="patch_102">
    <path d="M 705.580625 252 
L 705.580625 52.08 
" style="fill: none; stroke: #000000; stroke-width: 0.8; stroke-linejoin: miter; stroke-linecap: square"/>
   </g>
   <g id="patch_103">
    <path d="M 380.840625 252 
L 705.580625 252 
" style="fill: none; stroke: #000000; stroke-width: 0.8; stroke-linejoin: miter; stroke-linecap: square"/>
   </g>
   <g id="patch_104">
    <path d="M 380.840625 52.08 
L 705.580625 52.08 
" style="fill: none; stroke: #000000; stroke-width: 0.8; stroke-linejoin: miter; stroke-linecap: square"/>
   </g>
   <g id="text_24">
    <!-- edistance_local -->
    <g transform="translate(489.027812 46.08) scale(0.12 -0.12)">
     <use xlink:href="#DejaVuSansMono-65"/>
     <use xlink:href="#DejaVuSansMono-64" transform="translate(60.205078 0)"/>
     <use xlink:href="#DejaVuSansMono-69" transform="translate(120.410156 0)"/>
     <use xlink:href="#DejaVuSansMono-73" transform="translate(180.615234 0)"/>
     <use xlink:href="#DejaVuSansMono-74" transform="translate(240.820312 0)"/>
     <use xlink:href="#DejaVuSansMono-61" transform="translate(301.025391 0)"/>
     <use xlink:href="#DejaVuSansMono-6e" transform="translate(361.230469 0)"/>
     <use xlink:href="#DejaVuSansMono-63" transform="translate(421.435547 0)"/>
     <use xlink:href="#DejaVuSansMono-65" transform="translate(481.640625 0)"/>
     <use xlink:href="#DejaVuSansMono-5f" transform="translate(541.845703 0)"/>
     <use xlink:href="#DejaVuSansMono-6c" transform="translate(602.050781 0)"/>
     <use xlink:href="#DejaVuSansMono-6f" transform="translate(662.255859 0)"/>
     <use xlink:href="#DejaVuSansMono-63" transform="translate(722.460938 0)"/>
     <use xlink:href="#DejaVuSansMono-61" transform="translate(782.666016 0)"/>
     <use xlink:href="#DejaVuSansMono-6c" transform="translate(842.871094 0)"/>
    </g>
   </g>
  </g>
  <g id="text_25">
   <!-- Performance (observed vs predicted) for DEG 200 -->
   <g transform="translate(130.016875 19.4425) scale(0.16 -0.16)">
    <defs>
     <path id="DejaVuSansMono-50" d="M 1247 4147 
L 1247 2394 
L 1978 2394 
Q 2416 2394 2661 2625 
Q 2906 2856 2906 3272 
Q 2906 3688 2662 3917 
Q 2419 4147 1978 4147 
L 1247 4147 
z
M 616 4666 
L 1978 4666 
Q 2759 4666 3162 4311 
Q 3566 3956 3566 3272 
Q 3566 2581 3164 2228 
Q 2763 1875 1978 1875 
L 1247 1875 
L 1247 0 
L 616 0 
L 616 4666 
z
" transform="scale(0.015625)"/>
     <path id="DejaVuSansMono-66" d="M 3322 4863 
L 3322 4384 
L 2669 4384 
Q 2359 4384 2239 4257 
Q 2119 4131 2119 3809 
L 2119 3500 
L 3322 3500 
L 3322 3053 
L 2119 3053 
L 2119 0 
L 1544 0 
L 1544 3053 
L 609 3053 
L 609 3500 
L 1544 3500 
L 1544 3744 
Q 1544 4319 1808 4591 
Q 2072 4863 2631 4863 
L 3322 4863 
z
" transform="scale(0.015625)"/>
     <path id="DejaVuSansMono-6d" d="M 2113 3144 
Q 2219 3369 2383 3476 
Q 2547 3584 2778 3584 
Q 3200 3584 3373 3257 
Q 3547 2931 3547 2028 
L 3547 0 
L 3022 0 
L 3022 2003 
Q 3022 2744 2939 2923 
Q 2856 3103 2638 3103 
Q 2388 3103 2295 2911 
Q 2203 2719 2203 2003 
L 2203 0 
L 1678 0 
L 1678 2003 
Q 1678 2753 1589 2928 
Q 1500 3103 1269 3103 
Q 1041 3103 952 2911 
Q 863 2719 863 2003 
L 863 0 
L 341 0 
L 341 3500 
L 863 3500 
L 863 3200 
Q 966 3388 1120 3486 
Q 1275 3584 1472 3584 
Q 1709 3584 1867 3475 
Q 2025 3366 2113 3144 
z
" transform="scale(0.015625)"/>
     <path id="DejaVuSansMono-20" transform="scale(0.015625)"/>
     <path id="DejaVuSansMono-28" d="M 2766 4856 
Q 2350 4144 2145 3436 
Q 1941 2728 1941 2009 
Q 1941 1294 2145 584 
Q 2350 -125 2766 -844 
L 2266 -844 
Q 1794 -100 1562 604 
Q 1331 1309 1331 2009 
Q 1331 2706 1562 3412 
Q 1794 4119 2266 4856 
L 2766 4856 
z
" transform="scale(0.015625)"/>
     <path id="DejaVuSansMono-29" d="M 1088 4856 
L 1588 4856 
Q 2059 4119 2290 3412 
Q 2522 2706 2522 2009 
Q 2522 1306 2290 600 
Q 2059 -106 1588 -844 
L 1088 -844 
Q 1503 -119 1708 590 
Q 1913 1300 1913 2009 
Q 1913 2722 1708 3431 
Q 1503 4141 1088 4856 
z
" transform="scale(0.015625)"/>
     <path id="DejaVuSansMono-44" d="M 1363 519 
Q 2159 519 2475 911 
Q 2791 1303 2791 2328 
Q 2791 3363 2477 3755 
Q 2163 4147 1363 4147 
L 1063 4147 
L 1063 519 
L 1363 519 
z
M 1375 4666 
Q 2444 4666 2950 4097 
Q 3456 3528 3456 2328 
Q 3456 1134 2950 567 
Q 2444 0 1375 0 
L 428 0 
L 428 4666 
L 1375 4666 
z
" transform="scale(0.015625)"/>
     <path id="DejaVuSansMono-47" d="M 3450 384 
Q 3197 150 2880 29 
Q 2563 -91 2194 -91 
Q 1306 -91 812 545 
Q 319 1181 319 2328 
Q 319 3472 819 4111 
Q 1319 4750 2209 4750 
Q 2503 4750 2772 4667 
Q 3041 4584 3291 4416 
L 3291 3769 
Q 3038 4009 2772 4123 
Q 2506 4238 2209 4238 
Q 1594 4238 1286 3761 
Q 978 3284 978 2328 
Q 978 1356 1276 889 
Q 1575 422 2194 422 
Q 2403 422 2561 470 
Q 2719 519 2847 622 
L 2847 1875 
L 2169 1875 
L 2169 2394 
L 3450 2394 
L 3450 384 
z
" transform="scale(0.015625)"/>
    </defs>
    <use xlink:href="#DejaVuSansMono-50"/>
    <use xlink:href="#DejaVuSansMono-65" transform="translate(60.205078 0)"/>
    <use xlink:href="#DejaVuSansMono-72" transform="translate(120.410156 0)"/>
    <use xlink:href="#DejaVuSansMono-66" transform="translate(180.615234 0)"/>
    <use xlink:href="#DejaVuSansMono-6f" transform="translate(240.820312 0)"/>
    <use xlink:href="#DejaVuSansMono-72" transform="translate(301.025391 0)"/>
    <use xlink:href="#DejaVuSansMono-6d" transform="translate(361.230469 0)"/>
    <use xlink:href="#DejaVuSansMono-61" transform="translate(421.435547 0)"/>
    <use xlink:href="#DejaVuSansMono-6e" transform="translate(481.640625 0)"/>
    <use xlink:href="#DejaVuSansMono-63" transform="translate(541.845703 0)"/>
    <use xlink:href="#DejaVuSansMono-65" transform="translate(602.050781 0)"/>
    <use xlink:href="#DejaVuSansMono-20" transform="translate(662.255859 0)"/>
    <use xlink:href="#DejaVuSansMono-28" transform="translate(722.460938 0)"/>
    <use xlink:href="#DejaVuSansMono-6f" transform="translate(782.666016 0)"/>
    <use xlink:href="#DejaVuSansMono-62" transform="translate(842.871094 0)"/>
    <use xlink:href="#DejaVuSansMono-73" transform="translate(903.076172 0)"/>
    <use xlink:href="#DejaVuSansMono-65" transform="translate(963.28125 0)"/>
    <use xlink:href="#DejaVuSansMono-72" transform="translate(1023.486328 0)"/>
    <use xlink:href="#DejaVuSansMono-76" transform="translate(1083.691406 0)"/>
    <use xlink:href="#DejaVuSansMono-65" transform="translate(1143.896484 0)"/>
    <use xlink:href="#DejaVuSansMono-64" transform="translate(1204.101562 0)"/>
    <use xlink:href="#DejaVuSansMono-20" transform="translate(1264.306641 0)"/>
    <use xlink:href="#DejaVuSansMono-76" transform="translate(1324.511719 0)"/>
    <use xlink:href="#DejaVuSansMono-73" transform="translate(1384.716797 0)"/>
    <use xlink:href="#DejaVuSansMono-20" transform="translate(1444.921875 0)"/>
    <use xlink:href="#DejaVuSansMono-70" transform="translate(1505.126953 0)"/>
    <use xlink:href="#DejaVuSansMono-72" transform="translate(1565.332031 0)"/>
    <use xlink:href="#DejaVuSansMono-65" transform="translate(1625.537109 0)"/>
    <use xlink:href="#DejaVuSansMono-64" transform="translate(1685.742188 0)"/>
    <use xlink:href="#DejaVuSansMono-69" transform="translate(1745.947266 0)"/>
    <use xlink:href="#DejaVuSansMono-63" transform="translate(1806.152344 0)"/>
    <use xlink:href="#DejaVuSansMono-74" transform="translate(1866.357422 0)"/>
    <use xlink:href="#DejaVuSansMono-65" transform="translate(1926.5625 0)"/>
    <use xlink:href="#DejaVuSansMono-64" transform="translate(1986.767578 0)"/>
    <use xlink:href="#DejaVuSansMono-29" transform="translate(2046.972656 0)"/>
    <use xlink:href="#DejaVuSansMono-20" transform="translate(2107.177734 0)"/>
    <use xlink:href="#DejaVuSansMono-66" transform="translate(2167.382812 0)"/>
    <use xlink:href="#DejaVuSansMono-6f" transform="translate(2227.587891 0)"/>
    <use xlink:href="#DejaVuSansMono-72" transform="translate(2287.792969 0)"/>
    <use xlink:href="#DejaVuSansMono-20" transform="translate(2347.998047 0)"/>
    <use xlink:href="#DejaVuSansMono-44" transform="translate(2408.203125 0)"/>
    <use xlink:href="#DejaVuSansMono-45" transform="translate(2468.408203 0)"/>
    <use xlink:href="#DejaVuSansMono-47" transform="translate(2528.613281 0)"/>
    <use xlink:href="#DejaVuSansMono-20" transform="translate(2588.818359 0)"/>
    <use xlink:href="#DejaVuSansMono-32" transform="translate(2649.023438 0)"/>
    <use xlink:href="#DejaVuSansMono-30" transform="translate(2709.228516 0)"/>
    <use xlink:href="#DejaVuSansMono-30" transform="translate(2769.433594 0)"/>
   </g>
  </g>
  <g id="legend_1">
   <g id="patch_105">
    <path d="M 18.781406 362.2 
L 693.979844 362.2 
Q 695.979844 362.2 695.979844 360.2 
L 695.979844 346.4 
Q 695.979844 344.4 693.979844 344.4 
L 18.781406 344.4 
Q 16.781406 344.4 16.781406 346.4 
L 16.781406 360.2 
Q 16.781406 362.2 18.781406 362.2 
z
" style="fill: #ffffff; opacity: 0.8; stroke: #cccccc; stroke-linejoin: miter"/>
   </g>
   <g id="patch_106">
    <path d="M 20.781406 356.051562 
L 40.781406 356.051562 
L 40.781406 349.051562 
L 20.781406 349.051562 
z
" style="fill: #176d9c"/>
   </g>
   <g id="text_26">
    <!-- baseline -->
    <g transform="translate(48.781406 356.051562) scale(0.1 -0.1)">
     <use xlink:href="#DejaVuSansMono-62"/>
     <use xlink:href="#DejaVuSansMono-61" transform="translate(60.205078 0)"/>
     <use xlink:href="#DejaVuSansMono-73" transform="translate(120.410156 0)"/>
     <use xlink:href="#DejaVuSansMono-65" transform="translate(180.615234 0)"/>
     <use xlink:href="#DejaVuSansMono-6c" transform="translate(240.820312 0)"/>
     <use xlink:href="#DejaVuSansMono-69" transform="translate(301.025391 0)"/>
     <use xlink:href="#DejaVuSansMono-6e" transform="translate(361.230469 0)"/>
     <use xlink:href="#DejaVuSansMono-65" transform="translate(421.435547 0)"/>
    </g>
   </g>
   <g id="patch_107">
    <path d="M 116.943906 356.051562 
L 136.943906 356.051562 
L 136.943906 349.051562 
L 116.943906 349.051562 
z
" style="fill: #c38820"/>
   </g>
   <g id="text_27">
    <!-- mintflow -->
    <g transform="translate(144.943906 356.051562) scale(0.1 -0.1)">
     <defs>
      <path id="DejaVuSansMono-77" d="M 0 3500 
L 569 3500 
L 1178 672 
L 1678 2478 
L 2169 2478 
L 2675 672 
L 3284 3500 
L 3853 3500 
L 3034 0 
L 2484 0 
L 1925 1919 
L 1369 0 
L 819 0 
L 0 3500 
z
" transform="scale(0.015625)"/>
     </defs>
     <use xlink:href="#DejaVuSansMono-6d"/>
     <use xlink:href="#DejaVuSansMono-69" transform="translate(60.205078 0)"/>
     <use xlink:href="#DejaVuSansMono-6e" transform="translate(120.410156 0)"/>
     <use xlink:href="#DejaVuSansMono-74" transform="translate(180.615234 0)"/>
     <use xlink:href="#DejaVuSansMono-66" transform="translate(240.820312 0)"/>
     <use xlink:href="#DejaVuSansMono-6c" transform="translate(301.025391 0)"/>
     <use xlink:href="#DejaVuSansMono-6f" transform="translate(361.230469 0)"/>
     <use xlink:href="#DejaVuSansMono-77" transform="translate(421.435547 0)"/>
    </g>
   </g>
   <g id="patch_108">
    <path d="M 213.106406 356.051562 
L 233.106406 356.051562 
L 233.106406 349.051562 
L 213.106406 349.051562 
z
" style="fill: #22723f"/>
   </g>
   <g id="text_28">
    <!-- cpa -->
    <g transform="translate(241.106406 356.051562) scale(0.1 -0.1)">
     <use xlink:href="#DejaVuSansMono-63"/>
     <use xlink:href="#DejaVuSansMono-70" transform="translate(60.205078 0)"/>
     <use xlink:href="#DejaVuSansMono-61" transform="translate(120.410156 0)"/>
    </g>
   </g>
   <g id="patch_109">
    <path d="M 279.167344 356.051562 
L 299.167344 356.051562 
L 299.167344 349.051562 
L 279.167344 349.051562 
z
" style="fill: #58a369"/>
   </g>
   <g id="text_29">
    <!-- scgen -->
    <g transform="translate(307.167344 356.051562) scale(0.1 -0.1)">
     <use xlink:href="#DejaVuSansMono-73"/>
     <use xlink:href="#DejaVuSansMono-63" transform="translate(60.205078 0)"/>
     <use xlink:href="#DejaVuSansMono-67" transform="translate(120.410156 0)"/>
     <use xlink:href="#DejaVuSansMono-65" transform="translate(180.615234 0)"/>
     <use xlink:href="#DejaVuSansMono-6e" transform="translate(240.820312 0)"/>
    </g>
   </g>
   <g id="patch_110">
    <path d="M 357.268906 356.051562 
L 377.268906 356.051562 
L 377.268906 349.051562 
L 357.268906 349.051562 
z
" style="fill: #eda791"/>
   </g>
   <g id="text_30">
    <!-- cellina-ablated -->
    <g transform="translate(385.268906 356.051562) scale(0.1 -0.1)">
     <defs>
      <path id="DejaVuSansMono-2d" d="M 1113 2009 
L 2741 2009 
L 2741 1497 
L 1113 1497 
L 1113 2009 
z
" transform="scale(0.015625)"/>
     </defs>
     <use xlink:href="#DejaVuSansMono-63"/>
     <use xlink:href="#DejaVuSansMono-65" transform="translate(60.205078 0)"/>
     <use xlink:href="#DejaVuSansMono-6c" transform="translate(120.410156 0)"/>
     <use xlink:href="#DejaVuSansMono-6c" transform="translate(180.615234 0)"/>
     <use xlink:href="#DejaVuSansMono-69" transform="translate(240.820312 0)"/>
     <use xlink:href="#DejaVuSansMono-6e" transform="translate(301.025391 0)"/>
     <use xlink:href="#DejaVuSansMono-61" transform="translate(361.230469 0)"/>
     <use xlink:href="#DejaVuSansMono-2d" transform="translate(421.435547 0)"/>
     <use xlink:href="#DejaVuSansMono-61" transform="translate(481.640625 0)"/>
     <use xlink:href="#DejaVuSansMono-62" transform="translate(541.845703 0)"/>
     <use xlink:href="#DejaVuSansMono-6c" transform="translate(602.050781 0)"/>
     <use xlink:href="#DejaVuSansMono-61" transform="translate(662.255859 0)"/>
     <use xlink:href="#DejaVuSansMono-74" transform="translate(722.460938 0)"/>
     <use xlink:href="#DejaVuSansMono-65" transform="translate(782.666016 0)"/>
     <use xlink:href="#DejaVuSansMono-64" transform="translate(842.871094 0)"/>
    </g>
   </g>
   <g id="patch_111">
    <path d="M 495.573594 356.051562 
L 515.573594 356.051562 
L 515.573594 349.051562 
L 495.573594 349.051562 
z
" style="fill: #cb453e"/>
   </g>
   <g id="text_31">
    <!-- cellina-graph -->
    <g transform="translate(523.573594 356.051562) scale(0.1 -0.1)">
     <use xlink:href="#DejaVuSansMono-63"/>
     <use xlink:href="#DejaVuSansMono-65" transform="translate(60.205078 0)"/>
     <use xlink:href="#DejaVuSansMono-6c" transform="translate(120.410156 0)"/>
     <use xlink:href="#DejaVuSansMono-6c" transform="translate(180.615234 0)"/>
     <use xlink:href="#DejaVuSansMono-69" transform="translate(240.820312 0)"/>
     <use xlink:href="#DejaVuSansMono-6e" transform="translate(301.025391 0)"/>
     <use xlink:href="#DejaVuSansMono-61" transform="translate(361.230469 0)"/>
     <use xlink:href="#DejaVuSansMono-2d" transform="translate(421.435547 0)"/>
     <use xlink:href="#DejaVuSansMono-67" transform="translate(481.640625 0)"/>
     <use xlink:href="#DejaVuSansMono-72" transform="translate(541.845703 0)"/>
     <use xlink:href="#DejaVuSansMono-61" transform="translate(602.050781 0)"/>
     <use xlink:href="#DejaVuSansMono-70" transform="translate(662.255859 0)"/>
     <use xlink:href="#DejaVuSansMono-68" transform="translate(722.460938 0)"/>
    </g>
   </g>
   <g id="patch_112">
    <path d="M 621.837656 356.051562 
L 641.837656 356.051562 
L 641.837656 349.051562 
L 621.837656 349.051562 
z
" style="fill: #9d262a"/>
   </g>
   <g id="text_32">
    <!-- cellina -->
    <g transform="translate(649.837656 356.051562) scale(0.1 -0.1)">
     <use xlink:href="#DejaVuSansMono-63"/>
     <use xlink:href="#DejaVuSansMono-65" transform="translate(60.205078 0)"/>
     <use xlink:href="#DejaVuSansMono-6c" transform="translate(120.410156 0)"/>
     <use xlink:href="#DejaVuSansMono-6c" transform="translate(180.615234 0)"/>
     <use xlink:href="#DejaVuSansMono-69" transform="translate(240.820312 0)"/>
     <use xlink:href="#DejaVuSansMono-6e" transform="translate(301.025391 0)"/>
     <use xlink:href="#DejaVuSansMono-61" transform="translate(361.230469 0)"/>
    </g>
   </g>
  </g>
 </g>
 <defs>
  <clipPath id="p315b9b05c8">
   <rect x="26.240625" y="52.08" width="324.74" height="199.92"/>
  </clipPath>
  <clipPath id="p3dfe93ae34">
   <rect x="380.840625" y="52.08" width="324.74" height="199.92"/>
  </clipPath>
 </defs>
</svg>
